<?xml version="1.0" encoding="utf-8"?>
<!-- Generator: Adobe Illustrator 24.1.2, SVG Export Plug-In . SVG Version: 6.00 Build 0)  -->
<svg version="1.1" id="Layer_1" xmlns="http://www.w3.org/2000/svg" xmlns:xlink="http://www.w3.org/1999/xlink" x="0px" y="0px"
	 viewBox="0 0 288 144" style="enable-background:new 0 0 288 144;" xml:space="preserve">
<style type="text/css">
	.st0{fill:#F7ECDA;stroke:#746350;stroke-width:6;stroke-miterlimit:10;}
	.st1{fill:#18181F;}
</style>
<rect class="st0" width="288" height="144"/>
<g>
	<path class="st1" d="M71.05,32.18c-1.09,1.12-2.66,1.68-4.72,1.68s-3.63-0.56-4.72-1.68c-1.46-1.37-2.19-3.35-2.19-5.94
		c0-2.64,0.73-4.62,2.19-5.94c1.09-1.12,2.66-1.68,4.72-1.68s3.63,0.56,4.72,1.68c1.45,1.32,2.18,3.3,2.18,5.94
		C73.23,28.83,72.5,30.81,71.05,32.18z M69.17,29.99c0.7-0.88,1.05-2.13,1.05-3.75c0-1.61-0.35-2.86-1.05-3.75s-1.65-1.32-2.84-1.32
		s-2.14,0.44-2.85,1.32s-1.06,2.13-1.06,3.75s0.35,2.87,1.06,3.75s1.66,1.32,2.85,1.32S68.47,30.87,69.17,29.99z"/>
	<path class="st1" d="M81.21,22.57c0.04,0,0.12,0.01,0.24,0.01v2.85c-0.18-0.02-0.33-0.03-0.47-0.04s-0.25-0.01-0.33-0.01
		c-1.12,0-1.87,0.36-2.26,1.09c-0.21,0.41-0.32,1.04-0.32,1.89v5.09h-2.8V22.82h2.66v1.86c0.43-0.71,0.8-1.19,1.12-1.46
		c0.52-0.44,1.2-0.65,2.03-0.65C81.13,22.56,81.18,22.56,81.21,22.57z"/>
	<path class="st1" d="M88.73,22.99c0.5,0.28,0.91,0.68,1.22,1.18v-5.08h2.82v14.38h-2.71v-1.47c-0.4,0.63-0.85,1.09-1.36,1.38
		s-1.14,0.43-1.89,0.43c-1.24,0-2.29-0.5-3.14-1.51s-1.27-2.3-1.27-3.87c0-1.82,0.42-3.25,1.25-4.29s1.95-1.56,3.35-1.56
		C87.65,22.56,88.23,22.7,88.73,22.99z M89.41,30.57c0.41-0.59,0.62-1.34,0.62-2.28c0-1.3-0.33-2.23-0.99-2.79
		c-0.4-0.34-0.87-0.51-1.41-0.51c-0.81,0-1.41,0.31-1.79,0.92s-0.57,1.38-0.57,2.29c0,0.98,0.19,1.77,0.58,2.36s0.98,0.88,1.76,0.88
		S89,31.16,89.41,30.57z"/>
	<path class="st1" d="M102.24,23.03c0.74,0.33,1.36,0.86,1.84,1.57c0.44,0.63,0.72,1.37,0.85,2.2c0.07,0.49,0.11,1.19,0.09,2.11
		h-7.75c0.04,1.07,0.41,1.82,1.11,2.25c0.42,0.27,0.94,0.4,1.53,0.4c0.63,0,1.15-0.16,1.55-0.49c0.22-0.18,0.41-0.42,0.57-0.73h2.84
		c-0.07,0.63-0.42,1.27-1.03,1.92c-0.95,1.04-2.29,1.55-4,1.55c-1.42,0-2.67-0.44-3.75-1.31c-1.08-0.87-1.62-2.29-1.62-4.26
		c0-1.84,0.49-3.26,1.47-4.24s2.25-1.48,3.81-1.48C100.66,22.53,101.49,22.7,102.24,23.03z M98.07,25.44
		c-0.39,0.41-0.64,0.95-0.74,1.65h4.79c-0.05-0.74-0.3-1.3-0.74-1.68c-0.44-0.38-0.99-0.57-1.65-0.57
		C99.02,24.83,98.46,25.03,98.07,25.44z"/>
	<path class="st1" d="M112.33,22.57c0.04,0,0.12,0.01,0.24,0.01v2.85c-0.18-0.02-0.33-0.03-0.47-0.04s-0.25-0.01-0.33-0.01
		c-1.12,0-1.87,0.36-2.26,1.09c-0.21,0.41-0.32,1.04-0.32,1.89v5.09h-2.8V22.82h2.66v1.86c0.43-0.71,0.8-1.19,1.12-1.46
		c0.52-0.44,1.2-0.65,2.03-0.65C112.26,22.56,112.3,22.56,112.33,22.57z"/>
	<path class="st1" d="M131.07,32.18c-1.09,1.12-2.66,1.68-4.72,1.68s-3.63-0.56-4.72-1.68c-1.46-1.37-2.19-3.35-2.19-5.94
		c0-2.64,0.73-4.62,2.19-5.94c1.09-1.12,2.66-1.68,4.72-1.68s3.63,0.56,4.72,1.68c1.45,1.32,2.18,3.3,2.18,5.94
		C133.25,28.83,132.52,30.81,131.07,32.18z M129.19,29.99c0.7-0.88,1.05-2.13,1.05-3.75c0-1.61-0.35-2.86-1.05-3.75
		s-1.65-1.32-2.84-1.32s-2.14,0.44-2.85,1.32s-1.06,2.13-1.06,3.75s0.35,2.87,1.06,3.75s1.66,1.32,2.85,1.32
		S128.49,30.87,129.19,29.99z"/>
	<path class="st1" d="M143.9,23.43c0.7,0.58,1.05,1.53,1.05,2.87v7.17h-2.85v-6.47c0-0.56-0.07-0.99-0.22-1.29
		c-0.27-0.55-0.79-0.82-1.55-0.82c-0.94,0-1.58,0.4-1.93,1.2c-0.18,0.42-0.27,0.96-0.27,1.62v5.76h-2.78V22.84h2.7v1.55
		c0.36-0.55,0.69-0.94,1.01-1.18c0.57-0.43,1.29-0.64,2.17-0.64C142.31,22.56,143.21,22.85,143.9,23.43z"/>
	<path class="st1" d="M150.38,33.46h-2.78V19.07h2.78V33.46z"/>
	<path class="st1" d="M155.95,21.55h-2.82v-2.57h2.82V21.55z M153.13,22.82h2.82v10.64h-2.82V22.82z"/>
	<path class="st1" d="M167.23,23.43c0.7,0.58,1.04,1.53,1.04,2.87v7.17h-2.85v-6.47c0-0.56-0.07-0.99-0.22-1.29
		c-0.27-0.55-0.79-0.82-1.55-0.82c-0.94,0-1.58,0.4-1.93,1.2c-0.18,0.42-0.27,0.96-0.27,1.62v5.76h-2.78V22.84h2.7v1.55
		c0.36-0.55,0.69-0.94,1.01-1.18c0.57-0.43,1.29-0.64,2.17-0.64C165.64,22.56,166.54,22.85,167.23,23.43z"/>
	<path class="st1" d="M177.8,23.03c0.74,0.33,1.36,0.86,1.84,1.57c0.44,0.63,0.72,1.37,0.85,2.2c0.08,0.49,0.11,1.19,0.09,2.11
		h-7.75c0.04,1.07,0.41,1.82,1.11,2.25c0.42,0.27,0.94,0.4,1.53,0.4c0.63,0,1.15-0.16,1.55-0.49c0.22-0.18,0.41-0.42,0.57-0.73h2.84
		c-0.08,0.63-0.42,1.27-1.03,1.92c-0.95,1.04-2.29,1.55-4,1.55c-1.42,0-2.67-0.44-3.75-1.31s-1.62-2.29-1.62-4.26
		c0-1.84,0.49-3.26,1.47-4.24c0.98-0.98,2.25-1.48,3.81-1.48C176.22,22.53,177.06,22.7,177.8,23.03z M173.64,25.44
		c-0.39,0.41-0.64,0.95-0.74,1.65h4.79c-0.05-0.74-0.3-1.3-0.74-1.68c-0.44-0.38-0.99-0.57-1.65-0.57
		C174.58,24.83,174.03,25.03,173.64,25.44z"/>
	<path class="st1" d="M189.73,19.07l1.9,8.24l0.41,2.29l0.42-2.25l1.63-8.29h3.17l1.71,8.24l0.44,2.3l0.44-2.21l1.92-8.33h3.06
		l-4.05,14.39h-2.88l-1.74-8.42l-0.51-2.78l-0.51,2.78l-1.74,8.42h-2.79l-4.08-14.39H189.73z"/>
	<path class="st1" d="M209.28,21.55h-2.82v-2.57h2.82V21.55z M206.46,22.82h2.82v10.64h-2.82V22.82z"/>
	<path class="st1" d="M210.88,24.9v-1.98h1.48v-2.97h2.75v2.97h1.73v1.98h-1.73v5.63c0,0.44,0.06,0.71,0.17,0.82
		s0.45,0.16,1.02,0.16c0.08,0,0.17,0,0.27,0s0.19-0.01,0.28-0.01v2.08l-1.32,0.05c-1.32,0.05-2.21-0.18-2.7-0.68
		c-0.31-0.32-0.47-0.81-0.47-1.47V24.9H210.88z"/>
	<path class="st1" d="M226.29,22.88c0.53,0.23,0.97,0.58,1.32,1.05c0.29,0.4,0.47,0.81,0.53,1.23c0.07,0.42,0.1,1.11,0.1,2.06v6.26
		h-2.84v-6.48c0-0.57-0.1-1.04-0.29-1.39c-0.25-0.5-0.73-0.74-1.43-0.74c-0.73,0-1.28,0.25-1.66,0.74
		c-0.38,0.49-0.57,1.19-0.57,2.11v5.77h-2.78V19.12h2.78v5.08c0.4-0.62,0.87-1.05,1.4-1.29s1.08-0.37,1.67-0.37
		C225.16,22.53,225.75,22.65,226.29,22.88z"/>
</g>
<g>
	<path class="st1" d="M31.35,66.52c-1.22,1.02-2.97,1.53-5.23,1.53h-4.35v7.51h-4.33V54.69h8.96c2.07,0,3.71,0.54,4.94,1.61
		c1.23,1.08,1.84,2.74,1.84,5C33.18,63.76,32.57,65.5,31.35,66.52z M28.02,59c-0.55-0.46-1.33-0.69-2.32-0.69h-3.93v6.15h3.93
		c1,0,1.77-0.25,2.32-0.75s0.83-1.29,0.83-2.38S28.57,59.47,28.02,59z"/>
	<path class="st1" d="M33.73,78.5c0.23,0.03,0.39,0.04,0.48,0.05s0.18,0.01,0.25,0.01c0.4,0,0.7-0.1,0.9-0.29
		c0.2-0.19,0.3-0.57,0.3-1.13V60.19h4.04v17.02c0,1.56-0.31,2.71-0.92,3.46c-0.61,0.75-1.82,1.12-3.61,1.12
		c-0.12,0-0.3-0.01-0.55-0.02c-0.24-0.01-0.54-0.03-0.9-0.04V78.5z M39.71,58.28h-4.04v-3.72h4.04V58.28z"/>
	<path class="st1" d="M42.73,61.23c0.98-0.29,1.65-0.79,2.02-1.49c0.2-0.42,0.28-0.84,0.25-1.26h-2.35v-3.72h4.16v2.99
		c0,1.43-0.36,2.55-1.07,3.37c-0.72,0.82-1.72,1.35-3.02,1.6V61.23z"/>
	<path class="st1" d="M52.99,70.63c0.09,0.72,0.27,1.23,0.55,1.53c0.5,0.54,1.43,0.81,2.79,0.81c0.8,0,1.43-0.12,1.9-0.35
		c0.47-0.24,0.7-0.59,0.7-1.06c0-0.45-0.19-0.8-0.57-1.03s-1.79-0.64-4.22-1.22c-1.75-0.43-2.99-0.98-3.71-1.63
		c-0.72-0.64-1.08-1.57-1.08-2.78c0-1.43,0.56-2.65,1.68-3.67c1.12-1.02,2.7-1.54,4.73-1.54c1.93,0,3.5,0.38,4.72,1.15
		c1.22,0.77,1.91,2.1,2.09,3.99h-4.04c-0.06-0.52-0.2-0.93-0.44-1.23c-0.45-0.55-1.2-0.82-2.27-0.82c-0.88,0-1.51,0.14-1.88,0.41
		c-0.37,0.27-0.56,0.59-0.56,0.96c0,0.46,0.2,0.8,0.6,1.01c0.4,0.22,1.8,0.59,4.21,1.12c1.61,0.38,2.81,0.95,3.62,1.71
		c0.79,0.77,1.19,1.74,1.19,2.9c0,1.53-0.57,2.78-1.71,3.75c-1.14,0.97-2.9,1.45-5.29,1.45c-2.43,0-4.23-0.51-5.38-1.54
		c-1.16-1.02-1.74-2.33-1.74-3.92H52.99z"/>
	<path class="st1" d="M86.64,66.52c-1.22,1.02-2.97,1.53-5.23,1.53h-4.35v7.51h-4.33V54.69h8.96c2.07,0,3.71,0.54,4.94,1.61
		c1.23,1.08,1.84,2.74,1.84,5C88.48,63.76,87.87,65.5,86.64,66.52z M83.31,59c-0.55-0.46-1.33-0.69-2.32-0.69h-3.93v6.15h3.93
		c1,0,1.77-0.25,2.32-0.75s0.83-1.29,0.83-2.38S83.87,59.47,83.31,59z"/>
	<path class="st1" d="M96.89,66.17c0.75-0.09,1.29-0.21,1.61-0.35c0.58-0.25,0.87-0.63,0.87-1.15c0-0.63-0.22-1.07-0.67-1.31
		c-0.44-0.24-1.1-0.36-1.96-0.36c-0.97,0-1.65,0.24-2.05,0.71c-0.29,0.35-0.48,0.82-0.57,1.42h-3.89c0.08-1.35,0.46-2.46,1.14-3.33
		c1.07-1.36,2.91-2.04,5.52-2.04c1.7,0,3.2,0.33,4.52,1.01s1.98,1.94,1.98,3.79v7.08c0,0.49,0.01,1.09,0.03,1.78
		c0.03,0.53,0.11,0.89,0.24,1.08c0.13,0.19,0.33,0.34,0.59,0.47v0.59h-4.39c-0.12-0.31-0.21-0.6-0.25-0.88
		c-0.05-0.27-0.08-0.59-0.11-0.93c-0.56,0.6-1.21,1.12-1.94,1.54c-0.87,0.5-1.86,0.75-2.96,0.75c-1.41,0-2.57-0.4-3.48-1.2
		c-0.92-0.8-1.37-1.93-1.37-3.39c0-1.9,0.74-3.27,2.21-4.12c0.81-0.46,2-0.79,3.57-0.99L96.89,66.17z M99.36,68.05
		c-0.26,0.16-0.52,0.29-0.78,0.39c-0.26,0.1-0.62,0.19-1.08,0.28l-0.92,0.17c-0.86,0.15-1.48,0.33-1.85,0.55
		c-0.64,0.37-0.95,0.94-0.95,1.71c0,0.69,0.19,1.19,0.58,1.49c0.39,0.31,0.86,0.46,1.42,0.46c0.88,0,1.69-0.25,2.44-0.76
		c0.74-0.51,1.13-1.44,1.16-2.79V68.05z"/>
	<path class="st1" d="M118.48,61.01c1.01,0.84,1.52,2.22,1.52,4.16v10.39h-4.13v-9.39c0-0.81-0.11-1.44-0.32-1.87
		c-0.39-0.79-1.14-1.19-2.25-1.19c-1.36,0-2.29,0.58-2.8,1.74c-0.26,0.61-0.39,1.4-0.39,2.35v8.35h-4.04V60.15h3.91v2.25
		c0.52-0.79,1.01-1.36,1.47-1.71c0.83-0.62,1.88-0.93,3.14-0.93C116.17,59.76,117.47,60.17,118.48,61.01z"/>
	<path class="st1" d="M132.11,65.66c-0.08-0.58-0.27-1.1-0.58-1.56c-0.45-0.62-1.16-0.93-2.11-0.93c-1.36,0-2.29,0.67-2.8,2.02
		c-0.27,0.72-0.4,1.67-0.4,2.85c0,1.13,0.13,2.04,0.4,2.73c0.48,1.28,1.39,1.93,2.73,1.93c0.95,0,1.62-0.25,2.02-0.76
		c0.4-0.51,0.64-1.17,0.72-1.98h4.12c-0.09,1.23-0.54,2.39-1.33,3.48c-1.27,1.76-3.14,2.65-5.63,2.65c-2.49,0-4.31-0.74-5.49-2.21
		c-1.17-1.47-1.76-3.38-1.76-5.73c0-2.65,0.65-4.71,1.94-6.18c1.29-1.47,3.08-2.21,5.36-2.21c1.94,0,3.52,0.43,4.76,1.3
		c1.23,0.87,1.96,2.4,2.19,4.6H132.11z"/>
	<path class="st1" d="M144.25,66.17c0.75-0.09,1.29-0.21,1.61-0.35c0.58-0.25,0.87-0.63,0.87-1.15c0-0.63-0.22-1.07-0.67-1.31
		c-0.44-0.24-1.1-0.36-1.96-0.36c-0.97,0-1.65,0.24-2.05,0.71c-0.29,0.35-0.48,0.82-0.57,1.42h-3.89c0.08-1.35,0.46-2.46,1.14-3.33
		c1.07-1.36,2.91-2.04,5.52-2.04c1.7,0,3.21,0.33,4.52,1.01c1.32,0.67,1.98,1.94,1.98,3.79v7.08c0,0.49,0.01,1.09,0.03,1.78
		c0.03,0.53,0.11,0.89,0.24,1.08c0.13,0.19,0.33,0.34,0.59,0.47v0.59h-4.39c-0.12-0.31-0.21-0.6-0.25-0.88
		c-0.05-0.27-0.08-0.59-0.11-0.93c-0.56,0.6-1.21,1.12-1.94,1.54c-0.87,0.5-1.86,0.75-2.96,0.75c-1.41,0-2.57-0.4-3.48-1.2
		c-0.92-0.8-1.37-1.93-1.37-3.39c0-1.9,0.74-3.27,2.21-4.12c0.81-0.46,2-0.79,3.57-0.99L144.25,66.17z M146.72,68.05
		c-0.26,0.16-0.52,0.29-0.78,0.39c-0.26,0.1-0.62,0.19-1.08,0.28l-0.92,0.17c-0.86,0.15-1.48,0.33-1.85,0.55
		c-0.64,0.37-0.95,0.94-0.95,1.71c0,0.69,0.19,1.19,0.58,1.49c0.39,0.31,0.86,0.46,1.42,0.46c0.88,0,1.69-0.25,2.44-0.76
		s1.13-1.44,1.16-2.79V68.05z"/>
	<path class="st1" d="M153.36,54.76h3.96v11.26l5.09-5.82h5.02l-5.53,5.75l5.75,9.61h-4.91l-3.74-6.59l-1.67,1.74v4.86h-3.96V54.76z
		"/>
	<path class="st1" d="M178.72,60.44c1.08,0.48,1.97,1.24,2.67,2.28c0.63,0.92,1.04,1.98,1.23,3.19c0.11,0.71,0.15,1.73,0.13,3.06
		H171.5c0.06,1.55,0.6,2.63,1.61,3.26c0.62,0.39,1.36,0.58,2.22,0.58c0.92,0,1.67-0.24,2.24-0.71c0.31-0.25,0.59-0.61,0.83-1.06
		h4.12c-0.11,0.92-0.61,1.85-1.5,2.79c-1.38,1.5-3.32,2.25-5.81,2.25c-2.05,0-3.87-0.63-5.44-1.9c-1.57-1.27-2.35-3.33-2.35-6.18
		c0-2.67,0.71-4.72,2.13-6.15c1.42-1.43,3.26-2.14,5.52-2.14C176.43,59.71,177.64,59.95,178.72,60.44z M172.68,63.92
		c-0.57,0.59-0.93,1.38-1.08,2.39h6.95c-0.07-1.07-0.43-1.88-1.08-2.44s-1.44-0.83-2.39-0.83
		C174.05,63.04,173.25,63.33,172.68,63.92z"/>
	<path class="st1" d="M191.4,75.56V54.69h4.33v7.96h8.11v-7.96h4.33v20.87h-4.33v-9.32h-8.11v9.32H191.4z"/>
	<path class="st1" d="M224.05,73.67c-1.3,1.61-3.28,2.41-5.93,2.41c-2.65,0-4.63-0.8-5.93-2.41c-1.3-1.61-1.95-3.54-1.95-5.81
		c0-2.23,0.65-4.15,1.95-5.79s3.28-2.45,5.93-2.45c2.65,0,4.63,0.82,5.93,2.45s1.95,3.56,1.95,5.79
		C226,70.13,225.35,72.06,224.05,73.67z M220.82,71.44c0.63-0.84,0.95-2.03,0.95-3.58c0-1.55-0.32-2.74-0.95-3.57
		s-1.54-1.25-2.72-1.25s-2.09,0.42-2.73,1.25c-0.64,0.83-0.96,2.02-0.96,3.57c0,1.55,0.32,2.74,0.96,3.58
		c0.64,0.84,1.55,1.26,2.73,1.26S220.19,72.28,220.82,71.44z"/>
	<path class="st1" d="M232.04,60.12v9.3c0,0.88,0.1,1.54,0.31,1.98c0.37,0.78,1.08,1.18,2.16,1.18c1.37,0,2.31-0.56,2.82-1.67
		c0.26-0.6,0.39-1.4,0.39-2.39v-8.4h4.09v15.44h-3.92v-2.18c-0.04,0.05-0.13,0.19-0.28,0.42c-0.15,0.24-0.33,0.44-0.54,0.62
		c-0.63,0.57-1.24,0.95-1.83,1.16c-0.59,0.21-1.28,0.31-2.07,0.31c-2.28,0-3.81-0.82-4.6-2.46c-0.44-0.91-0.66-2.24-0.66-4.01v-9.3
		H232.04z"/>
	<path class="st1" d="M248,70.63c0.08,0.72,0.27,1.23,0.55,1.53c0.5,0.54,1.43,0.81,2.79,0.81c0.8,0,1.43-0.12,1.9-0.35
		s0.7-0.59,0.7-1.06c0-0.45-0.19-0.8-0.57-1.03s-1.79-0.64-4.22-1.22c-1.75-0.43-2.99-0.98-3.71-1.63
		c-0.72-0.64-1.08-1.57-1.08-2.78c0-1.43,0.56-2.65,1.68-3.67c1.12-1.02,2.7-1.54,4.73-1.54c1.93,0,3.5,0.38,4.72,1.15
		c1.22,0.77,1.91,2.1,2.09,3.99h-4.04c-0.06-0.52-0.2-0.93-0.44-1.23c-0.45-0.55-1.2-0.82-2.27-0.82c-0.88,0-1.51,0.14-1.88,0.41
		s-0.56,0.59-0.56,0.96c0,0.46,0.2,0.8,0.6,1.01c0.4,0.22,1.8,0.59,4.21,1.12c1.61,0.38,2.81,0.95,3.62,1.71
		c0.79,0.77,1.19,1.74,1.19,2.9c0,1.53-0.57,2.78-1.71,3.75s-2.9,1.45-5.29,1.45c-2.43,0-4.23-0.51-5.38-1.54
		c-1.16-1.02-1.74-2.33-1.74-3.92H248z"/>
	<path class="st1" d="M270.18,60.44c1.08,0.48,1.97,1.24,2.67,2.28c0.63,0.92,1.04,1.98,1.23,3.19c0.11,0.71,0.15,1.73,0.13,3.06
		h-11.24c0.06,1.55,0.6,2.63,1.61,3.26c0.62,0.39,1.36,0.58,2.22,0.58c0.92,0,1.67-0.24,2.24-0.71c0.31-0.25,0.59-0.61,0.83-1.06
		H274c-0.11,0.92-0.61,1.85-1.5,2.79c-1.38,1.5-3.32,2.25-5.81,2.25c-2.05,0-3.87-0.63-5.44-1.9c-1.57-1.27-2.35-3.33-2.35-6.18
		c0-2.67,0.71-4.72,2.13-6.15c1.42-1.43,3.26-2.14,5.52-2.14C267.9,59.71,269.11,59.95,270.18,60.44z M264.15,63.92
		c-0.57,0.59-0.93,1.38-1.08,2.39h6.95c-0.07-1.07-0.43-1.88-1.08-2.44s-1.44-0.83-2.39-0.83
		C265.52,63.04,264.72,63.33,264.15,63.92z"/>
</g>
<g>
	<g>
		<path class="st1" d="M65.95,109.37c-0.06,4.83-1.5,8.6-4.11,11.95c-3.55,4.56-8.15,7.8-13.24,10.39c-0.87,0.44-1.8,0.52-2.68,0.08
			c-5.64-2.82-10.7-6.39-14.29-11.67c-7.53-11.04-1.3-26.16,11.81-28.8c10.23-2.06,20.12,4.52,22.14,14.75
			C65.82,107.33,65.87,108.63,65.95,109.37z M48.92,108.89c0.48-0.44,0.93-0.85,1.37-1.27c1.51-1.39,3.02-2.77,4.51-4.17
			c0.6-0.56,0.69-1.37,0.31-1.99c-0.37-0.61-1.17-0.93-1.84-0.65c-0.34,0.14-0.65,0.42-0.91,0.7c-2.48,2.66-4.95,5.32-7.4,8.01
			c-0.76,0.84-1.63,1.27-2.77,1.21c-0.41-0.02-0.84,0-1.23,0.1c-2.49,0.62-4.58,3.62-4.37,6.22c0.12,1.49,0.83,2.29,2.32,2.42
			c1.89,0.17,3.47-0.61,4.84-1.84c1.09-0.97,1.72-2.19,1.62-3.68c-0.1-1.53,0.59-2.6,1.83-3.39c1.1,0.8,1.87,1.69,1.78,3.2
			c-0.09,1.44,0.55,2.72,1.72,3.54c1.18,0.83,2.51,1.48,3.79,2.17c0.16,0.09,0.42-0.02,0.64-0.04c-0.09-0.18-0.14-0.39-0.26-0.54
			c-0.15-0.19-0.35-0.33-0.54-0.49c-1.1-0.97-2.21-1.92-3.27-2.93c-0.17-0.16-0.12-0.54-0.17-0.82c0.31-0.01,0.61-0.05,0.91-0.01
			c0.12,0.01,0.22,0.18,0.33,0.28c1.2,1.07,2.39,2.16,3.61,3.2c0.2,0.17,0.58,0.12,0.88,0.17c-0.04-0.3,0-0.65-0.14-0.88
			c-0.24-0.39-0.6-0.7-0.9-1.05c-0.85-0.94-1.72-1.86-2.52-2.84c-0.17-0.2-0.06-0.63-0.07-0.95c0.3,0.06,0.63,0.05,0.88,0.19
			c0.24,0.13,0.4,0.42,0.59,0.64c0.89,1,1.77,2.02,2.68,3c0.17,0.18,0.47,0.25,0.7,0.37c-0.02-0.27,0.05-0.58-0.06-0.8
			c-0.56-1.08-1.09-2.18-1.76-3.19c-0.9-1.35-2.22-2.19-3.87-2.12C50.66,110.71,49.73,110.05,48.92,108.89z M45.78,105.55
			c-1.45-1.54-2.84-3.08-4.3-4.53c-0.54-0.54-1.52-0.36-2.05,0.21c-0.56,0.62-0.61,1.51,0.02,2.11c1.45,1.4,2.95,2.75,4.5,4.19
			C44.57,106.86,45.14,106.24,45.78,105.55z"/>
		<path class="st1" d="M157.2,113.45c0-4.03,0-8.06,0-12.12c1.33,0,2.59,0,3.88,0c0,6.71,0,13.38,0,20.13
			c-0.99,0-1.96,0.05-2.92-0.03c-0.28-0.02-0.6-0.38-0.79-0.65c-2.47-3.63-4.92-7.27-7.37-10.91c-0.14-0.21-0.3-0.42-0.57-0.78
			c0,4.21,0,8.24,0,12.33c-1.33,0-2.58,0-3.9,0c0-6.67,0-13.35,0-20.11c0.99,0,1.96-0.06,2.92,0.03c0.3,0.03,0.64,0.41,0.85,0.71
			c2.44,3.59,4.86,7.19,7.29,10.78c0.15,0.22,0.3,0.44,0.45,0.66C157.09,113.48,157.14,113.47,157.2,113.45z"/>
		<path class="st1" d="M133.06,112.67c-0.29,0.77-0.53,1.4-0.75,2.04c-0.72,2.02-1.46,4.03-2.16,6.05c-0.18,0.52-0.45,0.73-1,0.73
			c-1.9,0.01-1.9,0.03-2.6-1.74c-1.63-4.14-3.26-8.29-4.89-12.43c-0.09-0.22-0.16-0.46-0.27-0.78c1.34,0,2.61-0.03,3.88,0.03
			c0.19,0.01,0.43,0.42,0.54,0.69c0.9,2.31,1.77,4.64,2.65,6.96c0.08,0.2,0.16,0.4,0.29,0.72c0.12-0.3,0.22-0.49,0.28-0.68
			c0.66-2.01,1.34-4.02,1.93-6.05c0.14-0.49-0.03-1.07-0.07-1.68c1.06,0,2.2-0.04,3.33,0.03c0.24,0.02,0.55,0.44,0.65,0.73
			c0.77,2.31,1.5,4.63,2.24,6.95c0.07,0.2,0.14,0.4,0.26,0.75c0.34-0.89,0.64-1.66,0.93-2.42c0.67-1.78,1.35-3.55,1.99-5.34
			c0.2-0.55,0.5-0.76,1.08-0.74c1.09,0.03,2.19,0.01,3.39,0.01c-0.56,1.44-1.09,2.79-1.62,4.14c-1.33,3.4-2.68,6.79-3.99,10.2
			c-0.19,0.49-0.43,0.67-0.95,0.65c-2.43-0.07-1.8,0.37-2.65-1.9c-0.77-2.08-1.49-4.17-2.23-6.26
			C133.25,113.15,133.18,112.98,133.06,112.67z"/>
		<path class="st1" d="M187.44,112.85c-0.37,1.02-0.74,2.04-1.11,3.06c-0.59,1.63-1.18,3.25-1.74,4.88
			c-0.17,0.5-0.44,0.68-0.95,0.69c-1.94,0.03-1.94,0.04-2.66-1.78c-1.62-4.12-3.24-8.24-4.86-12.37c-0.1-0.25-0.17-0.5-0.28-0.83
			c1.31,0,2.55-0.03,3.78,0.03c0.23,0.01,0.52,0.4,0.63,0.68c0.91,2.33,1.79,4.68,2.68,7.03c0.07,0.2,0.16,0.39,0.29,0.7
			c0.13-0.35,0.24-0.59,0.32-0.84c0.55-1.69,1.09-3.38,1.64-5.07c0.37-1.16,0.37-1.16,0.08-2.52c1.15,0,2.29-0.04,3.42,0.03
			c0.24,0.02,0.56,0.43,0.65,0.73c0.78,2.33,1.51,4.68,2.26,7.02c0.06,0.18,0.13,0.36,0.24,0.68c0.15-0.37,0.26-0.62,0.36-0.88
			c0.85-2.26,1.71-4.51,2.52-6.77c0.23-0.63,0.57-0.87,1.24-0.84c1.04,0.05,2.09,0.01,3.23,0.01c-0.11,0.34-0.19,0.61-0.29,0.87
			c-1.75,4.46-3.52,8.92-5.24,13.39c-0.23,0.58-0.52,0.75-1.12,0.74c-2.26-0.07-1.71,0.3-2.47-1.75c-0.84-2.28-1.63-4.58-2.44-6.87
			C187.55,112.86,187.49,112.86,187.44,112.85z"/>
		<path class="st1" d="M92.28,118.45c-2.81,3.4-9.13,4.84-13.68,0.79c-4.43-3.94-4.52-10.84-0.2-14.87
			c4.07-3.81,10.46-3.41,13.88,0.91c-0.6,0.74-1.2,1.5-1.82,2.24c-0.38,0.46-0.76,0.3-1.22,0.02c-0.97-0.58-1.94-1.31-3.01-1.57
			c-3.71-0.89-7.21,2.14-7.02,5.97c0.12,2.37,1.25,4.14,3.39,5.16c2.22,1.06,4.32,0.6,6.27-0.77c0.16-0.11,0.3-0.25,0.46-0.37
			c0.42-0.32,0.82-0.31,1.15,0.11C91.1,116.86,91.69,117.66,92.28,118.45z"/>
		<path class="st1" d="M106.5,121.44c-1.29,0-2.53,0-3.89,0c0-0.28,0-0.54,0-0.79c0-2.63,0.03-5.27-0.02-7.9
			c-0.03-1.89-1.95-3.11-3.63-2.35c-1.09,0.49-1.58,1.4-1.57,2.58c0,2.54,0,5.07,0,7.61c0,0.26,0,0.52,0,0.83c-1.36,0-2.64,0-3.98,0
			c0-6.5,0-13,0-19.57c0.98-0.15,1.96-0.31,2.94-0.44c0.66-0.09,0.86,0.31,0.87,0.88c0.03,1.49,0.06,2.97,0.1,4.46
			c0.01,0.24,0.03,0.48,0.06,0.82c0.26-0.15,0.46-0.26,0.66-0.38c3.45-2.12,8.09-0.02,8.41,4.01
			C106.71,114.58,106.5,117.98,106.5,121.44z"/>
		<path class="st1" d="M162,113.93c0.01-4.29,3.4-7.71,7.61-7.7c4.19,0.01,7.6,3.5,7.59,7.75c-0.02,4.24-3.48,7.74-7.64,7.73
			C165.38,121.69,161.99,118.2,162,113.93z M173.31,113.97c0-2.15-1.65-3.9-3.7-3.92c-2.05-0.02-3.72,1.73-3.72,3.89
			c0,2.18,1.63,3.9,3.69,3.9C171.66,117.85,173.31,116.13,173.31,113.97z"/>
		<path class="st1" d="M122.64,113.98c-0.01,4.27-3.44,7.75-7.61,7.73c-4.16-0.02-7.61-3.55-7.59-7.78c0.02-4.26,3.44-7.71,7.64-7.7
			C119.29,106.23,122.66,109.69,122.64,113.98z M115.03,117.85c2.06,0.01,3.74-1.71,3.77-3.86c0.03-2.11-1.66-3.9-3.7-3.94
			c-2.03-0.04-3.74,1.73-3.76,3.87C111.33,116.09,112.98,117.84,115.03,117.85z"/>
	</g>
	<g>
		<path class="st1" d="M213.43,99.14h4.59l6.88,19.43h-4.4l-1.28-3.99h-7.16l-1.32,3.99h-4.25L213.43,99.14z M213.16,111.23h4.98
			l-2.45-7.65L213.16,111.23z"/>
		<path class="st1" d="M239.15,105.74c1.17,1.24,1.76,3.06,1.76,5.46c0,2.53-0.57,4.46-1.72,5.79s-2.62,1.99-4.42,1.99
			c-1.15,0-2.11-0.29-2.87-0.86c-0.42-0.32-0.82-0.78-1.22-1.38v7.49h-3.72V104.2h3.6v2.12c0.41-0.62,0.84-1.12,1.3-1.48
			c0.84-0.64,1.84-0.96,3-0.96C236.55,103.89,237.98,104.51,239.15,105.74z M236.26,108.45c-0.51-0.85-1.34-1.28-2.48-1.28
			c-1.38,0-2.32,0.65-2.84,1.94c-0.27,0.69-0.4,1.56-0.4,2.61c0,1.67,0.45,2.84,1.34,3.52c0.53,0.4,1.16,0.59,1.89,0.59
			c1.06,0,1.86-0.4,2.42-1.21c0.55-0.81,0.83-1.88,0.83-3.23C237.03,110.28,236.78,109.3,236.26,108.45z"/>
		<path class="st1" d="M255.64,105.74c1.17,1.24,1.76,3.06,1.76,5.46c0,2.53-0.57,4.46-1.72,5.79s-2.62,1.99-4.42,1.99
			c-1.15,0-2.11-0.29-2.87-0.86c-0.42-0.32-0.82-0.78-1.22-1.38v7.49h-3.72V104.2h3.6v2.12c0.41-0.62,0.84-1.12,1.3-1.48
			c0.84-0.64,1.84-0.96,3-0.96C253.04,103.89,254.47,104.51,255.64,105.74z M252.76,108.45c-0.51-0.85-1.34-1.28-2.48-1.28
			c-1.38,0-2.32,0.65-2.84,1.94c-0.27,0.69-0.4,1.56-0.4,2.61c0,1.67,0.45,2.84,1.34,3.52c0.53,0.4,1.16,0.59,1.89,0.59
			c1.06,0,1.86-0.4,2.42-1.21c0.55-0.81,0.83-1.88,0.83-3.23C253.52,110.28,253.27,109.3,252.76,108.45z"/>
	</g>
</g>
</svg>
