<?xml version="1.0" encoding="utf-8"?>
<!-- Generator: Adobe Illustrator 24.1.2, SVG Export Plug-In . SVG Version: 6.00 Build 0)  -->
<svg version="1.1" id="Layer_1" xmlns="http://www.w3.org/2000/svg" xmlns:xlink="http://www.w3.org/1999/xlink" x="0px" y="0px"
	 viewBox="0 0 288 144" style="enable-background:new 0 0 288 144;" xml:space="preserve">
<style type="text/css">
	.st0{fill:#F7ECDA;stroke:#746350;stroke-width:6;stroke-miterlimit:10;}
	.st1{fill:#18181F;}
	.st2{fill:#19181F;}
</style>
<rect class="st0" width="288" height="144"/>
<g>
	<path class="st1" d="M109.41,117.75h10.26v2.53h-7.28v3.31h6.38v2.5h-6.38v6.04h-2.99V117.75z"/>
	<path class="st1" d="M130.28,130.83c-0.9,1.11-2.26,1.66-4.09,1.66s-3.19-0.55-4.09-1.66c-0.9-1.11-1.35-2.44-1.35-4.01
		c0-1.54,0.45-2.87,1.35-3.99c0.9-1.13,2.26-1.69,4.09-1.69s3.19,0.56,4.09,1.69c0.9,1.13,1.35,2.46,1.35,3.99
		C131.63,128.38,131.18,129.72,130.28,130.83z M128.05,129.29c0.44-0.58,0.65-1.4,0.65-2.47c0-1.07-0.22-1.89-0.65-2.46
		s-1.06-0.86-1.88-0.86s-1.44,0.29-1.88,0.86s-0.66,1.4-0.66,2.46c0,1.07,0.22,1.89,0.66,2.47c0.44,0.58,1.07,0.87,1.88,0.87
		S127.62,129.87,128.05,129.29z"/>
	<path class="st1" d="M139.53,121.23c0.04,0,0.12,0.01,0.24,0.01v2.85c-0.18-0.02-0.33-0.03-0.47-0.04
		c-0.14-0.01-0.25-0.01-0.33-0.01c-1.12,0-1.87,0.37-2.26,1.09c-0.21,0.41-0.32,1.04-0.32,1.89v5.09h-2.8v-10.64h2.66v1.86
		c0.43-0.71,0.8-1.19,1.12-1.46c0.52-0.44,1.2-0.65,2.03-0.65C139.45,121.23,139.5,121.23,139.53,121.23z"/>
	<path class="st1" d="M149.82,120.21H147v-2.57h2.82V120.21z M147,121.48h2.82v10.64H147V121.48z"/>
	<path class="st1" d="M163.82,130.85c-1.09,1.12-2.66,1.68-4.72,1.68s-3.63-0.56-4.72-1.68c-1.46-1.37-2.19-3.35-2.19-5.94
		c0-2.64,0.73-4.62,2.19-5.94c1.09-1.12,2.66-1.68,4.72-1.68s3.63,0.56,4.72,1.68c1.45,1.32,2.18,3.3,2.18,5.94
		C166,127.5,165.28,129.47,163.82,130.85z M161.94,128.66c0.7-0.88,1.05-2.13,1.05-3.75c0-1.61-0.35-2.86-1.05-3.75
		c-0.7-0.88-1.65-1.32-2.84-1.32s-2.14,0.44-2.85,1.32s-1.06,2.13-1.06,3.75s0.35,2.87,1.06,3.75s1.66,1.32,2.85,1.32
		S161.24,129.54,161.94,128.66z"/>
	<path class="st1" d="M170.46,127.68c0.09,0.66,0.28,1.15,0.55,1.47c0.5,0.59,1.35,0.89,2.56,0.89c0.72,0,1.31-0.08,1.76-0.23
		c0.86-0.3,1.29-0.86,1.29-1.67c0-0.47-0.21-0.84-0.63-1.1c-0.42-0.25-1.09-0.48-2-0.67l-1.56-0.34c-1.53-0.34-2.58-0.71-3.16-1.1
		c-0.97-0.66-1.46-1.7-1.46-3.12c0-1.29,0.47-2.36,1.42-3.21c0.95-0.85,2.34-1.28,4.18-1.28c1.54,0,2.84,0.4,3.93,1.21
		c1.08,0.8,1.65,1.97,1.71,3.5h-2.89c-0.05-0.87-0.44-1.48-1.16-1.85c-0.48-0.24-1.08-0.36-1.79-0.36c-0.79,0-1.43,0.16-1.9,0.47
		c-0.47,0.31-0.71,0.75-0.71,1.31c0,0.51,0.23,0.9,0.7,1.15c0.3,0.17,0.94,0.37,1.91,0.6l2.53,0.6c1.11,0.26,1.94,0.61,2.49,1.04
		c0.86,0.68,1.29,1.66,1.29,2.94c0,1.32-0.51,2.41-1.53,3.28s-2.45,1.3-4.31,1.3c-1.89,0-3.38-0.43-4.47-1.28
		c-1.09-0.86-1.63-2.03-1.63-3.53H170.46z"/>
</g>
<g>
	<path class="st1" d="M30.6,26.86c-1.22,1.02-2.97,1.53-5.23,1.53h-4.35v7.5h-4.33V15.02h8.96c2.07,0,3.71,0.54,4.94,1.61
		c1.23,1.08,1.84,2.74,1.84,5C32.44,24.1,31.82,25.84,30.6,26.86z M27.27,19.34c-0.55-0.46-1.33-0.69-2.32-0.69h-3.93v6.15h3.93
		c1,0,1.77-0.25,2.32-0.75s0.83-1.29,0.83-2.38S27.83,19.8,27.27,19.34z"/>
	<path class="st1" d="M32.98,38.84c0.23,0.03,0.39,0.04,0.48,0.05c0.09,0.01,0.18,0.01,0.25,0.01c0.4,0,0.7-0.1,0.9-0.29
		c0.2-0.19,0.3-0.57,0.3-1.13V20.53h4.04v17.02c0,1.56-0.31,2.71-0.92,3.46s-1.82,1.12-3.61,1.12c-0.12,0-0.3-0.01-0.55-0.02
		c-0.24-0.01-0.54-0.03-0.9-0.04V38.84z M38.96,18.62h-4.04v-3.72h4.04V18.62z"/>
	<path class="st1" d="M41.98,21.56c0.98-0.29,1.65-0.79,2.02-1.49c0.2-0.42,0.28-0.84,0.25-1.26h-2.35v-3.72h4.16v2.99
		c0,1.43-0.36,2.55-1.07,3.37c-0.72,0.82-1.72,1.35-3.02,1.6V21.56z"/>
	<path class="st1" d="M52.24,30.96c0.09,0.72,0.27,1.23,0.55,1.53c0.5,0.54,1.43,0.81,2.79,0.81c0.8,0,1.43-0.12,1.9-0.35
		c0.47-0.24,0.7-0.59,0.7-1.06c0-0.45-0.19-0.8-0.57-1.03s-1.79-0.64-4.22-1.22c-1.75-0.43-2.99-0.98-3.71-1.63
		c-0.72-0.64-1.08-1.57-1.08-2.78c0-1.43,0.56-2.65,1.68-3.67c1.12-1.02,2.7-1.54,4.73-1.54c1.93,0,3.5,0.38,4.72,1.15
		c1.22,0.77,1.91,2.1,2.09,3.99h-4.04c-0.06-0.52-0.2-0.93-0.44-1.23c-0.45-0.55-1.2-0.82-2.27-0.82c-0.88,0-1.51,0.14-1.88,0.41
		c-0.37,0.27-0.56,0.59-0.56,0.96c0,0.46,0.2,0.8,0.6,1.01c0.4,0.22,1.8,0.59,4.21,1.12c1.61,0.38,2.81,0.95,3.62,1.71
		c0.79,0.77,1.19,1.74,1.19,2.9c0,1.53-0.57,2.78-1.71,3.75c-1.14,0.97-2.9,1.45-5.29,1.45c-2.43,0-4.23-0.51-5.38-1.54
		c-1.16-1.02-1.74-2.33-1.74-3.92H52.24z"/>
	<path class="st1" d="M85.9,26.86c-1.22,1.02-2.97,1.53-5.23,1.53h-4.35v7.5h-4.33V15.02h8.96c2.07,0,3.71,0.54,4.94,1.61
		c1.23,1.08,1.84,2.74,1.84,5C87.73,24.1,87.12,25.84,85.9,26.86z M82.57,19.34c-0.55-0.46-1.33-0.69-2.32-0.69h-3.93v6.15h3.93
		c1,0,1.77-0.25,2.32-0.75s0.83-1.29,0.83-2.38S83.12,19.8,82.57,19.34z"/>
	<path class="st1" d="M96.14,26.5c0.75-0.09,1.29-0.21,1.61-0.35c0.58-0.25,0.87-0.63,0.87-1.15c0-0.63-0.22-1.07-0.67-1.31
		c-0.44-0.24-1.1-0.36-1.96-0.36c-0.97,0-1.65,0.24-2.05,0.71c-0.29,0.35-0.48,0.82-0.57,1.42h-3.89c0.08-1.35,0.46-2.46,1.14-3.33
		c1.07-1.36,2.91-2.04,5.52-2.04c1.7,0,3.2,0.33,4.52,1.01s1.98,1.94,1.98,3.79v7.08c0,0.49,0.01,1.09,0.03,1.78
		c0.03,0.53,0.11,0.89,0.24,1.08s0.33,0.34,0.59,0.47v0.59h-4.39c-0.12-0.31-0.21-0.6-0.25-0.88s-0.08-0.59-0.11-0.93
		c-0.56,0.6-1.21,1.12-1.94,1.54c-0.87,0.5-1.86,0.75-2.96,0.75c-1.41,0-2.57-0.4-3.48-1.2c-0.92-0.8-1.37-1.93-1.37-3.39
		c0-1.9,0.74-3.27,2.21-4.12c0.81-0.46,2-0.79,3.57-0.99L96.14,26.5z M98.61,28.39c-0.26,0.16-0.52,0.29-0.78,0.39
		c-0.26,0.1-0.62,0.19-1.08,0.28l-0.92,0.17c-0.86,0.15-1.48,0.33-1.85,0.55c-0.64,0.37-0.95,0.94-0.95,1.71
		c0,0.69,0.19,1.19,0.58,1.49c0.39,0.31,0.86,0.46,1.42,0.46c0.88,0,1.69-0.25,2.44-0.76c0.74-0.51,1.13-1.44,1.16-2.79V28.39z"/>
	<path class="st1" d="M117.73,21.34c1.01,0.84,1.52,2.22,1.52,4.16v10.39h-4.13V26.5c0-0.81-0.11-1.44-0.32-1.87
		c-0.39-0.79-1.14-1.19-2.25-1.19c-1.36,0-2.29,0.58-2.8,1.74c-0.26,0.61-0.39,1.4-0.39,2.35v8.35h-4.04V20.49h3.91v2.25
		c0.52-0.79,1.01-1.36,1.47-1.71c0.83-0.62,1.88-0.93,3.14-0.93C115.42,20.09,116.72,20.51,117.73,21.34z"/>
	<path class="st1" d="M131.37,25.99c-0.08-0.58-0.27-1.1-0.58-1.56c-0.45-0.62-1.16-0.93-2.11-0.93c-1.36,0-2.29,0.67-2.8,2.02
		c-0.27,0.72-0.4,1.67-0.4,2.85c0,1.13,0.13,2.04,0.4,2.73c0.48,1.28,1.39,1.93,2.73,1.93c0.95,0,1.62-0.25,2.02-0.76
		c0.4-0.51,0.64-1.17,0.72-1.98h4.12c-0.09,1.23-0.54,2.39-1.33,3.48c-1.27,1.77-3.14,2.65-5.63,2.65c-2.49,0-4.31-0.74-5.49-2.21
		c-1.17-1.47-1.76-3.38-1.76-5.73c0-2.65,0.65-4.71,1.94-6.18c1.29-1.47,3.08-2.21,5.36-2.21c1.94,0,3.52,0.43,4.76,1.3
		c1.23,0.87,1.96,2.4,2.19,4.6H131.37z"/>
	<path class="st1" d="M143.5,26.5c0.75-0.09,1.29-0.21,1.61-0.35c0.58-0.25,0.87-0.63,0.87-1.15c0-0.63-0.22-1.07-0.67-1.31
		c-0.44-0.24-1.1-0.36-1.96-0.36c-0.97,0-1.65,0.24-2.05,0.71c-0.29,0.35-0.48,0.82-0.57,1.42h-3.89c0.08-1.35,0.46-2.46,1.14-3.33
		c1.07-1.36,2.91-2.04,5.52-2.04c1.7,0,3.2,0.33,4.52,1.01c1.32,0.67,1.98,1.94,1.98,3.79v7.08c0,0.49,0.01,1.09,0.03,1.78
		c0.03,0.53,0.11,0.89,0.24,1.08s0.33,0.34,0.59,0.47v0.59h-4.39c-0.12-0.31-0.21-0.6-0.25-0.88s-0.08-0.59-0.11-0.93
		c-0.56,0.6-1.21,1.12-1.94,1.54c-0.87,0.5-1.86,0.75-2.96,0.75c-1.41,0-2.57-0.4-3.48-1.2c-0.92-0.8-1.37-1.93-1.37-3.39
		c0-1.9,0.74-3.27,2.21-4.12c0.81-0.46,2-0.79,3.57-0.99L143.5,26.5z M145.97,28.39c-0.26,0.16-0.52,0.29-0.78,0.39
		c-0.26,0.1-0.62,0.19-1.08,0.28l-0.92,0.17c-0.86,0.15-1.48,0.33-1.85,0.55c-0.64,0.37-0.95,0.94-0.95,1.71
		c0,0.69,0.19,1.19,0.58,1.49c0.39,0.31,0.86,0.46,1.42,0.46c0.88,0,1.69-0.25,2.44-0.76c0.74-0.51,1.13-1.44,1.16-2.79V28.39z"/>
	<path class="st1" d="M152.61,15.09h3.96v11.26l5.09-5.82h5.02l-5.53,5.75l5.75,9.61h-4.91l-3.74-6.59l-1.67,1.74v4.86h-3.96V15.09z
		"/>
	<path class="st1" d="M177.97,20.77c1.08,0.48,1.97,1.24,2.67,2.28c0.63,0.92,1.04,1.98,1.23,3.19c0.11,0.71,0.15,1.73,0.13,3.06
		h-11.24c0.06,1.55,0.6,2.63,1.61,3.26c0.62,0.39,1.36,0.58,2.22,0.58c0.92,0,1.67-0.24,2.24-0.71c0.31-0.25,0.59-0.61,0.83-1.06
		h4.12c-0.11,0.92-0.61,1.85-1.5,2.79c-1.38,1.5-3.32,2.25-5.81,2.25c-2.05,0-3.87-0.63-5.44-1.9s-2.35-3.33-2.35-6.18
		c0-2.67,0.71-4.72,2.13-6.15c1.42-1.43,3.26-2.14,5.52-2.14C175.68,20.05,176.89,20.29,177.97,20.77z M171.93,24.26
		c-0.57,0.59-0.93,1.38-1.08,2.39h6.95c-0.07-1.07-0.43-1.88-1.08-2.44s-1.44-0.83-2.39-0.83C173.3,23.38,172.5,23.67,171.93,24.26z
		"/>
	<path class="st1" d="M190.65,35.89V15.02h4.33v7.96h8.11v-7.96h4.33v20.87h-4.33v-9.32h-8.11v9.32H190.65z"/>
	<path class="st1" d="M223.3,34c-1.3,1.61-3.28,2.41-5.93,2.41c-2.65,0-4.63-0.8-5.93-2.41s-1.95-3.54-1.95-5.81
		c0-2.23,0.65-4.15,1.95-5.79s3.28-2.45,5.93-2.45c2.65,0,4.63,0.82,5.93,2.45s1.95,3.56,1.95,5.79
		C225.25,30.46,224.6,32.4,223.3,34z M220.07,31.77c0.63-0.84,0.95-2.03,0.95-3.58c0-1.55-0.32-2.74-0.95-3.57s-1.54-1.25-2.72-1.25
		s-2.09,0.42-2.73,1.25c-0.64,0.83-0.96,2.02-0.96,3.57c0,1.55,0.32,2.74,0.96,3.58c0.64,0.84,1.55,1.26,2.73,1.26
		S219.44,32.61,220.07,31.77z"/>
	<path class="st1" d="M231.29,20.46v9.3c0,0.88,0.1,1.54,0.31,1.98c0.37,0.78,1.08,1.18,2.16,1.18c1.37,0,2.31-0.56,2.82-1.67
		c0.26-0.6,0.39-1.4,0.39-2.39v-8.4h4.09v15.43h-3.92v-2.18c-0.04,0.05-0.13,0.19-0.28,0.42s-0.33,0.44-0.54,0.62
		c-0.63,0.57-1.24,0.95-1.83,1.16c-0.59,0.21-1.28,0.31-2.07,0.31c-2.28,0-3.81-0.82-4.6-2.46c-0.44-0.91-0.66-2.24-0.66-4.01v-9.3
		H231.29z"/>
	<path class="st1" d="M247.25,30.96c0.08,0.72,0.27,1.23,0.55,1.53c0.5,0.54,1.43,0.81,2.79,0.81c0.8,0,1.43-0.12,1.9-0.35
		s0.7-0.59,0.7-1.06c0-0.45-0.19-0.8-0.57-1.03s-1.79-0.64-4.22-1.22c-1.75-0.43-2.99-0.98-3.71-1.63
		c-0.72-0.64-1.08-1.57-1.08-2.78c0-1.43,0.56-2.65,1.68-3.67c1.12-1.02,2.7-1.54,4.73-1.54c1.93,0,3.5,0.38,4.72,1.15
		c1.22,0.77,1.91,2.1,2.09,3.99h-4.04c-0.06-0.52-0.2-0.93-0.44-1.23c-0.45-0.55-1.2-0.82-2.27-0.82c-0.88,0-1.51,0.14-1.88,0.41
		s-0.56,0.59-0.56,0.96c0,0.46,0.2,0.8,0.6,1.01c0.4,0.22,1.8,0.59,4.21,1.12c1.61,0.38,2.81,0.95,3.62,1.71
		c0.79,0.77,1.19,1.74,1.19,2.9c0,1.53-0.57,2.78-1.71,3.75c-1.14,0.97-2.9,1.45-5.29,1.45c-2.43,0-4.23-0.51-5.38-1.54
		c-1.16-1.02-1.74-2.33-1.74-3.92H247.25z"/>
	<path class="st1" d="M269.43,20.77c1.08,0.48,1.97,1.24,2.67,2.28c0.63,0.92,1.04,1.98,1.23,3.19c0.11,0.71,0.15,1.73,0.13,3.06
		h-11.24c0.06,1.55,0.6,2.63,1.61,3.26c0.62,0.39,1.36,0.58,2.22,0.58c0.92,0,1.67-0.24,2.24-0.71c0.31-0.25,0.59-0.61,0.83-1.06
		h4.12c-0.11,0.92-0.61,1.85-1.5,2.79c-1.38,1.5-3.32,2.25-5.81,2.25c-2.05,0-3.87-0.63-5.44-1.9s-2.35-3.33-2.35-6.18
		c0-2.67,0.71-4.72,2.13-6.15c1.42-1.43,3.26-2.14,5.52-2.14C267.15,20.05,268.36,20.29,269.43,20.77z M263.4,24.26
		c-0.57,0.59-0.93,1.38-1.08,2.39h6.95c-0.07-1.07-0.43-1.88-1.08-2.44s-1.44-0.83-2.39-0.83C264.77,23.38,263.97,23.67,263.4,24.26
		z"/>
</g>
<g>
	<g>
		<path class="st1" d="M65.95,76.09c-0.06,4.83-1.5,8.6-4.11,11.95c-3.55,4.56-8.15,7.8-13.24,10.39c-0.87,0.44-1.8,0.52-2.68,0.08
			c-5.64-2.82-10.7-6.39-14.29-11.67c-7.53-11.04-1.3-26.16,11.81-28.8c10.23-2.06,20.12,4.52,22.14,14.75
			C65.82,74.05,65.87,75.35,65.95,76.09z M48.92,75.61c0.48-0.44,0.93-0.85,1.37-1.27c1.51-1.39,3.02-2.77,4.51-4.17
			c0.6-0.56,0.69-1.37,0.31-1.99c-0.37-0.61-1.17-0.93-1.84-0.65c-0.34,0.14-0.65,0.42-0.91,0.7c-2.48,2.66-4.95,5.32-7.4,8.01
			c-0.76,0.84-1.63,1.27-2.77,1.21c-0.41-0.02-0.84,0-1.23,0.1c-2.49,0.62-4.58,3.62-4.37,6.22c0.12,1.49,0.83,2.29,2.32,2.42
			c1.89,0.17,3.47-0.61,4.84-1.84c1.09-0.97,1.72-2.19,1.62-3.68c-0.1-1.53,0.59-2.6,1.83-3.39c1.1,0.8,1.87,1.69,1.78,3.2
			c-0.09,1.44,0.55,2.72,1.72,3.54c1.18,0.83,2.51,1.48,3.79,2.17c0.16,0.09,0.42-0.02,0.64-0.04c-0.09-0.18-0.14-0.39-0.26-0.54
			c-0.15-0.19-0.35-0.33-0.54-0.49c-1.1-0.97-2.21-1.92-3.27-2.93c-0.17-0.16-0.12-0.54-0.17-0.82c0.31-0.01,0.61-0.05,0.91-0.01
			c0.12,0.01,0.22,0.18,0.33,0.28c1.2,1.07,2.39,2.16,3.61,3.2c0.2,0.17,0.58,0.12,0.88,0.17c-0.04-0.3,0-0.65-0.14-0.88
			c-0.24-0.39-0.6-0.7-0.9-1.05c-0.85-0.94-1.72-1.86-2.52-2.84c-0.17-0.2-0.06-0.63-0.07-0.95c0.3,0.06,0.63,0.05,0.88,0.19
			c0.24,0.13,0.4,0.42,0.59,0.64c0.89,1,1.77,2.02,2.68,3c0.17,0.18,0.47,0.25,0.7,0.37c-0.02-0.27,0.05-0.58-0.06-0.8
			c-0.56-1.08-1.09-2.18-1.76-3.19c-0.9-1.35-2.22-2.19-3.87-2.12C50.66,77.43,49.73,76.77,48.92,75.61z M45.78,72.27
			c-1.45-1.54-2.84-3.08-4.3-4.53c-0.54-0.54-1.52-0.36-2.05,0.21c-0.56,0.62-0.61,1.51,0.02,2.11c1.45,1.4,2.95,2.75,4.5,4.19
			C44.57,73.58,45.14,72.96,45.78,72.27z"/>
		<path class="st1" d="M157.2,80.17c0-4.03,0-8.06,0-12.12c1.33,0,2.59,0,3.88,0c0,6.71,0,13.38,0,20.13
			c-0.99,0-1.96,0.05-2.92-0.03c-0.28-0.02-0.6-0.38-0.79-0.65c-2.47-3.63-4.92-7.27-7.37-10.91c-0.14-0.21-0.3-0.42-0.57-0.78
			c0,4.21,0,8.24,0,12.33c-1.33,0-2.58,0-3.9,0c0-6.67,0-13.35,0-20.11c0.99,0,1.96-0.06,2.92,0.03c0.3,0.03,0.64,0.41,0.85,0.71
			c2.44,3.59,4.86,7.19,7.29,10.78c0.15,0.22,0.3,0.44,0.45,0.66C157.09,80.2,157.14,80.19,157.2,80.17z"/>
		<path class="st1" d="M133.06,79.39c-0.29,0.77-0.53,1.4-0.75,2.04c-0.72,2.02-1.46,4.03-2.16,6.05c-0.18,0.52-0.45,0.73-1,0.73
			c-1.9,0.01-1.9,0.03-2.6-1.74c-1.63-4.14-3.26-8.29-4.89-12.43c-0.09-0.22-0.16-0.46-0.27-0.78c1.34,0,2.61-0.03,3.88,0.03
			c0.19,0.01,0.43,0.42,0.54,0.69c0.9,2.31,1.77,4.64,2.65,6.96c0.08,0.2,0.16,0.4,0.29,0.72c0.12-0.3,0.22-0.49,0.28-0.68
			c0.66-2.01,1.34-4.02,1.93-6.05c0.14-0.49-0.03-1.07-0.07-1.68c1.06,0,2.2-0.04,3.33,0.03c0.24,0.02,0.55,0.44,0.65,0.73
			c0.77,2.31,1.5,4.63,2.24,6.95c0.07,0.2,0.14,0.4,0.26,0.75c0.34-0.89,0.64-1.66,0.93-2.42c0.67-1.78,1.35-3.55,1.99-5.34
			c0.2-0.55,0.5-0.76,1.08-0.74c1.09,0.03,2.19,0.01,3.39,0.01c-0.56,1.44-1.09,2.79-1.62,4.14c-1.33,3.4-2.68,6.79-3.99,10.2
			c-0.19,0.49-0.43,0.67-0.95,0.65c-2.43-0.07-1.8,0.37-2.65-1.9c-0.77-2.08-1.49-4.17-2.23-6.26
			C133.25,79.87,133.18,79.7,133.06,79.39z"/>
		<path class="st1" d="M187.44,79.57c-0.37,1.02-0.74,2.04-1.11,3.06c-0.59,1.63-1.18,3.25-1.74,4.88c-0.17,0.5-0.44,0.68-0.95,0.69
			c-1.94,0.03-1.94,0.04-2.66-1.78c-1.62-4.12-3.24-8.24-4.86-12.37c-0.1-0.25-0.17-0.5-0.28-0.83c1.31,0,2.55-0.03,3.78,0.03
			c0.23,0.01,0.52,0.4,0.63,0.68c0.91,2.33,1.79,4.68,2.68,7.03c0.07,0.2,0.16,0.39,0.29,0.7c0.13-0.35,0.24-0.59,0.32-0.84
			c0.55-1.69,1.09-3.38,1.64-5.07c0.37-1.16,0.37-1.16,0.08-2.52c1.15,0,2.29-0.04,3.42,0.03c0.24,0.02,0.56,0.43,0.65,0.73
			c0.78,2.33,1.51,4.68,2.26,7.02c0.06,0.18,0.13,0.36,0.24,0.68c0.15-0.37,0.26-0.62,0.36-0.88c0.85-2.26,1.71-4.51,2.52-6.77
			c0.23-0.63,0.57-0.87,1.24-0.84c1.04,0.05,2.09,0.01,3.23,0.01c-0.11,0.34-0.19,0.61-0.29,0.87c-1.75,4.46-3.52,8.92-5.24,13.39
			c-0.23,0.58-0.52,0.75-1.12,0.74c-2.26-0.07-1.71,0.3-2.47-1.75c-0.84-2.28-1.63-4.58-2.44-6.87
			C187.55,79.58,187.49,79.58,187.44,79.57z"/>
		<path class="st1" d="M92.28,85.17c-2.81,3.4-9.13,4.84-13.68,0.79c-4.43-3.94-4.52-10.84-0.2-14.87
			c4.07-3.81,10.46-3.41,13.88,0.91c-0.6,0.74-1.2,1.5-1.82,2.24c-0.38,0.46-0.76,0.3-1.22,0.02c-0.97-0.58-1.94-1.31-3.01-1.57
			c-3.71-0.89-7.21,2.14-7.02,5.97c0.12,2.37,1.25,4.14,3.39,5.16c2.22,1.06,4.32,0.6,6.27-0.77c0.16-0.11,0.3-0.25,0.46-0.37
			c0.42-0.32,0.82-0.31,1.15,0.11C91.1,83.58,91.69,84.38,92.28,85.17z"/>
		<path class="st1" d="M106.5,88.16c-1.29,0-2.53,0-3.89,0c0-0.28,0-0.54,0-0.79c0-2.63,0.03-5.27-0.02-7.9
			c-0.03-1.89-1.95-3.11-3.63-2.35c-1.09,0.49-1.58,1.4-1.57,2.58c0,2.54,0,5.07,0,7.61c0,0.26,0,0.52,0,0.83c-1.36,0-2.64,0-3.98,0
			c0-6.5,0-13,0-19.57c0.98-0.15,1.96-0.31,2.94-0.44c0.66-0.09,0.86,0.31,0.87,0.88c0.03,1.49,0.06,2.97,0.1,4.46
			c0.01,0.24,0.03,0.48,0.06,0.82c0.26-0.15,0.46-0.26,0.66-0.38c3.45-2.12,8.09-0.02,8.41,4.01C106.71,81.3,106.5,84.7,106.5,88.16
			z"/>
		<path class="st1" d="M162,80.65c0.01-4.29,3.4-7.71,7.61-7.7c4.19,0.01,7.6,3.5,7.59,7.75c-0.02,4.24-3.48,7.74-7.64,7.73
			C165.38,88.41,161.99,84.92,162,80.65z M173.31,80.69c0-2.15-1.65-3.9-3.7-3.92c-2.05-0.02-3.72,1.73-3.72,3.89
			c0,2.18,1.63,3.9,3.69,3.9C171.66,84.57,173.31,82.85,173.31,80.69z"/>
		<path class="st1" d="M122.64,80.7c-0.01,4.27-3.44,7.75-7.61,7.73c-4.16-0.02-7.61-3.55-7.59-7.78c0.02-4.26,3.44-7.71,7.64-7.7
			C119.29,72.95,122.66,76.41,122.64,80.7z M115.03,84.57c2.06,0.01,3.74-1.71,3.77-3.86c0.03-2.11-1.66-3.9-3.7-3.94
			c-2.03-0.04-3.74,1.73-3.76,3.87C111.33,82.81,112.98,84.56,115.03,84.57z"/>
	</g>
	<g>
		<path class="st1" d="M213.43,65.86h4.59l6.88,19.43h-4.4l-1.28-3.99h-7.16l-1.32,3.99h-4.25L213.43,65.86z M213.16,77.95h4.98
			l-2.45-7.65L213.16,77.95z"/>
		<path class="st1" d="M239.15,72.46c1.17,1.24,1.76,3.06,1.76,5.46c0,2.53-0.57,4.46-1.72,5.79s-2.62,1.99-4.42,1.99
			c-1.15,0-2.11-0.29-2.87-0.86c-0.42-0.32-0.82-0.78-1.22-1.38v7.49h-3.72V70.92h3.6v2.12c0.41-0.62,0.84-1.12,1.3-1.48
			c0.84-0.64,1.84-0.96,3-0.96C236.55,70.61,237.98,71.23,239.15,72.46z M236.26,75.17c-0.51-0.85-1.34-1.28-2.48-1.28
			c-1.38,0-2.32,0.65-2.84,1.94c-0.27,0.69-0.4,1.56-0.4,2.61c0,1.67,0.45,2.84,1.34,3.52c0.53,0.4,1.16,0.59,1.89,0.59
			c1.06,0,1.86-0.4,2.42-1.21c0.55-0.81,0.83-1.88,0.83-3.23C237.03,77,236.78,76.02,236.26,75.17z"/>
		<path class="st1" d="M255.64,72.46c1.17,1.24,1.76,3.06,1.76,5.46c0,2.53-0.57,4.46-1.72,5.79s-2.62,1.99-4.42,1.99
			c-1.15,0-2.11-0.29-2.87-0.86c-0.42-0.32-0.82-0.78-1.22-1.38v7.49h-3.72V70.92h3.6v2.12c0.41-0.62,0.84-1.12,1.3-1.48
			c0.84-0.64,1.84-0.96,3-0.96C253.04,70.61,254.47,71.23,255.64,72.46z M252.76,75.17c-0.51-0.85-1.34-1.28-2.48-1.28
			c-1.38,0-2.32,0.65-2.84,1.94c-0.27,0.69-0.4,1.56-0.4,2.61c0,1.67,0.45,2.84,1.34,3.52c0.53,0.4,1.16,0.59,1.89,0.59
			c1.06,0,1.86-0.4,2.42-1.21c0.55-0.81,0.83-1.88,0.83-3.23C253.52,77,253.27,76.02,252.76,75.17z"/>
	</g>
</g>
<g>
	<path class="st2" d="M200.65,119.65c-3.28,2.02-2.94,6.77,0.59,8.39c-0.2,0.48-0.38,0.98-0.61,1.45c-0.61,1.24-1.34,2.4-2.35,3.36
		c-0.83,0.79-1.8,0.96-2.88,0.57c-0.41-0.15-0.8-0.35-1.21-0.47c-0.99-0.31-1.96-0.2-2.91,0.21c-0.49,0.21-0.98,0.43-1.53,0.47
		c-0.53,0.04-1-0.08-1.44-0.36c-0.54-0.35-0.96-0.83-1.36-1.33c-1.48-1.87-2.42-3.97-2.78-6.32c-0.25-1.58-0.22-3.16,0.42-4.67
		c0.72-1.68,1.94-2.79,3.74-3.21c0.88-0.21,1.74-0.1,2.57,0.22c0.39,0.15,0.78,0.3,1.17,0.45c0.45,0.17,0.89,0.17,1.34,0
		c0.62-0.23,1.24-0.51,1.88-0.67c2.04-0.48,3.78,0.04,5.16,1.65C200.53,119.48,200.59,119.57,200.65,119.65z"/>
	<path class="st2" d="M196.81,112.48c0.3,2.6-2.13,5.1-4.18,4.81C192.24,115.18,194.68,112.37,196.81,112.48z"/>
</g>
</svg>
