<?xml version="1.0" encoding="utf-8"?>
<!-- Generator: Adobe Illustrator 24.1.2, SVG Export Plug-In . SVG Version: 6.00 Build 0)  -->
<svg version="1.1" id="Layer_1" xmlns="http://www.w3.org/2000/svg" xmlns:xlink="http://www.w3.org/1999/xlink" x="0px" y="0px"
	 viewBox="0 0 216 108" style="enable-background:new 0 0 216 108;" xml:space="preserve">
<style type="text/css">
	.st0{fill:#18181F;}
	.st1{fill:#F6EAD9;}
	.st2{enable-background:new    ;}
</style>
<path class="st0" d="M16.6,75.5c-2.8-1-4.7-1.6-5.4-1.8c-0.9-4.8-1.6-8.5-2.3-12.3c1.1-0.4,3.4-1.2,5.5-2.1c-1.1-4.3-2-7.8-2.8-11.2
	c-0.1-0.4,0.4-1,0.6-1.5c0.3-0.9,0.9-2,0.7-2.7c-0.2-0.6-1.2-1.1-1.9-1.4c-3-0.9-6-1.6-9.5-2.6c5.4-5.3,11-7.5,17.2-7.3
	c5.2,0.2,10.5,1.2,15.7,0.6c8.8-0.9,17.5-3.5,26.3-4.1c14-1,28.1-1,42.2-1.5c15.4-0.6,30.7-1.2,46.1-1.8c5.1-0.2,10.2-1.2,15.2-0.9
	c6.1,0.6,12.2,2.2,18.3,3.7c3.6,0.9,7.1,2.2,10.6,3.7c3.8,1.6,4.1,3.9,1.8,7.9c-0.7,1.2-0.6,3-0.9,4.6c1.1,0.2,2.2,0.9,3.2,0.7
	c3.9-0.4,13.7,7.6,13.9,12.1c0.1,2.6-1.1,5.2-1.6,7.8c-0.6,3.5-1,6.9-0.9,10.6c-2.5,4.9-6.9,5.1-11.3,4.3c-5.4-1-10.2-1.6-14.2,4.7
	c-1.3,2-4.7,2.6-7.1,2.6c-6.7,0.1-13.5-0.5-20.2-0.7c-12.3-0.4-24.6-1.1-36.9-0.9c-9.7,0.2-19.4,2.2-29.2,3.1
	c-8.8,0.9-17.7,2-26.5,2.1c-9.9,0.2-20,0.9-29.5-1.4c-6-1.5-11.1-7.9-16.5-12.3C16.5,77.2,16.6,75.5,16.6,75.5z M17.3,76.7
	C27.7,85.7,47.1,91,55,88.3C43.3,84.7,30.9,80.8,17.3,76.7z M138.8,82c0-0.7-0.1-1.4-0.1-2.1c-9.5,0.7-19,1.6-28.5,2.3
	c0.1,0.9,0.1,1.6,0.1,2.5C119.8,83.8,129.3,82.9,138.8,82z M187.8,76.2c0.1,0.7,0.1,1.5,0.1,2.3c6.4-0.7,12.9-1.5,19.3-2.2
	c-0.1-0.9-0.1-1.8-0.2-2.7C200.6,74.5,194.2,75.4,187.8,76.2z M153.8,78.7c14.3,2.7,14.3,2.7,15.3,0C164,78.7,158.9,78.7,153.8,78.7
	z"/>
<g>
	<g>
		<path class="st0" d="M185.8,78.7c3.6-2.6,7.4-4.4,11.5-5.4c1.9-0.5,3.9-0.7,5.8-0.4c0.8,0.1,1.6,0.4,2.3,0.9c0,0,0,0,0.1,0.1
			c0-0.5,0-0.5-0.1,0c-0.1,0-0.1,0.1-0.1,0.2c-0.8,1.7-3,2.3-4.5,2.7c-1.8,0.5-3.6,0.6-5.5,0.6c-4.3,0-8.7-0.4-12.8,1.6
			c-1.3,0.6-2.1,2.1-1.8,3.8c0.3,1.5,1.8,2.7,3.1,2.2c7.4-3.3,15.8,0.9,22.8-4.3c1.6-1.2,3.1-3.1,3.6-5.4c0.5-2.7-0.5-5.3-2.4-6.7
			c-3.4-2.6-8.2-2-11.9-1.1c-4.4,1.1-8.8,3.3-12.7,6C180.5,75.2,183,80.7,185.8,78.7L185.8,78.7z"/>
	</g>
</g>
<g>
	<g>
		<path class="st0" d="M200.6,55.7c1.8,0,3.5,0.7,5.1,1.7c0.9,0.5,1.7,1.1,2.5,1.7c0.4,0.2,0.7,0.6,1.1,0.9c0.2,0.2,0.5,0.4,0.7,0.6
			c0.5,0.5,0.5,0.4,0-0.2c0-0.5,0-1.1,0-1.6c-0.2,1.4-2.4,2.8-3.4,3.8c-1.5,1.6-2.6,3.6-2.6,6c0,3.6,4,4.1,4.9,0.9
			c0.2-0.6,1.3-1.7,1.9-2.3c1-1.2,1.8-2.6,2-4.3c0.7-4.2-2-7.5-4.6-9.6c-2.7-2.2-5.7-3.9-8.7-5.2c-2.4-1-5.9-1.4-7.2-4.3
			c-1.2-2.7,1.5-3.9,3.1-4.9c2.6-1.6,5.3-4.1,5.5-7.9s-2.3-7.1-5.2-8c-3.4-1.1-7,0.4-10.4,1c-7.8,1.4-15.8,2-23.7,1.8
			c-1.7,0-2.7,2-2.4,3.9c0.5,3.5,3.6,4.7,6.1,4.7c3.4,0,6.9-0.4,10.3-0.6c3.4-0.2,6.9-0.5,10.3-0.7c1.7-0.1,3.4-0.4,5.1-0.5
			c0.7-0.1,1.5-0.2,2.2-0.2c0,0,0.7,0,0.5,0c0.1,0,0.2,0,0.3,0.1c-0.3-0.1-0.6-0.5-0.8-0.9c0.6-1.2,1.2-2.5,1.8-3.8
			c-4.6,2.2-9.1,4.7-13.6,7.1c-1.5,0.9-1.6,3.6-0.5,4.8c1.9,2.5,4.8,2.8,7.4,1.8c2.5-0.9,4.5-3.2,7-3.9c-0.6-1.8-1.3-3.7-1.9-5.7
			c-1.8,1-3.4,2.2-4.9,3.7c-1.4,1.4-3,3.1-3.3,5.4c-0.4,3,1.5,4.8,3.7,4.9c1.6,0.1,3.1,0.1,4.7,0.5c1.5,0.4,2.9,1,4.1,2
			c0.6,0.5,2.3,2.1,1.9,3.2c0.1-0.4-0.6,0.4-0.7,0.4c-0.8,0.6-1.6,1.4-2.1,2.5c-0.8,1.7-0.8,3.9-0.3,5.8c1.5,5.5,6.3,6.3,10.4,5.8
			c1.3-0.1,2.5-1.4,2.5-3.1c0-1.6-1.1-3.2-2.5-3.1c-1.5,0.1-3.2,0.5-4.6-0.2c-0.7-0.4-1.4-1.5-1.1-2.2c-0.2,0.5,0.4-0.1,0.6-0.2
			c0.7-0.5,1.3-1.1,1.8-1.8c1-1.6,1.2-3.8,0.8-5.8c-0.9-3.9-3.8-6.5-6.7-7.9c-1.4-0.7-2.9-1.1-4.4-1.4c-0.8-0.1-1.6-0.2-2.4-0.4
			c-0.4,0-0.8,0-1.2,0c-0.2,0-0.4,0-0.6,0c-0.4,0-0.4,0,0.1,0c0.3,0.4,0.6,0.7,0.9,1.1c0,0.4,0,0.7,0.1,1.2c0.1-0.1,0.1-0.2,0.2-0.2
			c0.2-0.1,0.4-0.5,0.6-0.7c0.5-0.5,0.9-1,1.5-1.5c1.1-1,2.3-1.7,3.5-2.5c1.1-0.6,1.5-2.6,1-3.8c-0.5-1.5-1.7-2.1-2.9-1.8
			c-2.2,0.6-4,2.1-5.9,3.3c-1,0.6-2.7,1.5-3.6,0.2c-0.2,1.6-0.3,3.2-0.5,4.8c4.1-2.3,8.2-4.6,12.4-6.5c1.3-0.6,2.1-2,1.8-3.8
			c-0.7-4.2-4.5-3.8-7.1-3.6c-3.5,0.4-7,0.6-10.5,1c-3.4,0.2-6.9,0.5-10.3,0.7c-1.6,0.1-3.3,0.2-4.9,0.2c-0.5,0-0.8,0-1.2-0.1
			c0,0-0.5-0.1-0.5-0.2c0-0.1,0.5,1.2,0.3,0.2c-0.8,1.2-1.6,2.6-2.4,3.9c6.6,0.1,13.2-0.2,19.8-1.2c3.4-0.5,6.8-1.2,10.2-1.8
			c0.9-0.1,5-0.2,4.2,2.2c-0.3,0.9-1.4,1.6-2,2c-1.1,0.7-2.4,1.4-3.5,2.2c-2.5,2.1-3.9,5.3-3.2,9.1c1.4,7.9,9,8.3,13.9,11
			c1.5,0.9,3,1.8,4.4,3c0.9,0.6,2.4,1.8,2.5,3.1c0.1,0.9-0.8,1.6-1.4,2.2c-1.1,1.2-2,2.6-2.4,4.3c1.6,0.2,3.3,0.5,4.9,0.9
			c0-0.4,0-0.2,0.1-0.5c0.2-0.4-0.2,0.2,0.1-0.1c0.1-0.2,0.3-0.4,0.5-0.6c0.6-0.6,1.1-1.1,1.8-1.7c1.9-1.8,4.3-4.4,3.2-7.8
			c-0.5-1.6-1.8-2.3-2.9-3.3c-1.1-0.9-2.2-1.7-3.4-2.5c-2.4-1.6-5-2.6-7.8-2.7C197.4,49.4,197.4,55.5,200.6,55.7L200.6,55.7z"/>
	</g>
</g>
<g>
	<g>
		<path class="st0" d="M23.4,36.8c-4.2-1.6-8.8-2.1-13.1-1.5C7,35.8,0.2,36.9,0.6,42.7c0.1,1.2,0.7,2.7,1.8,3c2.5,0.6,5,1.2,7.5,2
			c2.1,0.6,4.4,1.1,6.4,2.2c0.4,0.2,0.9,0.5,1,0.9c0.2,0.9-0.2,2.3-0.4,3.1c-0.4,2-1.1,3.9-2.5,4.9c-2.7,2-6.2,2.5-8.4,5.7
			C3.1,68.8,4.6,75,8.2,78.1c4.7,3.9,10.4,1.6,15.6,2.3c0-2.1,0-4.1,0-6.2c-3.1,0.4-6.2,0.1-9.2-0.7c-1-0.2-2.3-0.6-3.1-1.6
			c-0.4-0.6-0.3-0.7,0.1-1c0.8-0.6,1.8-1,2.7-1.4c1.2-0.6,2.4-1.5,3.3-2.7c2-2.3,3.1-5.7,3.2-9.1c0-2.1-1.6-3.3-3.2-3
			c-3.3,0.7-6.4,2-9.4,3.7c-2.8,1.6-4.6,4.8-4,8.7c0.5,3.8,2.8,6.4,5.4,7.6c2.7,1.4,5.6,1,8.4,1.6c1.1,0.2,2.2,0.6,3.1,1.5
			c1.1,1.1,1.6,2.7,2.7,3.9c2.4,2.7,5.8,2.5,8.9,2.7c6.3,0.6,12.5,2.5,18.4,5.5c3.2,1.6,6.8,3.5,10.1,1.2c2.9-2,4.4-6.3,2.8-10
			c-1.5-3.5-5.8-0.4-4.3,3.1c-0.1-0.2,0,0.4,0,0.1c-0.1,0.4-0.2,0.5-0.4,0.9c-0.6,0.7-1.3,0.9-2.1,0.9c-2.4-0.4-4.7-2.1-7-3.1
			c-5-2.3-10.3-3.8-15.7-4.4c-1.2-0.1-2.5-0.2-3.7-0.4c-1,0-2.1,0-3-0.5s-1.4-1.6-1.9-2.5c-0.8-1.2-1.7-2.3-2.8-3.1
			c-2.2-1.5-4.7-1.8-7.1-2.1c-1.9-0.1-4.3-0.1-5.8-1.6c-0.6-0.6-1.1-1.5-1.1-2.3c0-0.9,0.7-1.4,1.4-1.7c2.6-1.6,5.7-2.6,8.6-3.3
			c-1-1-2.1-2-3.2-3c-0.1,2.8-1.6,5.3-3.8,6.3c-2.8,1.2-5.8,3-5.8,7.4c0,4.4,3.4,6.9,6.5,7.9c3.6,1.1,7.3,1.5,11,1.1
			c3.3-0.4,3.2-5.7,0-6.2c-2.5-0.4-5,0-7.5,0c-1.8,0-4-0.1-5.5-1.5c-0.9-0.9-1.8-2.5-1.4-3.8c0.3-1.2,1.5-1.8,2.5-2.3
			c3.5-1.8,7-3.2,8.7-7.8c0.9-2.3,1.5-5.2,1.5-7.8c0.1-2.8-1.2-5.1-3.1-6.4c-2.1-1.5-4.6-2-7-2.7c-2.8-0.9-5.6-1.6-8.5-2.2
			c0.6,1,1.2,2,1.8,3c0,0.4-0.7,0.6-0.1,0.2c0.1,0,0.2-0.1,0.3-0.2c0.6-0.4,1.4-0.5,2.1-0.7c1.5-0.5,3.1-0.7,4.7-0.9
			c3.3-0.2,6.4,0.2,9.6,1.5C25.1,43.8,26.5,37.9,23.4,36.8L23.4,36.8z"/>
	</g>
</g>
<g>
	<g>
		<path class="st0" d="M17.9,59.4c-2.4-2.6-5.4-2-8.1-0.4c-2.4,1.5-4.6,3.7-6.5,6c-1.1,1.4-2,3-2.2,4.9c-0.2,2,0.4,4.2,1.9,5.2
			c1.3,0.9,3.1,0.7,4.6,0.7c1.4,0,2.9-0.1,4.3-0.4c3.3-0.5,6.4-1.7,9.5-3.5c1.2-0.7,1.5-2.8,0.9-4.2c-0.7-1.6-2.2-1.8-3.4-1.1
			c-2.2,1.2-4.8,2.1-7.4,2.6c-0.4,0.1-1.1,0.1-1.7,0.2c-0.7,0-1.4,0.1-2.1,0.1s-1.4,0-2.1-0.1c-0.1,0-0.2,0-0.3,0
			c-0.4,0-0.4,0-0.1,0c0.3,0.1,0.5,0.4,0.6,0.7c0.1,0.1,0.1,0.2,0.1,0.4c0,0.2,0,0.2,0-0.1c-0.1,0.4,0,0.4,0.1,0
			c-0.2,0.4,0.2-0.5,0.2-0.4c0.2-0.4,0.2-0.4,0.1-0.1c0.1-0.1,0.2-0.2,0.3-0.4c0.2-0.2,0.4-0.6,0.7-0.9c0.9-1.1,1.8-2,2.7-2.7
			c0.5-0.4,1-0.9,1.6-1.2c0.3-0.2,0.6-0.4,0.9-0.6c0.4-0.2-0.2,0,0.3-0.1c0.2-0.1,0.5-0.2,0.7-0.2s0.3-0.1,0.5-0.1c-0.3,0-0.3,0,0,0
			c0.7,0-0.4-0.1,0.2,0c0.3,0.1,0.3,0.1,0,0c0.2,0.2,0.3,0.2,0,0c1,1.1,2.5,1.2,3.5,0C18.8,62.6,18.9,60.5,17.9,59.4L17.9,59.4z"/>
	</g>
</g>
<g>
	<g>
		<path class="st0" d="M10.2,75.6c0-0.1,0-0.2-0.1-0.4c0.1-0.5,0.2-1,0.3-1.6c0.2-0.4,0.5-0.6,0.8-0.7c-0.3,0.1-0.3,0.1,0.1,0
			c-0.3,0-0.6,0-0.9-0.1c-0.3,0-1.1-0.2-1.6-0.4c-0.1,0-0.7-0.4-0.3-0.1c-0.1,0-0.7-0.5-0.5-0.4C8.1,72,8.1,72,7.9,71.8
			C8,71.9,8.1,72,8.1,72.3c-0.1-0.2,0.1,0.6,0,0.5c0,0,0.6-1,0.4-0.7c-0.1,0.2,0.3-0.5,0.4-0.6c0.2-0.2,0.3-0.4,0.5-0.6
			c0.1-0.1,0.6-0.6,0.4-0.5s0.4-0.4,0.5-0.4c0.2-0.1,0.4-0.4,0.6-0.5c0.5-0.4,0.9-0.6,1.4-1c1.9-1.2,4-2.1,5.9-3.5
			c2.4-1.6,4.9-3.6,5.1-7.1c0.1-1.8-1.3-2.8-2.5-3.1c-3.3-0.5-6.6,0.9-9.3,2.8c-1.3,1.2-2.6,2.5-3.9,3.7c-1,1-2.1,2.1-2.9,3.3
			c-2.1,3-3.6,7.8-1.1,11.1c1.3,1.7,3.3,2,5.1,2.2c1.7,0.2,3.3,0.4,5,0.2c-0.2-2-0.4-4.1-0.7-6c-0.5,0.2-1,0.4-1.5,0.5
			c0.4-0.1-0.3,0-0.4,0c-0.3,0-0.5,0-0.8,0c-0.7,0,0.4,0.1-0.4,0c-0.3,0-0.5-0.1-0.8-0.2c-0.2-0.1-0.5-0.2-0.7-0.2
			c0.4,0.1-0.3-0.2-0.3-0.2c-0.8-0.5-1.3-1.1-1.7-1.7C6.1,69.7,6,69.3,6,69.1s0-0.6,0.1-0.9c-0.1,0.2,0.2-0.4,0.3-0.5
			c-0.2,0.4,0.2-0.2,0.3-0.4c0,0,0.6-0.6,0.3-0.4c0.2-0.2,0.4-0.4,0.7-0.6c1-0.7,2-1.4,3-1.7c2.4-1.1,4.8-2,7.3-2.8
			c1.3-0.5,2.1-2.1,1.8-3.8c-0.4-1.6-1.8-2.7-3.1-2.2c-3.1,1.2-6.3,2.2-9.3,3.8c-2.8,1.5-5.8,3.9-6.2,8c-0.4,3.9,1.8,7.6,4.6,9.5
			c2.6,1.7,5.8,2.2,8.6,0.9c1.2-0.5,2-1.7,1.8-3.3c-0.2-1.5-1.2-2.7-2.5-2.7c-1.3,0.1-2.7,0.1-4,0c-0.6,0-1.1-0.1-1.6-0.2
			c-0.3,0-0.6-0.1-0.9-0.2c-0.1,0-0.2-0.1-0.3-0.1c0.2,0,0.3,0.1,0.4,0.5v0.1c-0.1-0.4-0.1-0.4-0.1-0.1c0-0.1,0-1,0-0.5
			c0-0.4,0.1-0.6,0.2-0.9c-0.1,0.4,0-0.1,0.1-0.2c0.1-0.2,0.3-0.6,0.4-0.9c0.1-0.1,0.1-0.1,0,0C8,69.2,8.1,69.1,8.2,69
			c0.4-0.5,0.7-1,1.1-1.5c3.2-3.7,7.1-7.1,11.6-6.5c-0.8-1-1.7-2.1-2.5-3.1c0,0,0-0.6,0.1-0.6L18,57.9c-0.4,0.4-0.1,0.1,0,0
			c-0.1,0.1-0.2,0.1-0.3,0.2c-0.2,0.2-0.5,0.4-0.7,0.6c-0.9,0.6-1.8,1.2-2.8,1.8c-1.9,1.1-3.8,2-5.6,3.3c-1.9,1.6-3.9,3.6-4.8,6
			c-1.5,3.9,0.5,7.3,3.5,8.4c1.5,0.6,3.3,1,4.8,0.6c1.9-0.4,3.4-2.6,2.8-4.9c-0.4-1.6-1.8-2.6-3.1-2.2C10.6,72.3,9.8,74,10.2,75.6
			L10.2,75.6z"/>
	</g>
</g>
<g>
	<g>
		<path class="st0" d="M8,65.3c2.9,0.6,6.1,0,8.2-3c2-2.8,2.2-6.5,1.2-10C15.8,46.7,11.8,42,7,41c0,2,0,3.9,0,5.9
			c0.6-0.1,1.6-0.2,2.2,0C9.5,47,9.7,47,9.9,47.2c0.7,0.2-0.3-0.2,0.3,0.1c0.2,0.1,0.4,0.2,0.7,0.5c0.1,0,0.6,0.6,0.3,0.2
			c0.4,0.4,0.7,0.9,1,1.2c-0.3-0.4,0.1,0.4,0.2,0.4c0.1,0.2,0.2,0.4,0.3,0.6c0.1,0.1,0.1,0.2,0.2,0.4c-0.1-0.2-0.1-0.2,0,0
			s0.2,0.6,0.2,0.9c0,0.1,0.1,0.9,0.1,0.6c0-0.2,0,0.5,0,0.6c0,0.2,0,0.5,0,0.9c0,0.4,0,0.5,0,0.1c0,0.1,0,0.2-0.1,0.4
			c-0.2,0.6-0.1,0.6-0.5,1.4c-0.3,0.6,0.3-0.4-0.1,0.2c-0.1,0.2-0.3,0.4-0.5,0.6s-0.3,0.4-0.5,0.5c0.4-0.4-0.2,0.1-0.2,0.1
			c-1.7,1.5-3.3,2.8-4.6,4.9c-0.8,1.4-0.2,3.5,0.9,4.2c1.3,0.9,2.6,0.4,3.4-1.1c0.2-0.2,0.2-0.2,0,0c0.1-0.1,0.2-0.2,0.3-0.4
			c0.1-0.2,0.3-0.4,0.5-0.5c0.1-0.1,0.2-0.2,0.3-0.4c-0.2,0.2-0.2,0.2,0,0c0.2-0.1,0.4-0.4,0.5-0.5c1-0.9,1.9-1.6,2.8-2.6
			c2.3-2.5,2.9-6.2,2.5-9.9c-1-7.1-6.9-11.5-12.4-9.9c-1,0.2-1.9,1.7-1.8,3c0,1.2,0.7,2.7,1.8,3c0.4,0.1,0.9,0.2,1.3,0.4
			c0.2,0.1,0.4,0.1,0.6,0.2c0.4,0.2-0.1-0.1,0.1,0.1c0.4,0.2,0.7,0.5,1.1,0.7c0.2,0.1,0.4,0.2,0.6,0.5c0,0,0.6,0.6,0.2,0.2
			c0.6,0.6,1.2,1.4,1.7,2.2c-0.3-0.5,0.1,0.2,0.1,0.2c0.1,0.2,0.3,0.5,0.4,0.7c0.2,0.4,0.4,0.9,0.6,1.4c0.1,0.4-0.1-0.4,0.1,0.1
			c0.1,0.2,0.1,0.5,0.2,0.7c0.1,0.5,0.2,1,0.3,1.5c0,0.1,0,0.4,0,0.6c0,0.1-0.1,0.9,0,0.4c0,0.2-0.1,0.6-0.2,0.9
			c0.2-0.6-0.1,0.2-0.2,0.2c-0.2,0.5,0.2-0.1-0.2,0.2c0,0-0.5,0.6-0.3,0.4c0.2-0.1-0.3,0.2-0.4,0.4c-0.1,0.1-0.5,0.2-0.2,0.1
			c-0.2,0.1-0.5,0.2-0.7,0.2c-0.7,0.2,0.3,0-0.4,0.1c-0.3,0-0.5,0-0.8,0c-0.1,0-0.8-0.1-0.4,0c-1.3-0.2-2.8,0.4-3.1,2.2
			C6,62.9,6.7,65,8,65.3L8,65.3z"/>
	</g>
</g>
<g>
	<g>
		<path class="st0" d="M104.3,77.7c-1.1,1.7-1.8,3.6-1.8,5.8c0,1.8,1.7,3.7,3.2,3c6.2-3,12.1-7.9,18.8-9c3.5-0.5,6.9,0.5,10.2,2
			c1.6,0.7,3.3,1.5,4.8,2.5c0.4,0.2,0.8,0.5,1.1,0.9c0.1,0.1,0.3,0.6,0.3,0.6v0.1c0-0.2,0.1-0.4,0.2-0.5c0.2-0.2,0.5-0.4,0.8-0.2
			c0.4,0.9,0.8,1.7,1.2,2.7c0.1-1.2,0.7-2.1,1.4-2.8c-1.4-0.5-2.8-0.9-4.2-1.4c1.1,3.9-4.2,4.6-6.2,4.7c-4.4,0.1-8.8,0-13.2-0.4
			c-8.7-0.7-17.3-2.6-25.7-5.3c-2.6-0.9-3.9,2.8-2.4,5.2c1.1,1.6,2.8,2.5,4.4,2.8c2,0.5,4,0.9,6,1.2c4.2,0.9,8.3,1.7,12.5,2.5
			c7.2,1.1,15.6,1.8,21.6-4.3c2-2.1-0.2-5.9-2.4-5.2c-3.9,1.2-7.7,2.3-11.8,2c-4-0.4-8-1.6-12.1-2.2c-8.4-1.4-16.9-2-25.3-1.6
			c-3.2,0.1-3.2,6.3,0,6.2c8.5-0.4,17,0.1,25.4,1.6c4.1,0.7,8.2,2,12.4,2.2c4.3,0.2,8.5-1,12.6-2.2c-0.8-1.7-1.6-3.5-2.4-5.2
			c-2.1,2.2-5,3-7.7,3.2c-3.4,0.2-6.9-0.1-10.3-0.6c-3.6-0.6-7.2-1.4-10.8-2.1c-1.8-0.4-3.5-0.7-5.3-1.1c-1.2-0.2-2.6-0.4-3.3-1.5
			c-0.8,1.7-1.6,3.5-2.4,5.2c9.8,3.2,19.8,5.2,29.9,5.8c2.5,0.1,5,0.2,7.5,0.2c2.4,0,4.8,0,7.1-0.6c4.3-1.1,8.3-6.2,6.8-12
			c-0.6-2.3-2.7-2.8-4.2-1.4c-1.8,1.8-2.7,4.4-2.9,7.1c-0.1,1.1,0.6,2.1,1.2,2.7c2,1.6,4.8,0.6,5.9-1.8c1.3-2.7,0.4-6.2-1.4-8.1
			c-1.8-2-4.4-3-6.6-3.9c-2.3-1.1-4.6-2.1-7-2.5c-4.7-1-9.2,0.1-13.6,2.2c-4.2,2-8.2,4.7-12.4,6.8c1.1,1,2.1,2,3.2,3
			c0-0.5,0.1-1,0.3-1.5c0.8-1.4,1-3.1,0-4.3C106.9,76.6,105.1,76.4,104.3,77.7L104.3,77.7z"/>
	</g>
</g>
<g>
	<g>
		<path class="st0" d="M144,68.7c3.2,0,3.2-6.2,0-6.2S140.8,68.7,144,68.7L144,68.7z"/>
	</g>
</g>
<g>
	<g>
		<path class="st0" d="M138,78.2c0.1,0.7,0.3,1.4,0.4,2.1c0,0.1,0.1,0.7,0,0.1c-0.1-0.5,0,0.1,0,0.1c0,0.4,0,0.6,0.1,1
			c0,0.4,0,0.7,0,1c0,0.4,0.1-0.7,0-0.1c0,0.2-0.1,0.4-0.1,0.5s-0.1,0.2-0.1,0.4c-0.1,0.4,0.3-0.6,0-0.1c-0.1,0.1-0.1,0.4-0.2,0.5
			c-0.2,0.5,0.3-0.4,0.1-0.1c-0.1,0.1-0.2,0.2-0.3,0.4c-0.1,0.1-0.5,0.4-0.1,0.1c0.3-0.2-0.1,0-0.2,0.1c-0.1,0.1-0.3,0.2-0.4,0.4
			c-0.5,0.4-1.1,0.7-1.6,1.1c-0.2,0.1-0.7,0.2-0.9,0.5c0.1-0.1,0.4-0.2,0.1-0.1c-0.2,0.1-0.3,0.1-0.5,0.2c-0.1,0-0.8,0.4-0.9,0.2
			c0.4,0,0.4-0.1,0.2,0c-0.1,0-0.2,0-0.3,0c-0.2,0-0.4,0-0.5,0c-1.3-0.1-2.6,1.5-2.5,3.1c0.1,1.7,1.1,3,2.5,3.1
			c1.8,0.1,3.6-0.7,5.2-1.7c1.3-0.9,2.8-1.8,3.8-3.2c2.3-3.2,1.9-7.4,1.1-11.3c-0.3-1.6-1.8-2.7-3.1-2.2
			C138.5,75,137.7,76.6,138,78.2L138,78.2z"/>
	</g>
</g>
<g>
	<g>
		<path class="st0" d="M190.2,83.1c10-3.1,16.7-6.5,16.7-10.1c0-1-3.3-2.2-7.8-3.1c-4.5-0.7-12.2-1.4-20-1.2c-6.7,0-14.5,0.3-20,1.2
			c-5.6,0.9-7.8,1.9-7.8,3.1c0,0.7,0,1.2-1.1,1.9c0-0.3,1.1-0.7,1.1-1.2c-1.1,1.7-4.5,3.3-8.9,4.8c1.1-0.3,2.2-0.7,3.3-1
			c-1.1,0.5-2.2,0.9-4.5,1.4c-3.3,1-4.5,2.2-3.3,3.3c2.2,1,6.7,2.1,12.2,2.6c6.7,0.5,14.5,0.9,21.2,0.5
			C180.2,84.8,186.9,84.2,190.2,83.1L190.2,83.1z"/>
	</g>
</g>
<g>
	<g>
		<path class="st0" d="M138.4,65C138.2,65.5,138.2,65.7,138.4,65c0,0.7-0.2,0.9-0.3,1.4c0,0.5-0.2,0.7-0.2,1.2
			c-0.2,0.7,0.2-0.5-0.2,0.5c-0.2,0.7-0.6,1.4-1,1.8c0,0-0.8,1.1-0.4,0.7c0.2-0.5-0.4,0.4-0.4,0.4c-0.4,0.7-0.9,1.3-1.5,1.8
			c-0.2,0.2-0.5,0.4-0.7,0.7c-1.1,1.1,0.4-0.2-0.4,0.2c-1.1,0.9-2.3,1.7-3.4,2.4c-0.7,0.4,0.5-0.2-0.2,0c-0.4,0.2-0.7,0.2-1.1,0.4
			c-0.7,0.4-1.6,0.6-2.3,0.8c-1.6,0.4-2.6,0.5-4.2,0.7c-3.3,0.3-6.4-0.2-9.6-0.4c-2.2-0.1-4.5,2.5-4.6,5.6c-0.2,3.3,1.5,5.9,3.9,6.1
			c7.5,0.7,15.3,1.2,22.4-3.3c6.4-3.8,11.2-11.5,12.5-20.7c0.4-3-1.7-6-3.9-6.1C140.5,59.3,138.8,61.7,138.4,65L138.4,65z"/>
	</g>
</g>
<g>
	<g>
		<path class="st0" d="M48.1,85.6c-0.7-0.1-1.4-0.2-2.3-0.3c0.5,0.1,0.9,0.2,1.6,0.3c-0.9-0.2-2.1-0.5-3-0.7
			c0.5,0.2,0.9,0.3,1.4,0.5c-1.4-0.4-2.5-1-3.6-1.4c0.5,0.2,0.7,0.4,1.1,0.6c-2.2-1.1-4-2.3-5.7-3.6c-0.9-0.6-2.7-1.1-4.1-1.3
			c-1.4-0.2-3.1-0.1-4.3,0.2c-1,0.4-2,0.9-1.9,1.6c-0.1,0.7,0.5,1.3,1.4,2.1c2.2,1.5,4.6,3,7.5,4.5c2.9,1.4,7,2.6,11,2.9
			c1.6,0.1,3.1,0.2,4.3-0.2c1-0.3,2-1,1.9-1.6c0.1-0.7-0.3-1.4-1.4-2.1C51.1,86.4,49.5,85.8,48.1,85.6L48.1,85.6z"/>
	</g>
</g>
<g>
	<path class="st1" d="M69,76.8c-0.4,0.2-1.3,0.4-2.5,0.4c-2.7,0-4.7-1.7-4.7-4.8c0-3,2-5,4.9-5c1.2,0,1.9,0.3,2.2,0.4l-0.3,1
		c-0.5-0.2-1.1-0.4-1.9-0.4c-2.2,0-3.7,1.4-3.7,3.9c0,2.3,1.3,3.8,3.6,3.8c0.7,0,1.5-0.2,2-0.4L69,76.8z"/>
	<path class="st1" d="M78.3,72.3c0,3.3-2,5-4.4,5c-2.5,0-4.2-1.9-4.2-4.8c0-3,1.9-5,4.4-5C76.7,67.5,78.3,69.5,78.3,72.3z M71,72.5
		c0,2,1.1,3.8,3,3.8c1.9,0,3-1.8,3-3.9c0-1.9-1-3.8-3-3.8C72,68.5,71,70.4,71,72.5z"/>
	<path class="st1" d="M87.9,73c-0.1-1.3-0.2-2.9-0.1-4.1h0c-0.3,1.1-0.7,2.3-1.2,3.6l-1.7,4.6h-0.9l-1.5-4.5
		c-0.4-1.3-0.8-2.5-1.1-3.7h0c0,1.2-0.1,2.8-0.2,4.2l-0.3,4h-1.2l0.7-9.4h1.6l1.6,4.6c0.4,1.2,0.7,2.2,1,3.2h0c0.2-1,0.6-2,1-3.2
		l1.7-4.6h1.6l0.6,9.4h-1.2L87.9,73z"/>
	<path class="st1" d="M92.4,67.7v9.4h-1.2v-9.4H92.4z"/>
	<path class="st1" d="M94.5,77.1v-9.4h1.3l3,4.8c0.7,1.1,1.2,2.1,1.7,3.1l0,0c-0.1-1.3-0.1-2.4-0.1-3.9v-3.9h1.1v9.4h-1.2l-3-4.8
		c-0.7-1.1-1.3-2.1-1.8-3.2l0,0c0.1,1.2,0.1,2.3,0.1,3.9v4H94.5z"/>
	<path class="st1" d="M110.9,76.7c-0.5,0.2-1.6,0.5-2.9,0.5c-1.4,0-2.6-0.4-3.5-1.2c-0.8-0.8-1.3-2-1.3-3.5c0-2.8,1.9-4.9,5.1-4.9
		c1.1,0,1.9,0.2,2.4,0.4l-0.3,1c-0.5-0.2-1.1-0.4-2.1-0.4c-2.3,0-3.8,1.4-3.8,3.8c0,2.4,1.4,3.8,3.6,3.8c0.8,0,1.3-0.1,1.6-0.3v-2.8
		h-1.9v-1h3.1V76.7z"/>
	<path class="st1" d="M115.6,75.6c0.5,0.3,1.3,0.6,2.2,0.6c1.2,0,2-0.7,2-1.6c0-0.9-0.5-1.4-1.8-1.9c-1.5-0.5-2.5-1.3-2.5-2.7
		c0-1.5,1.2-2.6,3.1-2.6c1,0,1.7,0.2,2.1,0.5l-0.3,1c-0.3-0.2-0.9-0.4-1.8-0.4c-1.3,0-1.8,0.8-1.8,1.4c0,0.9,0.6,1.3,1.9,1.8
		c1.6,0.6,2.4,1.4,2.4,2.8c0,1.5-1.1,2.7-3.3,2.7c-0.9,0-1.9-0.3-2.4-0.6L115.6,75.6z"/>
	<path class="st1" d="M130.7,72.3c0,3.3-2,5-4.4,5c-2.5,0-4.2-1.9-4.2-4.8c0-3,1.9-5,4.4-5C129,67.5,130.7,69.5,130.7,72.3z
		 M123.4,72.5c0,2,1.1,3.8,3,3.8c1.9,0,3-1.8,3-3.9c0-1.9-1-3.8-3-3.8C124.4,68.5,123.4,70.4,123.4,72.5z"/>
	<path class="st1" d="M140.4,72.3c0,3.3-2,5-4.4,5c-2.5,0-4.2-1.9-4.2-4.8c0-3,1.9-5,4.4-5C138.7,67.5,140.4,69.5,140.4,72.3z
		 M133,72.5c0,2,1.1,3.8,3,3.8c1.9,0,3-1.8,3-3.9c0-1.9-1-3.8-3-3.8C134,68.5,133,70.4,133,72.5z"/>
	<path class="st1" d="M141.9,77.1v-9.4h1.3l3,4.8c0.7,1.1,1.2,2.1,1.7,3.1l0,0c-0.1-1.3-0.1-2.4-0.1-3.9v-3.9h1.1v9.4h-1.2l-3-4.8
		c-0.7-1.1-1.3-2.1-1.8-3.2l0,0c0.1,1.2,0.1,2.3,0.1,3.9v4H141.9z"/>
	<path class="st1" d="M61.4,78.9v-0.7h88.7v0.7H61.4z"/>
</g>
<g class="st2">
	<path class="st1" d="M40,42.4c1.1,0.9,1.6,2.2,1.6,3.9c0,0.8-0.1,1.7-0.4,2.6c-0.5,1.7-1.2,3.1-2.1,4.3c-1,1.2-2.1,2.1-3.4,2.7
		c-1.3,0.6-2.7,0.9-4.3,0.9c-1.9,0-3.4-0.4-4.4-1.3s-1.6-2.2-1.6-3.9c0-0.8,0.1-1.7,0.4-2.7c0.4-1.7,1.1-3.1,2.1-4.3
		c0.9-1.2,2.1-2.1,3.4-2.7c1.3-0.6,2.7-0.9,4.3-0.9C37.4,41.1,38.9,41.5,40,42.4z M33.9,43.8c-0.4,0.4-0.7,1-1.1,1.8
		c-0.4,0.8-0.7,2-1.1,3.4c-0.6,2.1-0.9,3.6-0.9,4.4c0,0.5,0.1,0.8,0.2,1c0.2,0.2,0.4,0.3,0.8,0.3c0.5,0,0.9-0.2,1.2-0.6
		c0.4-0.4,0.7-1,1.1-1.8c0.3-0.8,0.7-1.9,1.2-3.4c0.6-2.1,0.9-3.5,0.9-4.4c0-0.5-0.1-0.8-0.2-1c-0.2-0.2-0.4-0.3-0.8-0.3
		C34.6,43.3,34.2,43.5,33.9,43.8z"/>
</g>
<g class="st2">
	<path class="st1" d="M55,49.4c-0.6,0.4-1.3,0.7-2.1,0.8c0.6,0.1,1.1,0.2,1.4,0.5c0.3,0.3,0.5,0.7,0.5,1.2c0,0.2,0,0.4-0.1,0.7
		l-0.2,0.9c0,0.1,0,0.2,0,0.3c0,0.2,0,0.3,0.1,0.4c0.1,0.1,0.2,0.1,0.3,0.1c0.3,0,0.5,0,0.6,0.1s0.2,0.2,0.1,0.4
		c-0.1,0.3-0.2,0.6-0.5,0.9c-0.3,0.3-0.6,0.5-1.1,0.7s-1,0.3-1.7,0.3c-0.8,0-1.5-0.2-2-0.6c-0.5-0.4-0.7-0.9-0.7-1.6
		c0-0.3,0-0.6,0.1-0.9l0.3-1.2c0.1-0.2,0.1-0.3,0.1-0.5c0-0.3-0.1-0.5-0.3-0.6s-0.5-0.2-0.9-0.2h-0.7l-0.9,3.2c0,0.1,0,0.2,0,0.3
		c0,0.2,0,0.3,0.1,0.5c0.1,0.1,0.2,0.3,0.4,0.4c0.1,0.1,0.2,0.2,0.3,0.3s0.1,0.2,0.1,0.3c0,0.2-0.1,0.4-0.3,0.5s-0.5,0.1-0.9,0.1
		h-4.8c-0.3,0-0.6-0.1-0.7-0.2c-0.2-0.1-0.2-0.3-0.2-0.5c0-0.1,0.1-0.2,0.1-0.3s0.2-0.1,0.3-0.2c0.2-0.1,0.4-0.3,0.5-0.4
		s0.2-0.4,0.3-0.6l2.3-8.2c0.1-0.2,0.1-0.3,0.1-0.5c0-0.1,0-0.3-0.1-0.4c0-0.1-0.1-0.2-0.2-0.3c-0.1-0.2-0.2-0.3-0.2-0.4
		c0,0,0-0.1,0-0.2c0.1-0.2,0.2-0.3,0.3-0.4c0.2-0.1,0.4-0.1,0.8-0.1H52c0.9,0,1.6,0.1,2.3,0.4c0.7,0.3,1.2,0.6,1.5,1.1
		s0.5,1,0.5,1.6c0,0.3,0,0.5-0.1,0.8C56,48.4,55.6,49,55,49.4z M51.4,46.8c0-0.7-0.4-1-1.1-1h-0.8l-0.8,3.4h0.8
		c0.5,0,0.9-0.1,1.2-0.4c0.3-0.2,0.5-0.7,0.7-1.3C51.4,47.2,51.4,47,51.4,46.8z"/>
	<path class="st1" d="M69.5,44.9c1,0.7,1.4,1.8,1.4,3.2c0,0.7-0.1,1.5-0.4,2.4c-0.4,1.5-1,2.6-1.7,3.5s-1.6,1.5-2.8,1.9
		c-1.2,0.4-2.6,0.6-4.5,0.6h-5.2c-0.3,0-0.5,0-0.6-0.1s-0.2-0.2-0.2-0.4c0-0.1,0-0.2,0.1-0.2c0-0.1,0.1-0.2,0.2-0.2s0.2-0.1,0.3-0.2
		c0.2-0.1,0.4-0.2,0.5-0.4c0.1-0.1,0.2-0.4,0.3-0.7l2.3-8.2c0.1-0.2,0.1-0.3,0.1-0.5c0-0.1,0-0.3-0.1-0.4c0-0.1-0.1-0.2-0.2-0.3
		c-0.1-0.2-0.2-0.3-0.2-0.4c0,0,0-0.1,0-0.2c0.1-0.2,0.2-0.3,0.3-0.4c0.2-0.1,0.4-0.1,0.8-0.1H65C67.1,43.8,68.5,44.2,69.5,44.9z
		 M66.2,47.3c0-0.7-0.1-1.1-0.4-1.4c-0.3-0.3-0.7-0.4-1.2-0.4h-0.4l-2.6,9.2H62c0.6,0,1.1-0.1,1.5-0.4c0.4-0.2,0.8-0.7,1.1-1.4
		c0.3-0.7,0.7-1.6,1.1-2.9C66,48.9,66.2,48,66.2,47.3z"/>
	<path class="st1" d="M83.9,44.1c0.3,0.2,0.4,0.5,0.4,0.8c0,0.2,0,0.3-0.1,0.5l-0.5,1.8c-0.1,0.3-0.2,0.6-0.4,0.7
		c-0.2,0.1-0.4,0.2-0.7,0.2c-0.3,0-0.5-0.1-0.7-0.2c-0.2-0.1-0.3-0.4-0.4-0.7l-0.3-1.1C81.1,46,81,45.8,81,45.8s-0.3-0.1-0.5-0.1h-2
		l-1,3.4h0.8c0.1,0,0.2-0.1,0.4-0.2l0.6-0.6c0.2-0.2,0.4-0.3,0.5-0.4c0.1-0.1,0.3-0.1,0.5-0.1s0.4,0.1,0.6,0.2
		c0.1,0.1,0.2,0.3,0.2,0.5c0,0.1,0,0.1,0,0.2l-0.8,2.6c-0.1,0.3-0.2,0.5-0.4,0.6c-0.2,0.1-0.4,0.2-0.6,0.2c-0.4,0-0.6-0.2-0.8-0.6
		l-0.3-0.7c-0.1-0.2-0.2-0.3-0.4-0.3H77l-1.1,4h1.7c0.2,0,0.5,0,0.6-0.1c0.2-0.1,0.4-0.3,0.6-0.5l1.1-1.3c0.2-0.2,0.4-0.4,0.6-0.5
		s0.4-0.1,0.7-0.1c0.3,0,0.5,0.1,0.7,0.2c0.2,0.1,0.3,0.3,0.3,0.6c0,0.1,0,0.2-0.1,0.4l-0.6,1.9c-0.1,0.5-0.3,0.8-0.6,1
		s-0.7,0.3-1.2,0.3h-9.1c-0.3,0-0.5,0-0.6-0.1s-0.2-0.2-0.2-0.4c0-0.1,0-0.2,0.1-0.2c0.1-0.1,0.1-0.2,0.2-0.3s0.2-0.1,0.2-0.1
		c0.2-0.1,0.4-0.3,0.5-0.4c0.1-0.1,0.2-0.4,0.3-0.7l2.3-8.2c0.1-0.2,0.1-0.3,0.1-0.5s0-0.3-0.1-0.4s-0.1-0.2-0.2-0.3
		c-0.1-0.2-0.2-0.3-0.2-0.4c0,0,0-0.1,0-0.2c0.1-0.2,0.2-0.3,0.3-0.4c0.2-0.1,0.4-0.1,0.8-0.1h8.4C83.3,43.8,83.6,43.9,83.9,44.1z"
		/>
	<path class="st1" d="M96.5,49.4c-0.6,0.4-1.3,0.7-2.1,0.8c0.6,0.1,1.1,0.2,1.4,0.5s0.5,0.7,0.5,1.2c0,0.2,0,0.4-0.1,0.7L96,53.5
		c0,0.1,0,0.2,0,0.3c0,0.2,0,0.3,0.1,0.4c0.1,0.1,0.2,0.1,0.3,0.1c0.3,0,0.5,0,0.6,0.1s0.2,0.2,0.1,0.4c-0.1,0.3-0.2,0.6-0.5,0.9
		c-0.3,0.3-0.6,0.5-1.1,0.7s-1,0.3-1.7,0.3c-0.8,0-1.5-0.2-2-0.6c-0.5-0.4-0.7-0.9-0.7-1.6c0-0.3,0-0.6,0.1-0.9l0.3-1.2
		c0.1-0.2,0.1-0.3,0.1-0.5c0-0.3-0.1-0.5-0.3-0.6c-0.2-0.1-0.5-0.2-0.9-0.2h-0.7l-0.9,3.2c0,0.1,0,0.2,0,0.3c0,0.2,0,0.3,0.1,0.5
		c0.1,0.1,0.2,0.3,0.4,0.4c0.1,0.1,0.2,0.2,0.3,0.3c0.1,0.1,0.1,0.2,0.1,0.3c0,0.2-0.1,0.4-0.3,0.5c-0.2,0.1-0.5,0.1-0.9,0.1h-4.8
		c-0.3,0-0.6-0.1-0.7-0.2c-0.2-0.1-0.2-0.3-0.2-0.5c0-0.1,0.1-0.2,0.1-0.3s0.2-0.1,0.3-0.2c0.2-0.1,0.4-0.3,0.5-0.4s0.2-0.4,0.3-0.6
		l2.3-8.2c0.1-0.2,0.1-0.3,0.1-0.5c0-0.1,0-0.3-0.1-0.4c0-0.1-0.1-0.2-0.2-0.3c-0.1-0.2-0.2-0.3-0.2-0.4c0,0,0-0.1,0-0.2
		c0.1-0.2,0.2-0.3,0.3-0.4C86.4,44,86.6,44,87,44h6.4c0.9,0,1.6,0.1,2.3,0.4c0.7,0.3,1.2,0.6,1.5,1.1s0.5,1,0.5,1.6
		c0,0.3,0,0.5-0.1,0.8C97.5,48.4,97.1,49,96.5,49.4z M92.9,46.8c0-0.7-0.4-1-1.1-1H91l-0.8,3.4H91c0.5,0,0.9-0.1,1.2-0.4
		c0.3-0.2,0.5-0.7,0.7-1.3C92.9,47.2,92.9,47,92.9,46.8z"/>
</g>
<g class="st2">
	<path class="st1" d="M119.9,42.4c1.1,0.9,1.6,2.2,1.6,3.9c0,0.8-0.1,1.7-0.4,2.6c-0.5,1.7-1.2,3.1-2.1,4.3s-2.1,2.1-3.4,2.7
		c-1.3,0.6-2.7,0.9-4.3,0.9c-1.9,0-3.4-0.4-4.4-1.3s-1.6-2.2-1.6-3.9c0-0.8,0.1-1.7,0.4-2.7c0.4-1.7,1.1-3.1,2.1-4.3
		c0.9-1.2,2.1-2.1,3.4-2.7s2.7-0.9,4.3-0.9C117.3,41.1,118.8,41.5,119.9,42.4z M113.8,43.8c-0.4,0.4-0.7,1-1.1,1.8s-0.7,2-1.1,3.4
		c-0.6,2.1-0.9,3.6-0.9,4.4c0,0.5,0.1,0.8,0.3,1c0.2,0.2,0.4,0.3,0.8,0.3c0.5,0,0.9-0.2,1.2-0.6c0.4-0.4,0.7-1,1.1-1.8
		c0.3-0.8,0.7-1.9,1.2-3.4c0.6-2.1,0.9-3.5,0.9-4.4c0-0.5-0.1-0.8-0.2-1c-0.2-0.2-0.4-0.3-0.8-0.3C114.6,43.3,114.2,43.5,113.8,43.8
		z"/>
</g>
<g class="st2">
	<path class="st1" d="M137.7,44.3c0,0.1,0,0.2,0,0.2c0,0.1-0.1,0.2-0.2,0.3c-0.1,0.1-0.2,0.1-0.3,0.2c-0.2,0.1-0.3,0.2-0.5,0.4
		c-0.1,0.1-0.2,0.4-0.3,0.6l-2.4,8.4c-0.2,0.8-0.5,1.3-0.8,1.6s-0.8,0.5-1.3,0.5s-0.9-0.1-1.3-0.4s-0.7-0.8-0.9-1.4l-2.9-6.1
		l-1.6,5.6c0,0.2-0.1,0.3-0.1,0.4c0,0.2,0,0.3,0.1,0.4c0.1,0.1,0.1,0.2,0.2,0.3c0.1,0.2,0.2,0.3,0.2,0.4c0,0.1,0,0.1,0,0.2
		c-0.1,0.2-0.2,0.3-0.3,0.4s-0.4,0.1-0.8,0.1h-2.1c-0.5,0-0.8-0.2-0.8-0.5c0-0.1,0-0.2,0-0.2c0-0.1,0.1-0.2,0.2-0.3s0.2-0.1,0.3-0.2
		c0.2-0.1,0.3-0.2,0.5-0.4s0.2-0.4,0.3-0.6l2.4-8.5l-0.3-0.6c-0.1-0.3-0.2-0.5-0.2-0.7c0-0.4,0.3-0.6,0.8-0.6h2.8
		c0.4,0,0.7,0.1,0.9,0.3s0.4,0.5,0.7,1l2.8,5.6l1.3-4.6c0-0.2,0.1-0.3,0.1-0.4c0-0.2,0-0.3-0.1-0.4c-0.1-0.1-0.1-0.2-0.2-0.3
		c-0.1-0.2-0.2-0.3-0.2-0.4c0-0.1,0-0.1,0-0.2c0.1-0.2,0.2-0.3,0.3-0.4c0.2-0.1,0.4-0.1,0.8-0.1h2.1C137.5,43.8,137.7,44,137.7,44.3
		z"/>
	<path class="st1" d="M148.3,51.8c0.2,0.1,0.3,0.4,0.3,0.6c0,0.1,0,0.2-0.1,0.4l-0.6,2.2c-0.2,0.5-0.4,0.9-0.7,1.1s-0.7,0.3-1.3,0.3
		H137c-0.3,0-0.5,0-0.6-0.1s-0.2-0.2-0.2-0.4c0-0.1,0-0.2,0.1-0.2c0-0.1,0.1-0.2,0.2-0.3c0.1-0.1,0.2-0.1,0.3-0.2
		c0.2-0.1,0.4-0.3,0.5-0.4c0.1-0.1,0.2-0.4,0.3-0.7l2.3-8.2c0.1-0.2,0.1-0.3,0.1-0.5c0-0.1,0-0.3-0.1-0.4c0-0.1-0.1-0.2-0.2-0.3
		c-0.1-0.2-0.2-0.3-0.2-0.4c0,0,0-0.1,0-0.2c0.1-0.2,0.2-0.3,0.3-0.4c0.2-0.1,0.4-0.1,0.8-0.1h4.5c0.3,0,0.5,0,0.6,0.1
		s0.2,0.2,0.2,0.4c0,0.1,0,0.1-0.1,0.2c0,0.1-0.1,0.2-0.2,0.2c-0.1,0.1-0.1,0.1-0.2,0.2c-0.1,0-0.1,0.1-0.1,0.1
		c-0.2,0.1-0.4,0.2-0.5,0.4c-0.1,0.1-0.2,0.4-0.3,0.6l-2.5,8.6h1.2c0.3,0,0.5-0.1,0.8-0.2c0.2-0.1,0.4-0.3,0.7-0.6L146,52
		c0.2-0.3,0.5-0.5,0.7-0.6s0.5-0.2,0.8-0.2C147.8,51.6,148.1,51.7,148.3,51.8z"/>
	<path class="st1" d="M158,43.9c0.1,0.1,0.2,0.2,0.2,0.4c0,0.1,0,0.1-0.1,0.2c0,0.1-0.1,0.2-0.2,0.2c-0.1,0.1-0.1,0.1-0.2,0.2
		c-0.1,0-0.1,0.1-0.1,0.1c-0.2,0.1-0.4,0.2-0.5,0.4s-0.2,0.4-0.3,0.6l-2.3,8.2c-0.1,0.2-0.1,0.3-0.1,0.5s0,0.3,0.1,0.4
		c0,0.1,0.1,0.2,0.2,0.3c0.1,0.2,0.2,0.3,0.2,0.4c0,0,0,0.1,0,0.2c-0.1,0.2-0.2,0.3-0.3,0.4c-0.2,0.1-0.4,0.1-0.8,0.1h-4.5
		c-0.3,0-0.5,0-0.6-0.1s-0.2-0.2-0.2-0.4c0-0.1,0-0.2,0.1-0.2c0.1-0.1,0.1-0.2,0.2-0.3s0.2-0.1,0.2-0.1c0.2-0.1,0.4-0.3,0.5-0.4
		c0.1-0.1,0.2-0.4,0.3-0.7l2.3-8.2c0-0.2,0.1-0.3,0.1-0.5c0-0.1,0-0.3-0.1-0.4c0-0.1-0.1-0.2-0.2-0.3c-0.1-0.2-0.2-0.3-0.2-0.4
		c0,0,0-0.1,0-0.2c0.1-0.2,0.2-0.3,0.3-0.4c0.2-0.1,0.4-0.1,0.8-0.1h4.5C157.7,43.8,157.9,43.9,158,43.9z"/>
	<path class="st1" d="M172.8,44.3c0,0.1,0,0.2,0,0.2c0,0.1-0.1,0.2-0.2,0.3c-0.1,0.1-0.2,0.1-0.3,0.2c-0.2,0.1-0.3,0.2-0.5,0.4
		c-0.1,0.1-0.2,0.4-0.3,0.6l-2.4,8.4c-0.2,0.8-0.5,1.3-0.8,1.6s-0.8,0.5-1.3,0.5s-0.9-0.1-1.3-0.4s-0.7-0.8-0.9-1.4l-2.9-6.1
		l-1.6,5.6c0,0.2-0.1,0.3-0.1,0.4c0,0.2,0,0.3,0.1,0.4c0.1,0.1,0.1,0.2,0.2,0.3c0.1,0.2,0.2,0.3,0.2,0.4c0,0.1,0,0.1,0,0.2
		c-0.1,0.2-0.2,0.3-0.3,0.4s-0.4,0.1-0.8,0.1h-2.1c-0.5,0-0.8-0.2-0.8-0.5c0-0.1,0-0.2,0-0.2c0-0.1,0.1-0.2,0.2-0.3
		c0.1-0.1,0.2-0.1,0.3-0.2c0.2-0.1,0.3-0.2,0.5-0.4s0.2-0.4,0.3-0.6l2.4-8.5l-0.3-0.6c-0.1-0.3-0.2-0.5-0.2-0.7
		c0-0.4,0.3-0.6,0.8-0.6h2.8c0.4,0,0.7,0.1,0.9,0.3s0.4,0.5,0.7,1l2.8,5.6l1.3-4.6c0-0.2,0.1-0.3,0.1-0.4c0-0.2,0-0.3-0.1-0.4
		c-0.1-0.1-0.1-0.2-0.2-0.3c-0.1-0.2-0.2-0.3-0.2-0.4c0-0.1,0-0.1,0-0.2c0.1-0.2,0.2-0.3,0.3-0.4c0.2-0.1,0.4-0.1,0.8-0.1h2.1
		C172.5,43.8,172.8,44,172.8,44.3z"/>
	<path class="st1" d="M185.1,44.1c0.3,0.2,0.4,0.5,0.4,0.8c0,0.2,0,0.3-0.1,0.5l-0.5,1.8c-0.1,0.3-0.2,0.6-0.4,0.7
		c-0.2,0.1-0.4,0.2-0.7,0.2s-0.5-0.1-0.7-0.2c-0.2-0.1-0.3-0.4-0.4-0.7l-0.3-1.1c-0.1-0.2-0.1-0.4-0.2-0.5s-0.3-0.1-0.5-0.1h-2
		l-1,3.4h0.8c0.1,0,0.2-0.1,0.4-0.2l0.6-0.6c0.2-0.2,0.4-0.3,0.5-0.4s0.3-0.1,0.5-0.1s0.4,0.1,0.6,0.2c0.1,0.1,0.2,0.3,0.2,0.5
		c0,0.1,0,0.1,0,0.2l-0.8,2.6c-0.1,0.3-0.2,0.5-0.4,0.6s-0.4,0.2-0.6,0.2c-0.4,0-0.6-0.2-0.8-0.6l-0.3-0.7c-0.1-0.2-0.2-0.3-0.4-0.3
		h-0.7l-1.1,4h1.7c0.2,0,0.5,0,0.6-0.1s0.4-0.3,0.6-0.5l1.1-1.3c0.2-0.2,0.4-0.4,0.6-0.5c0.2-0.1,0.4-0.1,0.7-0.1s0.5,0.1,0.7,0.2
		s0.3,0.3,0.3,0.6c0,0.1,0,0.2-0.1,0.4l-0.6,1.9c-0.1,0.5-0.3,0.8-0.6,1s-0.7,0.3-1.2,0.3h-9.1c-0.3,0-0.5,0-0.6-0.1
		s-0.2-0.2-0.2-0.4c0-0.1,0-0.2,0.1-0.2c0.1-0.1,0.1-0.2,0.2-0.3s0.2-0.1,0.2-0.1c0.2-0.1,0.4-0.3,0.5-0.4c0.1-0.1,0.2-0.4,0.3-0.7
		l2.3-8.2c0.1-0.2,0.1-0.3,0.1-0.5s0-0.3-0.1-0.4c0-0.1-0.1-0.2-0.2-0.3c-0.1-0.2-0.2-0.3-0.2-0.4c0,0,0-0.1,0-0.2
		c0.1-0.2,0.2-0.3,0.3-0.4c0.2-0.1,0.4-0.1,0.8-0.1h8.4C184.5,43.8,184.9,43.9,185.1,44.1z"/>
</g>
</svg>
