<?xml version="1.0" encoding="utf-8"?>
<!-- Generator: Adobe Illustrator 24.0.1, SVG Export Plug-In . SVG Version: 6.00 Build 0)  -->
<svg version="1.1" id="Layer_1" xmlns="http://www.w3.org/2000/svg" xmlns:xlink="http://www.w3.org/1999/xlink" x="0px" y="0px"
	 viewBox="0 0 1632 774" style="enable-background:new 0 0 1632 774;" xml:space="preserve">
<style type="text/css">
	.st0{fill:#19181F;}
	.st1{fill:#F7ECDA;stroke:#F7ECDA;stroke-miterlimit:10;}
	.st2{fill:#F7ECDA;stroke:#F7ECDA;stroke-width:0.75;stroke-miterlimit:10;}
	.st3{fill:#F7ECDA;stroke:#F7ECDA;stroke-width:6;stroke-miterlimit:10;}
	.st4{fill:none;}
	.st5{font-family:'Gotham-Light';}
	.st6{font-size:119px;}
	.st7{letter-spacing:-1;}
</style>
<g>
	<path class="st0" d="M1624,435.9c-0.9-14.5-5.3-30.7-10.9-41.3c-9.9-18.9-21.2-36.3-33.3-50.1c-12.1-13.7-15.1-32.2-14.2-55
		c0.6-15.8-2.1-27.2-8.3-38.5c-4-7.4-4.8-20.2-8-29.6c-5.1-15.1-11-29.2-16.4-43.3c0,0,2.8-1.5,5.9-3.2c-1.1-2.9-1.5-5.1-2.1-5.2
		c-50.6-15.3-101.3-30.1-151.9-46.2c-4.6-1.5-8.3-11.3-12.5-17c-1.9-2.6-4.1-6-6.3-6.5C1306.5,88.2,1247,75,1187.3,66
		c-35.1-5.3-70.6-4.3-105.9-5.3c-28.4-0.8-56.8,0.9-85.1-0.6c-16.7-0.9-33.3-7.3-50-8.7c-19.8-1.7-39.7-0.2-59.5-1
		c-13.2-0.5-26.4-3.2-39.6-4c-33.8-2.1-67.6-3-101.4-5.8c-13.2-1.1-26.4-6-39.6-9.2h-90.7c-3.5,1.5-7.1,2.9-10.6,4.4
		c-3.6,0-7.3,0-10.9,0.1c-2.5-0.1-5-0.3-7.5-0.4c-3.7,0.2-7.5,0.4-11.2,0.6c-4.4-1.5-8.8-3.1-13.2-4.6h-26.7
		c-10.8,25.2-24.3,2.6-36.5,5.6c-39.3,9.5-79.1,12.9-118.7,18.4c-15.7,2.2-31.4,2.8-47.1,5.5c-32.4,5.4-64.8,11.8-97.2,17.6
		c-14.5,2.6-29.1,3.1-43.5,6.9c-2.4,0.6-4.8,1.3-7.1,1.9c-8.6,5.7-19.1,7.6-29.7,8.4c-3.1,0.9-6.1,1.8-9.2,2.7
		c76.3,28.6,157.1,41.4,236.9,54.9c6.3,1.1,3.6,11.1-2.7,10c-26.8-4.6-53.7-8.9-80.5-13.8c-45.8-8.4-91.3-19-135.5-33.8
		c-11.5-3.9-22.9-8-34.2-12.6c-8.1,2.5-16.2,5-24.4,7.5c-3.1,2.6-6.4,4.9-9.6,7.3c-3.1,2.3-6.2,4.7-9,7.3c-0.1,0.2-0.1,0.3-0.2,0.5
		c2.3,2.7,4.8,8.2,6.9,7.7c12.6-2.9,25.1-7.2,37.6-11c5.1-1.5,10.3-2.8,16.2,1c-6.9,3.7-13.7,8.3-20.7,10.9
		c-10.8,3.9-21.7,5.6-32.5,9.8c-3.3,1.3-6,7.6-9,11.6c0.7,1.7,1.4,3.4,2.1,5c6.8-1.3,13.6-2.5,20.4-3.8c0.1,1.8,0.3,3.6,0.4,5.4
		c-7.2,2.6-14.4,5.2-21.5,7.8c-2.1,44.4-25.5,7.7-34.1,29.7c10.2,26.6,25.5,6,38,13.6c-17.8,13.4-39,4.6-58.1,30.9
		c13-1.5,22.4-2.6,32.8-3.8c-10.4,21.8-31.8,0.2-38,38.3c4.9,1.2,8.3,2,11.6,2.9l-0.3,2.5c-6.2,0.8-12.5,1.7-18.7,2.5
		c0,1.8,0.1,3.7,0.1,5.5h14.8c0.2,1.7,0.3,3.3,0.5,5c-4,1.4-7.9,2.9-13.5,4.9c2.9,4.6,4.7,7.5,7.4,11.7c-5.4-0.8-8.1,1.1-9.4,4.5
		c5.9,0.1,11.8,0.1,17.6,0.1c6.4,0,6.4,10.4,0,10.4c-6.2,0-12.4,0-18.6-0.1c0.5,10.4,2.9,23.3-3.3,28.1h23.1
		c0.2,2.1,0.3,4.3,0.5,6.4c-4.6,1.7-9.7,1.7-13.7,5.7c-3.3,3.3-5.1,11.4-9.4,22h44c0.3,1.5,0.6,3.1,0.9,4.6
		c-4.9,4.2-9.7,8.5-17.7,15.4c23.3,2.1,43.2,3.8,63.6,5.6c-3.8,4-7.7,8-15.2,15.8h31.3c0.1,1,0.2,2,0.3,3.1
		c-7.7,2-15.6,2.6-22.9,6.4c-6,3.1-11.5,10-17.1,15.3c0.5,2.5,1,5,1.5,7.5c4.1,0.7,8.2,1.5,12.4,2.2c0,1.3,0,2.6-0.1,3.9H76.9
		c0.3,9.8,2.1,18.4,0.5,23.7c-4.8,16.1-10.9,30.8-16.7,46.9c2.4,3.8,4.6,7.2,6.6,10.5c-9.2,16.8-7.3,37.5-4.6,56.9
		c0.8,5.7,7.5,13.1,11,12.4c24.5-4.9,48.8-12.6,73.3-17.6c22.8-4.7,45.7-8.3,68.6-10.6c54.9-5.5,109.8-8.6,164.6-15.3
		c47.2-5.8,94.2-15.2,141.3-23c6.1-1,12.1-3.4,13.7,13.3c0.3,2.8,7,5.1,10.8,5c37-0.9,73.9-3.7,110.9-3.5
		c72.3,0.4,144.6,2,216.9,4.1c24.1,0.7,48.1,4.5,72.2,8.7c-22.2,1.9-44.5,3.7-67,5.6c2.8,1.6,5.6,4.3,8.5,4.5
		c39.8,3.5,79.5,7,119.3,9.9c70.4,5.2,140.9,8.4,211.2,15.6c50.7,5.2,101.4,14.2,152,24c37.6,7.3,75,18.8,112.4,28
		c30.8,7.6,61.7,14.7,92,21.9c-5.2-15.3-6.2-14-69.8-32c-23.7-6.7-46.6-23.7-69.7-40.6c46.3,10.4,92.6,20.8,138.9,31.2
		c0.1-1.5,0.3-3,0.4-4.6c-34.9-12.6-69.7-25.3-104.6-37.9c-6.5-1.4-13-2.4-19.5-4.1c-16.7-4.5-33.3-9.4-50-14.1
		c0.1-2,0.3-3.9,0.4-5.9c23,6,46,12,69,18c10.1,1.8,20.1,4.8,30.2,5.3c17.9,0.8,36.6,5.6,53.6-1.9c13.7-6.1,25.4-27.4,37.8-42.6
		c7.2-8.9,14.2-18.5,20.8-28.9c4.4-7,10.5-15.4,11.2-24.3C1624.9,485.1,1625.6,460,1624,435.9z M370.9,77.2c14.3-2,27.9-4,43-6.1
		C402.2,87.5,380.2,90.3,370.9,77.2z M433.1,67.9c21-3.1,38.7-5.8,56.5-8.4C476.6,78.6,444.6,83.5,433.1,67.9z M493,67.2
		c-0.1-2-0.1-4.1-0.2-6.1c14.5-1.6,28.9-3.1,43.4-4.7c0.2,3.6,0.4,7.2,0.7,10.8H493z M609.5,65.6c-16.5-1.6-33-3.3-49.6-4.9
		c0-1.6,0.1-3.1,0.1-4.7h49.8C609.7,59.2,609.6,62.4,609.5,65.6z M1214.1,113.9c77.2-4,153.2,15.3,229.1,38.6
		C1366.8,139.6,1290.5,126.7,1214.1,113.9z"/>
	<path class="st0" d="M575.3,37c-4.4-1.5-8.8-3.1-13.2-4.6c4.4,0,8.9,0,13.3,0C575.8,34,575.7,35.5,575.3,37z"/>
	<path class="st0" d="M575.3,37c0.4-1.5,0.5-3,0.2-4.6c3.6,0,7.1,0,10.7,0c0.2,1.3,0.3,2.7,0.4,4C582.8,36.6,579,36.8,575.3,37z"/>
	<path class="st0" d="M604.9,36.7c-3.6,0-7.3,0-10.9,0.1c0.2-1.5,0.3-2.9,0.1-4.4c3.6,0,7.1,0,10.7,0
		C604.8,33.8,604.8,35.3,604.9,36.7z"/>
	<path class="st0" d="M604.9,36.7c-0.1-1.5-0.1-2.9-0.1-4.4c3.6,0,7.1,0,10.7,0C612,33.8,608.4,35.3,604.9,36.7z"/>
	<path class="st0" d="M594.1,32.4c0.1,1.5,0.1,3-0.1,4.4c-2.5-0.1-5-0.3-7.5-0.4c-0.1-1.4-0.2-2.7-0.4-4
		C588.8,32.4,591.5,32.4,594.1,32.4z"/>
	<path class="st0" d="M639.5,32.4c-2.7,0-5.3,0-8,0C634.2,32.4,636.8,32.4,639.5,32.4z"/>
	<path class="st0" d="M370.9,78.2c14.3-2,27.9-4,43-6.1C402.2,88.5,380.2,91.3,370.9,78.2z"/>
	<path class="st1" d="M592.5,254.8c0-33.7,0-67.4,0-101.1c0-7.6,0.6-8.2,8.3-8.2c46.6,0,93.2,0,139.8,0c8,0,8.6,0.6,8.6,8.5
		c0,1.8,0,3.5-0.1,5.3c-0.1,2.9-1.8,4.4-4.6,4.5c-1.9,0.1-3.9,0.1-5.8,0.1c-39.2,0-78.4,0-117.6,0c-9.2,0-9.4,0.3-9.4,9.6
		c0,24.4,0,48.7,0,73.1c0,9.1,0.3,9.4,9.6,9.4c26.8,0,53.5,0,80.3,0c8.4,0,8.8,0.5,8.9,8.7c0.1,10.5,0.1,10.5-10.4,10.5
		c-26.8,0-53.5,0-80.3,0c-7.4,0-8.1,0.7-8.1,8c0,18.1,0,36.1,0,54.2c0,6.9,0.8,7.7,7.9,7.7c40.2,0,80.3,0,120.5,0
		c8.9,0,9.1,0.2,9.1,9.3c0,1.3-0.1,2.6,0,3.9c0.2,4.3-1.9,6.1-6.2,6c-12.3-0.1-24.5,0-36.8,0c-35.2,0-70.3,0-105.5,0
		c-7.7,0-8.3-0.6-8.3-8.2C592.5,322.2,592.5,288.5,592.5,254.8z"/>
	<path class="st1" d="M1051,363.7c-7.3,0-13.4,0.3-19.4-0.2c-1.5-0.1-3.3-2.9-4-4.8c-7.6-19-15.2-38-22.4-57.2
		c-1.9-5.2-4.8-7.2-10.4-7.2c-26.8,0.2-53.5,0.2-80.3,0c-5,0-7.9,1.7-9.9,6.5c-7.9,19.4-16.2,38.6-24.3,58c-1.4,3.4-3.4,5.3-7.2,5.2
		c-3.7-0.1-7.4,0-11.1,0c-3.9,0-4.7-1.5-3.1-5.1c10.3-23.8,20.9-47.5,30.7-71.6c17.9-44.4,35.3-89,53-133.5c1.1-2.8,2.9-7,5.1-7.5
		c4.7-1.1,9.9-0.7,14.8,0c1.5,0.2,3.1,3.1,3.8,5.1c15.8,39.9,31.6,79.8,47.3,119.7c10.8,27.4,21.6,54.9,32.5,82.3
		C1047.3,356.5,1048.9,359.4,1051,363.7z M954.8,175.6c-1.4,2.8-2.1,4.2-2.7,5.7c-11.4,29-22.8,57.9-34.2,86.9c-2.4,6-1.7,7,4.9,7
		c21.5,0,42.9,0,64.4,0c6.4,0,7-0.9,4.7-6.7c-11.4-29-22.9-57.9-34.3-86.8C957,180.1,956.2,178.5,954.8,175.6z"/>
	<path class="st1" d="M1452.2,363.5c-7,0-13.3,0.2-19.6-0.2c-1.2-0.1-2.6-2.7-3.3-4.4c-7.6-19.2-15.3-38.4-22.6-57.7
		c-1.9-5-4.8-6.9-10.1-6.9c-26.9,0.2-53.9,0.2-80.8,0c-4.9,0-7.6,1.8-9.5,6.4c-8,19.6-16.4,39-24.5,58.5c-1.4,3.3-3.4,4.9-6.9,4.9
		c-3.7-0.1-7.4,0-11.1,0c-3.8,0-4.9-1.3-3.3-5c10.3-23.8,21-47.5,30.7-71.6c17.8-44.1,35.1-88.5,52.6-132.7
		c3.4-8.7,11.1-12.2,19.9-8.6c1.7,0.7,3.2,2.7,3.9,4.5c25.9,65.2,51.6,130.5,77.4,195.8C1447.2,351.9,1449.6,357.3,1452.2,363.5z
		 M1356.6,175.8c-1.3,2.6-2.1,3.8-2.6,5.1c-11.6,29.4-23.2,58.8-34.7,88.2c-2,5-1.1,6.1,4.7,6.1c21.8,0.1,43.5,0.1,65.3,0
		c5.9,0,6.5-1,4.3-6.7c-11.4-29-22.9-57.9-34.3-86.8C1358.7,180.1,1357.9,178.6,1356.6,175.8z"/>
	<path class="st1" d="M1066.8,254.3c0-33.9,0-67.7,0-101.6c0-7.7,0.5-8.2,8.3-8.2c10.9-0.1,10.9-0.1,10.9,10.9c0,59.5,0,119,0,178.5
		c0,1.9,0,3.9,0.1,5.8c0,3.3,1.6,5.1,5,5.2c1.9,0,3.9,0.1,5.8,0.1c38.7,0,77.4,0,116.1,0c9.5,0,9.6,0.1,9.6,9.3
		c0,9.8-0.1,9.9-10.1,9.9c-45.6,0-91.3,0-136.9,0c-8.3,0-8.8-0.5-8.8-8.7C1066.8,321.7,1066.8,288,1066.8,254.3z"/>
	<path class="st1" d="M839.2,264.5c0,30.3,0,60.6,0,91c0,8.2-0.5,8.6-8.3,8.7c-10.9,0.1-10.9,0.1-10.9-11c0-59.3,0-118.7,0-178
		c0-11.3,0-11.3-11.6-11.3c-13.7,0-27.4,0-41.1,0c-6.5,0-7.3-0.9-7.4-7.2c-0.2-12-0.2-12,11.8-12c42.9,0,85.8,0,128.7,0
		c8.1,0,8.5,0.4,8.5,8.5c0,0.6,0,1.3,0,1.9c0,8.3-0.5,8.8-8.7,8.8c-17.7,0-35.5,0-53.2,0c-7,0-7.8,0.8-7.8,7.8
		C839.2,202.6,839.2,233.5,839.2,264.5z"/>
	<path class="st1" d="M1234.4,254.4c0-33.8,0-67.7,0-101.5c0-7.8,0.5-8.2,8.2-8.3c11-0.1,11-0.1,11,10.8c0,65.9,0,131.9,0,197.8
		c0,1.6,0,3.2,0,4.8c0,1,0.1,2.1-0.3,2.9c-3.4,6.1-9.2,2.4-13.9,3.1c-3,0.4-4.8-1.4-4.9-4.6c0-1.8-0.1-3.5-0.1-5.3
		C1234.4,320.8,1234.4,287.6,1234.4,254.4z"/>
	<path class="st2" d="M1491.6,401.8"/>
	<polyline class="st3" points="1488.6,401.8 163.1,401.8 1488.6,401.8 	"/>
	<rect x="180" y="440.9" class="st4" width="1281" height="170"/>
	<text transform="matrix(1 0 0 1 417.2734 527.7581)" class="st1 st5 st6 st7">HOSPITALITY </text>
	<g>
		<g>
			<g>
				<g>
					<path class="st0" d="M375.9,163.8c-0.1-0.1-0.2-0.2-0.3-0.2c0.1-0.2,0.4-0.2,0.7-0.2c-2.9-1.7-6.3-0.2-8.5,2.1
						c-0.8,0-1.5,0.6-1.6,1.5c0,0.9,0.6,1.6,1.5,1.6c0.2,0.1,0.4,0.1,0.6,0.3c1.3,1.2,2.9,2,4.7,2.5c-0.3-0.2-0.7-0.4-1.1-0.7
						c0.5,0.2,1,0.3,1.5,0.3c-0.1-0.1-0.2-0.3-0.2-0.5c1.8,1,4,0.3,5-1.5c0.9-1.8,0.2-3.9-1.5-4.8L375.9,163.8z"/>
					<path class="st0" d="M372.4,159.2c1,0.5,1.9,0.9,2.9,1.4l0.2,0.3l-0.2-1.3l0,0.1c-0.7,1.2-2.1,1.8-3.3,2.2l-0.4,0.2
						c-0.2,0.2-0.3,0.5-0.3,0.7c-0.1,0.6,0.4,1.2,1,1.2l0.7,0.1c1.8,0.6,4.5,0.2,5.2-2.1c0.1-0.5-0.1-1.2-0.3-1.7
						c-0.1-0.9-0.8-1.5-1.6-1.5c-0.8,0-1.5,0.8-1.4,1.7c-0.1,0-0.3-0.1-0.4-0.1c0.1-0.1,0.2-0.2,0.3-0.4c-0.1,0.8-0.9,1-1.4,1.5
						c-0.3,0.1-0.6,0.2-0.8,0.3l0.7,2l0.4-0.3c0-0.1-0.1-0.2-0.1-0.2c0.8-0.7,1.5-1.3,2.4-1.8l1.1-0.9c0.3-0.4,0.2-1-0.2-1.3
						l-0.6-0.4c0.1,0.1,0.2,0.1,0.3,0.2c-1.2-0.3-2.5-0.4-3.7-0.8c-0.2-0.1-0.4,0-0.5,0.2C372.1,158.9,372.2,159.2,372.4,159.2z"/>
					<g>
						<path class="st0" d="M376.5,158.5c0.2,0.1,0.4,0.3,0.7,0.2c0.1-0.1,0.1-0.1,0.1-0.2c-0.1-0.1-0.3-0.2-0.4-0.3
							C376.6,158,376.4,158.2,376.5,158.5z"/>
						<path class="st0" d="M377.3,158.5c0.1,0.1,0.2,0.1,0.2,0.1C377.4,158.6,377.4,158.5,377.3,158.5
							C377.3,158.5,377.3,158.5,377.3,158.5C377.3,158.5,377.3,158.5,377.3,158.5z"/>
						<path class="st0" d="M325.2,160.7c-3.6-1.1-7.2-2.2-10.7-3.4c-0.1,0-0.2,0-0.3,0.1c0,0.1,0,0.2,0.1,0.3
							c3.6,1.2,7.1,2.3,10.7,3.4c0.1,0,0.2,0,0.3-0.2C325.4,160.8,325.4,160.7,325.2,160.7z"/>
						<path class="st0" d="M302.8,141.3c0.1-0.1,0.2-0.2,0.1-0.3c0-0.1-0.2-0.2-0.3-0.1c-0.1,0.1-0.1,0.2-0.1,0.3
							C302.6,141.3,302.7,141.4,302.8,141.3z"/>
						<path class="st0" d="M307,132.3c0.5,0,1-0.1,1.4-0.2c0.1,0,0.2,0,0.2,0.1c0-0.2,0.2-0.3,0.4-0.4c3.6-0.5,7-0.1,10.4-0.1
							c0.1-0.2,0.2-0.3,0.3-0.4c0.4-0.4,0.9-0.6,1.3-0.4l0.3,0.2c1.3,0.6,2.6,1.2,4,1.9c0.3-0.2,0.7-0.2,1.1-0.2
							c1.4-0.4,2.7-0.6,4-0.9c-0.1-0.2-0.1-0.3,0-0.5c0.1-0.4,0.5-0.7,0.8-0.6l0.5,0.1c-0.5-0.2-0.9-0.4-1.4-0.6
							c-0.1,0-0.1-0.1-0.2-0.1c-0.5-0.1-1-0.2-1.6-0.3c-4.7-0.6-9.5-0.2-14.4,0.2c-0.1,0-0.2,0-0.2-0.1c0-0.1,0-0.2,0.1-0.3
							c1.7-0.6,3.3-1.4,5-2.2c0.8-0.4,1.6-0.7,2.4-1c0.8-0.3,1.6-0.6,2.5-0.7c4-0.7,7.8-1.4,11.6-1.9c1.9,0.3,3.7,0.4,5.6,0.2
							c0.9-0.1,1.9-0.2,2.8-0.3c0.9-0.1,1.9-0.2,2.9-0.4c5.2-0.7,10.1-0.8,15.1-1.1c1.8-0.4,3.7,1.3,4.1,3.8
							c0.3,1.5-0.1,3.1-0.8,4.1l0.5,0l0.8,0.2c0.8,0.2,1.4,0.8,1.9,1.7l0.7,1c0.9,2,2.3,3.6,3.2,5.6l0,0.8l0.2,0.2
							c0.6,0.5,1,1.3,1.2,2.1l0.1,1c0,1.1-0.1,2.2-0.4,3.2c0.1,0.4,0.1,0.8,0,1.2c0.5,1,0.8,2,0.6,3.2c0.3,0.3,0.3,0.7,0,1
							c-0.1,0.1-0.2,0.2-0.3,0.2l0,0c0.2,0.2,0.2,0.3,0.4,0.6c0.2,0.1,0.4,0.1,0.4,0.1c0.6,0.1,0.6,0.1,1.1,0.2
							c0.5,0.3,0.8,0.7,0.8,0.7c0.7,1.7,0.7,1.7,0.8,2.4c0,0.1,0,0.2-0.1,0.2c0.4,0.2,0.5,0.2,0.6,0.3c0.1,0.1,0.2,0.3,0.2,0.3
							c0.1,0.4,0.1,0.4,0.2,0.5c0,0.2,0.1,0.3,0.1,0.3c-0.2,0.5-0.2,0.5-0.2,0.6c0,0.1-0.1,0.2-0.1,0.2c-0.2,0.2-0.3,0.2-0.4,0.3
							c-0.7-1-0.7-1-0.7-1c-0.1,0.4-0.1,0.4-0.1,0.4c-0.2-0.5-0.2-0.5-0.2-0.5c0.1,0.4,0.1,0.4,0.1,0.4c-0.3-0.2-0.3-0.2-0.3-0.2
							c0.4,0.3,0.4,0.3,0.4,0.3c-0.7-0.1-0.7-0.1-1,0c-0.3,0-0.5,0.1-0.5,0.1c0,0.1,0.1,0.2,0.1,0.2c-0.7-0.1-0.7-0.1-1.5-0.2
							c-0.1-0.1-0.1-0.2-0.2-0.3c-0.1,0.1-0.2,0.2-0.3,0.2l-0.4,0l-0.1,0.1c0,0,0,0,0,0c-0.1,0.1-0.2,0.2-0.3,0.2
							c-0.1,0.1-0.1,0.1-0.1,0.1l0,0c-0.2,0.2-0.5,0.4-1.3,1c-0.2,0-0.4-0.1-0.6-0.2l0.2,0.2c0.1,0.1,0.1,0.5,0.1,0.6
							c1.6,0.7,3.4,0.8,5.1,1.1c0.3-0.1,0.6,0.1,0.7,0.4c0.1,0.3-0.1,0.6-0.4,0.7c-1.6,1.3-3.5,1.9-5.5,2.1c-1,0.1-2,0-3-0.1
							c-1-0.2-1.9-0.5-2.9-0.8c-1-0.2-1.9-0.3-2.9-0.4l0.1,0.2c-0.2-0.1-0.5-0.2-0.7-0.3l-0.1,0l0.6,0.7c0.1,0.1,0.3,0.1,0.4,0.2
							c2.2,0.2,4.3,1.2,6.5,1.7c1.2,0.3,2.2,0.9,3.4,1.3c0.3,0,0.5,0.2,0.5,0.5c0,0.3-0.3,0.5-0.5,0.5c-3.7,0.9-8,0.6-11-1.7
							c-0.7,0-1.3-0.2-1.9-0.6l0,0l0.4,0.6c-0.5-0.1-0.8-0.6-1.2-0.8l0.2,0.8c-2.5-0.4-5.1-0.3-7.4-1.5c-0.1,0-0.2,0-0.3-0.1
							c-1,0.5-2,1-3.2,1c0.4,0.1,0.8,0.2,1.2,0.3c-0.9,0.3-1.7,0.5-2.6,0.4c-2.5-0.2-5.1-1.7-6.1-3.9c-4.7-0.2-9.3-0.6-14-1
							c-0.2,0-0.4-0.2-0.4-0.5c0-0.2,0.2-0.4,0.5-0.4c1.7-0.1,3.4-0.1,5.1-0.1c1.7,0,3.4,0,5.1,0c-1.4-0.4-2.7-0.8-4.1-1.1
							c-1.4-0.4-2.8-0.7-4.1-1c-0.4,0-0.7-0.1-1.1-0.1c-0.4,0-0.7-0.2-1-0.3c-1.8-0.3-3.5-0.8-5.3-1.1c-1.8-0.3-3.5-0.7-5.4-0.9
							c-1.6-0.1-3.1-0.3-4.6-0.4c-1.5-0.1-3.1-0.2-4.7-0.4c-2.3-0.2-4.5-0.4-6.7-0.8c-1.1-0.2-2.2-0.4-3.2-0.7
							c-1.1-0.3-2.1-0.7-3.2-1.1c-0.6-0.2-0.9-0.8-0.7-1.4c0.2-0.6,0.8-0.9,1.4-0.8c9.4,1.9,18.5,2.4,27.6,4.8c1,0.3,2,0.5,2.9,0.8
							c0-0.1,0-0.2,0-0.2c0.1-0.3,0.2-0.6,0.4-0.8c-1.1-0.3-2.2-0.7-3.2-1.1c-1.6,0-3.3,0-4.9-0.2c-0.8-0.1-1.6-0.2-2.4-0.4
							c-0.8-0.2-1.6-0.5-2.4-0.8c-1.1-0.5-2.1-1-3-1.6c-0.9-0.6-1.8-1.3-2.7-1.9c-1.4-0.2-2.7-0.5-4-0.8c-1.3-0.3-2.7-0.5-4-0.9
							c-0.1,0-0.2-0.1-0.2-0.2c0-0.1,0.1-0.2,0.2-0.2c2,0,4.1,0.1,6,0.3c-0.2-0.5-0.2-1,0.1-1.5c0.2-0.5,0.6-0.9,1.1-1.1l-1.2-0.5
							c-0.2-0.1-0.4-0.4-0.3-0.6c0.1-0.3,0.4-0.4,0.6-0.3c1.6,0.7,3.3,1.2,4.9,1.8c2.1,0.4,4.1,0.7,6.2,1.1
							c-0.2-0.4-0.3-0.9-0.2-1.5l0,0l-0.9-0.2c-6-0.1-12.1-1.4-17.6-4.1c-0.1,0-0.2-0.2-0.1-0.3c0.1-0.1,0.2-0.2,0.3-0.1
							c1.7,0.8,3.4,1.5,5.1,2.1l0,0c0-0.1,0-0.2,0.1-0.3c0.1-0.1,0.2,0,0.3,0.1c0,0.1,0,0.2-0.1,0.3c1.6,0.5,3.3,0.9,4.9,1.2
							c1.7,0.3,3.4,0.5,5,0.6c-3-0.8-5.9-1.7-8.7-3l-1.1,0.1c-0.1,0-0.2-0.1-0.2-0.2c0-0.1,0.1-0.2,0.2-0.2l0.3,0
							c-0.5-0.2-0.7-0.9-0.5-1.5c0.3-0.6,0.9-0.9,1.5-0.7c1.5,0.4,3,0.9,4.5,1.4l0.5,0l0.6-0.1c-1.1-0.5-2.2-1.1-3.3-1.6
							c-1.1-0.6-2.2-1.1-3.2-1.8c-0.2-0.1-0.3-0.3-0.2-0.5c0.1-0.2,0.3-0.3,0.5-0.3c4.3,0.6,8.5,1.5,12.6,2.2
							c1.6-0.6,3.2-1.2,4.8-1.9c-0.2-0.1-0.3-0.1-0.5-0.2c-4.3-1.2-8.9,0.5-13.3-0.5c-0.1,0-0.2-0.1-0.1-0.3c0-0.1,0.1-0.2,0.2-0.2
							c2.2,0.4,4.4,0.1,6.6,0.1c1.8,0,3.6-0.1,5.4-0.4c-1.6-0.3-3.3-0.4-4.9-0.5c-1.7-0.1-3.4-0.2-5-0.5c-0.2,0-0.3-0.1-0.3-0.3
							c0,0.1-0.1,0.1-0.1,0.1c-0.5,0.2-1,0.2-1.5,0.2c-0.1,0-0.2-0.1-0.2-0.2C306.8,132.5,306.8,132.4,307,132.3z M365,155.1
							c0,0.1,0.1,0.1,0.1,0.1c-0.1-0.1-0.2-0.1-0.3-0.2c0,0,0,0-0.5-0.9C364.3,154.1,364.6,154.6,365,155.1z M370.3,151.1
							L370.3,151.1c0.2,0.3,0.3,0.5,0.3,0.5C370.5,151.4,370.4,151.3,370.3,151.1z M334,158.7c2,0.3,3.9,0.7,5.8,1.6l-1.5,0
							C336.9,159.8,335.4,159.3,334,158.7z M369.1,158.5c-0.6-0.5-1-1-1.4-1.7c-0.3,0.1-0.7,0.2-1,0.2c-1,0-1.9-0.1-2.9-0.2
							c0.1,0.3-0.1,0.3-0.2,0.4l-0.3,0.1c1,0.2,2,0.4,3,0.6C367.2,158.1,368.2,158.2,369.1,158.5z M375.9,156.5c0,0,0.1,0.1,0.1,0.1
							c0,0,0,0-0.1,0.5C375.8,157.1,375.9,156.8,375.9,156.5z M376,155.6c0,0-0.1,0-0.1-0.1C375.9,155.3,376,155.4,376,155.6z
							 M374.7,155.1c0.1,0.1,0.1,0.2,0.2,0.3C374.7,155.1,374.7,155.1,374.7,155.1z M372,140.3l-0.2,2.6L372,140.3L372,140.3z"/>
					</g>
				</g>
			</g>
		</g>
	</g>
	<g>
		<g>
			<g>
				<g>
					<path class="st0" d="M382.5,176.1c-0.1-0.1-0.2-0.2-0.2-0.3c0.2-0.1,0.5-0.1,0.8,0.1c-2.6-2.7-6.9-2.3-9.9-0.8
						c-0.9-0.3-1.9,0.2-2.1,1c-0.3,0.8,0.3,1.7,1.2,2c0.2,0.1,0.4,0.3,0.5,0.4c1.1,1.6,2.5,2.8,4.2,3.8c-0.3-0.3-0.6-0.6-0.9-1
						c0.5,0.3,1,0.6,1.5,0.8c0-0.2-0.1-0.3-0.1-0.5c1.6,1.5,4.2,1.6,5.7,0.2c1.6-1.3,1.6-3.6,0-5.1L382.5,176.1z"/>
					<path class="st0" d="M380.1,170.6c1,0.8,1.9,1.6,2.8,2.4l0.1,0.3l0.2-1.3l0,0.1c-1.2,0.9-2.9,1-4.4,1l-0.6,0.1
						c-0.3,0.1-0.5,0.3-0.6,0.6c-0.3,0.6,0.1,1.3,0.8,1.5l0.8,0.3c1.8,1.1,4.8,1.8,6.3-0.2c0.3-0.5,0.3-1.1,0.3-1.7
						c0.2-0.8-0.3-1.7-1.3-2c-0.9-0.3-1.9,0.2-2.1,1.1c-0.2-0.1-0.3-0.2-0.5-0.3c0.2-0.1,0.3-0.2,0.4-0.2c-0.4,0.7-1.3,0.7-2.1,0.9
						l-1,0l0.1,2.1l0.6-0.2c0-0.1-0.1-0.2-0.1-0.2c1.1-0.3,2.1-0.7,3.2-0.8l1.5-0.5c0.4-0.3,0.5-0.9,0.2-1.3l-0.5-0.5
						c0.1,0.1,0.1,0.2,0.2,0.3c-1.3-0.7-2.7-1.3-3.9-2c-0.2-0.1-0.5-0.1-0.6,0.1C379.9,170.2,379.9,170.4,380.1,170.6z"/>
					<g>
						<path class="st0" d="M385,171.3c0.2,0.2,0.4,0.4,0.7,0.4c0.1-0.1,0.1-0.1,0.2-0.1c-0.1-0.1-0.2-0.3-0.4-0.4
							C385.2,170.8,385,171,385,171.3z"/>
						<path class="st0" d="M385.8,171.6c0.1,0.1,0.2,0.2,0.2,0.2C385.9,171.7,385.9,171.6,385.8,171.6
							C385.8,171.5,385.8,171.5,385.8,171.6C385.8,171.5,385.8,171.6,385.8,171.6z"/>
						<path class="st0" d="M325.9,161c-4-1.6-8.1-3.1-12.2-4.5c-0.1,0-0.3,0-0.3,0.1c0,0.1,0,0.2,0.2,0.3c4.1,1.5,8.1,3,12.2,4.6
							c0.1,0,0.3,0,0.3-0.1C326.1,161.2,326,161.1,325.9,161z"/>
						<path class="st0" d="M299,139.6c0.1-0.1,0.2-0.2,0.1-0.3c-0.1-0.1-0.2-0.2-0.3-0.1c-0.1,0.1-0.2,0.2-0.1,0.3
							C298.7,139.7,298.9,139.7,299,139.6z"/>
						<path class="st0" d="M302.9,130.6c0.6,0,1.2,0,1.8-0.2c0.1,0,0.2,0,0.3,0.1c0-0.2,0.2-0.3,0.4-0.4c4.5-0.3,8.9,0.4,13.4,0.8
							c0.1-0.1,0.2-0.3,0.3-0.4c0.4-0.4,1.1-0.5,1.7-0.2l0.4,0.3c1.8,0.8,3.5,1.6,5.3,2.5c0.4-0.1,0.9-0.1,1.4,0
							c1.8-0.1,3.5-0.2,5.3-0.2c-0.1-0.2-0.1-0.3,0-0.5c0.2-0.4,0.6-0.6,1.1-0.5l0.7,0.2c-0.6-0.3-1.2-0.6-1.8-0.9
							c-0.1,0-0.2-0.1-0.2-0.1c-0.7-0.2-1.4-0.4-2.1-0.6c-6.4-1.4-12.7-1.6-19.1-1.7c-0.1,0-0.3,0-0.3-0.1c0-0.1,0-0.3,0.2-0.3
							c4.3-0.9,8.3-2.7,12.9-2.8c5.4-0.2,10.6-0.2,16,0.2c5.3,1.4,10.4,1.7,16,2.3c7.5,0.8,14.4,2.3,21.6,3.7
							c2.8,0.2,4.8,2.6,4.6,5.1c-0.1,1.6-1,2.9-2.4,3.6l0.7,0.2l1,0.5c0.9,0.5,1.6,1.3,2,2.3l0.5,1.2c0.6,2.2,1.8,4.2,2.2,6.5
							l-0.3,0.8l0.1,0.3c0.5,0.7,0.8,1.6,0.8,2.4l-0.3,0.9c-0.4,1.1-0.9,2-1.6,2.9c-0.1,0.4-0.2,0.8-0.4,1.1
							c0.2,1.1,0.2,2.1-0.3,3.2c0.2,0.3,0.1,0.7-0.3,0.9c-0.1,0.1-0.3,0.1-0.4,0.1l0,0c0.1,0.3,0.1,0.4,0.3,0.7
							c0.2,0.1,0.4,0.2,0.4,0.2c0.7,0.3,0.7,0.3,1.2,0.6c0.5,0.4,0.7,1,0.7,1c0.2,1.8,0.2,1.8,0,2.6c0,0.1-0.1,0.1-0.2,0.2
							c0.4,0.3,0.4,0.4,0.6,0.5c0.1,0.2,0.2,0.3,0.2,0.3c-0.1,0.4-0.1,0.4,0,0.6c0,0.2,0,0.3,0,0.3c-0.3,0.4-0.3,0.4-0.4,0.5
							c-0.1,0.1-0.2,0.2-0.2,0.2c-0.3,0.1-0.5,0.1-0.5,0.1c-0.5-1.2-0.5-1.2-0.5-1.2c-0.2,0.3-0.2,0.3-0.2,0.3
							c-0.1-0.5-0.1-0.5-0.1-0.5c0,0.5,0,0.5,0,0.5c-0.3-0.3-0.3-0.3-0.3-0.3c0.3,0.5,0.3,0.5,0.3,0.5c-0.8-0.3-0.8-0.3-1.1-0.4
							c-0.3-0.1-0.6-0.1-0.7-0.1c0,0.1,0,0.2,0,0.2c-0.8-0.3-0.8-0.3-1.6-0.7c-0.1-0.1-0.1-0.2-0.1-0.3c-0.1,0.1-0.3,0.1-0.4,0.1
							l-0.4-0.2c0,0-0.1,0-0.1,0c0,0,0,0,0,0c-0.2,0.1-0.3,0.1-0.4,0.1c-0.1,0-0.1,0-0.1,0l0,0c-0.3,0.1-0.7,0.2-1.8,0.6
							c-0.2-0.1-0.5-0.2-0.7-0.4c0.1,0.1,0.1,0.2,0.2,0.2c0.1,0.2-0.1,0.5,0,0.6c1.6,1.2,3.5,1.9,5.4,2.7c0.4,0,0.6,0.3,0.6,0.6
							c0,0.3-0.3,0.6-0.7,0.5c-4.3,1.3-9.1,0-12.8-2.5c-1-0.4-2-0.8-3.1-1.2l0.1,0.2l-0.8-0.5l-0.1,0l0.5,0.8
							c0.1,0.1,0.3,0.2,0.4,0.3c2.4,0.8,4.4,2.4,6.7,3.6c1.2,0.6,2.2,1.5,3.3,2.3c0.3,0.1,0.5,0.4,0.4,0.7c-0.1,0.3-0.4,0.4-0.7,0.3
							c-4.2-0.4-8.8-1.8-11.5-4.9c-0.7-0.2-1.4-0.5-1.9-1.1l0,0c0.1,0.2,0.2,0.5,0.3,0.7c-0.5-0.3-0.7-0.8-1.2-1.1l0,0.8
							c-2.6-1.1-5.6-1.6-7.9-3.3c-0.1,0-0.2-0.1-0.3-0.1c-1.2,0.3-2.4,0.5-3.8,0.3c0.4,0.2,0.8,0.4,1.2,0.6c-1,0.1-2,0.1-3-0.2
							c-2.7-0.7-5.4-2.7-6.3-5.1c-5.3-1.1-10.5-2.3-15.9-3.3c-0.3,0-0.5-0.3-0.5-0.5c0-0.2,0.3-0.4,0.6-0.4
							c3.9,0.3,7.8,0.9,11.7,1.5c-3.1-1.2-6.1-2.5-9.3-3.5c-0.4-0.1-0.8-0.2-1.3-0.2c-0.4-0.1-0.8-0.3-1.2-0.5
							c-4.1-1.2-8-2.4-12.3-3.1c-3.7-0.6-7-1-10.8-1.4c-5.3-0.6-10.2-1.1-15.1-2.7c-0.7-0.2-1.1-0.8-1-1.4c0.1-0.6,0.8-1,1.5-0.8
							c10.8,1.7,21.5,2.7,32.2,6.1c1.1,0.4,2.3,0.7,3.4,1.1c0-0.1,0-0.2,0-0.2c0.1-0.3,0.3-0.6,0.5-0.8c-1.3-0.5-2.5-1-3.8-1.5
							c-3.8-0.4-7.6-0.8-11.4-2.3c-2.6-1.1-4.7-2.5-6.9-3.9c-3.2-0.6-6.4-1.2-9.6-1.9c-0.1,0-0.2-0.1-0.3-0.2c0-0.1,0.1-0.2,0.2-0.2
							c2.4,0,4.7,0.2,7.1,0.4c-0.2-0.5-0.3-1-0.1-1.5c0.2-0.5,0.6-0.9,1.1-1.1l-1.5-0.5c-0.3-0.1-0.5-0.4-0.4-0.7
							c0.1-0.3,0.4-0.4,0.7-0.3c2,0.7,4,1.4,6,2.1c2.5,0.5,5,1,7.5,1.5c-0.2-0.5-0.3-1-0.3-1.5l0,0l-1.1-0.3
							c-7.3-0.6-14.7-2.1-21.6-4.8c-0.1,0-0.2-0.2-0.2-0.3c0-0.1,0.2-0.2,0.3-0.1c2.1,0.8,4.2,1.5,6.4,2.1l0,0
							c-0.1-0.1,0-0.2,0.1-0.3c0.1-0.1,0.3,0,0.3,0.1c0.1,0.1,0,0.2-0.1,0.3c4,1.1,8.1,1.9,12.2,2.3c-3.6-1-7.3-2.1-10.8-3.5
							c-0.4,0-0.9,0-1.3,0.1c-0.1,0-0.2-0.1-0.2-0.3c0-0.1,0.1-0.2,0.2-0.2l0.4,0c-0.7-0.3-1-1-0.8-1.6c0.3-0.6,1-0.9,1.7-0.7
							c1.9,0.5,3.8,1.1,5.7,1.6l0.6,0.1l0.7-0.1c-2.8-1.2-5.7-2.5-8.4-3.8c-0.2-0.1-0.4-0.3-0.3-0.6c0.1-0.2,0.3-0.4,0.6-0.3
							c5.4,0.8,10.7,1.9,16,3c2-0.5,4-0.9,6.1-1.4c-0.2-0.1-0.4-0.2-0.7-0.2c-5.6-1.7-11.3-0.4-16.9-1.6c-0.1,0-0.2-0.2-0.2-0.3
							c0-0.1,0.2-0.2,0.3-0.2c2.8,0.5,5.5,0.3,8.3,0.5c2.4,0.1,4.6,0.3,6.8,0.1c-4.2-1-8.6-1.1-12.8-1.8c-0.2,0-0.4-0.1-0.4-0.3
							c0,0.1-0.1,0.1-0.2,0.1c-0.6,0.1-1.2,0.2-1.9,0.2c-0.1,0-0.2-0.1-0.3-0.2C302.7,130.7,302.8,130.6,302.9,130.6z M372.9,164.3
							c0,0.1,0.1,0.1,0.1,0.2c-0.1-0.1-0.2-0.2-0.3-0.3c0,0,0,0-0.3-1.1C372.3,163,372.6,163.6,372.9,164.3z M380.3,162.2
							L380.3,162.2c0.1,0.3,0.2,0.6,0.2,0.6C380.4,162.5,380.3,162.3,380.3,162.2z M336.1,160.3c2.3,0.6,4.5,1.4,6.5,2.6l-1.7-0.3
							C339.3,161.9,337.7,161.2,336.1,160.3z M376.6,168.8c-0.5-0.6-0.8-1.3-1.1-2.1c-0.4,0-0.8,0-1.3-0.1c-1.1-0.3-2.2-0.7-3.2-1.1
							c0.1,0.4-0.2,0.3-0.3,0.3l-0.4,0c1.1,0.5,2.2,1,3.3,1.5C374.5,167.8,375.7,168.2,376.6,168.8z M384.9,169.2c0,0,0,0.1,0.1,0.1
							c0,0,0,0-0.3,0.5C384.7,169.8,384.8,169.5,384.9,169.2z M385.4,168.4c0,0-0.1-0.1-0.2-0.1
							C385.4,168.1,385.4,168.2,385.4,168.4z M384,167.5c0.1,0.2,0.1,0.2,0.2,0.3C384,167.5,384,167.5,384,167.5z M386,152.5
							l-1.1,2.4l1.1-2.3L386,152.5z"/>
					</g>
				</g>
			</g>
		</g>
	</g>
	<g>
		<g>
			<g>
				<g>
					<path class="st0" d="M379.6,165.7c-0.1-0.1-0.2-0.2-0.3-0.3c0.2-0.1,0.6-0.1,0.9,0.1c-3.2-2.7-8.1-2.1-11.4-0.5
						c-1.1-0.2-2.1,0.2-2.4,1.1c-0.2,0.8,0.5,1.7,1.5,1.9c0.2,0.1,0.5,0.2,0.6,0.4c1.4,1.5,3.1,2.7,5.1,3.7
						c-0.4-0.3-0.7-0.6-1.1-0.9c0.6,0.3,1.1,0.6,1.8,0.7c-0.1-0.2-0.1-0.3-0.2-0.5c1.9,1.4,4.8,1.5,6.5,0.2c1.7-1.4,1.6-3.7-0.3-5.1
						L379.6,165.7z"/>
					<path class="st0" d="M376.5,160.2c1.2,0.8,2.3,1.5,3.4,2.3l0.2,0.3l0.1-1.3l0,0.1c-1.3,0.9-3.2,1-5,1.1l-0.6,0.1
						c-0.3,0.1-0.6,0.3-0.7,0.6c-0.2,0.6,0.2,1.3,1,1.5l0.9,0.3c2.1,1.1,5.6,1.7,7.2-0.3c0.4-0.5,0.2-1.1,0.3-1.7
						c0.2-0.8-0.5-1.7-1.6-2c-1.1-0.2-2.2,0.2-2.4,1.1c-0.2-0.1-0.4-0.2-0.5-0.3c0.2-0.1,0.3-0.2,0.5-0.2c-0.4,0.7-1.5,0.7-2.3,1
						l-1.2,0l0.3,2.1l0.6-0.2c0-0.1-0.1-0.2-0.1-0.2c1.2-0.4,2.4-0.7,3.7-0.9l1.7-0.5c0.5-0.3,0.5-0.9,0.1-1.3l-0.6-0.5
						c0.1,0.1,0.2,0.2,0.3,0.3c-1.5-0.7-3.2-1.3-4.6-2c-0.2-0.1-0.6-0.1-0.7,0.1C376.2,159.8,376.3,160.1,376.5,160.2z"/>
					<g>
						<path class="st0" d="M382.2,160.9c0.2,0.2,0.5,0.4,0.8,0.4c0.1-0.1,0.2-0.1,0.2-0.1c-0.1-0.1-0.3-0.3-0.4-0.4
							C382.4,160.4,382.2,160.6,382.2,160.9z"/>
						<path class="st0" d="M383.2,161.2c0.1,0.1,0.2,0.2,0.2,0.2C383.3,161.3,383.3,161.2,383.2,161.2
							C383.2,161.1,383.2,161.1,383.2,161.2C383.2,161.1,383.2,161.1,383.2,161.2z"/>
						<path class="st0" d="M313,155.1c-4.9-1-9.8-1.8-14.8-2.6c-0.2,0-0.3,0.1-0.3,0.2c0,0.1,0.1,0.2,0.3,0.2
							c5,0.7,9.9,1.6,14.8,2.6c0.2,0,0.3-0.1,0.3-0.2C313.2,155.2,313.1,155.1,313,155.1z"/>
						<path class="st0" d="M277,138.8c0.1-0.1,0.1-0.2,0-0.3c-0.1-0.1-0.3-0.1-0.4,0c-0.1,0.1-0.1,0.2,0,0.3
							C276.7,138.9,276.9,138.9,277,138.8z"/>
						<path class="st0" d="M278.9,129.1c0.7-0.1,1.4-0.3,2-0.6c0.1,0,0.2,0,0.3,0c0-0.2,0.1-0.4,0.4-0.4c5.2-1.2,10.7-1.4,16.1-1.7
							c0.1-0.2,0.1-0.3,0.3-0.4c0.4-0.5,1.2-0.7,1.9-0.5l0.6,0.2c2.3,0.5,4.6,1,6.9,1.6c0.5-0.2,1.1-0.3,1.7-0.3
							c2.1-0.4,4.2-0.8,6.3-1c-0.1-0.2-0.2-0.3-0.2-0.5c0.1-0.4,0.6-0.7,1.2-0.6l0.8,0.1l-2.4-0.6c-0.1,0-0.2-0.1-0.3-0.1
							c-0.9-0.1-1.8-0.2-2.7-0.3c-8-0.5-15.6,0.4-23.2,1.6c-0.1,0.1-0.3,0-0.4-0.1c-0.1-0.1,0-0.3,0.1-0.3c4.9-1.7,9.2-4.2,14.7-5.1
							c6.5-1.1,12.9-1.8,19.5-2.1c6.8,0.8,13.2,0.5,20.2,0.7c9.5,0.2,18.3,1.3,27.4,2.5c3.5,0.2,6.3,2.5,6.3,5.1
							c0,1.6-1,2.9-2.5,3.7c0.3,0.1,0.5,0.1,0.8,0.2l1.3,0.5c1.2,0.5,2.1,1.3,2.7,2.3l0.7,1.2c0.9,2.2,2.6,4.2,3.2,6.5l-0.4,0.8
							l0.2,0.3c0.7,0.7,1.1,1.6,1.1,2.4l-0.2,1c-0.3,1.1-0.9,2.1-1.7,2.9c0,0.4-0.2,0.8-0.4,1.2c0.4,1.1,0.4,2.2-0.2,3.2
							c0.3,0.3,0.1,0.8-0.3,0.9c-0.1,0.1-0.3,0.1-0.5,0.1l0,0c0.1,0.3,0.2,0.4,0.4,0.7c0.3,0.1,0.5,0.2,0.5,0.2
							c0.8,0.3,0.8,0.3,1.5,0.6c0.6,0.4,0.9,1,0.9,1c0.4,1.8,0.4,1.8,0.2,2.6c-0.1,0.1-0.1,0.1-0.2,0.2c0.5,0.3,0.5,0.4,0.7,0.5
							c0.1,0.2,0.2,0.3,0.2,0.3c0,0.4,0,0.4,0,0.6c0,0.2,0,0.3,0,0.3c-0.4,0.4-0.4,0.4-0.4,0.5c-0.1,0.1-0.2,0.2-0.2,0.2
							c-0.4,0.1-0.5,0.1-0.6,0.1c-0.6-1.2-0.6-1.2-0.6-1.2c-0.2,0.3-0.2,0.3-0.2,0.3c-0.1-0.5-0.1-0.5-0.1-0.5c0,0.5,0,0.5,0,0.5
							c-0.3-0.3-0.3-0.3-0.3-0.3c0.4,0.5,0.4,0.5,0.4,0.5c-0.9-0.3-0.9-0.3-1.3-0.4c-0.4-0.1-0.7-0.1-0.8-0.1c0,0.1,0,0.2,0,0.2
							c-1-0.3-1-0.3-1.9-0.7c-0.1-0.1-0.1-0.2-0.2-0.3c-0.1,0.1-0.3,0.1-0.5,0.1l-0.5-0.2c0,0-0.1,0-0.1,0c0,0,0,0,0,0
							c-0.2,0.1-0.3,0.1-0.5,0.1c-0.1,0-0.1,0-0.1,0l0,0c-0.3,0.1-0.8,0.2-2,0.6c-0.3-0.1-0.6-0.2-0.8-0.3c0.1,0.1,0.1,0.2,0.2,0.2
							c0.1,0.2-0.1,0.5,0,0.6c2,1.1,4.2,1.9,6.4,2.7c0.4,0,0.8,0.3,0.8,0.6c0,0.3-0.3,0.6-0.8,0.5c-4.9,1.3-10.5,0.1-14.9-2.2
							c-1.2-0.4-2.4-0.8-3.7-1.1l0.1,0.2l-0.9-0.4l-0.1,0l0.6,0.8l0.5,0.3c2.9,0.7,5.3,2.2,8,3.4c1.4,0.6,2.6,1.5,4,2.2
							c0.4,0.1,0.6,0.4,0.5,0.7c-0.1,0.3-0.5,0.4-0.8,0.3c-4.8-0.3-10.1-1.5-13.5-4.5c-0.9-0.1-1.7-0.5-2.3-1l0,0
							c0.2,0.2,0.3,0.4,0.4,0.7c-0.6-0.2-0.9-0.8-1.5-1.1l0.1,0.8c-3.1-1-6.6-1.2-9.4-2.8c-0.1,0-0.2-0.1-0.3-0.1
							c-1.4,0.4-2.7,0.7-4.2,0.6c0.5,0.2,1,0.3,1.5,0.5c-1.1,0.2-2.3,0.3-3.4,0.1c-3.2-0.5-6.6-2.2-8-4.5
							c-6.2-0.5-12.4-1.1-18.7-1.3c-0.3,0-0.6-0.2-0.6-0.4c0-0.2,0.2-0.4,0.6-0.4c4.5-0.3,9.1-0.2,13.6,0c-3.7-0.9-7.5-1.7-11.3-2.3
							c-0.5,0-1,0-1.5-0.1c-0.5,0-1-0.1-1.4-0.3c-4.9-0.6-9.6-1.2-14.7-1.2c-4.4,0.1-8.2,0.2-12.5,0.6c-6.1,0.5-11.7,1-17.6,0.6
							c-0.8,0-1.5-0.5-1.5-1.1c0-0.6,0.6-1.1,1.4-1.1c12.6-0.9,25-2,38-0.2c1.4,0.2,2.8,0.4,4.1,0.6c0-0.1,0-0.2,0-0.3
							c0-0.3,0.2-0.6,0.5-0.9c-1.5-0.3-3.1-0.6-4.7-0.9c-4.5,0.2-8.9,0.4-13.5-0.4c-3.2-0.6-6-1.6-8.9-2.5c-3.8,0-7.6,0.2-11.4,0.2
							c-0.2,0-0.3,0-0.4-0.2c0-0.1,0-0.2,0.2-0.3c2.7-0.5,5.4-0.9,8.2-1.1c-0.4-0.4-0.6-0.9-0.5-1.5c0.1-0.6,0.5-1,1-1.3l-1.8-0.2
							c-0.4-0.1-0.7-0.3-0.6-0.6c0-0.3,0.4-0.5,0.7-0.5c2.5,0.3,5,0.5,7.5,0.8c3,0,6.1,0,9.1,0.1c-0.4-0.4-0.6-0.9-0.7-1.4l0,0
							l-1.4-0.1c-8.7,0.7-17.5,0.8-26.2-0.2c-0.2,0-0.3-0.1-0.3-0.3c0-0.1,0.1-0.2,0.3-0.2c2.6,0.3,5.3,0.5,7.9,0.6l0,0
							c-0.1-0.1-0.1-0.2,0-0.3c0.1-0.1,0.3-0.1,0.4,0c0.1,0.1,0.1,0.2,0,0.3c4.9,0.2,9.9,0.1,14.8-0.2c-4.5-0.3-9-0.6-13.4-1.3
							c-0.5,0.1-1,0.2-1.5,0.3c-0.1,0-0.3-0.1-0.4-0.2c0-0.1,0.1-0.2,0.2-0.2l0.4-0.1c-0.8-0.1-1.4-0.7-1.4-1.4
							c0.1-0.7,0.9-1.1,1.8-1c2.4,0.1,4.7,0.2,7.1,0.4l0.8,0l0.8-0.2c-3.6-0.6-7.3-1.3-10.9-1.9c-0.3,0-0.6-0.2-0.5-0.5
							c0-0.2,0.3-0.4,0.6-0.4c6.5-0.4,13-0.5,19.6-0.2c2.2-0.8,4.5-1.6,6.8-2.4c-0.3,0-0.6-0.1-0.8-0.1c-7.1-0.7-13.4,1.6-20.3,1.6
							c-0.2,0-0.3-0.1-0.3-0.2c0-0.1,0.1-0.2,0.3-0.2c3.4-0.1,6.5-0.8,9.9-1.2c2.8-0.3,5.5-0.6,8.1-1.1c-5.3-0.3-10.4,0.5-15.7,0.6
							c-0.2,0-0.5,0-0.6-0.2c0,0.1-0.1,0.1-0.1,0.2c-0.7,0.3-1.4,0.4-2.1,0.6c-0.1,0-0.3,0-0.4-0.2
							C278.7,129.3,278.8,129.2,278.9,129.1z M367.6,154.1c0,0.1,0.1,0.1,0.1,0.2c-0.1-0.1-0.3-0.2-0.4-0.3c0,0,0,0-0.5-1.1
							C366.8,152.9,367.2,153.5,367.6,154.1z M376,151.8L376,151.8c0.2,0.3,0.3,0.6,0.3,0.6C376.2,152.1,376.1,151.9,376,151.8z
							 M324.5,153c2.7,0.3,5.4,0.9,8,1.9l-2-0.1C328.4,154.3,326.4,153.7,324.5,153z M372.3,158.5c-0.6-0.6-1.1-1.3-1.5-2
							c-0.5,0-1,0-1.5-0.1c-1.3-0.3-2.6-0.6-3.8-1c0.1,0.4-0.2,0.3-0.3,0.3l-0.5,0c1.3,0.4,2.6,0.9,4,1.4
							C369.8,157.6,371.2,158,372.3,158.5z M382,158.8c0,0,0.1,0.1,0.1,0.1c0,0,0,0-0.3,0.5C381.8,159.4,381.9,159.1,382,158.8z
							 M382.5,158c-0.1,0-0.1-0.1-0.2-0.1C382.5,157.7,382.5,157.8,382.5,158z M380.9,157c0.1,0.2,0.1,0.2,0.2,0.3
							C380.9,157,380.9,157,380.9,157z M382,142l-1.1,2.4l1.2-2.3L382,142z"/>
					</g>
				</g>
			</g>
		</g>
	</g>
	<g>
		<g>
			<g>
				<g>
					<path class="st0" d="M301.6,161.7c-0.1-0.1-0.2-0.2-0.3-0.3c0.2-0.1,0.5-0.1,0.8,0.1c-2.9-2.6-7.4-2.2-10.6-0.7
						c-1-0.3-2,0.2-2.3,1c-0.3,0.8,0.3,1.7,1.3,2c0.2,0.1,0.4,0.3,0.6,0.4c1.2,1.6,2.8,2.8,4.6,3.8c-0.3-0.3-0.7-0.6-1-1
						c0.5,0.3,1,0.6,1.7,0.8c0-0.2-0.1-0.3-0.1-0.5c1.7,1.5,4.5,1.6,6.1,0.2c1.6-1.4,1.5-3.6-0.2-5.1L301.6,161.7z"/>
					<path class="st0" d="M298.9,156.2c1,0.8,2,1.5,3,2.3l0.2,0.3l0.2-1.3l0,0.1c-1.2,0.9-3,1-4.6,1l-0.6,0.1
						c-0.3,0.1-0.5,0.3-0.6,0.6c-0.2,0.6,0.1,1.3,0.8,1.5l0.8,0.3c1.9,1.1,5.2,1.7,6.7-0.2c0.3-0.5,0.2-1.1,0.3-1.7
						c0.2-0.8-0.4-1.7-1.4-2c-1-0.2-2,0.2-2.2,1.1c-0.2-0.1-0.3-0.2-0.5-0.3c0.2-0.1,0.3-0.2,0.5-0.2c-0.4,0.7-1.4,0.7-2.2,1l-1.1,0
						l0.2,2.1l0.6-0.2c0-0.1-0.1-0.2-0.1-0.2c1.1-0.4,2.2-0.7,3.4-0.9l1.6-0.5c0.5-0.3,0.5-0.9,0.2-1.3l-0.6-0.5
						c0.1,0.1,0.2,0.2,0.2,0.3c-1.4-0.7-2.9-1.3-4.2-2c-0.2-0.1-0.5-0.1-0.7,0.1C298.6,155.8,298.7,156,298.9,156.2z"/>
					<g>
						<path class="st0" d="M304,156.8c0.2,0.2,0.4,0.4,0.7,0.4c0.1-0.1,0.1-0.1,0.2-0.1c-0.1-0.1-0.3-0.3-0.4-0.4
							C304.3,156.4,304.1,156.5,304,156.8z"/>
						<path class="st0" d="M305,157.1c0.1,0.1,0.2,0.2,0.2,0.2C305.1,157.2,305.1,157.2,305,157.1C305,157.1,305,157.1,305,157.1
							C305,157.1,305,157.1,305,157.1z"/>
						<path class="st0" d="M241.2,146.2c-4.3-1.7-8.6-3.3-13-4.8c-0.1-0.1-0.3,0-0.3,0.1c0,0.1,0,0.2,0.2,0.3
							c4.3,1.6,8.6,3.2,12.9,4.9c0.1,0,0.3,0,0.3-0.1C241.4,146.4,241.3,146.3,241.2,146.2z"/>
						<path class="st0" d="M212.5,124c0.1-0.1,0.2-0.2,0.1-0.3c-0.1-0.1-0.2-0.2-0.4-0.1c-0.1,0-0.2,0.2-0.1,0.3
							C212.2,124,212.4,124.1,212.5,124z"/>
						<path class="st0" d="M216.6,115c0.6,0,1.3,0,1.9-0.1c0.1,0,0.2,0,0.3,0.1c0-0.2,0.2-0.3,0.4-0.3c4.7-0.2,9.4,0.7,14.1,1.2
							c0.1-0.1,0.2-0.3,0.3-0.4c0.5-0.4,1.2-0.4,1.8-0.2l0.4,0.3c1.9,0.9,3.7,1.7,5.6,2.6c0.5-0.1,1-0.1,1.5,0
							c1.9-0.1,3.7-0.2,5.6-0.1c-0.1-0.2-0.1-0.3,0-0.5c0.2-0.4,0.6-0.6,1.1-0.5l0.7,0.2c-0.6-0.3-1.3-0.6-1.9-0.9
							c-0.1,0-0.2-0.1-0.2-0.1c-0.7-0.2-1.5-0.4-2.2-0.6c-6.7-1.5-13.3-1.9-20.1-2.1c-0.1,0-0.3,0-0.3-0.2c0-0.1,0-0.3,0.2-0.3
							c2.3-0.4,4.5-1,6.7-1.5c2.2-0.5,4.4-0.9,6.8-1c5.7,0,11.2,0.1,16.8,0.5c5.5,1.5,10.9,1.9,16.8,2.5c7.9,0.9,15.2,2.3,22.8,3.8
							c2.9,0.2,5.1,2.5,5,5.1c-0.1,1.6-1,2.9-2.4,3.7l0.7,0.2l1.1,0.5c1,0.5,1.8,1.3,2.2,2.3l0.6,1.2c0.7,2.2,2,4.2,2.5,6.5
							l-0.3,0.8l0.2,0.3c0.6,0.7,0.9,1.5,0.9,2.4l-0.2,1c-0.3,1.1-0.9,2.1-1.6,2.9c-0.1,0.4-0.2,0.8-0.4,1.2
							c0.3,1.1,0.3,2.1-0.3,3.2c0.2,0.3,0.1,0.7-0.3,0.9c-0.1,0.1-0.3,0.1-0.4,0.1l0,0c0.1,0.3,0.1,0.4,0.3,0.7
							c0.3,0.1,0.4,0.2,0.4,0.2c0.7,0.3,0.7,0.3,1.3,0.6c0.5,0.4,0.8,1,0.8,1c0.3,1.8,0.3,1.8,0.1,2.6c0,0.1-0.1,0.1-0.2,0.2
							c0.5,0.3,0.5,0.4,0.6,0.5c0.1,0.2,0.2,0.3,0.2,0.3c0,0.4,0,0.4,0,0.6c0,0.2,0,0.3,0,0.3c-0.4,0.4-0.4,0.4-0.4,0.5
							c-0.1,0.1-0.2,0.2-0.2,0.2c-0.4,0.1-0.5,0.1-0.5,0.1c-0.5-1.2-0.5-1.2-0.5-1.2c-0.2,0.3-0.2,0.3-0.2,0.3
							c-0.1-0.5-0.1-0.5-0.1-0.5c0,0.5,0,0.5,0,0.5c-0.3-0.3-0.3-0.3-0.3-0.3c0.3,0.5,0.3,0.5,0.3,0.5c-0.8-0.3-0.8-0.3-1.2-0.4
							c-0.3-0.1-0.7-0.1-0.7-0.1c0,0.1,0,0.2,0,0.2c-0.9-0.3-0.9-0.3-1.7-0.7c-0.1-0.1-0.1-0.2-0.2-0.3c-0.1,0.1-0.3,0.1-0.5,0.1
							l-0.4-0.2c0,0-0.1,0-0.1,0c0,0,0,0,0,0c-0.2,0.1-0.3,0.1-0.4,0.1c-0.1,0-0.1,0-0.1,0l0,0c-0.3,0.1-0.7,0.2-1.8,0.6
							c-0.3-0.1-0.5-0.2-0.7-0.4c0.1,0.1,0.1,0.2,0.2,0.2c0.1,0.2-0.1,0.5,0,0.6c1.8,1.2,3.8,1.9,5.8,2.7c0.4,0,0.7,0.3,0.7,0.6
							c0,0.3-0.3,0.6-0.7,0.5c-4.6,1.3-9.7,0.1-13.7-2.5c-1.1-0.4-2.2-0.8-3.3-1.2l0.1,0.2l-0.8-0.5l-0.1,0l0.5,0.8
							c0.1,0.1,0.3,0.2,0.4,0.3c2.6,0.8,4.8,2.4,7.2,3.6c1.3,0.6,2.4,1.5,3.6,2.3c0.3,0.1,0.5,0.4,0.4,0.7c-0.1,0.3-0.4,0.4-0.8,0.3
							c-4.5-0.3-9.4-1.8-12.4-4.9c-0.8-0.2-1.5-0.5-2.1-1.1l0,0c0.1,0.2,0.2,0.5,0.4,0.7c-0.6-0.3-0.8-0.8-1.3-1.1l0,0.8
							c-2.8-1.1-6-1.6-8.5-3.4c-0.1,0-0.2-0.1-0.3-0.1c-1.3,0.3-2.6,0.5-4,0.3c0.4,0.2,0.9,0.4,1.3,0.6c-1.1,0.1-2.1,0.1-3.2-0.2
							c-2.9-0.8-5.8-2.8-6.8-5.2c-5.6-1.2-11.2-2.5-16.9-3.5c-0.3,0-0.5-0.3-0.5-0.5c0-0.2,0.3-0.4,0.6-0.4c4.2,0.3,8.3,1,12.4,1.7
							c-3.3-1.3-6.5-2.6-9.9-3.6c-0.4-0.1-0.9-0.2-1.3-0.3c-0.4-0.1-0.9-0.3-1.3-0.5c-4.4-1.3-8.5-2.6-13.1-3.4
							c-3.9-0.7-7.4-1.2-11.4-1.7c-5.6-0.7-10.8-1.4-16-3.3c-0.7-0.2-1.2-0.8-1.1-1.4c0.1-0.6,0.8-1,1.5-0.8
							c11.4,2.1,22.8,3.4,34.1,7.1c1.2,0.4,2.4,0.8,3.6,1.2c0-0.1,0-0.2,0-0.2c0.1-0.3,0.3-0.6,0.6-0.8c-1.3-0.5-2.7-1-4-1.6
							c-4-0.5-8.1-1-12.1-2.6c-2.7-1.1-5-2.7-7.4-4.2c-3.4-0.7-6.8-1.4-10.2-2.2c-0.1,0-0.3-0.1-0.3-0.2c0-0.1,0.1-0.2,0.2-0.2
							c2.5,0.1,5,0.3,7.5,0.7c-0.2-0.5-0.3-1-0.1-1.5c0.2-0.5,0.7-0.9,1.2-1.1l-1.6-0.6c-0.3-0.1-0.5-0.4-0.4-0.7
							c0.1-0.3,0.4-0.4,0.7-0.3c2.1,0.8,4.3,1.5,6.4,2.3c2.7,0.6,5.3,1.1,8,1.7c-0.2-0.5-0.4-1-0.3-1.5l0,0l-1.2-0.3
							c-7.8-0.8-15.5-2.5-22.8-5.5c-0.1,0-0.2-0.2-0.2-0.3c0-0.1,0.2-0.2,0.3-0.1c2.2,0.9,4.5,1.7,6.7,2.4l0,0
							c-0.1-0.1,0-0.2,0.1-0.3c0.1,0,0.3,0,0.4,0.1c0.1,0.1,0,0.3-0.1,0.3c4.2,1.3,8.6,2.1,12.9,2.7c-3.9-1.1-7.7-2.3-11.4-3.9
							c-0.5,0-0.9,0-1.4,0c-0.1,0-0.2-0.1-0.3-0.3c0-0.1,0.1-0.2,0.3-0.2l0.4,0c-0.7-0.3-1.1-1-0.8-1.6c0.3-0.6,1.1-0.9,1.8-0.6
							c2,0.6,4,1.2,6,1.8l0.7,0.1l0.8-0.1c-3-1.3-6-2.7-8.9-4c-0.3-0.1-0.4-0.3-0.3-0.6c0.1-0.2,0.4-0.3,0.6-0.3
							c5.7,1,11.3,2.2,16.9,3.5c2.1-0.4,4.2-0.8,6.4-1.2c-0.2-0.1-0.5-0.2-0.7-0.2c-5.9-1.9-11.9-0.7-17.8-2.1
							c-0.2,0-0.2-0.2-0.2-0.3c0-0.1,0.2-0.2,0.3-0.2c2.9,0.6,5.8,0.5,8.8,0.7c2.5,0.2,4.8,0.4,7.2,0.3c-4.4-1.1-9-1.3-13.5-2.2
							c-0.2,0-0.4-0.1-0.5-0.3c0,0.1-0.1,0.1-0.2,0.1c-0.6,0.1-1.3,0.1-2,0.1c-0.1,0-0.3-0.1-0.3-0.2
							C216.4,115.1,216.5,115.1,216.6,115z M291.1,149.9c0,0.1,0.1,0.1,0.1,0.2c-0.1-0.1-0.2-0.2-0.4-0.3c0,0,0,0-0.4-1.1
							C290.4,148.6,290.7,149.3,291.1,149.9z M298.8,147.7L298.8,147.7c0.1,0.3,0.2,0.6,0.2,0.6
							C298.9,148.1,298.9,147.9,298.8,147.7z M252,145.7c2.4,0.7,4.7,1.5,7,2.7l-1.8-0.3C255.4,147.4,253.7,146.6,252,145.7z
							 M295.1,154.4c-0.5-0.6-0.9-1.3-1.3-2c-0.4,0-0.9,0-1.3-0.1c-1.2-0.3-2.3-0.7-3.4-1.1c0.1,0.4-0.2,0.3-0.3,0.3l-0.4,0
							c1.2,0.5,2.4,1,3.6,1.5C292.9,153.5,294.1,153.8,295.1,154.4z M304,154.7c0,0,0.1,0.1,0.1,0.1c0,0,0,0-0.3,0.5
							C303.7,155.3,303.8,155.1,304,154.7z M304.5,153.9c-0.1,0-0.1-0.1-0.2-0.1C304.4,153.7,304.4,153.7,304.5,153.9z M303,153
							c0.1,0.2,0.1,0.2,0.2,0.3C303,153,303,153,303,153z M304.5,138l-1.1,2.4l1.1-2.3L304.5,138z"/>
					</g>
				</g>
			</g>
		</g>
	</g>
	<g>
		<g>
			<g>
				<g>
					<path class="st0" d="M242,148.9c0-0.1-0.1-0.2-0.1-0.3c0.2-0.1,0.3-0.1,0.5,0.1c-1.2-2.5-3.9-2.1-6-0.5c-0.5-0.2-1.2,0.2-1.5,1
						c-0.3,0.8-0.1,1.6,0.4,1.9c0.1,0.1,0.2,0.2,0.3,0.4c0.4,1.5,1.1,2.7,2,3.6c-0.1-0.3-0.3-0.6-0.4-0.9c0.2,0.3,0.5,0.6,0.8,0.7
						l0-0.5c0.7,1.4,2.3,1.5,3.5,0.1c1.2-1.3,1.6-3.6,0.8-5L242,148.9z"/>
					<path class="st0" d="M241.4,143.5c0.5,0.7,0.9,1.5,1.3,2.3l0,0.3l0.3-1.3l0,0.1c-0.9,0.9-2,1-2.9,1.1l-0.4,0.1
						c-0.2,0.1-0.4,0.3-0.5,0.6c-0.3,0.6-0.2,1.2,0.2,1.5l0.4,0.3c0.9,1.1,2.7,1.6,4-0.3c0.3-0.5,0.4-1.1,0.5-1.7
						c0.3-0.8,0.1-1.7-0.5-1.9c-0.5-0.2-1.2,0.3-1.5,1.1l-0.2-0.3c0.1-0.1,0.2-0.2,0.3-0.2c-0.4,0.7-0.9,0.7-1.4,1l-0.6,0l-0.3,2
						l0.4-0.2c0-0.1,0-0.2,0-0.2c0.7-0.4,1.4-0.7,2.2-0.9l1-0.5c0.3-0.3,0.5-0.9,0.3-1.3l-0.2-0.5c0,0.1,0.1,0.2,0.1,0.3
						c-0.7-0.7-1.4-1.2-2.1-1.9c-0.1-0.1-0.3-0.1-0.4,0.1C241.3,143.2,241.3,143.4,241.4,143.5z"/>
					<g>
						<path class="st0" d="M244.3,144.1c0.1,0.2,0.2,0.4,0.4,0.4c0.1-0.1,0.1-0.1,0.1-0.1c0-0.1-0.1-0.3-0.2-0.4
							C244.5,143.7,244.4,143.9,244.3,144.1z"/>
						<path class="st0" d="M244.8,144.4c0,0.1,0.1,0.2,0.1,0.2C244.9,144.5,244.9,144.4,244.8,144.4
							C244.8,144.4,244.8,144.4,244.8,144.4C244.8,144.4,244.8,144.4,244.8,144.4z"/>
						<path class="st0" d="M209,136.5c-2.3-1.3-4.6-2.5-7-3.6c-0.1,0-0.2,0-0.2,0.1c0,0.1,0,0.2,0.1,0.3c2.4,1.1,4.7,2.3,7,3.6
							c0.1,0,0.2,0,0.2-0.1C209.1,136.7,209,136.5,209,136.5z"/>
						<path class="st0" d="M195.4,118c0.1-0.1,0.1-0.2,0.1-0.3c0-0.1-0.1-0.1-0.2-0.1c-0.1,0.1-0.1,0.2-0.1,0.3
							C195.2,118,195.3,118,195.4,118z"/>
						<path class="st0" d="M199.6,109c0.4,0,0.8-0.1,1.2-0.3c0.1,0,0.1,0,0.1,0.1c0.1-0.2,0.2-0.3,0.3-0.4c2.9-0.7,5.7-0.3,8.4-0.2
							c0.1-0.1,0.2-0.3,0.3-0.4c0.3-0.4,0.8-0.5,1.1-0.3l0.2,0.2c1,0.7,2,1.3,2.9,2c0.3-0.1,0.6-0.2,0.9-0.1
							c1.1-0.3,2.3-0.5,3.4-0.6c0-0.2,0-0.3,0.1-0.5c0.2-0.4,0.5-0.6,0.7-0.5l0.4,0.1c-0.3-0.2-0.7-0.5-1-0.7
							c-0.1,0-0.1-0.1-0.1-0.1c-0.4-0.2-0.8-0.3-1.2-0.4c-3.8-1-7.8-0.7-11.9-0.3c-0.1,0-0.2,0-0.2-0.1c0-0.1,0.1-0.2,0.1-0.3
							c2.9-1.2,5.8-3.2,8.7-3.6c3.5-0.5,6.8-0.9,10.1-0.8c3.1,1.1,6.3,1.1,9.6,1.4c4.6,0.4,8.6,1.6,12.8,2.8c1.7,0.2,2.5,2.3,2,4.9
							c-0.3,1.5-1.1,2.8-2.1,3.6l0.4,0.2l0.5,0.5c0.5,0.5,0.8,1.2,0.9,2.2l0.1,1.2c0,2.1,0.4,4.1,0.3,6.3l-0.3,0.7l0,0.3
							c0.2,0.7,0.2,1.5,0.1,2.3l-0.3,0.9c-0.4,1-0.9,2-1.5,2.9c-0.1,0.4-0.3,0.8-0.5,1.1c0,1-0.2,2.1-0.8,3.1
							c0.1,0.3-0.1,0.7-0.3,0.9c-0.1,0.1-0.2,0.1-0.3,0.1l0,0c0,0.3,0,0.3,0,0.7c0.1,0.1,0.2,0.2,0.2,0.2c0.4,0.3,0.4,0.3,0.7,0.6
							c0.2,0.4,0.3,0.9,0.3,0.9c-0.2,1.8-0.2,1.8-0.4,2.5c0,0.1-0.1,0.1-0.1,0.2c0.2,0.3,0.2,0.3,0.3,0.4c0,0.2,0,0.3,0,0.3
							c-0.1,0.4-0.1,0.4-0.1,0.5c0,0.2-0.1,0.3-0.1,0.3c-0.3,0.4-0.3,0.4-0.3,0.5c-0.1,0.1-0.1,0.2-0.1,0.2
							c-0.2,0.1-0.3,0.1-0.3,0.1c-0.1-1.1-0.1-1.1-0.1-1.1c-0.2,0.3-0.2,0.3-0.2,0.3c0-0.5,0-0.5,0-0.5c-0.1,0.4-0.1,0.4-0.1,0.4
							c-0.1-0.3-0.1-0.3-0.1-0.3c0.1,0.4,0.1,0.4,0.1,0.4c-0.4-0.3-0.4-0.3-0.6-0.3c-0.2-0.1-0.4-0.1-0.4-0.1c0,0.1-0.1,0.2-0.1,0.2
							c-0.4-0.3-0.4-0.3-0.9-0.6c0-0.1,0-0.2,0-0.3c-0.1,0.1-0.2,0.1-0.3,0.1l-0.2-0.2l-0.1,0c0,0,0,0,0,0c-0.1,0.1-0.2,0.1-0.3,0.1
							c-0.1,0-0.1,0-0.1,0l0,0c-0.2,0.1-0.5,0.2-1.2,0.6c-0.1-0.1-0.3-0.2-0.4-0.3c0,0.1,0,0.1,0.1,0.2c0,0.2-0.1,0.5-0.1,0.6
							c0.8,1.1,1.9,1.8,2.9,2.6c0.2,0,0.3,0.3,0.3,0.6c-0.1,0.3-0.3,0.5-0.5,0.5c-2.9,1.3-5.7,0.2-7.5-2.2c-0.6-0.4-1.1-0.8-1.7-1.1
							c0,0.1,0,0.1,0,0.2l-0.4-0.4c0,0,0,0,0,0l0.2,0.8c0.1,0.1,0.1,0.2,0.2,0.3c1.4,0.7,2.4,2.2,3.6,3.3c0.6,0.6,1.1,1.4,1.7,2.2
							c0.2,0.1,0.2,0.4,0.1,0.6c-0.1,0.3-0.3,0.4-0.5,0.3c-2.6-0.3-5.2-1.6-6.4-4.5c-0.4-0.2-0.8-0.5-1-1l0,0l0.1,0.7
							c-0.3-0.2-0.3-0.8-0.5-1.1l-0.1,0.8c-1.5-1-3.3-1.3-4.4-2.9c-0.1,0-0.1-0.1-0.1-0.1c-0.8,0.3-1.6,0.6-2.4,0.4
							c0.2,0.2,0.5,0.3,0.7,0.5c-0.7,0.1-1.3,0.2-1.9,0c-1.6-0.6-3-2.4-3.1-4.7c-3.1-0.8-6.3-1.7-9.5-2.3c-0.2,0-0.3-0.2-0.2-0.5
							c0.1-0.2,0.2-0.4,0.4-0.4c2.5,0,4.8,0.4,7.2,0.8c-1.7-1-3.4-2.1-5.3-2.8l-0.8-0.2c-0.3-0.1-0.5-0.2-0.7-0.4
							c-2.4-0.9-4.7-1.9-7.3-2.2c-2.3-0.3-4.3-0.5-6.7-0.6c-3.3-0.2-6.4-0.2-9.3-1.4c-0.4-0.1-0.6-0.6-0.4-1.2
							c0.2-0.6,0.7-1,1.1-0.9c6.7,0.7,13.4,0.8,19.6,3.4c0.7,0.3,1.3,0.6,2,0.8c0-0.1,0-0.2,0.1-0.2c0.1-0.3,0.3-0.6,0.5-0.8
							c-0.7-0.4-1.4-0.8-2.1-1.2c-2.4-0.1-4.7-0.3-6.9-1.5c-1.5-0.8-2.6-2-3.8-3.2c-1.9-0.3-3.9-0.6-5.9-1c-0.1,0-0.1-0.1-0.1-0.2
							c0-0.1,0.1-0.2,0.2-0.2c1.5-0.2,3-0.2,4.5-0.2c-0.1-0.4,0-0.9,0.2-1.4c0.2-0.5,0.6-0.9,0.9-1.2L196,120
							c-0.2-0.1-0.2-0.3-0.1-0.6c0.1-0.3,0.3-0.4,0.5-0.4l3.5,1.5c1.5,0.3,3.1,0.6,4.6,0.9c-0.1-0.4-0.1-0.9,0.1-1.4l0,0l-0.7-0.2
							c-4.6-0.1-9.1-0.9-13.1-2.9c-0.1,0-0.1-0.2-0.1-0.3c0-0.1,0.2-0.2,0.2-0.2c1.2,0.6,2.5,1.1,3.8,1.5l0,0c0-0.1,0-0.2,0.1-0.3
							c0.1-0.1,0.2,0,0.2,0.1c0,0.1,0,0.2-0.1,0.3c2.4,0.7,4.9,1.1,7.5,1.3c-2.2-0.7-4.3-1.4-6.3-2.5l-0.9,0.2
							c-0.1,0-0.1-0.1-0.1-0.2c0-0.1,0.1-0.2,0.2-0.2l0.2,0c-0.4-0.2-0.5-0.8-0.2-1.4c0.3-0.6,0.8-1,1.2-0.8
							c1.2,0.3,2.3,0.7,3.4,1.1l0.4,0l0.5-0.2c-1.6-0.9-3.2-1.9-4.8-2.9c-0.1-0.1-0.2-0.3-0.1-0.5c0.1-0.2,0.3-0.4,0.4-0.3
							c3.3,0.3,6.6,0.9,9.8,1.6c1.4-0.6,2.7-1.2,4.1-1.8c-0.1-0.1-0.2-0.1-0.4-0.2c-3.3-1.2-7.1,0.4-10.5-0.3
							c-0.1,0-0.1-0.1-0.1-0.2c0-0.1,0.1-0.2,0.2-0.2c1.7,0.2,3.5-0.1,5.3-0.2c1.5-0.1,2.9-0.1,4.4-0.4c-2.5-0.7-5.3-0.4-7.9-0.8
							c-0.1,0-0.2-0.1-0.2-0.2c0,0.1-0.1,0.1-0.1,0.1c-0.4,0.2-0.8,0.3-1.2,0.3c-0.1,0-0.1-0.1-0.1-0.2
							C199.4,109.2,199.5,109.1,199.6,109z M238,137.6c0,0.1,0,0.1,0,0.2c0-0.1-0.1-0.2-0.1-0.3c0,0,0,0,0-1
							C237.9,136.4,237.9,137,238,137.6z M243,135.4L243,135.4c0,0.3,0,0.6,0,0.6C243,135.7,243,135.5,243,135.4z M215.6,135.3
							c1.3,0.5,2.6,1.2,3.7,2.2l-1-0.2C217.3,136.6,216.4,136,215.6,135.3z M239.5,141.9c-0.2-0.6-0.3-1.3-0.4-2
							c-0.3,0-0.5,0-0.8-0.1c-0.6-0.3-1.2-0.6-1.8-1c0,0.4-0.2,0.3-0.2,0.3l-0.3,0c0.6,0.4,1.2,0.9,1.8,1.4
							C238.4,141,239.1,141.3,239.5,141.9z M244.7,142.1c0,0,0,0.1,0,0.1c0,0,0,0-0.3,0.5C244.4,142.7,244.5,142.4,244.7,142.1z
							 M245.1,141.3L245.1,141.3C245.1,141,245.1,141.1,245.1,141.3z M244.4,140.4c0,0.1,0,0.2,0,0.3
							C244.4,140.4,244.4,140.4,244.4,140.4z M248.1,125.8l-1.1,2.3l1.1-2.2L248.1,125.8z"/>
					</g>
				</g>
			</g>
		</g>
	</g>
	<g>
		<g>
			<g>
				<g>
					<path class="st0" d="M212.7,135.8c-0.1-0.1-0.1-0.2-0.2-0.3c0.1-0.2,0.3-0.2,0.5-0.1c-1.8-2.2-4.4-1.1-6.2,0.9
						c-0.6-0.1-1.2,0.5-1.3,1.3c-0.1,0.8,0.3,1.6,0.8,1.8c0.1,0.1,0.3,0.2,0.4,0.3c0.8,1.4,1.8,2.3,2.9,3.1
						c-0.2-0.3-0.4-0.5-0.6-0.8c0.3,0.2,0.6,0.5,1,0.5l-0.1-0.5c1.1,1.2,2.7,0.9,3.6-0.7c0.9-1.6,0.7-3.8-0.4-5L212.7,135.8z"/>
					<path class="st0" d="M210.9,130.7c0.6,0.6,1.2,1.2,1.8,1.9l0.1,0.3l0-1.3l0,0.1c-0.7,1.1-1.7,1.5-2.6,1.7l-0.3,0.2
						c-0.2,0.2-0.3,0.4-0.3,0.7c-0.1,0.6,0.1,1.2,0.6,1.4l0.5,0.1c1.2,0.8,3.1,1,3.9-1.2c0.2-0.5,0.1-1.2,0.1-1.8
						c0.1-0.9-0.3-1.6-0.9-1.7c-0.6-0.1-1.1,0.5-1.2,1.4l-0.3-0.2c0.1-0.1,0.2-0.2,0.3-0.3c-0.2,0.7-0.8,0.9-1.2,1.3l-0.6,0.2l0.2,2
						l0.3-0.2c0-0.1-0.1-0.2-0.1-0.2c0.6-0.5,1.2-1,1.9-1.4l0.9-0.7c0.2-0.4,0.3-0.9,0-1.3l-0.3-0.5c0.1,0.1,0.1,0.2,0.2,0.3
						c-0.8-0.5-1.7-0.8-2.5-1.4c-0.1-0.1-0.3,0-0.4,0.2C210.7,130.4,210.8,130.6,210.9,130.7z"/>
					<g>
						<path class="st0" d="M213.9,130.6c0.1,0.2,0.3,0.3,0.4,0.3c0.1-0.1,0.1-0.1,0.1-0.2c-0.1-0.1-0.2-0.2-0.3-0.4
							C214,130.1,213.9,130.3,213.9,130.6z"/>
						<path class="st0" d="M214.5,130.8c0.1,0.1,0.1,0.2,0.1,0.2C214.5,130.8,214.5,130.8,214.5,130.8
							C214.5,130.7,214.5,130.7,214.5,130.8C214.5,130.7,214.5,130.7,214.5,130.8z"/>
						<path class="st0" d="M177.1,129.9c-2.5-0.9-5.1-1.8-7.6-2.6c-0.1,0-0.2,0-0.2,0.2c0,0.1,0,0.2,0.1,0.2
							c2.5,0.8,5.1,1.7,7.6,2.6c0.1,0,0.2-0.1,0.2-0.2C177.2,130.1,177.2,130,177.1,129.9z"/>
						<path class="st0" d="M161.2,113.2c0.1-0.1,0.1-0.2,0.1-0.3c0-0.1-0.1-0.1-0.2,0c-0.1,0.1-0.1,0.2-0.1,0.3
							C161,113.3,161.1,113.3,161.2,113.2z"/>
						<path class="st0" d="M164.3,103.9c0.4-0.1,0.7-0.2,1.1-0.5c0.1,0,0.1,0,0.1,0.1c0-0.2,0.1-0.4,0.3-0.4c2.8-1,5.4-1,8-1.3
							c0.1-0.2,0.1-0.3,0.2-0.4c0.3-0.5,0.7-0.6,1-0.5l0.2,0.2c1,0.5,2,1,3,1.5c0.3-0.2,0.6-0.3,0.8-0.3c1.1-0.4,2.1-0.8,3.1-1.1
							c0-0.1,0-0.3,0-0.5c0.1-0.4,0.4-0.7,0.6-0.6l0.4,0c-0.3-0.2-0.7-0.4-1-0.5c-0.1,0-0.1-0.1-0.1-0.1c-0.4-0.1-0.8-0.2-1.2-0.2
							c-3.7-0.4-7.4,0.4-11.2,1.4c-0.1,0.1-0.2,0-0.2-0.1c0-0.1,0-0.2,0.1-0.3c2.7-1.6,5.2-3.9,7.8-4.8c3.2-1,6.2-1.9,9.2-2.4
							c3,0.5,5.9,0,9-0.4c4.2-0.5,8.1-0.2,12.1,0.1c1.5-0.2,2.7,1.7,2.8,4.3c0,1.6-0.5,3-1.2,4l0.4,0.1l0.6,0.3c0.5,0.3,1,1,1.2,1.9
							l0.4,1.1c0.4,2.1,1.3,3.9,1.6,6l-0.2,0.8l0.1,0.2c0.3,0.6,0.6,1.4,0.6,2.2l-0.1,1c-0.1,1.1-0.4,2.2-0.7,3.1
							c0,0.4-0.1,0.8-0.2,1.2c0.2,1,0.3,2.1,0,3.2c0.1,0.3,0.1,0.7-0.1,1c-0.1,0.1-0.2,0.1-0.2,0.1l0,0c0.1,0.3,0.1,0.3,0.2,0.6
							c0.2,0.1,0.2,0.2,0.2,0.2c0.4,0.2,0.4,0.2,0.8,0.4c0.3,0.4,0.5,0.9,0.5,0.9c0.3,1.8,0.3,1.8,0.2,2.5c0,0.1-0.1,0.1-0.1,0.2
							c0.3,0.3,0.3,0.3,0.4,0.4c0.1,0.1,0.1,0.3,0.1,0.3c0,0.4,0,0.4,0,0.6c0,0.2,0,0.3,0,0.3c-0.2,0.4-0.2,0.4-0.2,0.6
							c0,0.1-0.1,0.2-0.1,0.2c-0.2,0.1-0.3,0.2-0.3,0.2c-0.4-1.1-0.4-1.1-0.4-1.1C214,130,214,130,214,130c-0.1-0.5-0.1-0.5-0.1-0.5
							c0,0.4,0,0.4,0,0.4c-0.2-0.3-0.2-0.3-0.2-0.3c0.2,0.4,0.2,0.4,0.2,0.4c-0.5-0.2-0.5-0.2-0.7-0.2c-0.2-0.1-0.4,0-0.4,0
							c0,0.1,0,0.2,0,0.2c-0.5-0.2-0.5-0.2-1-0.4c0-0.1-0.1-0.2-0.1-0.3c-0.1,0.1-0.2,0.2-0.3,0.1l-0.3-0.1l-0.1,0.1c0,0,0,0,0,0
							c-0.1,0.1-0.2,0.1-0.2,0.2c0,0,0,0,0,0l0,0c-0.2,0.1-0.4,0.3-1,0.8c-0.2-0.1-0.3-0.1-0.4-0.2c0,0.1,0.1,0.1,0.1,0.2
							c0.1,0.1,0,0.5,0,0.6c1.1,0.9,2.3,1.3,3.5,1.8c0.2,0,0.4,0.2,0.4,0.5c0,0.3-0.2,0.6-0.4,0.6c-2.6,2-5.6,1.5-8-0.4
							c-0.6-0.3-1.3-0.5-2-0.7c0,0.1,0.1,0.1,0.1,0.2l-0.5-0.3c0,0,0,0-0.1,0l0.3,0.7c0.1,0.1,0.2,0.2,0.3,0.2
							c1.5,0.4,2.9,1.7,4.3,2.5c0.8,0.4,1.4,1.2,2.2,1.7c0.2,0.1,0.3,0.3,0.3,0.6c0,0.3-0.2,0.5-0.4,0.4c-2.6,0.3-5.6-0.4-7.4-3
							c-0.5-0.1-0.9-0.3-1.2-0.8l0,0l0.2,0.6c-0.3-0.2-0.5-0.7-0.8-0.9l0,0.8c-1.7-0.7-3.6-0.7-5-2c-0.1,0-0.1-0.1-0.2-0.1
							c-0.8,0.5-1.5,0.9-2.3,0.9c0.3,0.1,0.5,0.2,0.8,0.4c-0.6,0.3-1.3,0.4-1.9,0.3c-1.7-0.3-3.4-1.8-4-4.1c-3.3-0.3-6.6-0.6-10-0.8
							c-0.2,0-0.3-0.2-0.3-0.4c0-0.2,0.2-0.4,0.4-0.4c2.5-0.4,4.9-0.4,7.3-0.3c-1.9-0.7-3.8-1.5-5.8-1.9l-0.8,0
							c-0.3,0-0.5-0.1-0.7-0.3c-2.6-0.5-4.9-1.2-7.7-1.2c-2.3,0-4.4,0.1-6.8,0.2c-3.4,0.2-6.5,0.5-9.6-0.5c-0.4,0-0.7-0.6-0.6-1.2
							c0.1-0.6,0.6-1.1,1-1c6.9,0.1,13.6-0.6,20.2,1.2c0.7,0.2,1.4,0.4,2.1,0.6c0-0.1,0-0.2,0-0.2c0.1-0.3,0.2-0.6,0.4-0.8
							c-0.8-0.2-1.6-0.5-2.3-0.9c-2.4,0.2-4.8,0.4-7.1-0.6c-1.6-0.6-2.9-1.7-4.2-2.8c-2-0.1-4-0.2-6-0.4c-0.1,0-0.1-0.1-0.1-0.2
							c0-0.1,0.1-0.2,0.2-0.2c1.5-0.3,3-0.5,4.5-0.7c-0.1-0.4-0.1-0.9,0.1-1.5c0.2-0.5,0.5-1,0.8-1.3l-0.9-0.3
							c-0.2-0.1-0.3-0.3-0.2-0.6c0.1-0.3,0.3-0.5,0.5-0.4l3.6,1.1c1.5,0.1,3.1,0.2,4.6,0.3c-0.1-0.4-0.2-0.9-0.1-1.4l0,0l-0.7-0.1
							c-4.5,0.5-9,0.2-13.2-1.4c-0.1,0-0.1-0.1-0.1-0.3c0-0.1,0.1-0.2,0.2-0.2c1.3,0.5,2.5,0.8,3.9,1.1l0,0c0-0.1,0-0.2,0.1-0.3
							c0.1-0.1,0.2,0,0.2,0c0,0.1,0,0.2-0.1,0.3c2.4,0.5,5,0.6,7.5,0.4c-2.2-0.4-4.4-0.9-6.5-1.8l-0.8,0.3c-0.1,0-0.1-0.1-0.1-0.2
							c0-0.1,0.1-0.2,0.2-0.2l0.2-0.1c-0.4-0.2-0.6-0.8-0.4-1.4c0.2-0.7,0.7-1.1,1.1-0.9c1.2,0.2,2.3,0.4,3.4,0.7l0.4,0l0.4-0.2
							c-1.7-0.7-3.3-1.5-4.9-2.3c-0.1,0-0.2-0.3-0.2-0.5c0.1-0.2,0.2-0.4,0.4-0.4c3.3-0.1,6.5,0.1,9.7,0.5c1.2-0.8,2.5-1.5,3.7-2.3
							c-0.1,0-0.3-0.1-0.4-0.1c-3.3-0.8-6.8,1.4-10.2,1c-0.1,0-0.1-0.1-0.1-0.2c0-0.1,0.1-0.2,0.2-0.2c1.7,0.1,3.4-0.5,5.1-0.8
							c1.4-0.2,2.8-0.5,4.1-0.9c-2.5-0.3-5.1,0.3-7.7,0.2c-0.1,0-0.2-0.1-0.2-0.2c0,0.1-0.1,0.1-0.1,0.1c-0.4,0.2-0.8,0.4-1.2,0.5
							c-0.1,0-0.1,0-0.1-0.2C164.2,104.1,164.3,103.9,164.3,103.9z M206.2,125.7c0,0.1,0,0.1,0.1,0.1c-0.1-0.1-0.1-0.2-0.2-0.3
							c0,0,0,0-0.2-1C205.8,124.6,206,125.1,206.2,125.7z M210.5,122.4L210.5,122.4c0.1,0.3,0.1,0.6,0.1,0.6
							C210.6,122.7,210.6,122.6,210.5,122.4z M183.5,127.7c1.4,0.3,2.8,0.7,4.1,1.5l-1.1,0C185.5,128.8,184.5,128.3,183.5,127.7z
							 M208.7,129.5c-0.3-0.5-0.6-1.2-0.8-1.8c-0.3,0.1-0.5,0.1-0.8,0.1c-0.7-0.1-1.4-0.3-2-0.6c0.1,0.3-0.1,0.3-0.2,0.3l-0.3,0.1
							c0.7,0.3,1.4,0.6,2.1,1C207.4,128.9,208.1,129.1,208.7,129.5z M213.8,128.5c0,0,0,0.1,0.1,0.1c0,0,0,0-0.2,0.5
							C213.6,129.2,213.7,128.9,213.8,128.5z M214,127.7L214,127.7C214,127.4,214,127.5,214,127.7z M213.1,127
							c0,0.1,0.1,0.2,0.1,0.3C213.1,127,213.1,127,213.1,127z M213.3,111.9l-0.5,2.5l0.5-2.4L213.3,111.9z"/>
					</g>
				</g>
			</g>
		</g>
	</g>
	<g>
		<g>
			<g>
				<g>
					<path class="st0" d="M172.3,123.5c0-0.1,0-0.2,0-0.3c0-0.2,0.1-0.2,0.1-0.1c-0.4-2.1-1.1-0.7-1.7,1.5c-0.2-0.1-0.4,0.6-0.5,1.5
						c-0.1,0.9-0.1,1.6,0.1,1.7c0,0.1,0.1,0.2,0.1,0.3c0.1,1.3,0.4,2.2,0.7,2.9l-0.2-0.8c0.1,0.2,0.2,0.4,0.3,0.4l0-0.5
						c0.3,1.1,0.8,0.7,1.1-1c0.3-1.7,0.3-4.1,0.1-5.2L172.3,123.5z"/>
					<path class="st0" d="M172,118.5c0.1,0.6,0.2,1.1,0.4,1.7l0,0.3l0.1-1.4l0,0.1c-0.2,1.2-0.5,1.7-0.7,2.1l-0.1,0.2
						c-0.1,0.2-0.1,0.5-0.1,0.7c-0.1,0.7,0,1.3,0.1,1.4l0.1,0.1c0.3,0.7,0.8,0.7,1.1-1.7c0.1-0.5,0.1-1.2,0.1-1.8
						c0-0.9,0-1.7-0.2-1.7c-0.1,0-0.3,0.7-0.4,1.6c0-0.1,0-0.1-0.1-0.2c0-0.1,0.1-0.2,0.1-0.3c-0.1,0.8-0.2,1-0.4,1.4l-0.2,0.2
						l-0.1,2.1l0.1-0.3c0-0.1,0-0.2,0-0.2c0.2-0.6,0.4-1.2,0.6-1.6l0.2-0.8c0.1-0.4,0.1-1,0.1-1.4l-0.1-0.4c0,0.1,0,0.2,0,0.3
						c-0.2-0.4-0.4-0.7-0.5-1.1c0-0.1-0.1,0-0.1,0.2C172,118.1,172,118.4,172,118.5z"/>
					<g>
						<path class="st0" d="M172.8,118c0,0.2,0,0.3,0.1,0.3c0-0.1,0-0.1,0-0.2c0-0.1,0-0.2,0-0.3C172.8,117.5,172.8,117.7,172.8,118z
							"/>
						<path class="st0" d="M172.9,118.1c0,0.1,0,0.1,0,0.1C172.9,118.2,172.9,118.1,172.9,118.1
							C172.9,118.1,172.9,118.1,172.9,118.1C172.9,118.1,172.9,118.1,172.9,118.1z"/>
						<path class="st0" d="M162.8,122c-0.6-0.6-1.2-1-1.8-1.4c0,0-0.1,0.1-0.1,0.2c0,0.1-0.1,0.2,0,0.2c0.6,0.4,1.2,0.9,1.8,1.4
							c0,0,0.1-0.1,0.1-0.2C162.8,122.1,162.8,122,162.8,122z"/>
						<path class="st0" d="M162.7,108.9c0.1-0.1,0.1-0.2,0.1-0.3c0-0.1,0-0.1,0,0C162.8,108.7,162.7,108.8,162.7,108.9
							C162.7,109,162.7,109,162.7,108.9z"/>
						<path class="st0" d="M166.8,100c0.1-0.1,0.2-0.3,0.4-0.6c0,0,0,0,0,0c0.1-0.2,0.2-0.4,0.2-0.4c1-1.4,1.5-2,2.1-2.7
							c0.1-0.2,0.1-0.3,0.2-0.4c0.2-0.5,0.3-0.7,0.3-0.6l0,0.1c0,0.3,0,0.5,0.1,0.9c0.1-0.2,0.2-0.4,0.2-0.4
							c0.3-0.6,0.6-1.1,0.8-1.6c0-0.1,0.1-0.3,0.1-0.5c0.1-0.4,0.2-0.7,0.3-0.7c0,0,0,0,0,0c0-0.1,0-0.2,0-0.3c0,0,0,0,0-0.1
							c0,0-0.1,0-0.1,0c-0.4,0.3-1.2,1.8-2.3,3.5c0,0.1,0,0,0,0c0-0.1,0.1-0.2,0.1-0.3c1-1.9,2.2-4.6,2.8-5.9c0.7-1.6,1.3-2.9,1.6-4
							c0.1,0,0.4-1,0.6-1.7c0.2-1,0.2-1.2,0.3-1.3c0,0.4-0.1,1.5-0.3,3.7c-0.1,1.4-0.2,2.8-0.4,3.7c0,0,0,0,0,0l0,0.3
							c0,0.3,0,0.8,0,1.6l0,1c-0.1,1.8-0.1,3.3-0.2,5.2l-0.1,0.7l0,0.2c0,0.5,0,1.2,0,1.9l-0.1,0.9c-0.1,1-0.1,2-0.2,2.9
							c0,0.4-0.1,0.8-0.1,1.2c0,1-0.1,2.1-0.2,3.3c0,0.3,0,0.7-0.1,1c0,0.1,0,0.1-0.1,0.2l0,0c0,0.3,0,0.3,0,0.6c0,0.1,0,0.1,0,0.1
							c0.1,0.2,0.1,0.2,0.1,0.3c0,0.3,0.1,0.8,0.1,0.8c0,1.8,0,1.8-0.1,2.6c0,0.1,0,0.2,0,0.2c0,0.2,0.1,0.3,0.1,0.3
							c0,0.1,0,0.3,0,0.3c0,0.4,0,0.4,0,0.6c0,0.2,0,0.3,0,0.3c-0.1,0.5-0.1,0.5-0.1,0.6c0,0.1,0,0.2,0,0.2
							c-0.1,0.2-0.1,0.2-0.1,0.2c0-1.1,0-1.1,0-1.1c0,0.4,0,0.4,0,0.4c0-0.5,0-0.5,0-0.5c0,0.5,0,0.5,0,0.5c0-0.3,0-0.3,0-0.3
							c0,0.4,0,0.4,0,0.4c-0.1-0.1-0.1-0.1-0.1-0.1c0,0-0.1,0.1-0.1,0.1c0,0.1,0,0.2,0,0.2c-0.1-0.1-0.1-0.1-0.2-0.3l0-0.3
							c0,0.1,0,0.2-0.1,0.2l-0.1-0.1l0,0.1c0,0,0,0,0,0c0,0.1,0,0.2-0.1,0.2c0,0.1,0,0.1,0,0.1l0,0c0,0.2-0.1,0.4-0.3,1
							c0,0-0.1-0.1-0.1-0.2c0,0.1,0,0.1,0,0.2c0,0.1,0,0.5,0,0.6c0.2,0.8,0.5,1.1,0.8,1.5c0.1-0.1,0.1,0.2,0.1,0.5
							c0,0.3-0.1,0.6-0.1,0.7c-0.7,2.3-1.6,2.1-2.1,0.4c-0.2-0.2-0.3-0.4-0.5-0.5c0,0.1,0,0.1,0,0.2c0-0.1-0.1-0.2-0.1-0.3
							c0,0,0,0,0,0l0,0.7c0,0.1,0,0.1,0,0.2c0.4,0.3,0.6,1.4,1,2c0.2,0.4,0.3,1,0.5,1.5c0.1,0,0.1,0.3,0,0.6c0,0.3-0.1,0.5-0.1,0.5
							c-0.8,0.6-1.6,0.2-1.9-2.3c-0.1,0-0.2-0.2-0.3-0.6l0,0l0,0.6c-0.1-0.1-0.1-0.6-0.1-0.9c0,0.3-0.1,0.5-0.1,0.8
							c-0.4-0.5-1-0.3-1.2-1.4c0,0,0,0,0-0.1c-0.3,0.6-0.6,1.1-0.8,1.2c0.1,0.1,0.1,0.2,0.2,0.3c-0.2,0.3-0.4,0.6-0.6,0.5
							c-0.5-0.1-0.8-1.4-0.5-3.5c-0.9,0.2-1.9,0.3-2.9,0.6c-0.1,0,0-0.1,0-0.4c0.1-0.2,0.2-0.4,0.2-0.5c0.9-0.7,1.6-1,2.3-1.3
							c-0.4-0.5-0.8-0.9-1.3-1.1l-0.2,0.1c-0.1,0-0.1-0.1-0.2-0.2c-0.7-0.1-1.2-0.4-2.1,0c-0.7,0.3-1.4,0.7-2.3,1.2
							c-0.6,0.3-1.2,0.7-1.8,0.9c-0.3,0.1-0.5,0.2-0.8,0.2c-0.4-0.1-0.7-0.2-1.1-0.3c-0.2,0-0.2-0.5,0.1-1.1c0.3-0.5,0.7-1,0.9-1
							c0.4,0,0.9-0.1,1.3-0.2c0.4-0.1,0.6-0.3,0.9-0.4c0.6-0.3,1.2-0.5,1.7-0.8c1.1-0.4,2-0.7,2.8-0.4c0.2,0.1,0.3,0.1,0.5,0.2
							l0.1-0.2c0.1-0.3,0.2-0.6,0.3-0.9c-0.2-0.1-0.3-0.3-0.5-0.5c-0.7,0.6-1.5,1.1-2,0.5c-0.3-0.4-0.4-1.2-0.5-1.9
							c-0.3,0.1-0.6,0.2-0.9,0.3c-0.3,0.1-0.5,0.2-1,0.2c0,0,0,0,0-0.2c0-0.1,0.1-0.2,0.2-0.2c0.2-0.1,0.4-0.2,0.5-0.3
							c0.1-0.1,0.3-0.2,0.4-0.3c0.3-0.2,0.5-0.4,0.8-0.6c0.1-0.4,0.3-0.8,0.5-1.3c0.2-0.5,0.5-1,0.7-1.3l-0.2-0.1c0,0,0-0.2,0.1-0.5
							c0.1-0.3,0.2-0.5,0.3-0.4l0.7,0.4c0.4-0.2,0.8-0.3,1.2-0.5c0.1-0.4,0.2-0.8,0.4-1.3l0,0l-0.1,0c-0.7,0.6-1.3,1-1.9,1.2
							c-0.3,0.1-0.5,0.1-0.8,0.1c-0.3-0.1-0.5-0.2-0.8-0.4c0,0,0-0.1,0.1-0.2c0.1-0.1,0.1-0.2,0.1-0.2c0.2,0.2,0.6,0.4,0.9,0.4l0,0
							c0-0.1,0.1-0.2,0.1-0.3c0-0.1,0.1-0.1,0,0c0,0.1-0.1,0.2-0.1,0.3c0.5,0,1.2-0.3,2-0.9c-0.5,0-0.9-0.1-1.2-0.5
							c-0.1,0.1-0.2,0.3-0.3,0.4c0,0,0-0.1,0-0.2c0-0.1,0.1-0.2,0.1-0.2c0,0,0.1-0.1,0.1-0.1c-0.1-0.1,0.1-0.6,0.4-1.2
							c0.3-0.6,0.6-1.1,0.6-1c0.2,0,0.5,0,0.7,0c0,0,0.1-0.1,0.1-0.1c0.1-0.1,0.1-0.2,0.2-0.3c-0.2-0.3-0.4-0.8-0.5-1.2
							c0,0,0-0.2,0.1-0.4c0.1-0.2,0.2-0.4,0.2-0.4c0.8-0.7,1.5-1.1,2.1-1.4c0.5-0.9,1-1.9,1.5-2.8c0,0,0,0,0,0
							c-0.4-0.1-1.8,2.5-2.6,2.9c0,0,0-0.1,0.1-0.2c0-0.1,0.1-0.2,0.1-0.2c0.4-0.3,1-1.1,1.4-1.7c0.4-0.5,0.7-1,1.1-1.6
							c-0.4,0.2-1.1,1.3-1.7,1.7c0,0,0,0,0-0.1c0,0.1-0.1,0.1-0.1,0.2c-0.2,0.3-0.3,0.5-0.4,0.6c0,0,0,0,0-0.1
							C166.8,100.1,166.8,100,166.8,100z M171.3,113.9c0,0.1,0,0.1,0,0.1C171.3,113.9,171.3,113.8,171.3,113.9c0-0.1,0-0.1,0-1.1
							C171.3,112.8,171.3,113.3,171.3,113.9z M172.5,109.9L172.5,109.9c0,0.3,0,0.6,0,0.6C172.5,110.3,172.5,110.1,172.5,109.9z
							 M165.2,118.9c0.4,0.1,0.7,0.3,0.9,0.9l-0.3,0.1C165.6,119.7,165.4,119.4,165.2,118.9z M171.6,117.5c0-0.5-0.1-1.1-0.1-1.8
							c-0.1,0.1-0.1,0.2-0.2,0.2c-0.2,0-0.3-0.1-0.4-0.3c0,0.3,0,0.3-0.1,0.4c0,0,0,0.1-0.1,0.1c0.1,0.2,0.3,0.5,0.4,0.7
							C171.3,117,171.5,117.1,171.6,117.5z M172.8,115.9c0,0,0,0.1,0,0.1c0,0,0,0-0.1,0.5C172.8,116.5,172.8,116.3,172.8,115.9z
							 M172.9,115L172.9,115C172.9,114.7,172.9,114.8,172.9,115z M172.7,114.3c0,0.1,0,0.2,0,0.3
							C172.7,114.3,172.7,114.3,172.7,114.3z M173.5,99.6l-0.2,2.3L173.5,99.6L173.5,99.6z"/>
					</g>
				</g>
			</g>
		</g>
	</g>
	<g>
		<g>
			<g>
				<g>
					<path class="st0" d="M176.2,137.6c0-0.1-0.1-0.2-0.1-0.3c0.1-0.2,0.2-0.2,0.4-0.1c-1.3-2.2-3.4-1.1-4.7,1
						c-0.4-0.1-0.9,0.5-1,1.3c-0.1,0.8,0.2,1.6,0.6,1.7c0.1,0.1,0.2,0.2,0.3,0.3c0.6,1.4,1.3,2.3,2.1,3c-0.2-0.3-0.3-0.5-0.5-0.8
						c0.2,0.2,0.5,0.5,0.8,0.5c0-0.2,0-0.3-0.1-0.5c0.8,1.2,2,0.9,2.7-0.7c0.7-1.6,0.6-3.8-0.1-5L176.2,137.6z"/>
					<path class="st0" d="M174.9,132.5c0.5,0.6,0.9,1.2,1.4,1.9l0.1,0.3l0.1-1.3l0,0.1c-0.5,1.1-1.3,1.5-2.1,1.7l-0.3,0.2
						c-0.1,0.2-0.2,0.4-0.3,0.7c-0.1,0.6,0.1,1.2,0.4,1.4l0.4,0.1c0.9,0.8,2.3,0.9,3-1.2c0.2-0.5,0.1-1.2,0.1-1.8
						c0.1-0.9-0.2-1.6-0.7-1.7c-0.5-0.1-0.9,0.5-1,1.4c-0.1-0.1-0.2-0.1-0.2-0.2c0.1-0.1,0.1-0.2,0.2-0.3c-0.2,0.7-0.6,0.9-1,1.3
						l-0.5,0.2l0.1,2l0.3-0.3c0-0.1,0-0.2,0-0.2c0.5-0.5,1-1,1.5-1.4l0.7-0.7c0.2-0.4,0.2-0.9,0.1-1.3l-0.3-0.5
						c0,0.1,0.1,0.2,0.1,0.3c-0.6-0.5-1.3-0.8-1.9-1.3c-0.1-0.1-0.2,0-0.3,0.2C174.8,132.2,174.8,132.4,174.9,132.5z"/>
					<g>
						<path class="st0" d="M177.3,132.4c0.1,0.2,0.2,0.3,0.3,0.3c0-0.1,0.1-0.1,0.1-0.2c-0.1-0.1-0.1-0.2-0.2-0.4
							C177.4,131.9,177.3,132.1,177.3,132.4z"/>
						<path class="st0" d="M177.7,132.6c0,0.1,0.1,0.2,0.1,0.2C177.8,132.7,177.7,132.6,177.7,132.6
							C177.7,132.5,177.7,132.5,177.7,132.6C177.7,132.5,177.7,132.5,177.7,132.6z"/>
						<path class="st0" d="M148.6,134.4c-2-0.6-4-1-6.1-1.3c-0.1,0-0.1,0.1-0.1,0.2c0,0.1,0,0.2,0.1,0.2c2,0.4,4.1,0.8,6.1,1.4
							c0.1,0,0.1-0.1,0.1-0.2C148.7,134.5,148.7,134.4,148.6,134.4z"/>
						<path class="st0" d="M134.1,120.9c0.1-0.1,0.1-0.2,0-0.3c0-0.1-0.1-0.1-0.2,0c0,0.1-0.1,0.2,0,0.3
							C134,121,134.1,121,134.1,120.9z"/>
						<path class="st0" d="M135.2,111.1c0.3-0.2,0.6-0.4,0.9-0.7c0,0,0.1,0,0.1,0c0-0.2,0.1-0.4,0.2-0.5c2.1-1.5,4.4-2.1,6.6-2.8
							c0-0.2,0.1-0.3,0.1-0.5c0.2-0.5,0.5-0.7,0.8-0.6l0.2,0.1c0.9,0.4,1.9,0.6,2.8,1c0.2-0.2,0.4-0.4,0.7-0.4
							c0.9-0.6,1.7-1.1,2.6-1.5c0-0.1-0.1-0.3-0.1-0.5c0-0.4,0.3-0.7,0.5-0.7c0.1,0,0.2,0,0.3,0c-0.3-0.1-0.6-0.3-1-0.4
							c0,0-0.1,0-0.1-0.1c-0.4,0-0.7-0.1-1.1,0c-3.2,0.2-6.4,1.6-9.5,3.3c-0.1,0.1-0.1,0.1-0.2-0.1c0-0.1,0-0.2,0.1-0.3
							c2-2.1,3.9-4.8,6.1-6.1c2.7-1.5,5.3-2.8,7.9-3.7c2.7,0.2,5.3-0.7,8.2-1.3c3.8-0.8,7.4-0.8,11.1-0.6c1.4-0.3,2.5,1.6,2.5,4.2
							c0,1.6-0.4,3-1,4c0.1,0,0.2,0,0.3,0.1l0.5,0.3c0.5,0.3,0.9,1,1.1,1.9l0.3,1.1c0.4,2.1,1,3.9,1.3,6l-0.1,0.8l0.1,0.2
							c0.3,0.6,0.4,1.4,0.5,2.2l-0.1,1c-0.1,1.1-0.4,2.2-0.7,3.1c0,0.4-0.1,0.8-0.2,1.2c0.2,1,0.2,2.1-0.1,3.2
							c0.1,0.3,0.1,0.7-0.1,1c-0.1,0.1-0.1,0.1-0.2,0.1c0,0,0,0,0,0c0.1,0.3,0.1,0.3,0.1,0.6c0.1,0.1,0.2,0.2,0.2,0.2
							c0.3,0.2,0.3,0.2,0.6,0.4c0.2,0.4,0.4,0.8,0.4,0.8c0.2,1.8,0.2,1.8,0.1,2.5c0,0.1,0,0.1-0.1,0.2c0.2,0.3,0.2,0.3,0.3,0.4
							c0.1,0.1,0.1,0.3,0.1,0.3c0,0.4,0,0.4,0,0.6c0,0.2,0,0.3,0,0.3c-0.2,0.4-0.2,0.4-0.2,0.6c0,0.1-0.1,0.2-0.1,0.2
							c-0.2,0.1-0.2,0.2-0.2,0.2c-0.2-1.1-0.3-1.1-0.3-1.1c-0.1,0.4-0.1,0.4-0.1,0.4c0-0.5,0-0.5,0-0.5c0,0.4,0,0.4,0,0.4
							c-0.1-0.3-0.1-0.3-0.1-0.3c0.2,0.4,0.2,0.4,0.2,0.4c-0.4-0.2-0.4-0.2-0.5-0.2c-0.2-0.1-0.3,0-0.3,0c0,0.1,0,0.2,0,0.2
							c-0.4-0.2-0.4-0.2-0.8-0.4c0-0.1-0.1-0.2-0.1-0.3c0,0.1-0.1,0.2-0.2,0.1c-0.1,0-0.1-0.1-0.2-0.1c0,0,0,0,0,0.1c0,0,0,0,0,0
							c-0.1,0.1-0.1,0.1-0.2,0.2c0,0,0,0,0,0c0,0,0,0,0,0c-0.1,0.1-0.3,0.3-0.8,0.8c-0.1-0.1-0.2-0.1-0.3-0.2c0,0.1,0.1,0.1,0.1,0.2
							c0.1,0.1,0,0.5,0,0.6c0.8,0.9,1.7,1.3,2.7,1.8c0.2,0,0.3,0.2,0.3,0.5c0,0.3-0.1,0.6-0.3,0.6c-2,2-4.4,1.5-6.2-0.3
							c-0.5-0.2-1-0.4-1.5-0.6c0,0.1,0,0.1,0.1,0.2c-0.1-0.1-0.3-0.2-0.4-0.3c0,0,0,0,0,0c0.1,0.2,0.2,0.5,0.3,0.7
							c0.1,0.1,0.1,0.2,0.2,0.2c1.2,0.4,2.2,1.5,3.3,2.3c0.6,0.4,1.1,1.1,1.6,1.7c0.1,0,0.2,0.3,0.2,0.6c0,0.3-0.2,0.5-0.3,0.4
							c-2,0.4-4.2-0.2-5.6-2.8c-0.4,0-0.7-0.3-1-0.7c0,0,0,0,0,0c0.1,0.2,0.1,0.4,0.2,0.6c-0.3-0.2-0.4-0.7-0.6-0.9
							c0,0.3,0,0.5,0,0.8c-1.3-0.6-2.7-0.5-3.9-1.7c0,0-0.1-0.1-0.1-0.1c-0.6,0.5-1.1,1-1.8,1.1c0.2,0.1,0.4,0.2,0.6,0.3
							c-0.5,0.3-0.9,0.5-1.4,0.5c-1.3-0.2-2.7-1.5-3.3-3.7c-2.6,0.1-5.1,0.1-7.7,0.5c-0.1,0-0.2-0.2-0.2-0.4c0-0.2,0.1-0.5,0.2-0.5
							c1.9-0.7,3.8-1,5.7-1.3c-1.5-0.5-3.1-1-4.7-1.2c-0.2,0-0.4,0-0.6,0.1c-0.2,0-0.4-0.1-0.6-0.2c-2-0.1-4-0.4-6.1,0
							c-1.8,0.4-3.4,0.8-5.2,1.5c-2.6,0.9-4.9,1.8-7.3,1.6c-0.3,0.1-0.6-0.4-0.6-1c0-0.6,0.3-1.2,0.6-1.2c5.2-1.6,10.4-3.5,15.7-2.9
							c0.6,0.1,1.1,0.1,1.7,0.2c0-0.1,0-0.2,0-0.2c0-0.3,0.1-0.6,0.2-0.9c-0.6-0.1-1.3-0.3-1.9-0.5c-1.8,0.6-3.7,1.2-5.6,0.7
							c-1.3-0.3-2.4-1.1-3.6-1.9c-1.6,0.3-3.1,0.7-4.7,0.9c-0.1,0-0.1,0-0.1-0.1c0-0.1,0-0.2,0.1-0.3c1.1-0.7,2.3-1.2,3.4-1.6
							c-0.1-0.4-0.2-0.9-0.2-1.4c0.1-0.6,0.2-1.1,0.5-1.4c-0.3,0-0.5-0.1-0.8-0.1c-0.2,0-0.3-0.3-0.2-0.5c0-0.3,0.2-0.5,0.3-0.5
							c1,0.1,2,0.2,3.1,0.3c1.3-0.2,2.5-0.4,3.7-0.6c-0.1-0.4-0.2-0.8-0.3-1.4c0,0,0,0,0,0c-0.2,0-0.4,0-0.6,0
							c-3.6,1.3-7.2,2-10.8,1.4c-0.1,0-0.1-0.1-0.1-0.2c0-0.1,0.1-0.2,0.1-0.2c1.1,0.2,2.2,0.2,3.2,0.2c0,0,0,0,0,0
							c0-0.1,0-0.2,0-0.3c0-0.1,0.1-0.1,0.2,0c0,0.1,0,0.2,0,0.3c2-0.1,4.1-0.5,6.1-1.1c-1.8,0-3.7,0-5.5-0.4
							c-0.2,0.1-0.4,0.3-0.6,0.4c-0.1,0-0.1-0.1-0.1-0.2c0-0.1,0-0.2,0.1-0.3c0.1,0,0.1-0.1,0.2-0.1c-0.3-0.1-0.6-0.6-0.5-1.3
							c0.1-0.7,0.4-1.2,0.8-1.1c1-0.1,1.9-0.1,2.9,0c0.1,0,0.2-0.1,0.3-0.1c0.1-0.1,0.2-0.2,0.3-0.3c-1.5-0.4-2.9-0.8-4.4-1.2
							c-0.1,0-0.2-0.2-0.2-0.4c0-0.2,0.1-0.4,0.3-0.4c2.7-0.8,5.4-1.3,8-1.5c0.9-1,1.9-2,2.8-2.9c-0.1,0-0.2,0-0.3-0.1
							c-2.9-0.2-5.5,2.6-8.3,3c-0.1,0-0.1-0.1-0.1-0.2c0-0.1,0.1-0.2,0.1-0.2c1.4-0.3,2.7-1.2,4.1-1.8c1.2-0.5,2.3-1,3.3-1.7
							c-2.1,0.1-4.3,1.3-6.4,1.7c-0.1,0-0.2,0-0.2-0.1c0,0.1,0,0.1-0.1,0.2c-0.3,0.3-0.6,0.5-0.9,0.7c-0.1,0.1-0.1,0-0.1-0.1
							C135.1,111.3,135.1,111.1,135.2,111.1z M171.3,127.6c0,0.1,0,0.1,0,0.1c-0.1-0.1-0.1-0.2-0.2-0.3c0,0,0,0-0.2-1
							C170.9,126.5,171.1,127,171.3,127.6z M174.7,124.2C174.7,124.2,174.7,124.2,174.7,124.2c0.1,0.3,0.1,0.6,0.1,0.6
							C174.8,124.6,174.8,124.4,174.7,124.2z M153.4,131.3c1.1,0.1,2.2,0.4,3.3,1.1c-0.3,0-0.5,0.1-0.8,0.1
							C155,132.1,154.2,131.7,153.4,131.3z M173.2,131.4c-0.3-0.5-0.4-1.2-0.6-1.8c-0.2,0.1-0.4,0.1-0.6,0.1
							c-0.5-0.1-1.1-0.3-1.6-0.5c0,0.3-0.1,0.3-0.1,0.3c-0.1,0-0.1,0-0.2,0.1c0.5,0.3,1.1,0.6,1.6,0.9
							C172.2,130.8,172.7,131,173.2,131.4z M177.2,130.4c0,0,0,0.1,0,0.1c0,0,0,0-0.1,0.5C177.1,131,177.2,130.7,177.2,130.4z
							 M177.4,129.5C177.4,129.5,177.4,129.4,177.4,129.5C177.4,129.2,177.4,129.3,177.4,129.5z M176.7,128.8c0,0.1,0.1,0.2,0.1,0.3
							C176.7,128.8,176.7,128.8,176.7,128.8z M177.2,113.8l-0.5,2.5l0.5-2.4L177.2,113.8z"/>
					</g>
				</g>
			</g>
		</g>
	</g>
	<g>
		<g>
			<g>
				<g>
					<path class="st0" d="M147.5,135.2c-0.1-0.1-0.1-0.2-0.2-0.3c0.1-0.2,0.2-0.2,0.4-0.1c-1.7-2-3.6-0.6-4.7,1.6
						c-0.5,0-0.8,0.6-0.8,1.5c0,0.9,0.4,1.6,0.9,1.6c0.1,0.1,0.2,0.2,0.3,0.3c0.8,1.3,1.7,2.1,2.6,2.7l-0.6-0.7
						c0.3,0.2,0.6,0.4,0.8,0.4l-0.1-0.5c1,1.1,2.2,0.6,2.7-1.1c0.5-1.7,0.1-3.9-0.9-4.9L147.5,135.2z"/>
					<path class="st0" d="M145.4,130.4c0.6,0.5,1.1,1.1,1.7,1.7l0.1,0.3l-0.2-1.3l0,0.1c-0.4,1.1-1.1,1.6-1.8,2l-0.2,0.2
						c-0.1,0.2-0.2,0.4-0.2,0.7c0,0.6,0.3,1.2,0.6,1.3l0.4,0.1c1,0.7,2.5,0.6,2.9-1.6c0.1-0.5-0.1-1.2-0.2-1.8c0-0.9-0.5-1.6-1-1.6
						c-0.5,0-0.8,0.7-0.8,1.5l-0.3-0.2c0.1-0.1,0.1-0.2,0.2-0.3c-0.1,0.8-0.5,1-0.8,1.4l-0.5,0.2l0.5,2l0.2-0.3
						c0-0.1-0.1-0.2-0.1-0.2c0.4-0.6,0.8-1.2,1.3-1.6l0.6-0.8c0.1-0.4,0.1-1-0.2-1.3l-0.3-0.4c0.1,0.1,0.1,0.2,0.2,0.2
						c-0.7-0.4-1.5-0.6-2.2-1.1c-0.1-0.1-0.2,0-0.3,0.2C145.2,130.1,145.3,130.3,145.4,130.4z"/>
					<g>
						<path class="st0" d="M147.7,130c0.1,0.1,0.2,0.3,0.4,0.3c0-0.1,0-0.1,0.1-0.2c-0.1-0.1-0.2-0.2-0.2-0.3
							C147.8,129.5,147.7,129.7,147.7,130z"/>
						<path class="st0" d="M148.2,130.1c0.1,0.1,0.1,0.1,0.1,0.1C148.3,130.1,148.2,130.1,148.2,130.1
							C148.2,130,148.2,130,148.2,130.1C148.2,130,148.2,130,148.2,130.1z"/>
						<path class="st0" d="M118.8,135.9c-2.1-0.3-4.3-0.4-6.4-0.5c-0.1,0-0.1,0.1-0.1,0.2c0,0.1,0.1,0.2,0.1,0.2
							c2.1,0.1,4.2,0.2,6.4,0.5c0.1,0,0.1-0.1,0.1-0.2C119,136.1,118.9,136,118.8,135.9z"/>
						<path class="st0" d="M102.4,124.6c0-0.1,0-0.2,0-0.3c0-0.1-0.1-0.1-0.2,0c0,0.1,0,0.2,0,0.3
							C102.3,124.7,102.3,124.7,102.4,124.6z"/>
						<path class="st0" d="M102.3,114.7c0.3-0.2,0.5-0.4,0.8-0.8c0-0.1,0.1,0,0.1,0c0-0.2,0-0.4,0.1-0.5c2-1.8,4.1-2.7,6.3-3.7
							c0-0.2,0-0.3,0.1-0.5c0.1-0.5,0.4-0.8,0.7-0.7l0.2,0.1c1,0.2,1.9,0.4,2.9,0.6c0.2-0.2,0.4-0.4,0.6-0.5
							c0.8-0.7,1.6-1.3,2.4-1.9c-0.1-0.1-0.1-0.3-0.1-0.5c0-0.4,0.2-0.8,0.4-0.8l0.3-0.1c-0.3-0.1-0.7-0.2-1-0.3c0,0-0.1,0-0.1-0.1
							c-0.4,0-0.7,0-1.1,0.1c-3.2,0.6-6.1,2.5-9.1,4.6c0,0.1-0.1,0.1-0.2,0c0-0.1,0-0.2,0-0.3c1.8-2.3,3.2-5.3,5.3-6.9
							c2.4-1.9,4.9-3.5,7.4-4.8c2.7-0.2,5.2-1.4,7.9-2.4c3.7-1.3,7.2-1.8,10.9-2.1c1.3-0.4,2.8,1.3,3.2,3.8c0.2,1.5,0.1,3-0.4,4.1
							c0.1,0,0.2,0,0.3,0l0.6,0.3c0.5,0.3,1,0.9,1.4,1.7l0.5,1.1c0.7,2,1.6,3.7,2.2,5.8l0,0.8l0.1,0.2c0.4,0.6,0.7,1.3,0.8,2.1
							l0.1,1c0,1.1,0,2.2-0.2,3.2c0,0.4,0.1,0.8,0,1.2c0.3,1,0.5,2,0.4,3.2c0.2,0.3,0.2,0.7,0,1c0,0.1-0.1,0.1-0.2,0.2l0,0
							c0.1,0.2,0.1,0.3,0.2,0.6c0.1,0.1,0.2,0.1,0.2,0.1c0.4,0.1,0.4,0.1,0.7,0.3c0.3,0.3,0.5,0.8,0.5,0.8c0.4,1.7,0.4,1.7,0.5,2.5
							c0,0.1,0,0.1,0,0.2c0.3,0.2,0.3,0.3,0.3,0.3c0.1,0.1,0.1,0.3,0.1,0.3c0,0.4,0,0.4,0.1,0.5c0,0.2,0,0.3,0,0.3
							c-0.1,0.5-0.1,0.5-0.1,0.6c0,0.1-0.1,0.2-0.1,0.2c-0.1,0.1-0.2,0.2-0.2,0.2c-0.4-1-0.4-1-0.4-1c0,0.4,0,0.4,0,0.4
							c-0.1-0.5-0.1-0.5-0.1-0.5c0.1,0.4,0.1,0.4,0.1,0.4c-0.2-0.3-0.2-0.3-0.2-0.3c0.2,0.4,0.2,0.4,0.2,0.4
							c-0.4-0.1-0.4-0.1-0.6-0.1c-0.2,0-0.3,0.1-0.3,0.1c0,0.1,0,0.2,0,0.2c-0.4-0.1-0.4-0.1-0.9-0.3c0-0.1-0.1-0.2-0.1-0.3
							c0,0.1-0.1,0.2-0.2,0.2l-0.2-0.1l0,0.1c0,0,0,0,0,0c-0.1,0.1-0.1,0.1-0.2,0.2c0,0.1,0,0.1,0,0.1l0,0c-0.1,0.2-0.3,0.4-0.7,1
							c-0.1,0-0.3-0.1-0.4-0.2c0,0.1,0.1,0.1,0.1,0.2c0.1,0.1,0.1,0.5,0.1,0.6c1,0.8,2,1,3,1.4c0.2-0.1,0.4,0.2,0.4,0.5
							c0.1,0.3,0,0.6-0.2,0.7c-1.8,2.2-4.2,2.1-6.3,0.6c-0.5-0.2-1.1-0.3-1.6-0.4c0,0.1,0.1,0.1,0.1,0.2c-0.1-0.1-0.3-0.2-0.4-0.3
							c0,0,0,0,0,0l0.4,0.7c0.1,0.1,0.2,0.1,0.2,0.2c1.3,0.2,2.5,1.2,3.7,1.8c0.7,0.3,1.3,1,1.9,1.4c0.2,0,0.3,0.3,0.3,0.6
							c0,0.3-0.1,0.5-0.3,0.5c-2,0.6-4.4,0.4-6.2-1.9c-0.4,0-0.7-0.2-1.1-0.6l0,0l0.3,0.6c-0.3-0.1-0.5-0.6-0.7-0.8l0.2,0.8
							c-1.4-0.4-2.9-0.1-4.2-1.1c-0.1,0-0.1,0-0.2-0.1c-0.5,0.6-1,1.2-1.6,1.3c0.2,0.1,0.4,0.1,0.7,0.2c-0.4,0.4-0.9,0.6-1.4,0.6
							c-1.4,0-3-1.1-3.9-3.2c-2.6,0.4-5.2,0.8-7.8,1.5c-0.1,0-0.3-0.1-0.3-0.4c0-0.2,0-0.5,0.2-0.5c1.8-1,3.7-1.5,5.6-2.1
							c-1.6-0.3-3.3-0.6-4.9-0.5l-0.6,0.1c-0.2,0.1-0.4,0-0.6-0.1c-2.1,0.1-4.1,0.1-6.2,0.9c-1.8,0.7-3.3,1.3-5.1,2.2
							c-2.5,1.2-4.7,2.5-7.3,2.7c-0.3,0.1-0.7-0.3-0.7-0.9c-0.1-0.6,0.1-1.2,0.5-1.3c5.1-2.3,10.1-4.9,15.6-5c0.6,0,1.2,0,1.8,0
							c0-0.1,0-0.2,0-0.2c0-0.3,0-0.6,0.1-0.9c-0.7,0-1.3-0.1-2-0.2c-1.8,0.8-3.6,1.7-5.6,1.5c-1.4-0.2-2.6-0.8-3.9-1.4
							c-1.6,0.5-3.1,1.1-4.7,1.5c-0.1,0-0.1,0-0.2-0.1c0-0.1,0-0.2,0.1-0.3c1.1-0.8,2.1-1.5,3.3-2.1c-0.2-0.4-0.3-0.9-0.4-1.4
							c0-0.6,0.1-1.1,0.3-1.4l-0.8,0c-0.2,0-0.3-0.2-0.3-0.5c0-0.3,0.1-0.5,0.3-0.5l3.1-0.1c1.2-0.4,2.5-0.8,3.7-1.1
							c-0.2-0.4-0.4-0.8-0.4-1.3l0,0l-0.6,0.1c-3.4,1.8-7,3-10.7,2.9c-0.1,0-0.1-0.1-0.1-0.2c0-0.1,0-0.2,0.1-0.2
							c1.1,0,2.2-0.1,3.3-0.3l0,0c0-0.1-0.1-0.2,0-0.3c0-0.1,0.1-0.1,0.2,0c0.1,0.1,0.1,0.2,0,0.3c2-0.4,4-1,6-2
							c-1.9,0.3-3.7,0.5-5.6,0.4l-0.6,0.5c-0.1,0-0.1,0-0.2-0.2c0-0.1,0-0.2,0.1-0.3l0.2-0.1c-0.4,0-0.7-0.5-0.7-1.2
							c0-0.7,0.3-1.2,0.6-1.2c1-0.2,1.9-0.3,2.9-0.4l0.3-0.1l0.3-0.3c-1.5-0.2-3.1-0.4-4.6-0.6c-0.1,0-0.2-0.2-0.3-0.4
							c0-0.2,0.1-0.4,0.2-0.5c2.6-1.1,5.2-2,7.9-2.6c0.8-1.1,1.6-2.2,2.5-3.3c-0.1,0-0.2,0-0.3,0c-2.9,0.2-5.2,3.3-8,4.1
							c-0.1,0-0.1-0.1-0.2-0.2c0-0.1,0-0.2,0.1-0.2c1.4-0.5,2.6-1.6,3.9-2.4c1.1-0.7,2.1-1.3,3.1-2.1c-2.1,0.4-4.1,1.9-6.2,2.6
							c-0.1,0.1-0.2,0-0.3-0.1c0,0.1,0,0.1,0,0.2c-0.2,0.3-0.5,0.6-0.8,0.8c-0.1,0.1-0.1,0-0.2-0.1
							C102.2,114.9,102.2,114.8,102.3,114.7z M140.9,126.1c0,0.1,0,0.1,0.1,0.1c-0.1-0.1-0.1-0.1-0.2-0.2c0,0,0,0-0.3-0.9
							C140.4,125,140.6,125.5,140.9,126.1z M143.9,122.3L143.9,122.3c0.1,0.3,0.2,0.5,0.2,0.5C144,122.6,144,122.4,143.9,122.3z
							 M123.3,132.2c1.1-0.1,2.3,0.1,3.5,0.6L126,133C125.1,132.8,124.2,132.5,123.3,132.2z M143.4,129.5c-0.3-0.5-0.6-1.1-0.9-1.7
							c-0.2,0.1-0.4,0.2-0.6,0.2c-0.6,0-1.1-0.1-1.7-0.3c0.1,0.3,0,0.3-0.1,0.4l-0.2,0.1c0.6,0.2,1.2,0.4,1.8,0.7
							C142.3,129.1,142.9,129.2,143.4,129.5z M147.3,128c0,0,0,0.1,0.1,0.1c0,0,0,0-0.1,0.5C147.3,128.6,147.3,128.3,147.3,128z
							 M147.4,127.1L147.4,127.1C147.4,126.8,147.4,126.9,147.4,127.1z M146.6,126.5c0.1,0.1,0.1,0.2,0.1,0.3
							C146.6,126.5,146.6,126.5,146.6,126.5z M144.8,111.5l-0.1,2.6L144.8,111.5L144.8,111.5z"/>
					</g>
				</g>
			</g>
		</g>
	</g>
	<path class="st1" d="M375.1,272.3c-9.4,0.1-18.7,0-28.1,0c-7.9,0-15.8-0.1-23.4,0.1c-11.7,0-11.7,0-11.5,11.9
		c0.1,6.5,0.8,7.3,7.2,7.3h35.8c7.6,0,8.2,0.7,8.2,8.4c0.1,5.4-0.2,10.7,0.1,16c0.3,5.1-1.7,8.5-6,11.2
		c-37,23.7-75.4,24.2-114.3,5.9c-18.5-8.7-31.4-23.5-38-43.2c-8.2-24.4-7.1-49-0.1-73.4c7.4-25.7,24.9-41.4,50.5-47.7
		c9.6-2.4,19.7-3.4,29.6-4.3c27.2-2.5,50.6,6.1,69.8,25.5c8.8,8.9,8.5,9,19.1,1.4c3.1-2.2,3.3-4.2,1-7.1
		c-12.8-15.8-28.4-27.4-47.3-33.7c-9.2-1.5-18.4-3.1-27.5-4.7c-2.1-0.4-4.3-0.8-6.4-1.2c-16.7-0.5-33.3,2.2-49.6,7.3
		c-29,9.1-48.2,28.6-57.3,57.6c-7.5,23.9-8.9,48.2-3.9,72.7c5.4,26.5,19.3,47.6,42.1,62.4c20.3,13.2,42.8,19,66.9,19.7
		c32.1,0.8,60.8-8.2,85.3-29.2c2.1-1.9,3.9-5.4,4-8.2c0.3-16.1,0.1-32.3,0.2-48.4C381.5,274.2,379.6,272.2,375.1,272.3z"/>
	<g>
		<g>
			<g>
				<g>
					<path class="st0" d="M368.2,162c0.1,0,0.2,0,0.3,0c0.2,0,0.2,0,0.1,0c2.1-0.2,0.8-0.4-1.3-0.6c0.1-0.1-0.5-0.1-1.4-0.1
						c-0.9,0-1.6,0-1.7,0.1c-0.1,0-0.2,0-0.3,0c-1.3,0.1-2.2,0.2-2.9,0.3c0.3,0,0.5,0,0.7-0.1c-0.2,0-0.4,0.1-0.4,0.1
						c0.2,0,0.3,0,0.5,0c-1.1,0.1-0.7,0.2,0.9,0.3c1.6,0.1,3.9,0,5-0.1L368.2,162z"/>
					<path class="st0" d="M373.2,161.9c-0.6,0.1-1.2,0.1-1.8,0.2l-0.3,0l1.3,0l-0.1,0c-1.1-0.1-1.5-0.1-1.9-0.2l-0.2,0
						c-0.2,0-0.4,0-0.7,0c-0.6,0-1.2,0-1.3,0.1l-0.1,0c-0.8,0.1-0.8,0.3,1.4,0.3c0.5,0,1.2,0,1.8,0c0.9,0,1.6,0,1.7-0.1
						c0.1-0.1-0.6-0.1-1.5-0.1c0.1,0,0.1,0,0.2,0c0.1,0,0.2,0,0.3,0c-0.8,0-0.9-0.1-1.3-0.1l-0.2-0.1l-2,0l0.3,0c0.1,0,0.2,0,0.2,0
						c0.6,0.1,1.1,0.1,1.5,0.2l0.7,0.1c0.4,0,1,0,1.3,0l0.4,0c-0.1,0-0.2,0-0.3,0c0.5-0.1,0.7-0.2,1.2-0.2c0.1,0,0,0-0.2,0
						C373.5,161.8,373.3,161.8,373.2,161.9z"/>
					<g>
						<path class="st0" d="M373.5,162.1c-0.2,0-0.3,0-0.3,0c0.1,0,0.1,0,0.2,0c0.1,0,0.2,0,0.3,0
							C373.9,162.1,373.8,162.1,373.5,162.1z"/>
						<path class="st0" d="M373.3,162.2c-0.1,0-0.1,0-0.1,0C373.3,162.2,373.3,162.2,373.3,162.2
							C373.4,162.2,373.4,162.2,373.3,162.2C373.4,162.2,373.4,162.2,373.3,162.2z"/>
						<path class="st0" d="M369.6,158.7c0.4-0.2,0.7-0.5,0.9-0.7c0,0-0.1,0-0.2,0c-0.1,0-0.2,0-0.2,0c-0.2,0.2-0.5,0.5-1,0.7
							c0,0,0.1,0,0.2,0C369.5,158.8,369.6,158.7,369.6,158.7z"/>
						<path class="st0" d="M382.1,156.9c0.1,0,0.2,0,0.3,0c0.1,0,0.1,0,0,0C382.4,156.9,382.2,156.9,382.1,156.9
							C382,156.9,382,156.9,382.1,156.9z"/>
						<path class="st0" d="M392,157c0.2,0,0.4,0.1,0.7,0.1c0.1,0,0,0,0,0c0.2,0,0.4,0,0.5,0c1.7,0.2,2.4,0.5,3.3,0.8
							c0.2,0,0.3,0,0.5,0c0.5,0,0.8,0.1,0.7,0.1l-0.1,0c-0.3,0.1-0.5,0.2-0.8,0.3c0.2,0,0.4,0,0.4,0.1c0.6,0.1,1.2,0.2,1.7,0.3
							c0.1,0,0.3,0,0.5,0c0.4,0,0.8,0,0.7,0.1c0,0,0,0,0,0c0.1,0,0.2-0.1,0.3-0.1c0,0,0,0,0.1,0c0,0,0-0.1,0-0.1
							c-0.4-0.4-2-0.7-4-1.1c-0.1,0-0.1,0,0,0c0.1,0,0.2,0,0.3,0c2.2,0.2,5.1,0.4,6.5,0.7c1.7,0.3,3.2,0.6,4.3,0.9
							c0,0.3,1.1,0.6,1.8,1c1.1,0.4,1.2,0.9,1.3,1.3c0.3,0.2-1.5,0.3-4,0.3c-1.6,0-3,0-4-0.1c0,0,0,0,0,0l-0.3,0.1
							c-0.3,0.1-0.9,0.1-1.8,0.1l-1.1,0c-2.1,0.1-3.8,0.2-5.9,0.2l-0.8,0l-0.2,0c-0.6,0-1.4,0.1-2.2,0.1l-1,0c-1.1,0-2.2,0-3.2-0.1
							c-0.4,0-0.8,0-1.2,0c-1,0-2.1,0-3.2,0c-0.3,0-0.7,0-1,0c-0.1,0-0.1,0-0.2,0c0,0,0,0,0,0c-0.3,0-0.3,0-0.6,0
							c-0.1,0-0.2,0-0.2,0c-0.2,0-0.2,0-0.3,0.1c-0.3,0-0.8,0-0.8,0c-1.8,0-1.8,0-2.5,0c-0.1,0-0.1,0-0.2,0c-0.3,0-0.3,0-0.3,0
							c-0.1,0-0.3,0-0.3,0c-0.4,0-0.4,0-0.6,0c-0.2,0-0.3,0-0.3,0c-0.5,0-0.5,0-0.6,0c-0.1,0-0.2,0-0.2,0c-0.1,0-0.2,0-0.2,0
							c1,0,1.1,0,1.1,0c-0.4,0-0.4,0-0.4,0c0.5,0,0.5,0,0.5,0c-0.4,0-0.4,0-0.4,0c0.3,0,0.3,0,0.3,0c-0.4,0-0.4,0-0.4,0
							c0.2,0,0.2,0,0.1-0.1c0.1,0-0.1,0-0.1,0c-0.1,0-0.2,0-0.2,0c0.2,0,0.2,0,0.4-0.1c0.1,0,0.2,0,0.3,0c-0.1,0-0.2,0-0.2,0
							c0,0,0.1,0,0.1,0c0,0,0,0-0.1,0c0,0,0,0,0,0c-0.1,0-0.1,0-0.2,0c0,0-0.1,0-0.1,0c0,0,0,0,0,0c-0.1,0-0.3,0-0.9-0.1
							c0.1,0,0.1,0,0.2,0c-0.1,0-0.1,0-0.2,0c-0.1,0-0.5,0-0.6,0c-0.8,0.1-1.2,0.2-1.6,0.3c0,0-0.2,0-0.5,0c-0.3,0-0.6,0-0.7,0
							c-2.1-0.2-1.8-0.5-0.1-0.7c0.2-0.1,0.4-0.1,0.5-0.2c-0.1,0-0.1,0-0.2,0c0.1,0,0.2,0,0.3,0c0,0,0,0,0,0c-0.2,0-0.5,0-0.7,0
							c-0.1,0-0.1,0-0.2,0c-0.3,0.1-1.4,0.3-2.1,0.4c-0.4,0.1-1.1,0.1-1.6,0.2c0,0-0.3,0-0.6,0c-0.3,0-0.5,0-0.4,0
							c-0.5-0.2,0-0.5,2.4-0.7c0,0,0.2-0.1,0.7-0.1c0,0,0,0,0,0c-0.2,0-0.4,0-0.6,0c0.1,0,0.6,0,0.8-0.1c-0.3,0-0.5,0-0.8,0
							c0.5-0.2,0.3-0.3,1.4-0.5c0,0,0,0,0.1,0c-0.6-0.1-1.1-0.1-1.2-0.2c-0.1,0-0.2,0.1-0.3,0.1c-0.3-0.1-0.6-0.1-0.5-0.2
							c0.1-0.2,1.3-0.3,3.4-0.4c-0.3-0.3-0.5-0.6-1-0.9c0,0,0.1,0,0.4,0c0.2,0,0.5,0,0.5,0c0.8,0.2,1.3,0.4,1.7,0.7
							c0.4-0.2,0.8-0.4,0.9-0.6c0,0-0.1,0-0.1-0.1c0,0,0,0,0.1-0.1c0-0.2,0.1-0.5-0.5-0.7c-0.5-0.2-1.1-0.4-1.8-0.6
							c-1.1-0.3-2.1-0.6-2.1-0.9c-0.1,0,0.4-0.1,1-0.1c0.6,0,1.2,0,1.2,0.1c1.9,0.6,4.2,1.2,3.9,1.8c0,0.1-0.1,0.1-0.1,0.2
							c0.1,0,0.2,0,0.2,0c0.3,0,0.6,0,0.9,0c0.1-0.1,0.2-0.2,0.4-0.2c-0.7-0.2-1.4-0.4-1-0.7c0.3-0.2,1-0.3,1.6-0.4
							c-0.4-0.2-0.9-0.4-1.2-0.6c0,0,0,0,0.1,0c0.1,0,0.2,0,0.3,0c0.8,0.1,1.3,0.3,1.8,0.4c0.4,0,0.9,0,1.4,0c0.6,0,1.1,0,1.4,0
							c0,0,0-0.1,0-0.1c0,0,0.2,0,0.5,0c0.3,0,0.5,0,0.5,0c0,0.1-0.1,0.2-0.1,0.4c0.3,0.1,0.6,0.3,0.8,0.4c0.4,0,0.8,0,1.3,0
							c0,0,0,0,0,0c0,0,0,0,0-0.1c-1.6-0.4-2.4-0.8-2.1-1.3c0,0,0.1,0,0.2,0c0.1,0,0.2,0,0.2,0c-0.1,0.1-0.1,0.3,0,0.4c0,0,0,0,0,0
							c0.1,0,0.2,0,0.3,0c0.1,0,0.1,0,0,0c-0.1,0-0.2,0-0.3,0c0.2,0.2,0.8,0.5,1.5,0.7c-0.1-0.2-0.2-0.4,0-0.7c-0.2,0-0.3,0-0.5-0.1
							c0,0,0,0,0.2,0c0.1,0,0.2,0,0.3,0c0,0,0.1,0,0.1,0c0.1,0,0.6-0.1,1.3-0.1c0.7,0,1.2,0,1.2,0.1c0.1,0.1,0.2,0.2,0.2,0.3
							c0,0,0.1,0,0.1,0c0.1,0,0.2,0,0.3,0c0.3-0.2,0.6-0.4,0.9-0.5c0,0,0.2,0,0.4,0c0.2,0,0.4,0,0.4,0c1,0.3,1.6,0.6,2,0.9
							c1,0.1,2.1,0.2,3.1,0.3c0,0,0,0,0,0c0-0.3-2.9-0.6-3.5-1c0,0,0.1,0,0.2,0c0.1,0,0.2,0,0.2,0c0.4,0.2,1.4,0.3,2.1,0.5
							c0.6,0.1,1.1,0.3,1.9,0.4c-0.3-0.3-1.5-0.5-2.1-0.7c-0.1,0,0,0,0.1,0c-0.1,0-0.1,0-0.2,0c-0.3,0-0.6-0.1-0.8-0.1
							c-0.1,0,0,0,0.1,0C391.8,157,391.9,157,392,157z M377.9,161.4c-0.1,0-0.1,0-0.1,0c0.1,0,0.2,0,0.2,0c0,0,0,0,1,0
							C379,161.3,378.4,161.4,377.9,161.4z M381.5,161.8C381.5,161.8,381.5,161.8,381.5,161.8c-0.3,0-0.5,0-0.5,0
							C381.1,161.8,381.3,161.8,381.5,161.8z M373,159.3c0,0.1-0.2,0.3-0.9,0.4c-0.1,0-0.1-0.1-0.2-0.1
							C372.3,159.5,372.6,159.4,373,159.3z M374.2,161.6c0.5,0,1.1-0.1,1.8-0.1c-0.1,0-0.2,0-0.1-0.1c0.1-0.1,0.2-0.1,0.4-0.2
							c-0.3,0-0.3,0-0.3,0c0,0-0.1,0-0.1,0c-0.2,0.1-0.5,0.1-0.8,0.2C374.8,161.5,374.6,161.6,374.2,161.6z M375.5,162.1
							c0,0-0.1,0-0.1,0c0,0,0,0-0.5,0C374.9,162.1,375.2,162.1,375.5,162.1z M376.4,162.1C376.4,162.1,376.4,162.1,376.4,162.1
							C376.7,162.1,376.6,162.1,376.4,162.1z M377,162c-0.1,0-0.2,0-0.3,0C377,162,377,162,377,162z M392.1,162l-2.6,0l2.5,0
							L392.1,162z"/>
					</g>
				</g>
			</g>
		</g>
	</g>
	<path class="st1" d="M583.8,364.8c-3.4-0.3-6.8-0.3-10.1-0.8c-14.6-2.3-21.6-10.8-24.2-25.2c-2.8-16-6.3-32-11.4-47.4
		c-5.8-17.5-21.2-27-39.6-27c-8.1,0-16.2-0.7-24.2,0.2c-14.6,1.6-23.8-6-31.6-16.6c-1.6-2.2-2.9-4.5-4.7-7.4c1.4,0,2.1-0.2,2.6,0
		c14.9,5.4,30.3,5.2,45.9,4c7.9-0.6,15.8,0.2,23.6-0.5c6-0.6,12.1-1.9,17.9-4c9.3-3.3,15.7-9.9,19.1-19.3c3.3-9.4,3.4-19,2.3-28.7
		c-0.8-6.7-5.6-11.1-11.1-13.8c-7-3.5-14.4-6.6-22-8.4c-25.3-5.9-51.2-6-77-4.7c-3.5,0.2-7.1,0.4-10.6,0.5c-3.7,0.2-5.6,2.1-5.6,5.8
		c0,2.1-0.1,4.2-0.1,6.3c0,58.1,0,116.2,0,174.2c0,1.9,0,3.9,0,5.8c0,1,0.1,2.1-0.3,2.9c-3.4,6.1-9.2,2.5-13.9,3.1
		c-3,0.4-4.8-1.4-4.9-4.6c0-1.5-0.1-2.9-0.1-4.4c0-65.5,0-131,0-196.5c0-1,0.1-1.9,0-2.9c-0.3-4.6,1.7-6.9,6.3-7.2
		c10.1-0.7,20.2-2,30.4-2.4c30.5-1.3,61-1.1,90.6,8.1c10.9,3.4,21.2,8.3,28.5,17.4c3.6,4.5,7.1,10,8.2,15.6
		c3.1,15.8,2,31.5-5.3,46.3c-4.6,9.3-11.5,16.3-20.4,21.4c-4.8,2.7-5,3.5-0.9,7.3c9.1,8.6,14.9,19.1,17.9,31
		c3.6,14.2,6.8,28.5,9.4,43c1.5,8.3,5.1,15.2,10.6,21.3c1.7,1.9,3.4,3.7,5.1,5.6C584.2,363.5,584,364.2,583.8,364.8z"/>
</g>
</svg>
