<?xml version="1.0" encoding="utf-8"?>
<!-- Generator: Adobe Illustrator 24.0.1, SVG Export Plug-In . SVG Version: 6.00 Build 0)  -->
<svg version="1.1" id="Layer_1" xmlns="http://www.w3.org/2000/svg" xmlns:xlink="http://www.w3.org/1999/xlink" x="0px" y="0px"
	 viewBox="0 0 504 504" style="enable-background:new 0 0 504 504;" xml:space="preserve">
<style type="text/css">
	.st0{fill:#19181F;}
	.st1{fill:#F7ECDA;}
</style>
<g id="Layer_2_1_">
	<path class="st0" d="M394.3,68.4c-2.4,1.3-4.8,2.6-7.1,3.8c0,0.7-0.1,1.5-0.1,2.2c7,1.6,14,4.7,20.9,4.4
		c10.1-0.5,21.6,5.5,26.3,16.1c2,4.5,4.3,8.8,6.6,13.4c-2.6-0.3-5.5-0.7-8.7-1.1c0.2,1.1,0.1,2.1,0.4,2.2c5,2.9,8.9,7.1,12.6,12.1
		c2.4,3.3,7.8,3.8,11.9,5.5c5.8,2.4,11.5,4.8,17.5,8c-4,2.8-3.1,11.9-10.7,9.5c-0.2-0.1-1.1,2.1-1.5,3.4c-1.1,3.3-1.2,7.9-3.2,9.9
		c-5.9,5.7-10.5,14.2-20,13.1c-1.9-0.2-3.9,2.1-5.9,3.2c1.2,2.2,1.9,4.9,3.5,6.6c2.7,2.8,5.8,9.7,3.2,13.5c-12-1.7,6.5,4.2-5.3,2.1
		c-8.8-1.5,9.3,12.9,0.6,10.8c-1.1-0.2-5.5,10.2-6.5,10.6c-1.4,0.6-19.4-20.5-20.7-19.5c0.9,1.2,23.8-13.8,24.9-13.3
		c7.6,3.3-15.8,20.9-8,23.5c8.5,2.9-11.8-9.4-3.2-6.9c1.2,0.4,2.6,1.2,3.7,0.9c9.7-3.1,12.6,6.1,17.1,12.4c1.8,2.6,3.2,5.5,4.8,8.2
		c0.3,0.5,1,1.1,0.9,1.5c-1.9,10,5.4,15.2,9.7,20.7c4.5,5.9,12.2,8.4,18.6,12.4c1.3,0.8,3,1,3.9,2.1c1.8,2.2,3.2,4.8,4.7,7.3
		c-1.7,1.3-3.9,2.1-5.2,3.8c-3.6,5.1-11,3.7-13.4,10.8c-0.3,0.8-1.8,1.2-2.9,1.5c-1.4,0.4-2.9,0.7-4.3,0.5
		c-13.4-1.7-21.5,7.6-29.4,18.6c1.4,1.1,3,1.8,3.7,3.2c2,3.5-0.3,8.1-4.1,8.4c-2.7,0.2-5.5,0-8.2,0.3c-3.9,0.3-6.1,3-4.6,7.1
		c2.7,7.4,1.7,17.2,9.4,20.6c-3,2.8-5.7,5.3-8.9,8.2c3.6,2.2,7,4.3,11.7,7.1c-4.6,0.6-7.5,1-10.5,1.5c-0.1,0.6-0.1,1.2-0.2,1.8
		c11.3,3.6,22.6,7.1,32.4,14.7c-0.1,0.6-0.2,1.1-0.2,1.7c-3.1,0.6-6.2,1.6-9.4,1.8c-13.1,0.8-26.1,0.4-39.1-1.3
		c-6.9-0.9-14,0-21,0.1c-7.9,0.1-15.9-0.2-23.8,0.3c-3,0.2-5.8,2.3-8.8,3.3c-2.3,0.8-4.7,2.2-7,2.1c-15.6-0.8-31.2-2.5-46.8-2.7
		c-18.7-0.2-37.4,0.7-56,1.4c-14.5,0.5-29.1,1.7-43.1-4c-6.1-2.5-12-5.7-17.9-9c-1.4-0.8-2.6-3.1-2.9-4.9
		c-1.1-6.7-5.3-9.1-10.3-10.4c-3.3-0.8-5.1-3.1-7.6-5.6c-4-4.2-6.2-11.6-13.4-11.8c-2-0.1-4.1-3.9-5.8-6.3c-1.2-1.9-1.8-4.4-3.1-7.7
		c0.1-0.2,1.1-1.8,2.4-4.1c-1.8-0.3-2.9-0.5-4.1-0.6c-26.4-2.3-52.8-4.6-79.2-7c-5.6-0.5-9.8-2.8-12.3-9.4
		c-1.9-4.9-5.7-8.8-8.5-12.9c2.4-1.7,4.1-2.9,5.7-4.1c-1.3-2-2.6-3.9-4-6.1c1.4-2.2,3-4.6,4.6-6.9c-2.1-1.7-3.8-3.1-5.5-4.5
		c1.5-1.9,2.6-4.6,4.4-5.7c7.8-4.7,8.1-8.6,0.7-14.8c-0.7-0.6-1.5-1-2.5-1.7c0.7-1.8,1.2-3.4,2.1-5.8c-2.7,0-5.3-0.9-6.7,0.2
		c-4.4,3.4-7.9,2.2-11.9-0.7c-3.1-2.3-6.9-3.3-10.3-5.1c-1-0.5-2.4-2.2-2.3-2.9c1.1-5,0.5-10.4,4.2-14.9c4.9-6,4.6-6.3-1.6-10.4
		c-0.4-0.3-0.7-0.9-0.8-1c3-3.5,5.9-6.8,9.3-10.7c-4.1,0-7.7,0-12.1,0c3-10.6,11.8-10.6,17.9-14.8c-4.5-8.5-3.3-11.5,5.2-12.8
		c2.5-0.4,5.1-0.2,7.6-0.3c1.8-0.1,3.7,0.1,5.4-0.3c7.4-1.5,8.3-4.6,4.2-11c3.4-5.3,6.4-10.6,10-15.2c1.5-1.9,4.2-2.7,6.5-3.5
		c2.6-1,5.4-1.4,9.2-2.3c-2.2-2.3-3.3-3.5-4.6-4.9c5.9-5.4,4.4-12.1,3-18.6c-1.8-8.2-0.9-9.6,6.4-11.2c1.9-0.4,3.6-3,5.1-4.8
		c1.7-2,2.6-5.6,4.6-6.4c5.6-2.4,11.4-4.8,17.3-5.5c9.1-1,16.3-5.5,22.1-13.1c2.5-3.2,5-4.6,8.8-4.7c5.2-0.2,11.1,0.5,14.4-6.4
		c0.5-1.1,3.4-1.8,4.8-1.3c13.6,4.6,27.6,4.1,41.6,4.2c11.9,0,23.8,2,35.7,2.6c11,0.5,22.1,0.3,33.1,0.4c2.2,0,4.3,0.6,6.5,0.8
		c10.6,1.1,21.1,2.2,31.7,3.4c6.7,0.7,13.3,1.7,20,2.5c3,0.4,5.9,1.2,7.9-3.3c0.7-1.6,4.2-2.2,6.4-2.2c8.5,0.1,17.1,0.9,25.6,1
		c4.5,0,8.9-1.4,13.4-1.2c6.2,0.3,12.4,1.5,18.6,2.3C394.3,67,394.3,67.7,394.3,68.4z"/>
</g>
<g>
	<path class="st1" d="M282.1,269.2c1,0.4,2,0.9,3,1.3c6.4,2.5,13.1,3,20,2.5c5.6-0.5,11.2-1,16.6-2.6c2.4-0.7,4.7-1.6,7-2.4
		c1.6-0.5,3.1-1.2,4.7-1.5c3-0.5,4.7,1.3,3.9,4.2c-0.5,1.6-1.2,3-2.1,4.5c-3,4.7-6.4,9-10.8,12.2c-2.5,1.8-5.3,3.4-8.3,4.4
		c-5.4,1.9-11.1,3-16.8,3.5c-5.5,0.5-10.6-1.2-15.6-3.6c-3.5-1.7-7-3.6-10.4-5.5c-4.3-2.4-8.6-4.8-12.9-7.3
		c-8.3-4.8-17.2-5.4-26.3-3.1c-4.1,1-8.1,2.5-11.9,4.4c-2.2,1.1-4.5,1.4-6.6-0.1c-0.3-0.2-0.6-0.7-0.6-1.2c-0.1-1.6,0.4-3,1.6-4.1
		c2.1-2,4.3-4,6.4-6c0.6-0.5,1.2-1.1,2-1.8c-0.7-0.3-1.2-0.5-1.6-0.7c-4.5-1.7-8.9-3.8-12.5-6.9c-2.6-2.1-4.8-4.6-6.9-7.2
		c-4.4-5.3-6.8-11.6-8.9-18.1c-1.6-4.8-2.4-9.7-2.5-14.8s0.7-10,2.3-14.8c1.8-5.5,3.7-11.1,5.9-16.5c0.9-2.2,2.6-4.2,3.8-6.4
		c1.9-3.4,4.5-6.3,7.1-9.1c2.9-3.1,6.4-5.5,10.4-7.2c6.3-2.6,12.6-5.3,19.3-7.2c8.9-2.4,17.9-2.8,27-1.4c7.5,1.2,15,2.7,22.1,5.5
		c6,2.4,11.4,5.5,16,10.1c2.2,2.2,4.5,4.3,6.8,6.4c4.5,4.3,8,9.2,9.5,15.4c1.9,7.9,2.9,15.9,2.4,24c-0.3,5.8-1.8,11.3-4.3,16.6
		c-2.4,5.2-5.3,10.1-8.9,14.7c-2.6,3.4-6.2,5.9-9.9,8.1c-3,1.8-6,3.9-9.1,5.5c-3.1,1.8-6.4,3.2-9.6,4.8c-0.5,0.2-0.9,0.5-1.4,0.7
		C282.1,268.9,282.1,269,282.1,269.2z M282.6,220.7c-0.1-2-0.3-5.3-0.5-8.7c-0.7-9.1-2-18.1-5.1-26.7c-1-2.8-1.9-5.5-4.2-7.6
		c-3.8-3.6-8.5-5.2-13.5-5.9c-2.2-0.3-4.5-0.2-6.6,0.1c-2,0.3-2.8,1.6-2.8,3.5c0,2-0.8,3.5-2.2,4.8c-1.3,1.3-2.6,2.6-3.7,4.1
		c-2.8,4.1-4.7,8.7-6.4,13.3c-1,3-1.7,6-2.4,9.1c-1.4,5.6-2,11.4-1.7,17.2c0.2,4.4,0.9,8.9,1.6,13.2c0.9,5.5,3,10.6,6.7,14.8
		c3.2,3.7,7,6.6,11.8,7.6c7,1.5,13.1-0.9,18.4-5.5c3.7-3.1,5.9-7.3,7.5-11.8C282,235.7,282.4,228.8,282.6,220.7z M207.1,214.2
		c0.1,0.3,0.1,0.5,0.2,0.7c0.1,0.3,0.1,0.7,0.1,1.1c0.5,6.7,0.7,13.4,2.1,20c0.3,1.6,0.9,3.2,1.8,4.5c1.1,1.8,2.3,3.3,2.7,5.3
		c0.1,0.3,0.2,0.6,0.3,0.9c0.1,0,0.2,0,0.3,0c0-1.5,0-3,0-4.5c-0.5,0-0.9,0-1.2,0c-0.1-0.4,0-0.9-0.2-1.1c-1.6-2.1-2-4.7-2.4-7.2
		c-0.2-1,0.1-2.2,0.1-3.2c0-0.7,0-1.6-0.2-2.3c-0.2-0.8-0.7-1.6-1.1-2.4c-0.3-0.9-0.7-1.8-0.8-2.8c-0.1-0.7,0-1.5,0-2.2
		c0-1-0.3-2.1-0.1-3c0.5-2.6-0.3-5-1.1-7.4c-0.1-0.2-0.3-0.4-0.4-0.7c-0.1,0-0.3,0-0.4,0.1c-0.1,1.5-0.3,3-0.4,4.7
		C206.7,214.5,206.8,214.4,207.1,214.2z M286.4,174.2c-0.7,0.9-1.1,2-1.8,2.2c-1.4,0.5-1.2,1.2-0.9,2.2c1.2,3.7,2.4,7.4,3.5,11
		c1,3.2,2.3,6.4,2.4,9.8c0,0.4,0.2,0.8,0.3,1.2c0.1,0,0.2-0.1,0.3-0.1c-0.5-3.9-0.9-7.8-1.4-11.6c-0.1-0.8,0-1.8-1.2-2
		c-0.2,0-0.4-0.4-0.5-0.7c-0.7-2.3-1.4-4.6-2-6.9c-0.1-0.5,0.1-1,0.1-1.6c0.2,0,0.4-0.1,0.6-0.1c0.5,1.6,1.1,3.1,1.6,4.7
		c0.1,0,0.1-0.1,0.3-0.1C287.4,179.7,287,177,286.4,174.2z M286.3,251.5c0.5-1.2,0.9-2.3,1.4-3.4c0.9-2.2,1.9-4.5,2.8-6.8
		c0.4-1.1-0.4-2.5-1.6-2.6c-1.2-0.2-1.3,0.9-1.6,1.7c-0.1,0.2-0.1,0.4-0.1,0.6c0.1,2.7-0.9,5.1-2.1,7.4
		C284.2,250.3,284.2,250.3,286.3,251.5z M209,193.5c0.1,0.1,0.2,0.1,0.3,0.2c1.8-2.6,3.5-5.2,5.2-7.7c1-1.5,2-3.1,4.2-3.2
		c0.9-0.1,1.6-0.9,1.8-1.9c-1.1-0.1-2.3,0-3-0.5s-1-1.6-1.6-2.4C215.2,183.7,211.1,188.1,209,193.5z M229.6,204.2
		c1.4-4.6,2.6-9.1,3.9-13.5c0.2,0,0.3,0.1,0.5,0.1c0,0.8,0,1.6,0,2.4c0.2,0,0.3,0,0.5,0.1c0.1-1.1,0.7-2.5,0.3-3.2
		c-0.9-1.2-0.3-1.8,0.3-2.5c0.7-0.9,1-1.8,0.5-3.2c-0.5,0.7-0.8,1.1-1,1.5c-1.6,3.1-3.2,6.2-4.7,9.3c-0.4,0.8-0.3,1.9-0.3,2.8
		c-0.1,0.9,0.3,1.8-0.1,2.5C229,201.7,229.3,202.7,229.6,204.2z M317.2,225.1c0.1,0,0.3-0.1,0.4-0.1c0.3-1.4,0.7-2.6,1-4
		c0.1-0.4,0.3-1.1,0.4-1.1c1.2,0,1-1,1-1.6c0.1-1.5-0.1-3-0.2-4.5c-0.1,0.1-0.3,0.2-0.3,0.3c-0.4,2.8-1.8,5.1-4.3,6.6
		c-0.2,0.1-0.3,0.3-0.4,0.5c-0.1,0.3-0.3,0.8-0.2,1C315.5,223.1,316.3,224.1,317.2,225.1z M290.5,224.4c0.6-0.4,1.1-0.7,1.6-1.1
		c0.5-0.3,1.1-1,1.6-1.1c1.6-0.1,1.3-1.2,1.2-2.1c0-0.3-0.7-0.7-0.9-0.6c-0.8,0.3-1.6,0.7-2.4,1.1
		C290.1,221.3,289.7,222.6,290.5,224.4z M290.4,212.9c0.2,0,0.4,0,0.6,0c0-1.2,0.1-2.5,0-3.7c-0.2-1.8-0.1-3.3,1.4-4.7
		c0.4-0.4,1-0.9,0.3-1.6c-0.5-0.5-2.1-0.4-2.4,0.1c-0.2,0.4-0.3,0.9-0.2,1.4c0.1,2.2,0.1,4.3,0.2,6.5
		C290.3,211.7,290.4,212.3,290.4,212.9z M289.7,227.6c-1.2,1.2-1.9,7.6-0.9,8.7C289.7,233.2,289.8,230.4,289.7,227.6z M308.1,275.9
		c0,0.1,0,0.2,0,0.3c2.2,0.6,4.3,0.7,6.5,0.3c0.2-0.1,0.5-0.2,0.6-0.4c0.1-0.1,0.3-0.5,0.2-0.7c-0.1-0.1-0.4-0.3-0.5-0.3
		C312.7,275.4,310.4,275.7,308.1,275.9z M231.6,242.2c-0.3-0.7-0.6-1.7-0.9-2.6c-0.1-0.3-0.4-0.7-0.5-0.7c-0.3,0-0.7,0.3-0.9,0.5
		c-0.9,1.2-0.3,3,1.4,3.7C231.3,243.4,231.6,243.1,231.6,242.2z M202,219.6c-0.1,0-0.2,0-0.3,0c0,3,0,6.2,0,9.2c0.1,0,0.2,0,0.3,0
		C202,225.8,202,222.8,202,219.6z M298.4,175c0.5,2.6,0.9,5.3,2,7.7C300.4,179.9,299.8,177.4,298.4,175z M205.5,190.1
		c-0.2,0-0.3-0.1-0.5-0.1c-0.4,2.6-0.8,5.2-1.3,7.8c0.2,0.1,0.4,0.1,0.7,0.1C203.9,195.2,206,192.9,205.5,190.1z M217.9,191.3
		c-0.2,0-0.5-0.1-0.7-0.1c-0.4,2.6-0.7,5.2-1.2,7.8c0.2,0,0.4,0.1,0.5,0.1C217,196.4,217.4,193.9,217.9,191.3z M294.5,173.7
		c-0.2,0.1-0.4,0.1-0.7,0.1c0.5,2.8,1.2,5.5,1.7,8.3c0.1,0,0.3-0.1,0.5-0.1C295.6,179.3,295,176.5,294.5,173.7z M222.6,245.2
		c0.2,0,0.5,0,0.7,0c0.1-1.1,0.1-2.1,0.1-3.2c0-0.3-0.3-0.5-0.5-0.7c-0.2,0.3-0.7,0.5-0.7,0.7C222.3,243.1,222.4,244.1,222.6,245.2z
		 M214.4,225.3c-0.1,0-0.1,0-0.3,0c0,2.8,0,5.5,0,8.4c0.1,0,0.1,0,0.3,0C214.4,230.9,214.4,228.1,214.4,225.3z M205.8,229.9
		c0.1,0,0.1,0,0.3,0.1c0.1-2.2,0.2-4.5,0.3-6.6c-0.2,0-0.3,0-0.5,0C205.8,225.5,205.8,227.7,205.8,229.9z M227.3,242.2
		c-1,1.3-1,3.6,0,5C227.3,245.4,227.3,243.9,227.3,242.2z M300.2,243.7c-0.1-0.1-0.3-0.1-0.5-0.1c-0.3,1.6-0.7,3-1,4.6
		c0.1,0,0.3,0.1,0.5,0.1C300.4,247,300.3,245.4,300.2,243.7z M213.5,192.5c-0.1-0.1-0.3-0.1-0.5-0.1c-0.4,1.8-1.2,3.6-0.9,5.5
		c0.1,0,0.3,0.1,0.5,0.1C212.8,196.1,213.2,194.3,213.5,192.5z M310.1,228.8c0.3,0.1,0.5,0.1,0.7,0.1c0.2-1,0.5-2,0.7-3
		c0-0.1-0.2-0.4-0.3-0.5c-0.2,0.1-0.6,0.3-0.6,0.5C310.3,226.9,310.2,227.9,310.1,228.8z M294.4,249.2c0.1,0,0.2,0.1,0.3,0.1
		c1-2,1.6-5,0.9-6.2C295.3,245.2,294.9,247.2,294.4,249.2z M209,195.2c-0.2,0-0.4-0.1-0.6-0.1c-0.2,1.4-0.4,2.8-0.6,4.1
		c0.1,0,0.3,0.1,0.4,0.1C208.6,197.9,209.6,196.7,209,195.2z M283.3,245.8c-1.4,0.7-2,2.8-1.2,4C282.6,248.3,282.9,247,283.3,245.8z
		 M302.3,226.1c-0.8,1.4-1.1,2.6-0.9,4C302.5,229.3,302.8,227.7,302.3,226.1z M203,209.2c-0.2,0-0.4,0-0.5-0.1
		c-0.2,2-0.3,4.1-0.5,6.1c0.1,0,0.3,0,0.4,0.1C202.5,213.3,202.7,211.3,203,209.2z M249.7,165c1.2-0.9,1.5-2.2,0.9-3.1
		C249.6,162.6,249.2,163.8,249.7,165z M228.6,260.3c0,1,0,2,0,3.2C229.8,262.3,229.8,261.3,228.6,260.3z M306.7,229.3
		c-0.1-0.1-0.3-0.1-0.4-0.1c-0.6,1.2-0.8,2.4-0.7,3.7c0.2,0,0.3,0.1,0.5,0.1C306.3,231.7,306.5,230.5,306.7,229.3z M304.7,242.7
		c-0.3,0.1-0.5,0.1-0.7,0.1c0.1,0.7,0.1,1.3,0.2,2c0,0.1,0.4,0.3,0.5,0.3s0.4-0.3,0.4-0.5C305.1,243.9,304.9,243.3,304.7,242.7z
		 M302.1,234.3c-0.3-0.3-0.6-0.6-0.8-0.9c-0.3,0.3-0.7,0.7-0.7,1.2c-0.1,0.3,0.4,0.6,0.7,0.9C301.4,235.1,301.7,234.7,302.1,234.3z
		 M218.9,245.8c-0.1,0-0.3,0-0.5,0c-0.1,0.5-0.3,1.1-0.3,1.6c0,0.3,0.3,0.5,0.5,0.8c0.2-0.3,0.5-0.6,0.5-0.9
		C219.2,246.8,219,246.4,218.9,245.8z M281.4,173.4c0.1-0.1,0.3-0.1,0.4-0.1c-0.7-1.9-1.4-3.8-2-5.7c-0.1,0.1-0.3,0.1-0.4,0.1
		C280,169.6,280.7,171.5,281.4,173.4z M286.3,205.6c-0.1,0-0.2,0-0.3,0c0,1.2,0,2.3,0,3.5c0.1,0,0.2,0,0.3,0
		C286.3,207.9,286.3,206.7,286.3,205.6z M231,191c-1.4,0.6-1.8,1.6-1.3,3C230.2,192.9,230.6,192,231,191z M215.7,250.8
		c-0.5-0.4-0.7-0.7-1.1-0.9c-0.2,0.3-0.7,0.6-0.6,0.7c0.1,0.3,0.5,0.7,0.8,0.9C214.9,251.6,215.3,251.2,215.7,250.8z M302.5,194.3
		c-0.2,0-0.3,0-0.5,0.1c0.1,1.3,0.2,2.6,0.3,3.9c0.1,0,0.3,0,0.4,0C302.6,196.9,302.5,195.6,302.5,194.3z M301.5,207.2
		c-0.7-0.3-1.4-0.5-2.2-0.9C299.6,207.8,300,208,301.5,207.2z M231.2,246.4c-0.2,0.1-0.3,0.1-0.5,0.1c-0.3,0.9-0.1,1.6,0.7,2
		c0.1-0.1,0.3-0.1,0.5-0.1C231.7,247.7,231.5,247,231.2,246.4z M277.9,176.7c0.2-0.1,0.5-0.2,0.7-0.3c-0.3-0.7-0.7-1.4-0.9-2
		c-0.2,0.1-0.4,0.2-0.6,0.3C277.3,175.3,277.6,176,277.9,176.7z M197.3,225.1c0.1,0,0.2,0,0.3,0.1c0-1,0-2,0-3c-0.1,0-0.2,0-0.3,0
		C197.3,223.1,197.3,224,197.3,225.1z M223,214.2c0.1,0,0.3,0.1,0.5,0.1c0.2-1.1,0.3-2.2,0.5-3.3c-0.1,0-0.3-0.1-0.5-0.1
		C223.4,212,223.2,213.1,223,214.2z M230.5,188.1c0.1,0,0.3,0.1,0.3,0.1c0.8-0.9,0.9-1.2,0.1-2.2
		C230.7,186.8,230.6,187.4,230.5,188.1z M236.5,252.3c-0.2,0.1-0.4,0.1-0.6,0.1c0.1,0.7,0.3,1.4,0.5,2.2c0.2-0.1,0.3-0.1,0.5-0.1
		C236.8,253.7,236.6,253.1,236.5,252.3z M281.7,281.4c0,0.2-0.1,0.4-0.1,0.6c0.5,0.1,1.1,0.1,1.6,0.1c0-0.2,0-0.6-0.1-0.6
		C282.7,281.4,282.2,281.4,281.7,281.4z M316.3,280.9c0.1,0.1,0.2,0.3,0.3,0.4c0.7-0.6,1.4-1.2,2-1.8c-0.1-0.1-0.2-0.2-0.3-0.3
		C317.7,279.7,316.9,280.3,316.3,280.9z M307.1,225.5c-0.2-0.1-0.4-0.1-0.6-0.2c-0.1,0.5-0.3,1.1-0.4,1.6c0.2,0.1,0.3,0.1,0.5,0.1
		C306.7,226.5,306.9,226,307.1,225.5z M218.4,232.4c0.2,0,0.3,0,0.5-0.1c-0.1-0.7-0.1-1.4-0.1-2c-0.1,0-0.3,0-0.5,0.1
		C218.4,231.1,218.4,231.8,218.4,232.4z M227.2,226c-0.1,0-0.3,0-0.5-0.1c-0.1,0.7-0.1,1.5-0.2,2.2c0.1,0,0.3,0,0.3,0.1
		C227,227.5,227.1,226.8,227.2,226z M315.3,211.7c0.1,0,0.3,0.1,0.5,0.1c0.1-0.6,0.1-1.2,0.2-1.8c-0.1,0-0.3-0.1-0.5-0.1
		C315.5,210.4,315.4,211.1,315.3,211.7z M215.8,204.1c-0.1,0-0.3,0-0.4,0c0,0.5,0,1,0,1.6c0.1,0,0.3,0,0.4,0
		C215.8,205.1,215.8,204.6,215.8,204.1z M231.8,252.7c-0.1,0-0.3,0.1-0.4,0.1c0.1,0.6,0.3,1.2,0.4,1.8c0.1-0.1,0.3-0.1,0.5-0.1
		C232.1,254,231.9,253.3,231.8,252.7z M201.9,232.2c-0.1,0-0.3,0-0.4,0.1c0.1,0.7,0.1,1.4,0.1,2c0.1,0,0.2,0,0.3,0
		C201.9,233.5,201.9,232.8,201.9,232.2z M197.8,218c-0.1,0-0.3,0-0.5,0c0.1,0.6,0.1,1.2,0.1,1.8c0.1,0,0.2,0,0.3,0
		C197.8,219.2,197.8,218.6,197.8,218z M311.5,203.6c0.2-0.1,0.3-0.1,0.5-0.1c-0.1-0.5-0.3-1.1-0.3-1.6c-0.1,0.1-0.3,0.1-0.5,0.1
		C311.2,202.5,311.3,203.1,311.5,203.6z M218.8,207.9c0.1-0.1,0.3-0.3,0.3-0.4c-0.3-0.3-0.7-0.6-1.1-0.9c-0.1,0.1-0.2,0.3-0.3,0.3
		C218.1,207.2,218.4,207.5,218.8,207.9z M198.9,206.4c-0.1-0.1-0.3-0.1-0.3-0.1c-0.1,1-0.3,2-0.3,3c0.1,0,0.1,0,0.2,0
		C198.5,208.3,198.7,207.3,198.9,206.4z"/>
	<path class="st1" d="M319.7,144.1c0.1,0.9,0.3,1.8,0.3,2.6c0,0.7,0,1.6-0.2,2.3c-0.3,1-1.3,1.3-2,0.7c-3.5-2.6-7-5.1-10.5-7.7
		c-0.3-0.2-0.7-0.4-0.9-0.7c-0.3-0.7-0.9-1.5-0.8-2.1c0.1-1.1,1.6-2,2.6-1.6c3.7,1.2,5.8-1.2,7.6-3.7c2.4-3,4.6-6,6.8-9.1
		c0.7-0.9,1.2-2,1.9-2.9c0.7-1.1,0.6-1.9-0.4-2.8c-1.1-0.9-1.1-2-0.3-3c0.7-1,1.6-1.3,2.7-0.6c1,0.6,1.9,1.3,2.8,2
		c2.5,2,5,3.9,7.4,6c1.4,1.2,1.3,3.6-0.3,4.4c-0.5,0.3-1.7,0-2.3-0.3c-1-0.7-1.8-0.4-2.4,0.3c-1.2,1.5-2.2,3-3.3,4.6
		c-0.5,0.7-0.3,1.2,0.3,1.7c2.4,1.8,4.8,3.5,7.2,5.3c0.6,0.5,1.2,0.3,1.6-0.3c1.1-1.6,2.2-3.2,3.3-4.8c0.5-0.8,0.2-1.4-0.5-2
		c-1.3-1.2-1.2-2.6,0.1-3.7c0.7-0.5,1.4-0.7,2.1-0.1c1.1,0.9,2.2,1.8,3.2,2.6c2,1.6,4,3.2,6,4.9c0.5,0.5,1.1,0.9,1.6,1.3
		c0.7,0.6,1.5,1.3,0.8,2.4c-0.6,1.1-2.2,2-3.1,1.4c-2.2-1.4-3.8-0.1-5.1,1.4c-1.8,2-3.3,4.1-4.9,6.2c-1.8,2.4-3.3,5-5.1,7.4
		c-0.7,0.9-0.9,1.7-0.2,2.7c0.3,0.4,0.4,0.9,0.5,1.4s-0.1,1.4,0.2,1.6c0.7,0.7,1.6,1.2,2.4,1.6c1.4,0.7,2.8,0.6,4.3,0.4
		c7.2-0.9,14.5-1.6,21.8-2.4c1.3-0.1,2.5-0.3,3.8-0.3c1.7,0.1,2.4,1.1,1.9,2.7c-0.1,0.6-0.5,1.2-0.9,1.7c-3,3.9-6.1,7.8-9.1,11.7
		c-2.4,3.2-4.9,6.3-7.2,9.5c-0.4,0.5-0.5,1.4-0.5,2c-0.1,1.2-1,2.7-2.2,2.8c-0.5,0.1-1.2-0.3-1.5-0.7c-0.9-1.4-1.6-2.8-2.4-4.2
		c-0.9-1.8-2-3.5-2.9-5.1c-0.4-0.8-0.9-1.7-0.9-2.6c-0.2-1.8,0.9-2.6,2.6-1.8c0.3,0.1,0.5,0.3,0.7,0.4c0.2,0.1,0.5,0.3,0.7,0.3
		c1,0.1,3.2-2.8,2.6-3.7c-1.2-2-2.4-4-3.7-6c-0.7-1-1.8-0.7-2.7-0.4c-0.9,0.3-1.4,0.9-1.4,1.8c-0.1,0.8,0.1,1.7-0.1,2.4
		c-0.1,0.5-0.5,1.2-1,1.4c-0.3,0.1-0.9-0.4-1.4-0.7c-0.2-0.1-0.3-0.5-0.5-0.7c-0.8-2.2-1.8-4.3-3.7-5.8l-0.1-0.1
		c-0.5-2.6-3-2.9-4.7-4.1c-2.2-1.7-4.3-3.5-6.4-5.1c-0.9-0.7-1.8-1.4-2.7-2.1c-0.6-0.5-1.3-1.1-0.8-2.1c0.6-1.3,1.8-2.1,2.8-2
		c0.1,0,0.3,0.1,0.3,0.1c2.9,1,3.2,1.3,5.3-2c0.7-1.2,1.8-2.1,2.7-3.2c1.1-1.2,1.1-1.6-0.3-2.6c-2.2-1.6-4.5-3.2-6.8-4.8
		c-0.3-0.3-1.2-0.3-1.4-0.1c-1.3,1.5-2.6,3.1-3.7,4.7C319.7,143,319.8,143.6,319.7,144.1z M357.5,166.1c-2.4,0.3-4.6,0.5-6.8,0.9
		c-0.2,0-0.5,0.8-0.5,1.1c0.5,1.1,1.2,2.1,1.9,3.1c0.4,0.6,1,0.7,1.6,0.1c1.2-1.5,2.4-3,3.6-4.5
		C357.4,166.7,357.4,166.5,357.5,166.1z"/>
	<path class="st1" d="M150.9,192.2c1.4,1,2.6,2,3.9,3c2.6,2,5.1,4.1,7.6,6c0.5,0.4,1.2,0.7,1.8,1c1.3,0.4,2.1,1.4,2.9,2.3
		c0.9,1.1,0.3,3.3-1.1,3.9c-0.4,0.1-0.8,0.2-1.2,0.3c-3.2,0.6-6.5,1.2-9.7,1.8c-1.8,0.3-3.6,0.5-5.3,0.8c-2,0.4-4.1,0.9-6.1,1.6
		c3.5,1.4,7,2.5,10.6,3c0.8,0.1,1.6,0.3,2.4,0.3c1.3,0,2.4-0.1,3.3-1.3c0.9-1.2,2.2-1.4,3.7-0.9c0.9,0.3,1.4,0.9,1.2,1.9
		c-0.1,0.4-0.1,0.8-0.3,1.2c-1.1,2.3-1.8,4.7-2,7.2c-0.1,0.5-0.7,1.3-1.2,1.4c-0.6,0.1-1.6-0.1-2-0.5c-0.8-0.9-1.4-2-2.1-3
		c-0.4-0.5-0.9-1.3-1.6-1.4c-2.8-0.9-5.6-1.6-8.5-2.2c-3.2-0.7-6.4-1.1-9.7-1.6c-1.2-0.2-2.1,0.1-2.6,1.4c-0.4,1-1.8,1.3-3.2,0.9
		c-1.2-0.3-1.1-1.2-0.9-2c0.4-2,0.9-3.9,1.4-5.8c0.3-1.4,0.7-2.7,0.9-4.1c0.3-1.8,0.6-2,2.4-2.2c1.4-0.1,2.7-0.4,4-0.7
		c3.4-0.8,6.7-1.8,10-2.6c0.9-0.2,1.8-0.3,3-0.5c-2.9-2.7-5.5-5.2-8.2-7.6c-1.7-1.6-3.6-2.8-5.3-4.4c-0.3-0.3-0.5-1.1-0.4-1.6
		c0.7-3.4,1.5-6.8,2.3-10.1c0.5-1.8,1.6-2.4,3.4-1.6c0.3,0.2,0.8,0.8,0.8,1.2c-0.5,2.8,1.6,3.7,3.5,4.3c3.9,1.4,7.9,2.4,11.8,3.5
		c1.2,0.3,2.3,0.5,3.5,0.9c1.8,0.4,3-0.2,3.9-1.8c0.5-1,1.2-1.9,2.6-1.8c2.1,0.1,2.6,0.8,2.1,2.8c-1.2,4.5-2.3,8.9-3.5,13.4
		c0,0.1,0,0.1,0,0.1c-0.3,0.8-0.3,1.9-1.5,2c-0.9,0.1-2.2-0.9-2.5-2.1c-0.1-0.3-0.1-0.5-0.1-0.7c-0.3-2.3-0.8-2.8-3.1-3.3
		c-2.9-0.7-5.8-1.4-8.7-2.2c-0.9-0.2-1.7-0.3-2.6-0.5C151,191.9,151,192,150.9,192.2z"/>
	<path class="st1" d="M370.9,216.1c0.8-0.1,1.3-0.1,1.7-0.2c1.8-0.4,3.7-0.9,5.5-1.2c2-0.3,3.2-1.4,4.2-2.9c0.5-0.7,1-1.3,1.7-1.8
		c0.9-0.8,1.7-0.7,2.3,0.5c0.3,0.5,0.6,1.2,0.7,1.8c0.3,2.6,0.6,5.2,0.9,7.8c0.1,1,0,2-1.2,2.5c-1.4,0.5-3,0.3-3.5-0.9
		c-1.1-2.4-3-2.2-5-1.9c-2.6,0.4-5.2,1-7.8,1.6c-4.1,0.9-8.1,2-12.2,2.9c-1.9,0.5-2.3,0.1-2.9-1.7c-0.5-1.6-0.7-3,0.6-4.5
		c4.9-6,9.7-12,14.5-18.1c0.1-0.1,0.1-0.3,0.3-0.7c-1.9,0.3-3.6,0.5-5.3,0.8c-2.1,0.4-4.3,0.7-6.3,1.4c-0.8,0.3-1.6,0.9-2.2,1.6
		c-0.9,0.9-1.6,2-2.6,2.8c-0.9,0.7-1.7,0.3-2-0.8c-0.1-0.1-0.1-0.3-0.1-0.5c-0.3-2.9-0.6-5.8-0.9-8.7c-0.1-0.5,0-0.9,0.1-1.4
		c0.3-1.2,1.2-1.7,2-0.7c2,2.2,4.2,2.4,7,2c4.5-0.7,9.2-0.9,13.6-2.7c0.9-0.3,1.8-0.5,2.8-0.5c1.2-0.1,1.8-0.6,2.1-1.7
		c0.1-0.7,0.5-1.4,0.9-1.9c0.4-0.4,1.2-0.8,1.7-0.7s1.1,0.8,1.2,1.4c0.5,2.4,0.8,4.9,1.2,7.3c0.2,1.5,0,2.9-1.1,4.1
		c-2.6,3-5.2,6.2-7.7,9.3C373.7,212.1,372.4,214,370.9,216.1z M378.4,203.1c-0.5-0.2-0.8-0.5-1.1-0.5c-0.2,0-0.5,0.5-0.5,0.6
		c0.1,0.3,0.4,0.7,0.6,0.7C377.8,204,378,203.5,378.4,203.1z"/>
	<path class="st1" d="M214.5,120.5c-0.3,0.9-0.9,2.5-1.6,4c-0.3,0.7-0.3,1.1,0.5,1.2c2.4,0.5,4.3,1.8,6.2,3.2c2,1.6,4.1,2.6,6.8,2.2
		c1.2-0.1,1.8,0.9,2.3,1.9s-0.2,1.4-0.9,1.8c-1.9,1.1-3.7,2.4-5.7,3.1c-1,0.4-2.5,0.1-3.5-0.5c-1.8-0.8-3.5-2-5.2-3.1
		c-1.7-1.2-3.4-2.4-5.5-2.4c-1.2-0.1-2.4,0.3-3.5,0.7c-0.3,0.1-0.6,1.1-0.5,1.4c0.9,1.6,1.8,3.2,2.8,4.6c1,1.3,2.4,1.8,4.2,1.1
		c1.2-0.5,1.8,0.5,2.3,1.4c0.5,0.8,0.3,1.5-0.4,2c-0.1,0.1-0.3,0.3-0.5,0.3c-2.8,1.4-5.5,2.8-8.4,4.3c-0.7,0.4-1.5,0.8-2.2,1.3
		c-0.5,0.3-0.9,0.7-1.5,0.9c-0.8,0.3-1.9,0.7-2.3-0.2c-0.3-0.7-0.1-2,0.3-2.6c1.4-1.9,1.6-2.8,0.5-4.8c-1.9-3.4-4-6.8-5.9-10.1
		c-1-1.8-1.8-3.6-2.7-5.4c-0.8-1.5-2.1-2-3.5-0.9s-2.7,0.3-3.2-0.9c-0.4-0.9-0.3-1.8,0.7-2.3c3-1.8,6.1-3.8,9.1-5.6
		c3.8-2.3,7.9-3.8,12.3-4.5C209.6,111.6,214.5,115.7,214.5,120.5z M206.2,124c-0.2-0.9-0.3-1.9-0.6-2.8c-0.8-2.4-2.8-3.5-5.2-2.8
		c-1.2,0.3-2.2,1-3.2,1.4c-0.7,0.3-0.7,0.7-0.4,1.4c1.4,2.5,2.8,5,4.3,7.5c0.3,0.6,0.7,0.8,1.4,0.5C205.3,127.8,206,126.8,206.2,124
		z"/>
	<path class="st1" d="M155.6,158.8c0.7-3.1,1.2-6.3,2.1-9.3c0.7-2.4,2.8-4.1,4.7-5.5c1.5-1.1,3.1-2,4.7-3c2.8-1.7,6-1.7,9.1-1.4
		c4.7,0.5,8.9,2.4,11.8,6.6c3.3,4.8,3.8,9.9,0.9,15.1c-0.7,1.4-1.4,3-2.3,4.3c-1.1,1.5-2.4,2.8-3.9,4c-3.1,2.5-6.5,4.3-10.6,4.7
		c-3.5,0.4-6.4-0.6-9-2.9c-1.9-1.7-3.6-3.5-5.1-5.5s-2.4-4.3-2.2-6.9C155.9,158.9,155.8,158.9,155.6,158.8z M167.4,147
		c-1.6,0.1-3.2,0.4-4.4,1.6c-0.6,0.5-1.1,1-0.3,1.8c0.2,0.2,0.2,0.7,0.1,0.9c-0.7,2,0,3.8,0.9,5.5c1.8,3.2,4.5,5.6,7.4,7.6
		c3.5,2.3,7,2.3,10.5,0.3c0.6-0.3,1.2-1.2,1.5-1.8c0.6-2,0.3-3.8-0.7-5.6c-1.7-3.4-4.5-5.8-7.6-7.8C172.7,148,170.2,147.2,167.4,147
		z"/>
	<path class="st1" d="M252.8,107.5c-1.2,0.2-2-0.3-2.8-1.4c-1.2-1.6-2.9-2.8-5.2-2.5c-1.6,0.3-3.2,0.5-4.9,0.8
		c-0.8,0.1-1.3,0.6-1.2,1.4c0.2,2.1,0.5,4.2,0.7,6.2c0.1,0.7,0.6,0.9,1.3,0.8c1.1-0.3,2.2-0.6,3.2-1.2c0.4-0.2,0.5-0.9,0.9-1.4
		c0.5-0.6,0.9-1.3,1.5-1.6c1.2-0.6,2.4,0.2,2.5,1.6c0.3,2.4,0.5,4.7,0.9,7.1c0.1,0.9,0.2,1.6-0.7,2c-1,0.5-2.6,0.1-3-0.7
		c-1.2-2-2.2-2.4-4.5-1.7c-0.7,0.2-1.1,0.6-0.9,1.4c0.5,2.4,0.9,4.9,1.6,7.2c0.3,1.2,2,1.9,3.7,1.7c1.8-0.3,3-1.4,4.3-2.5
		c1.2-1.2,1.9-2.5,1.9-4.1c0-0.3,0.1-0.7,0.2-1.1c0.3-1.2,1.4-1.8,2.8-1.6c1.2,0.1,1.3,1,1.5,2c0.2,1.3,0.6,2.5,0.9,3.7
		s0.6,2.2,0.7,3.4c0.1,1-0.3,1.6-1.3,2.1c-2.8,1.4-6,1.4-9,2c-4.8,0.9-9.6,1.8-14.3,2.7c-0.5,0.1-0.9,0.3-1.5,0.3
		c-1.6,0-2.4-0.6-2.6-2c-0.3-1.8-0.1-2.4,1.6-3.1c1.2-0.5,2-1.8,1.7-3.4c-0.8-4.6-1.8-9.1-2.6-13.7c-0.2-1.2-0.3-2.4-0.5-3.5
		c-0.3-2.2-0.8-2.8-3-3c-1-0.1-1.8-0.9-1.7-1.8s0.5-1.6,1.6-1.7c7.4-1.1,14.8-2.2,22.2-3.3c1-0.1,2-0.3,3-0.4
		c0.9-0.1,1.6,0.3,1.8,1.4c0.4,1.8,0.8,3.6,1.3,5.4C255.2,106.8,255,107.9,252.8,107.5z"/>
	<path class="st1" d="M161.8,312.6c1.6,1.4,3.1,2.8,4.7,4.3c2.2,2,4.3,4.2,6.6,6.2c1.8,1.6,3.7,3.1,5.5,4.7c0.1,0.1,0.1,0.1,0.2,0.1
		c3.2,0.9,4.9,4.2,8.1,5.2c2.2,0.7,4.2,2.4,6.3,3.7c1.6,0.9,3.2,2.1,4.9,2.9c6.4,3,12.8,6.7,20,7.6c3.5,0.5,6.8,1.4,10.1,2.5
		c1.6,0.5,2.9,1.3,4.5,1.8c0.9,0.3,2,0.7,3,0.8c3.9,0.3,7.6,0.3,11.5,0.5c0.3,0,0.7,0.1,1.1,0.2c3.5,1.4,7,1.8,10.7,1.9
		c6.1,0.2,12.2,0.6,18.1-1.2c0.2-0.1,0.5-0.1,0.7-0.1c4.9,0.6,9.7-0.4,14.3-1.9c6.6-2.1,13.1-4.4,19.7-6.7c2-0.7,3.9-1.5,5.8-2.4
		c6-3.1,12.4-5.8,17.5-10.4c1.2-1.2,2.3-2.4,3.6-3.5c1.2-1,2.4-1.9,3.7-2.8c1.9-1.4,3.7-2.7,4.9-4.7c1.4-2.3,3.5-4.1,5.6-5.8
		c1.6-1.3,3.2-2.5,4.9-3.9c0.4-0.3,0.8-0.8,1.2-1.3c2.4-3.5,4.8-7,7.4-10.4c1.8-2.3,3.7-4.5,6-6.5c2.2-1.8,3.7-4.3,5.5-6.4
		c0.1-0.2,0.3-0.4,0.4-0.6c0.1,0.1,0.2,0.1,0.3,0.1c-0.3,0.7-0.6,1.6-1.1,2.2c-1.6,2.2-3.5,4.1-5.1,6.4c-1.4,2-2.4,4.3-3.6,6.5
		c-0.5,0.9-0.9,1.9-1.6,2.7c-1.3,1.6-2.8,3-4.1,4.7c-0.7,1-1.2,2.2-2,3.3c-3.4,4.6-7.1,8.9-11.7,12.4c-1.4,1-2.6,2.3-3.9,3.3
		c-3.5,2.6-7.1,5.1-10.8,7.5c-6.8,4.5-13.6,8.9-21.3,11.7c-1.6,0.6-3.4,0.8-5,1.4c-0.9,0.3-1.9,0.7-2.8,1.2
		c-4.7,2.2-9.7,3.2-14.7,4.1c-4.1,0.8-8.3,1.1-12.6,1c-3-0.1-6,0.8-8.9,1.2c-0.7,0.1-1.4,0.3-2.1,0.4c-2.2,0.5-4.2,0.4-6.4-0.1
		c-2.7-0.7-5.5-0.7-8.4-0.9c-2.6-0.1-5.1,0.2-7.8,0.2c-5.5-0.1-11-0.7-16.3-2.6c-2.7-0.9-5.5-1.4-8.3-2.2c-1.9-0.5-3.7-1.3-5.6-1.9
		c-1.1-0.3-2.2-0.5-3.2-0.8c-0.7-0.2-1.6-0.3-2.2-0.7c-1.6-0.9-3.5-1.4-5.1-2.2c-5.1-2.7-10.6-4.7-15.2-8.3c-2.2-1.6-4.8-2.7-7-4.4
		c-3.2-2.4-6.1-5.3-9.2-7.8c-2.6-2.1-4.8-4.5-6.8-7.1c-1.3-1.6-2.5-3.3-3.8-4.9C161.7,312.7,161.7,312.7,161.8,312.6z"/>
	<path class="st1" d="M291.4,106.5c-0.8-0.4-1.6-0.8-2.3-1.1c-2-0.6-3.7,0.3-5.1,2.5c-0.9,1.5-1.8,1.9-3.2,1.4
		c-0.8-0.3-1.4-0.8-1.2-1.6c0.7-2.2,1.4-4.5,2.2-6.6c0.4-1,1.5-1,2.4-0.7c2,0.5,4.1,1.2,6.1,1.8c3,0.9,6.2,1.6,9.2,2.5
		c3.7,1.1,7.3,2.3,11,3.6c1.4,0.5,1.8,1.5,1.2,2.9c-0.7,1.9-1.4,3.8-2.1,5.7c-0.4,1.2-1.6,1.7-3,1.3c-0.9-0.3-1.3-1.2-0.9-2.4
		c0.7-3,0.2-4.5-2.2-6c-0.6-0.4-1.3-0.7-2-0.9c-0.3-0.1-1,0.4-1.2,0.8c-0.7,1.7-1.3,3.5-1.8,5.2c-1,3.2-2,6.4-2.9,9.5
		c-0.5,1.6-1.1,3.1-1.5,4.7c-0.6,2.4-0.5,2.7,1.6,3.9c0.2,0.1,0.3,0.2,0.5,0.3c0.9,0.6,1.3,2,0.7,2.8c-0.6,1-1.6,0.8-2.4,0.5
		c-2.6-0.8-5.1-1.7-7.6-2.4c-1.8-0.5-3.6-0.9-5.4-1.4c-0.3-0.1-0.8-0.1-1.1-0.3c-0.4-0.4-1-0.9-0.9-1.4c0-0.5,0.5-1,1-1.4
		c0.4-0.3,1-0.3,1.6-0.4c1.9-0.1,2.8-1.3,3.4-2.8c0.9-2.6,1.6-5.3,2.4-7.9c1-3.2,2-6.4,3-9.7C291.1,108.2,291.2,107.4,291.4,106.5z"
		/>
	<path class="st1" d="M240.8,299.6c0.3,4.1,0.1,3.2-2.7,2.4c-2.9-0.8-5.8-1.6-8.7-2.4c-3.5-1-6.8-2.4-9.7-4.5
		c-1.6-1.2-3.2-2.2-4.8-3.3c-0.8-0.5-1.8-0.7-2.6-1.1c-2.4-0.9-4.3-2.6-6-4.5c-2.9-3-5.8-6.1-8.5-9.3c-2.8-3.2-5.6-6.4-8.1-9.8
		c-2.8-3.8-5.5-7.6-7.1-12.1c-1.2-3.3-2.4-6.6-3.5-10c-0.9-2.8-2.1-5.6-2.4-8.5c-0.5-4.5-0.5-9.2-0.6-13.8c-0.1-3.2,0-6.5,0.2-9.7
		c0.3-3.9,0.5-7.9,1.1-11.8c0.5-3.4,1.6-6.6,3.8-9.4c0.9-1.2,1.2-2.8,1.9-4.1c0.8-1.8,1.6-3.5,2.6-5.2c0.2-0.3,0.8-0.4,1.2-0.6
		c0.1,0.5,0.4,1,0.3,1.4c-0.9,2.6-2.1,5.2-2.8,7.9c-1.1,3.7-2,7.6-2.9,11.4c-1,4.6-2.2,9.1-2.8,13.8c-0.4,2.9-0.1,5.9,0.1,8.9
		c0.3,3.9,0.9,7.8,1.4,11.6c0.2,1.4,0.4,2.9,0.9,4.2c1.8,4.5,3.3,9.2,5.5,13.5c2.9,5.8,6.2,11.3,9.5,16.8c0.9,1.5,2.2,2.8,3.3,4.1
		c0.1,0.2,0.3,0.4,0.5,0.5c3.5,1.9,5.3,5.5,8.4,7.9c2.2,1.8,4.5,3.3,6.9,4.7c3.5,2.1,7,4.2,10.6,6c2.2,1.2,4.5,2,6.9,2.7
		C235.2,298.1,238,298.7,240.8,299.6z"/>
	<path class="st1" d="M128.3,194.5c0-0.7-0.1-1.5,0-2.2c1.2-5.1,2.2-10.1,3.7-15.2c1.2-4.4,2.7-8.7,4.4-13c0.9-2.4,2.4-4.6,3.7-6.8
		c2.4-3.9,4.9-7.6,7.2-11.5c1.5-2.4,2.8-5,4.3-7.4c0.3-0.6,0.9-1.2,1.5-1.7c0.7-0.7,1.6-1.4,2-2.2c1.4-2.6,3.6-4.3,5.6-6.2
		c2-1.9,4.1-3.8,6.2-5.5c3.2-2.6,6.5-4.9,9.7-7.4c1.4-1.1,2.8-2.4,4.2-3.5c1.5-1.2,3-2.2,4.5-3.2c4.5-3.1,8.9-6.2,13.3-9.2
		c4-2.6,8.3-4.8,12.9-6c1-0.3,2.1-0.5,3.2-0.5c2.5,0.1,4.8-0.5,7.2-1.1c4.1-1.1,8.3-2,12.4-3c0.1,0.1,0.1,0.3,0.1,0.4
		c-1,0.3-2.1,0.7-3.1,0.9c-6,1.7-11.7,4-17.3,6.7c-4.9,2.4-9.9,4.3-14.8,6.6c-4.8,2.3-9.4,4.9-14.1,7.4c-0.7,0.3-1.4,0.7-2.1,1.1
		c-1.3,0.9-2.5,1.9-3.7,2.8c-0.2,0.1-0.3,0.3-0.5,0.5c-4.5,2.4-7.2,6.5-10.7,10c-3.1,3.2-6.4,6.2-9.5,9.4c-2.6,2.8-5,5.8-6.8,9.2
		c-0.7,1.3-1.7,2.4-2.4,3.7c-1.9,3.3-3.9,6.6-5.6,10c-1.6,3.2-3.3,6.3-4.1,9.9c-0.3,1.4-1.4,2.7-2,4.1c-1.9,4.5-3.7,9-5.5,13.5
		c-1.1,2.8-2.1,5.6-3.1,8.5c-0.1,0.3-0.2,0.6-0.3,0.9C128.4,194.6,128.4,194.6,128.3,194.5z"/>
	<path class="st1" d="M241.2,88c0.9-0.1,1.5-0.1,2.1-0.2c4.5-0.5,9.2-0.6,13.7-1.6c3.5-0.7,6.7,0.1,10.1-0.1
		c2.7-0.2,5.4,0.1,8.1,0.3c2.5,0.1,4.9,0.4,7.4,0.7c1.1,0.1,2.2,0.5,3.2,0.7c2.8,0.5,5.6,0.9,8.4,1.5c0.5,0.1,1.2,0.1,1.6,0.3
		c4.3,2.7,9.2,3.8,14,5.1c7.8,2.2,15.4,5.1,22.3,9.5c1.8,1.2,3.5,2.7,4.8,4.4c1.2,1.7,2.8,2.8,4.4,4.1c2,1.6,3.9,3.1,5.8,4.7
		c0.8,0.7,1.6,1.4,2.2,2.2c-1.2-0.8-2.4-1.6-3.7-2.4c-3.9-2.4-7.8-5-11.8-7.3c-3.5-2-7.2-3.9-10.2-6.7c-0.9-0.8-2.4-1.1-3.6-1.6
		c-2.6-1.2-5.1-2.3-7.6-3.5c-0.7-0.3-1.5-0.5-2.2-0.7c-1.6-0.5-3.2-0.6-4.6-1.4c-3.1-1.7-6.5-2.4-9.9-3.1c-1.8-0.4-3.5-1-5.3-1.4
		c-0.9-0.2-2-0.1-2.9-0.3c-8.1-0.8-16.2-1.8-24.3-2.3c-4.9-0.3-9.9,0.1-14.8,0.2c-0.2,0-0.4,0.1-0.6,0
		C245.7,88.9,243.7,88.5,241.2,88z"/>
	<path class="st1" d="M335.1,185.5c-1.1-0.9-2.3-2-3.6-3c-1.6-1.4-2.4-3.2-3.3-4.9c-1.2-2-2.8-3.9-4.3-5.8c-2-2.5-3.9-5-6.1-7.3
		c-2.3-2.4-4.8-4.5-7.3-6.6c-2.4-2-5-3.9-7.4-6c-2-1.7-4.1-3.1-6.6-3.9c-3-0.9-5.9-2-8.7-3.2c-2-0.8-4-2-6-2.8c-2.4-1-5-1.5-7.7-1.6
		c-3.7-0.1-7.2-0.3-10.9-0.5c-1.8-0.1-3.7-0.3-5.4-0.1c-2,0.1-3.9-0.2-5.9-0.7c-0.3-0.1-0.7-0.5-0.9-0.7c0.3-0.3,0.5-0.7,0.9-0.9
		c5.5-2,11-1.8,16.6-0.3c3.7,0.9,7.6,1.4,11.4,1.7c3.1,0.3,5.8,1.3,8.5,2.7c3.2,1.7,6.7,3,10,4.6c1,0.5,1.9,1.2,2.8,1.7
		c0.3,0.2,0.5,0.5,0.8,0.6c3.9,1.4,6.6,4.7,9.9,6.8c1.1,0.7,2,1.6,3.1,2.2c2.2,1.5,4.1,3.2,5.5,5.5c0.3,0.5,0.8,0.9,1.4,1.3
		c5.1,2.8,8,7.2,10,12.4c1,2.5,2,5,3,7.5C334.9,184.9,335.1,185.3,335.1,185.5z"/>
	<path class="st1" d="M159.9,311.2c-2.3-2.2-4.9-4.3-6.8-6.7c-2.9-3.7-5.3-7.7-8.1-11.5c-2.6-3.5-4.9-7-6.6-11c-1.2-2.6-1.9-5.3-3-8
		c-1.8-4.5-3.9-8.8-5.8-13.3c-0.7-1.8-1.2-3.7-1.8-5.5c-0.5-1.8-0.9-3.5-1.3-5.3c-0.2-0.9-0.1-2-0.1-3c-0.3-2.6-0.6-5.3-0.9-8
		c-0.1-0.5,0.1-1.2,0-1.7c-0.1-1.3-0.2-2.6-0.6-3.9c-1.3-3.5-1.8-7-1.4-10.6c1-7.5,2.2-15,3.4-22.5c0.1-0.9,0.3-2,0.5-2.9
		c0.1-0.3,0.2-0.7,0.3-1.1c0.1,0,0.3,0.1,0.3,0.1c-0.1,0.7-0.1,1.5-0.1,2.2c0,1.5,0.1,3,0.1,4.5c0,1.1,0.1,2.2,0,3.2
		c-0.5,3.5-0.9,7-1.5,10.5c-0.9,6.1-0.3,12,0.9,18.1c1.1,5.5,1.6,11.2,2.6,16.8c0.7,3.5,1.8,6.8,3,10.1c1.7,4.5,4.1,8.8,5.5,13.3
		c1.3,4,3.9,7,6.1,10.4c1.2,1.7,2,3.6,2.8,5.5c1.8,4.5,4.5,8.5,7.4,12.4c1.8,2.4,3.5,4.9,5.3,7.4C160.1,311,160,311.1,159.9,311.2z"
		/>
	<path class="st1" d="M150.4,241.4c-0.3,1.3-0.7,2.5-1.1,3.8c-1,4.1-2,8.1-3.1,12.2c-0.4,1.5-3.5,3-5,2.6c-0.9-0.3-1.3-1.2-0.8-2.6
		c0.6-1.9,1.2-3.9,1.7-5.8c0.9-3.5,2-7,2.9-10.5c0.3-1.2,0.3-2.4,0.6-3.5c0.3-1.4,0.5-2.8,0.9-4.1c0.4-1.4,1.8-1.4,3-1.6
		c1.3-0.2,2.2,0.3,3,1.4c2.4,3.7,4.7,7.4,7,11c1.8,2.7,3.6,5.4,5.3,8.2c0.4,0.6,0.8,1.2,1.1,1.9c0.5,1.2,0.1,1.9-1.2,2.2
		c-1,0.2-2,0.4-3,0.5c-1.2,0.1-1.7-0.3-1.9-1.6c-0.1-0.3-0.1-0.7-0.3-0.9c-2.6-4.1-5.1-8.3-7.8-12.4c-0.3-0.4-0.4-0.8-0.6-1.2
		C150.8,241.1,150.6,241.2,150.4,241.4z"/>
	<path class="st1" d="M370.5,234.1c0.5-0.1,0.9-0.1,1.3-0.1c0.9,0.1,1.6,0.3,1.8,1.3c0.5,2.3,1.1,4.5,1.6,6.8
		c1.3,5.4,2.6,10.8,3.8,16.2c0.1,0.5,0.1,0.9,0.1,1.5c0,1.7-0.7,2.1-2.3,1.6c-0.7-0.2-1.6-0.3-2.3-0.5c-0.8-0.1-1.2-0.6-1.4-1.5
		c-1.1-5-2.2-10.1-3.3-15.1c-0.1-0.3-0.4-0.7-0.6-0.9c-0.3,0.2-0.7,0.4-0.9,0.7c-2.5,3-4.9,6-6.6,9.5c-0.5,1.2-1.3,2.2-2,3.3
		c-0.9,1.5-4.8,1.4-5.5-0.2c-0.3-0.6,0.1-1.6,0.5-2.2c3.4-5.2,6.9-10.4,10.4-15.6c0.5-0.8,1-1.7,1.4-2.6
		C367.3,234.5,368.6,233.6,370.5,234.1z"/>
	<path class="st1" d="M328.9,265c0.4-0.9,0.6-1.6,1.1-2.2c2.6-2.7,4.1-6.1,5.3-9.5c1.6-4.5,3.2-8.9,4.4-13.5c0.9-3.6,1.4-7.4,1.8-11
		c0.2-1.6-0.4-3.2-0.3-4.8c0.1-2.9-0.1-5.8-0.8-8.7c-0.4-1.6-0.1-3.2-0.2-4.8s-0.4-3.1-0.8-4.6c-0.7-3-1.6-5.9-2.3-8.9
		c-0.1-0.6,0.1-1.2-0.1-1.8c-0.3-1.8-0.8-3.6-1.2-5.4c-0.1-0.3,0-0.9,0.2-1.1c0.3-0.2,0.9-0.2,1.2,0c0.4,0.3,0.7,0.9,0.9,1.4
		c0.7,3.5,1.3,6.9,3.2,9.9c0.1,0.1,0.1,0.3,0.2,0.5c1.1,4.7,2.4,9.5,3,14.3c0.5,3.8,0.3,7.7-0.1,11.6c-0.5,5.2-1.4,10.4-2.2,15.6
		c0,0.1,0,0.1,0,0.1c-2.5,7-4.5,14.3-9.1,20.4C332.2,263.8,331.2,265.2,328.9,265z"/>
	<path class="st1" d="M318.2,329.2c1.4-0.3,2.7-0.6,4.1-0.9c0.3-0.1,0.7-0.2,0.9-0.2s0.7,0.1,0.8,0.3c0.1,0.2-0.1,0.6-0.3,0.8
		c-0.3,0.3-0.6,0.6-0.9,0.7c-3.9,1.6-7.8,2.8-12,1.5c-0.5-0.1-1.3-0.2-1.8,0c-3.3,1.3-6.6,1.2-10,0.1c-2.4-0.8-3.7-2.8-4.6-4.9
		c-0.6-1.6-1.1-3.2-1.4-4.9c-0.5-3.4,0.8-6,3.2-8.4c4.1-4.1,10.6-3,14.3,0.2c1.6,1.4,2.6,3.4,3.1,5.3c0.6,2.5,0.9,5.1-0.4,7.6
		c-0.3,0.6-0.1,1,0.4,1.4C315,329,316.5,329.1,318.2,329.2z M296.4,320.7c0.3,2.4,1.1,5.3,4.1,7.5c2.1,1.6,4.8,2,6.8,0.7
		c2.2-1.3,3.7-4.8,3.1-7c-0.9-3.5-3.2-6-6.4-7.6c-1.4-0.7-3-0.6-4.3,0.3C297.6,316,296.6,318.1,296.4,320.7z"/>
	<path class="st1" d="M234.9,140.4c0.9-0.1,1.7-0.3,2.6-0.4c2.6-0.5,5.3-1.2,8-1.6c0.3-0.1,0.7,0.3,1.1,0.4c-0.3,0.4-0.5,1-0.8,1.2
		c-1.8,0.7-3.7,1.1-5.5,1.8c-2.8,1-5.6,2.2-8.5,3.2c-0.9,0.3-1.8,0.5-2.7,0.9c-1.2,0.4-2.3,0.9-3.4,1.4c-0.8,0.4-1.6,0.8-2.4,1.3
		c-1.8,1.1-3.7,2.2-5.5,3.2c-0.3,0.1-0.5,0.3-0.7,0.4c-2.6,0.9-4.3,3-6.2,4.7c-0.1,0.1-0.1,0.3-0.2,0.3c-2.9,1.4-4.8,3.9-6.9,6.2
		c-2.8,3.1-5.7,6.2-8.5,9.3c-0.9,1.1-1.7,2.4-2.6,3.5c-1.2,1.4-2.5,2.7-3.9,4c-0.2,0.2-0.8,0.1-1.1,0c-0.2-0.1-0.3-0.7-0.1-0.9
		c0.5-0.9,1-1.8,1.6-2.6c1.4-2.4,2.8-4.9,4.4-7.2c1.8-2.4,3.8-4.7,5.8-6.9c1.2-1.4,2.5-2.8,3.9-4c2.1-1.9,4.1-4.1,6.4-5.3
		c4.3-2.1,7.7-5.3,11.7-7.6c3.2-1.8,6.3-3.7,9.9-4.7c1.2-0.3,2.4-0.4,3.7-0.6C234.9,140.1,234.9,140.3,234.9,140.4z"/>
	<path class="st1" d="M173.2,283c-1.4-0.3-1.8,0.7-2.2,1.8c-0.9,2.6-2.6,4.3-5.4,4.6c-2.2,0.3-4.1-0.9-5.4-2.5
		c-1.9-2.3-3.5-4.8-5.2-7.2c-0.1-0.2-0.3-0.5-0.4-0.7c-0.1-0.3-0.1-0.7,0.1-0.9c0.1-0.1,0.7-0.1,0.9,0.1c0.8,0.9,1.6,0.5,2.4,0
		c2.9-2,5.8-4.1,8.8-6.2c1.2-0.9,2.6-1.6,3.9-2.4c0.7-0.5,1.4-1,1.2-2.1c-0.1-0.3,0.3-0.7,0.5-0.8c0.1-0.1,0.7,0.1,0.8,0.3
		c0.9,1.2,1.8,2.4,2.6,3.7c0.8,1.3,1.6,2.6,2.4,3.9c1.6,2.1,1.1,4.1-0.1,6.1c-1.1,1.8-2.8,2.3-4.7,2.4
		C173.4,283,173.4,283,173.2,283z M164.1,286c2-0.3,4.3-2,3.9-3.6c-0.3-1.6-1.3-3-2-4.5c-0.1-0.1-0.6-0.2-0.8-0.1
		c-1.4,0.9-2.8,1.8-4.1,2.6c-0.9,0.6-1.3,1.4-0.4,2.3c0.6,0.6,0.9,1.5,1.6,2C162.7,285.3,163.5,285.6,164.1,286z M176.1,276.5
		c-0.6-1.2-1.1-2.3-1.8-3.4c-0.4-0.6-1-0.6-1.6-0.1c-1.2,0.9-2.3,1.7-3.4,2.6c-0.3,0.2-0.5,0.9-0.3,1.2c0.7,0.9,1.4,2,2.2,2.5
		C173.1,280.3,175.9,278.6,176.1,276.5z"/>
	<path class="st1" d="M240.1,317.5c2.8,0.5,5.8,0.9,8.6,1.7c3.7,0.9,4.7,6,2.4,8.8c-1.3,1.6-1.2,1.5-0.3,3.4c1.6,3.4,1.3,8.2-4,9.1
		c-1.5,0.3-3,0.1-4.5,0c-2.1-0.1-4.2-0.5-6.3-0.8c-0.4-0.1-0.8-0.5-1.2-0.9c0.3-0.2,0.7-0.3,1.1-0.6c0.4-0.3,0.7-0.7,1.1-1
		c0.1-0.1,0.1-0.3,0.1-0.5c0.7-5.3,1.4-10.7,2-16c0.1-0.5-0.3-0.9-0.5-1.4c-0.2-0.4-0.4-0.8-0.6-1.2c0.4-0.1,0.8-0.3,1.2-0.3
		c0.3-0.1,0.7,0,1,0C240.1,317.6,240.1,317.6,240.1,317.5z M244.1,337.8c2.1,0.1,3.5-1.2,3.7-3c0.2-2.1-0.7-3.3-2.6-3.7
		c-0.7-0.1-1.4-0.5-2-0.5c-0.5-0.1-1.4,0.2-1.4,0.4c-0.4,1.9-0.7,3.8-0.9,5.7c0,0.3,0.3,0.7,0.6,0.8
		C242.2,337.6,243.3,337.6,244.1,337.8z M245,327.5c2,0.1,2.4-0.2,3.4-2.2c0.7-1.6,0.3-2.9-1.2-3.6c-0.9-0.4-2-0.6-3-0.7
		c-0.7-0.1-1.2,0.2-1.2,1c-0.1,1-0.2,2-0.3,3C242.4,327.4,242.4,327.4,245,327.5z"/>
	<path class="st1" d="M214.8,330.1c0.2-3-0.7-5.8-2-8.6c-0.2-0.4-0.7-0.7-1.2-0.8c-0.1-0.1-0.5,0.5-0.7,0.8
		c-0.9,1.8-1.8,3.5-2.5,5.2c-0.2,0.5-0.1,1.2-0.1,1.8c0,0.3,0.1,0.8-0.1,1c-0.2,0.2-0.7,0.2-1,0.1c-1.6-0.6-3.1-1.3-4.7-2
		c-0.2-0.1-0.5-0.7-0.4-0.8c0.1-0.3,0.6-0.7,0.9-0.6c1.2,0.3,1.6-0.3,2-1.3c1.2-2.6,2.4-5,3.7-7.5c1.1-2.2,2.1-4.5,3-6.9
		c0.2-0.5-0.1-1.1-0.2-1.7c-0.1-0.3-0.3-0.7-0.1-0.9c0.2-0.2,0.7-0.4,0.9-0.3c1.4,0.5,2.7,1.1,4.1,1.7c1.1,0.5,2.1,1,3.1,1.5
		c3,1.2,4.5,3.5,4.1,6.6c-0.2,1.9-2.4,4.1-4.7,4.6c-1.1,0.2-1.5,0.3-1.2,1.8c0.5,2.1,0.5,4.3,0.5,6.5c0.1,1.3,0.2,2.5,1.2,3.5
		c0.3,0.3,0.2,0.8,0.3,1.2c-0.4,0.1-0.8,0.3-1.2,0.1c-1.2-0.5-2.3-1.1-3.4-1.8c-0.3-0.1-0.4-0.7-0.5-1.1
		C214.7,331.6,214.8,330.9,214.8,330.1z M216.7,319.1c1.9,0.1,3.7-2.4,3-4.1c-0.7-1.9-2.6-2-4-2.8c-0.1-0.1-0.7,0.3-0.9,0.7
		c-0.4,0.9-0.9,1.8-1.1,2.7c-0.1,0.8-1.5,1.5-0.4,2.4c0.7,0.5,1.7,0.7,2.6,1.1C216.1,319.1,216.4,319.1,216.7,319.1z"/>
	<path class="st1" d="M173.2,303.7c2.2,0.1,3.9-0.9,5.6-1.8c4.1-2,8.1-4.1,12.1-6.1c0.9-0.4,1.6-1,2.5-1.4c0.5-0.1,1.5-0.1,1.7,0.3
		c0.5,0.7,1.7,1.1,0.9,2.6c-1.2,2.2-1.8,4.6-2.8,6.8c-1.3,3-2.6,6.2-3.9,9.2c-0.5,1.2-0.9,2.3-0.3,3.6c0.1,0.3,0.1,0.7,0.1,0.9
		c-0.1,0.4-0.2,0.7-0.3,1.2c-0.3-0.1-0.8-0.1-1.1-0.4c-1.6-1.4-3-2.7-4.5-4.1c-0.5-0.5-0.3-1.4,0.5-1.4c2.1-0.3,1.8-2.2,2.5-3.4
		c0.6-1.1-0.1-1.9-1-2.6c-1-0.7-2-1.6-3-2.4c-0.7-0.6-1.3-0.7-2-0.3c-0.8,0.4-1.6,0.8-2.4,1.4c-0.4,0.3-0.5,0.9-0.9,1.3
		c-0.2,0.3-0.7,0.6-0.9,0.5c-1.2-0.8-2.3-1.7-3.4-2.6c-0.2-0.1-0.3-0.6-0.2-0.9C172.6,303.9,173,303.8,173.2,303.7z M184.7,302.1
		c0.8,0.7,1.4,1.2,2,1.6c0.7,0.7,1.4,0.5,1.8-0.2c0.7-1.4,1.2-2.8,1.8-4.2c-0.1-0.1-0.2-0.1-0.3-0.2
		C188.2,300.2,186.6,301.1,184.7,302.1z"/>
	<path class="st1" d="M332.8,315.3c-2.7-0.6-4.7-1.2-6.2-3c-1.7-2.2-3.4-4.3-5.1-6.4c-0.7-0.9-1.6-1.8-2.4-2.6
		c-0.2-0.2-0.7-0.1-1.1-0.2s-0.8-0.1-1.2-0.1c0.1-0.4,0.1-1,0.3-1.3c0.7-0.8,1.7-1.5,2.5-2.2c0.5-0.5,1-0.9,1.6-1.4
		c0.3-0.2,0.7-0.3,1-0.5c0.1,0.4,0.5,0.9,0.4,1.2c-0.4,0.9-0.1,1.6,0.5,2.2c2.2,2.8,4.5,5.7,6.8,8.5c0.6,0.7,1.4,1.4,2.3,1.7
		c2.6,0.7,5.4-1.2,5.9-3.8c0.3-1.5-0.5-2.6-1.3-3.7c-2.2-2.6-4.5-5.3-6.7-7.9c-0.7-0.7-1.2-1.8-2.5-1c-0.1,0.1-0.6-0.2-0.7-0.5
		c-0.1-0.2,0-0.7,0.2-0.8c1.1-0.9,2.2-1.9,3.3-2.8c0.3-0.2,0.8-0.3,1-0.2c0.3,0.2,0.3,0.7,0.4,1c0.3,0.7,0.3,1.6,0.7,2.1
		c2.4,3.1,4.9,6.1,7.2,9.2c0.8,1.1,1.5,2.5,1.5,3.9c0.1,2.9-1.4,5.3-3.9,6.8C336,314.4,334.1,314.8,332.8,315.3z"/>
	<path class="st1" d="M383.2,274.4c0-1.7,0-3,0-4.3c0-0.4,0.1-0.9,0.3-1.2c3-4.3,4.2-9.1,5.1-14.1c1.2-6.1,2.6-12.2,3.9-18.3
		c0.2-0.9,0.2-1.8,0.1-2.7c-0.1-2.1,0-4.1,0.6-6.1c0.3-1.2,0.1-2.6,0.1-3.9c-0.1-5.8-0.2-11.5-0.2-17.3c0-1.6,0.1-3,0.1-4.5
		c0-0.1,0.1-0.3,0.3-0.7c0.5,2,1.3,3.6,1.3,5.6c-0.1,6.4,0.1,12.9,0.3,19.4c0.1,4.4,0.1,8.8-1.4,13.1c-0.4,1.2-0.3,2.5-0.1,3.7
		c0.7,3.9,0.5,7.6-0.5,11.4c-0.9,3.2-2,6.4-3.2,9.6c-0.5,1.4-1.6,2.5-2.4,3.8C386.2,269.9,384.7,272,383.2,274.4z"/>
	<path class="st1" d="M357.2,127.8c3.9,1.9,7.2,4.4,9.7,7.7c2.9,3.7,5.4,7.4,7,11.8c0.7,2.1,2.1,4,3.2,6c3.1,5.2,6.3,10.4,9.3,15.6
		c0.5,0.9,0.9,2.1,1.2,3.2c1.2,6.8,2.6,13.7,4.6,20.4c0.5,1.9,1.7,3.7,1.2,5.8c-0.1,0.2-0.1,0.3-0.3,0.9c-0.3-0.6-0.5-0.9-0.6-1.3
		c-2.2-6.6-4.5-13.2-6.5-19.9c-0.8-2.6-1-5.4-1.7-8.1c-1.4-5.2-3.6-10.1-7.4-14c-3.3-3.3-5.1-7.5-7.8-11.2
		c-2.7-3.7-5.6-7.2-8.3-10.9C359.4,132,358.4,129.9,357.2,127.8z"/>
	<path class="st1" d="M354.8,293.2c-0.4-0.5-0.7-1.2-1.3-1.6c-1.4-0.9-2.8-1.8-4.1-2.7c-2.6-1.6-5.1-3.1-7.7-4.7
		c-0.3-0.2-0.6-0.6-0.9-0.8c-0.8-0.6-1.6-1.2-2.7-0.5c-0.3,0.1-0.7,0.1-1,0.1c0.1-0.3,0-0.7,0.1-0.9c2.3-3.5,4.6-7,6.9-10.6
		c0.5-0.9,1.2-0.9,2-0.5c0.6,0.3,1.2,0.7,1.7,1.2c0.2,0.1,0.3,0.6,0.2,0.9c-0.1,0.2-0.5,0.5-0.7,0.4c-1-0.2-1.5,0.3-1.9,1
		c-0.8,1.4-1.6,2.6-2.4,4c-0.5,0.8-0.4,1.4,0.5,2c1.1,0.7,2.1,1.4,3.2,2c0.3,0.1,1,0.1,1.2-0.2c0.9-0.9,1.6-2,2.4-3
		c0.5-0.8,1.3-1.6,0.6-2.8c-0.1-0.2,0.1-0.7,0.3-0.9c0.2-0.1,0.7-0.1,0.9,0c1.2,0.7,2.2,1.6,3.3,2.4c0.2,0.2,0.2,0.7,0.2,1.2
		c0,0.1-0.5,0.1-0.8,0.3c-0.5,0.2-1.1,0.3-1.4,0.6c-1,1.3-2,2.6-2.9,4c-0.2,0.3,0,1.1,0.2,1.2c1.6,1.1,3.4,2.1,5.1,3
		c0.2,0.1,0.7,0,0.8-0.2c1.2-1.8,2.4-3.7,3.4-5.5c0.3-0.5-0.1-1.4-0.1-2.1c0-0.5,0.1-0.9,0.2-1.4c0.4,0.1,0.7,0.3,1.2,0.5
		s0.7,0.5,1.1,0.8c1.6,1.8,1.5,1.9,0.1,3.9c-1.8,2.8-3.5,5.5-5.3,8.3c-0.3,0.5-0.6,1-0.9,1.4c-0.3,0.3-0.7,0.4-1,0.5
		c-0.1-0.3-0.3-0.7-0.5-1C354.6,293.3,354.7,293.3,354.8,293.2z"/>
	<path class="st1" d="M279.8,329.5c0,0.3,0.1,0.7,0,1.1s-0.3,0.8-0.5,1c-0.1,0.1-0.6-0.2-0.9-0.3c-0.7-0.2-1.3-0.5-2-0.5
		c-1.3,0-2.6,0.1-3.9,0.3c-0.9,0.1-1.3,0.5-1.2,1.4c0.2,1.8,0.3,3.5,0.7,5.3c0.1,0.3,0.8,0.9,1.2,0.8c2-0.3,4-0.5,6-1.1
		c0.6-0.1,1-0.9,1.6-1.4c0.3-0.3,0.8-0.5,1.2-0.7c0.2,0.4,0.4,0.8,0.5,1.2c0.1,0.3,0,0.5-0.1,0.9c-0.4,2.8-0.5,2.8-3.3,3
		c-3.3,0.3-6.6,0.8-9.8,1.2c-0.1,0-0.3,0.1-0.5,0.1c-0.6-0.1-1.2-0.2-1.9-0.3c0.3-0.4,0.7-0.8,0.9-1.3c0.2-0.5,0.5-1,0.4-1.5
		c-0.1-1.8-0.5-3.7-0.7-5.5c-0.3-3-0.7-6.1-1-9.1c-0.1-1.2-0.1-2.5-1.6-3c-0.1-0.1-0.3-0.4-0.3-0.6s0.3-0.4,0.5-0.5
		c1.4-0.3,2.8-0.5,4.1-0.7c1.9-0.2,3.8-0.3,5.7-0.5c0.9-0.1,1.7-0.3,2.6-0.2c0.6,0,1.6,0.1,1.7,0.5c0.3,0.9,0.5,2.1,0.3,3.1
		c-0.1,0.7-0.7,0.3-1.3,0.1c-0.6-0.3-1.4-0.7-2-0.7c-1.6,0.1-3.1,0.3-4.7,0.5c-0.9,0.1-1.3,0.7-1.2,1.6c0.2,1.2,0.2,2.4,0.4,3.5
		c0.1,0.4,0.5,1,0.9,1c1.7,0,3.4-0.1,5-0.3c0.5-0.1,0.9-0.5,1.4-0.9c0.3-0.2,0.7-0.5,1.1-0.5c0.2,0,0.5,0.6,0.5,0.9
		C279.7,328,279.7,328.8,279.8,329.5L279.8,329.5z"/>
	<path class="st1" d="M266.8,304.6c-4.2-0.5-7.2-2.6-7.1-6.5c0.1-5,2.2-7.2,6.6-7.4c3.6-0.1,6.9,2.5,6.7,7.6
		C272.9,301.5,270.3,304.4,266.8,304.6z M270.4,298.7c0.1-1.7-0.7-4-1.6-5.1c-0.7-0.9-1.8-1.3-3-1c-2,0.5-3.1,1.7-3.5,4
		c-0.3,2,0.7,4.5,2.2,5.4c1.1,0.7,2.2,0.9,3.2,0.1C269.2,301.3,270.7,300.4,270.4,298.7z"/>
	<path class="st1" d="M250.6,297.8c0,3.9,3,5.9,6.5,4.4c0.3-0.1,0.6-0.3,0.9-0.3c0.3-0.1,0.7,0,1.2,0c-0.1,0.5,0,1-0.3,1.4
		c-0.3,0.3-0.7,0.6-1.2,0.8c-2.3,0.9-4.6,0.7-6.7-0.3c-0.8-0.4-1.5-1.3-2-2c-1.5-2.2-1.3-6.2,0.3-8.4c1.7-2.3,4.5-3.2,7.6-2.6
		c0.3,0.1,0.7,0.1,0.9,0.2c0.5,0.1,1.4,0.1,1.4,0.1c0.1,1.1,0.1,2.2,0.1,3.2c-0.3,0-0.9,0.1-1,0c-1.4-1.8-3.3-2.1-5.2-1.3
		C251,293.9,250.6,295.8,250.6,297.8z"/>
	<path class="st1" d="M252.7,307.1c5.2,0,10.2,0,15.2,0c0.1,0.1,0.2,0.2,0.3,0.3c-0.3,0.1-0.6,0.3-0.9,0.5c-2,1.4-4,2.6-6,4
		c-0.7,0.5-1.3,0.5-2,0.1c-2-1.4-4.1-2.8-6.2-4.1C253.1,307.7,253,307.5,252.7,307.1z"/>
	<path class="st1" d="M377.8,147.9c0.5-1.1,0.9-2.2,1.6-3.2c0.9-1.4,2.4-2.2,4.1-2.5c1.8-0.3,3.2,1.5,2.8,3.3
		c-0.5,1.8-1.9,2.6-3.5,3.2C381.1,149.2,379.3,149.6,377.8,147.9z"/>
	<path class="st1" d="M230.5,364.4c0.1-2,0.9-3.7,2-5.2c0.8-1.1,2-0.9,2.8,0.3c1.4,2,1.4,4.1,0.5,6.3c-0.3,0.9-2.4,1.8-3.4,1.6
		C231.5,367.2,230.5,365.7,230.5,364.4z"/>
	<path class="st1" d="M226,365.9c-1.8,0-3-1.5-3-3.2c0.1-1.9,1-3.5,2.1-4.9c0.9-1.2,2.1-0.9,3,0.3c1.4,2,1.2,4,0.4,6
		C228,365.4,227,365.9,226,365.9z"/>
	<path class="st1" d="M119.7,252.4c1,0.4,2.3,0.8,3.5,1.4c0.3,0.1,0.4,0.8,0.3,1.2c-0.7,2.2-4.2,4.3-6.4,3.9
		c-0.9-0.1-2.3-1.6-2.4-2.6c-0.1-0.9,0.9-2.5,2.1-3C117.6,252.9,118.5,252.7,119.7,252.4z"/>
	<path class="st1" d="M193.4,96.6c0.1,2.1-1,2.8-2.5,2.3c-1.8-0.7-3.2-1.6-3.9-3.5c-0.5-1.6-0.4-2.9,0.8-4.1
		c0.3-0.3,0.6-0.5,0.9-0.5c1.4-0.1,3.7,1.5,4.1,2.9C193.1,94.8,193.3,96,193.4,96.6z"/>
	<path class="st1" d="M297.9,358.1c0.3-0.9,0.7-1.9,1.2-2.8c0.1-0.3,0.9-0.4,1.2-0.3c2.4,0.9,4.1,3.5,4.1,6c0,0.9-1.4,2.6-2.4,2.8
		c-1,0.2-2.7-0.7-3.2-2C298.3,360.7,298.2,359.6,297.9,358.1z"/>
	<path class="st1" d="M168,337c0.3-0.7,0.5-1.5,1-2.1c1.2-1.6,2.6-2.6,4.6-3.1c0.7-0.1,1.1,0,1.2,0.7c0.6,2.4,0.2,4.5-1.7,6.4
		c-1.2,1.2-2.2,1.2-3.6,0.7c-1.3-0.4-1.4-1.4-1.3-2.5C168.3,337.1,168.2,337.1,168,337z"/>
	<path class="st1" d="M117.7,198.7c-1.1-0.3-2.2-0.4-3.2-0.8c-1.2-0.5-1.6-1.8-1.5-2.9c0.1-0.6,0.8-1.4,1.4-1.8
		c1.6-1.3,3.3-0.5,4.9,0.3c1.2,0.5,2.7,1.1,2.6,2.6c-0.1,1.6-1.8,1.6-2.8,2.3C118.7,198.5,118.2,198.6,117.7,198.7z"/>
	<path class="st1" d="M115.3,236.3c-2.5-0.1-3.8-1-4.3-2.6c-0.3-1,1-3,2.4-3c1.6-0.1,3.2,0.1,4.7,0.4c0.7,0.1,1.2,0.8,1.8,1.3
		c0.1,0.1,0.1,0.7-0.1,0.9C118.6,235.1,117,236.4,115.3,236.3z"/>
	<path class="st1" d="M218.2,363.9c-1.5,0-2.7-1.4-2.5-3.2c0.2-2,1.2-3.6,2.6-4.9c1.2-1.1,2.2-0.7,2.9,0.7c0.9,1.8,0.9,3.5,0.3,5.2
		C220.8,363.2,219.8,363.8,218.2,363.9z"/>
	<path class="st1" d="M200.1,93c-0.2,0.9-0.3,1.4-0.5,2c-0.4,0.9-1,1.2-2,0.7c-1.7-0.7-3.1-1.8-3.9-3.6c-0.5-1.3-0.5-2.5,0.2-3.7
		c1-1.6,3.9-1.4,4.8,0.7C199.4,90.4,199.7,91.8,200.1,93z"/>
	<path class="st1" d="M136.8,288.6c0,2.4-3.1,5.5-5.3,5.5c-1.2,0-2.4-0.8-2.8-1.8c-0.3-0.9,0.2-2.8,1-3.4c1.6-1.2,3.5-1.6,5.3-1.8
		C135.9,287.3,136.6,287.8,136.8,288.6z"/>
	<path class="st1" d="M300.9,78.9c0.9-0.1,1.6,0.5,1.9,1.4c1.2,2.5-0.8,6.6-3.5,7.4c-0.6,0.2-0.9,0.1-1.3-0.5
		c-1-1.9-1.5-3.8-0.6-5.9C298.2,79.7,299.2,79,300.9,78.9z"/>
	<path class="st1" d="M196.8,355.9c-1.8-0.1-3-2.1-2.4-3.9c0.5-1.8,1.8-3.2,3.2-4.3c1.3-0.9,2.1-0.5,2.7,0.9c1,2.4,0.3,4.5-1.4,6.4
		C198.5,355.6,197.5,355.6,196.8,355.9z"/>
	<path class="st1" d="M377.8,131.4c-0.1,2.2-0.7,3.6-2.5,4.3c-1,0.4-2,0.9-3,1.2c-1.3,0.4-2.4-0.5-2.3-1.9c0.1-1.9,0.9-3.4,2.6-4.5
		c1.6-1.1,3-1,4.5-0.1C377.6,130.7,377.8,131.3,377.8,131.4z"/>
	<path class="st1" d="M259.1,364.5c-0.1,0.9-0.1,1.6-0.1,2.2c-0.1,1.8-1.2,2.8-2.8,3c-1,0.1-2.7-1.2-2.8-2.4
		c-0.1-1.8-0.1-3.7,1.1-5.3c1.1-1.6,2.3-1.6,3.3,0c0.5,0.7,0.9,1.5,1.4,2.2C259.1,364.4,259.1,364.6,259.1,364.5z"/>
	<path class="st1" d="M294.7,297.9c-0.8,0.4-1.4,0.8-2,1c-2.6,0.9-5.1,2-7.8,2.8c-1,0.3-2.2,0.5-3.2,0.7c-0.5,0.1-1.4-0.1-1.6-0.4
		c-0.4-0.8-0.3-1.8,0.6-2.3c0.5-0.3,1.1-0.4,1.6-0.5c1.1-0.3,2.2-0.5,3.2-1.1C288.4,296.6,291.4,296.4,294.7,297.9z"/>
	<path class="st1" d="M404.8,206.5c0.7,0.4,1.8,0.6,2.3,1.3c1.7,2.4,0.8,3.7-1.8,4.6c-1.8,0.7-3.7,0.1-5.3-0.7
		c-1.4-0.7-1.4-2-0.1-3.1c1.4-1.2,2.9-2,4.8-1.7C404.7,206.7,404.8,206.6,404.8,206.5z"/>
	<path class="st1" d="M139.2,307.1c-0.9-0.1-1.9-0.5-2.4-1.6c-0.5-1,0.2-3.3,1.3-3.9c1.5-0.7,3-1.3,4.6-1.7c1.1-0.3,1.8,0.6,1.8,1.8
		C144.3,304.9,141.5,306.9,139.2,307.1z"/>
	<path class="st1" d="M146.9,305.9c1.9,0.1,2.2,0.5,2,2.2c-0.3,2.1-1.4,3.5-3.2,4.6c-1.4,0.8-3,0.7-4.1-0.4c-0.7-0.7-0.7-3,0.2-3.8
		C143.3,307,145.1,306.3,146.9,305.9z"/>
	<path class="st1" d="M169.5,103.5c1.7,0,3.9,1.2,4.4,3.2c0.3,1.2,1.3,2.3,0.5,3.6c-0.2,0.3-0.6,0.7-0.9,0.8c-2.3,0.3-5.5-1.9-6-4.1
		C167.1,105.4,168.2,103.5,169.5,103.5z"/>
	<path class="st1" d="M392.6,273.1c2,0,4.1,1.3,4.5,2.6c0.7,2.4-0.7,4.1-3.2,3.7c-2.1-0.3-3.7-1.5-4.9-3.3c-0.8-1.3-0.4-2.1,0.9-2.5
		c0.6-0.2,1.3-0.3,2-0.4C392.2,273.2,392.4,273.2,392.6,273.1z"/>
	<path class="st1" d="M238.1,364.7c0-1.4,0.8-2.9,1.8-4.3c0.7-1,1.8-0.9,2.6,0c1.7,2,2,4.3,0.9,6.4c-0.4,0.9-1.8,1.8-2.8,2
		C239.3,369,238,366.8,238.1,364.7z"/>
	<path class="st1" d="M384.7,155.6c-2.2,0-2.8-1-2.3-2.6c0.7-2,2-3.4,4.1-3.9c0.5-0.1,1.1-0.2,1.6-0.1c1.4,0.3,2.4,1.2,2.4,2.2
		c0.1,1.2-1.1,3.2-2.2,3.6C386.8,155.1,385.5,155.3,384.7,155.6z"/>
	<path class="st1" d="M325.6,352.5c0,1-1,2.6-1.9,2.8c-0.9,0.3-2.7-0.3-3.3-1.2c-1.2-1.7-1.6-3.7-1.3-5.7c0.2-1.4,0.8-1.6,2.1-1.3
		C323.6,347.9,325.5,350.3,325.6,352.5z"/>
	<path class="st1" d="M316.1,358.6c-1.6,0-3.4-1.6-3.7-3.7c-0.2-1.4-0.8-2.9,0.3-4.3c0.5-0.6,0.9-0.7,1.6-0.5
		c2.2,0.8,3.5,2.4,4.3,4.5C319.2,356.3,317.7,358.6,316.1,358.6z"/>
	<path class="st1" d="M394.1,175.8c-0.3,0.1-0.7,0.1-0.9,0.1c-1.6,0-2.4-1.4-1.7-2.7c1.1-2.2,2.8-3.3,5.2-3.7c0.9-0.1,2.6,0.9,3,2
		s-0.5,3-1.8,3.5c-1.2,0.5-2.5,0.7-3.8,1C394.1,175.9,394.1,175.9,394.1,175.8z"/>
	<path class="st1" d="M378.5,309.6c-0.3,2.2-2,3.3-4.1,2.6c-1.6-0.5-4-3.6-4.1-5.3c-0.1-0.8,0.2-1.3,1.1-1.4
		c2.3-0.3,4.4-0.1,5.9,1.8C377.8,308.1,378.1,308.9,378.5,309.6z"/>
	<path class="st1" d="M268.3,365.2c0.3-1,0.4-2.2,0.8-3.4c0.5-1.3,1.8-1.6,2.8-0.9c2.2,1.6,2.7,4.3,2,6.6c-0.3,1-1.9,2.2-2.6,1.9
		c-1-0.5-1.9-1.5-2.6-2.4C268.4,366.7,268.4,366,268.3,365.2z"/>
	<path class="st1" d="M124.9,267.1c0.3,0,0.7-0.1,1.1,0c1.8,0.2,2.3,1.4,1.4,2.8c-1.1,1.8-2.4,2.9-4.5,3.2c-1.5,0.3-3.2-0.6-3.6-1.9
		c-0.3-1,0.5-3,1.8-3.5c1.2-0.5,2.5-0.7,3.8-0.9C124.8,266.9,124.8,267,124.9,267.1z"/>
	<path class="st1" d="M267.3,77.6c0.2-0.8,0.3-1.7,0.6-2.5c0.5-1.1,2.2-1.9,3.2-1.6c1.2,0.3,2.5,2.5,2.2,3.9s-0.8,2.8-1.5,4.1
		c-0.8,1.5-2.2,1.6-3.1,0.1C268.1,80.3,267,79.2,267.3,77.6z"/>
	<path class="st1" d="M250.6,77.6c-0.3,1.2-0.5,2.4-0.9,3.6c-0.5,1.4-1.6,1.7-2.8,0.7c-1.6-1.4-2.6-3-2.3-5.1
		c0.2-1.8,1.6-3.2,2.9-3.2s2.7,1.6,2.9,3.4C250.5,77.2,250.5,77.4,250.6,77.6L250.6,77.6z"/>
	<path class="st1" d="M404.4,214c0.9,0.3,1.9,0.5,2.6,0.9c0.9,0.7,1.5,1.6,1.2,2.9c-0.3,1.2-1.4,1.8-2.5,2c-1.8,0.4-3.6,0.1-5.3-0.8
		c-1.4-0.7-1.4-1.8-0.3-3c1.2-1.2,2.5-2,4.3-1.7C404.4,214.2,404.4,214.2,404.4,214z"/>
	<path class="st1" d="M290.7,360.5c0.3-0.9,0.5-2,0.9-3c0.1-0.3,0.9-0.6,1.3-0.5c2.3,0.6,4.3,4.1,3.9,6.3c-0.3,2-2.8,2.8-4.5,1.7
		C290.8,363.9,291.1,362.3,290.7,360.5z"/>
	<path class="st1" d="M289.7,82.1c0.4-1.9,0.3-3.7,2.1-4.7c2-1,3.2-0.5,3.9,1.6c0.7,1.9-1,5.8-2.8,6.6c-0.8,0.4-1.5,0.3-1.8-0.5
		C290.5,84.1,290.1,83,289.7,82.1z"/>
	<path class="st1" d="M119.5,191.4c-1.2-0.3-2.3-0.5-3.2-0.9c-1.3-0.5-2-2.2-1.7-3.5c0.2-0.9,2.1-2,3.2-2c2,0.2,3.5,1.2,4.9,2.4
		c1.2,1,1,2-0.4,2.7C121.4,190.7,120.4,191,119.5,191.4z"/>
	<path class="st1" d="M252.3,76.7c0.1-0.9-0.1-2.2,1.3-3c2-1.1,4.1-0.3,4.3,2c0.1,1.6-0.1,3.4-0.6,4.9s-1.8,2.3-3.2,0.5
		C252.3,78.8,252.2,78.9,252.3,76.7z"/>
	<path class="st1" d="M130.2,280.7c3-0.1,3.5,0.9,2.8,3c-0.7,2-2.4,2.8-4.1,3.6c-1.2,0.5-3.2-0.5-3.7-1.6c-0.5-0.9,0.2-3,1.4-3.6
		C127.9,281.4,129.5,280.9,130.2,280.7z"/>
	<path class="st1" d="M114.4,221.3c-0.9-0.3-1.8-0.5-2.6-0.9c-0.9-0.7-1.5-1.8-1.1-2.9c0.5-1.3,1.6-2.1,2.8-2
		c1.8,0.1,3.5,0.5,5.1,1.1c1.1,0.3,1.2,2,0.3,2.8C117.5,220.5,116.3,221.5,114.4,221.3C114.4,221.1,114.4,221.2,114.4,221.3z"/>
	<path class="st1" d="M158.6,113.3c1.6-0.1,2.5,1.1,3.2,2c0.7,1,1.2,2.3,1.6,3.6c0.3,1.4-0.3,1.9-1.7,1.9c-2,0-3.7-0.7-4.9-2.3
		c-0.9-1.2-1.2-3.2-0.2-4.3C157,113.6,157.9,113.6,158.6,113.3z"/>
	<path class="st1" d="M404.4,255.4c0,1.2-1.8,2.7-3.5,2.2s-3.3-1.3-4.7-2.2c-1.2-0.7-0.9-1.9,0.2-2.7c2.1-1.4,4.3-1.4,6.4-0.3
		C404,252.9,404.3,254,404.4,255.4z"/>
	<path class="st1" d="M311.5,358.8c0,0.7-1.1,2.2-2.1,2.5c-1.2,0.3-3-0.6-3.4-2c-0.5-1.6-0.7-3.3-0.7-4.9s1.6-2,2.9-1.3
		C310.2,354.4,311.3,356,311.5,358.8z"/>
	<path class="st1" d="M308.2,81.3c1.3,0,2.7,2,2.4,3.6c-0.4,1.8-1.4,3.3-2.8,4.5c-1.3,1-2.3,0.6-2.9-0.9c-0.7-1.7-0.7-3.3,0.1-5
		C305.6,82,306.5,81.4,308.2,81.3z"/>
	<path class="st1" d="M403.5,229.1c1.2,0.4,2.4,0.5,3,1.1c0.7,0.7,1.4,2,1.2,2.7c-0.3,0.9-1.4,2-2.4,2.2c-2.1,0.5-4.2-0.2-5.8-1.6
		c-1.2-1-1-2,0.3-2.8C401,229.9,402.4,229.6,403.5,229.1z"/>
	<path class="st1" d="M325.5,346c0-1.8,0.9-2.4,2.4-2c2.6,0.7,3.9,2.5,4.3,4.9c0.1,0.8-0.5,2-1.2,2.6c-0.3,0.4-1.4,0.4-2,0.3
		c-1.8-0.3-2.8-1.5-3.2-3.3C325.8,347.5,325.7,346.6,325.5,346z"/>
	<path class="st1" d="M115.1,213.7c-0.9-0.3-2.1-0.4-2.8-0.9c-0.9-0.7-1.6-1.8-1.2-3c0.5-1.3,1.8-2.2,3.1-2c1.6,0.1,3.2,0.6,4.7,1.2
		c1.1,0.4,1.4,2.2,0.5,2.9C118.2,212.7,116.9,213.8,115.1,213.7z"/>
	<path class="st1" d="M128.2,152.3c-0.1-2.4,1.6-2.8,4-2.4c1.8,0.3,3,1.8,4,3.3c0.7,1.2,0.1,2.4-1.2,2.7c-1.8,0.5-3.4,0.3-5-0.7
		C128.8,154.6,128.2,153.6,128.2,152.3z"/>
	<path class="st1" d="M281.1,77.9c-0.7,1.5-1.2,3-2,4.4c-0.9,1.4-2.1,1.2-3-0.2c-1.1-1.6-1.6-3.3-0.9-5.3c0.5-1.6,1.9-2.7,3.4-2.6
		c1.2,0.1,2,1.2,2.2,2.9c0,0.2,0,0.4,0,0.6C280.9,77.8,281,77.8,281.1,77.9z"/>
	<path class="st1" d="M389.1,279.7c1.5,0.6,3.2,0.9,4.3,1.9c0.7,0.6,0.8,2.2,0.6,3.2c-0.2,1.3-1.6,1.4-2.7,1.5
		c-1.7,0.2-4.8-2.1-5.3-3.7c-0.4-1.4-0.1-2,1.3-2.4c0.5-0.1,1.2-0.2,1.7-0.3C388.9,279.9,389,279.7,389.1,279.7z"/>
	<path class="st1" d="M282.2,80.3c0.4-1.8,0.2-3.6,2-4.4c0.9-0.4,2-1,2.8-0.1c0.7,0.8,1.5,2.1,1.4,3c-0.2,1.6-0.9,3.2-1.9,4.5
		c-1.2,1.6-2.4,1.5-3.1-0.4C282.9,82,282.6,81.1,282.2,80.3z"/>
	<path class="st1" d="M151.2,321.9c-0.1-2.4,1.8-3.2,3.5-4.1c1-0.6,2.2-1.1,3.2-0.3c1,0.8,0.5,2,0.3,3c-0.4,2.6-3,4.5-5.2,3.9
		C151.4,324.1,151.2,323.7,151.2,321.9z"/>
	<path class="st1" d="M179.1,106.8c-2.4-0.1-4.1-1.4-5.1-3.5c-0.6-1.3-0.2-3.2,0.7-3.9c0.9-0.6,3-0.2,4,0.7c1.4,1.4,1.7,3,2,4.8
		C180.9,105.9,180,106.9,179.1,106.8z"/>
	<path class="st1" d="M351.5,336.4c-0.3,1.3-0.5,2.5-1.7,3c-0.7,0.3-3-0.4-3.5-1.2c-0.8-1.4-1.6-2.8-2.1-4.4c-0.5-1.5,0.5-2.3,2-2.1
		c2.1,0.3,3.7,1.2,4.7,3.2C351.2,335.4,351.4,336,351.5,336.4z"/>
	<path class="st1" d="M379.1,135.8c1.4,0.2,2.6,0.3,3,1.6s0.1,2.7-0.9,3.5c-1.4,0.9-2.9,1.6-4.5,2c-1.8,0.5-2.6-0.7-2.2-2.4
		c0.5-1.6,1.2-3.1,2.8-3.9C378,136.2,378.6,136,379.1,135.8z"/>
	<path class="st1" d="M118.8,172.5c0.2-0.3,0.5-1.1,0.9-1.3c1.2-0.5,2.5-1.2,3.9-0.3c1.1,0.7,2.2,1.3,3.1,2.1c1.4,1.2,1,2.5-0.7,3.2
		c-1.8,0.7-3.5,0.5-5.3-0.2C119.4,175.4,119,174.2,118.8,172.5z"/>
	<path class="st1" d="M391.4,168.8c-0.3,0-0.7,0.1-1.1,0.1c-1.3,0-2-1-1.6-2.2c0.7-2.6,2.7-3.6,5-4.2c1.2-0.3,2.9,0.9,3.3,2
		c0.3,0.9-0.5,2.9-1.7,3.5c-1.2,0.5-2.5,0.8-3.8,1.2C391.4,169,391.4,168.9,391.4,168.8z"/>
	<path class="st1" d="M382.3,293.1c1.6-0.1,4.1,1.7,4.4,3c0.3,1.1,0.5,2.4-0.6,2.9c-1,0.5-2.4,0.7-3.5,0.4c-1.6-0.5-2.8-1.8-3.7-3.3
		c-0.7-1.5-0.3-2.4,1.4-2.8C381.1,293.3,381.8,293.2,382.3,293.1z"/>
	<path class="st1" d="M368,120.5c-0.2,1.4-0.7,2.5-1.7,3.2c-1.4,1.1-2.9,2.2-4.9,1.9c-0.7-0.1-0.9-0.5-1-1.2c-0.1-2.7,1.1-4.7,3.3-6
		c1.2-0.7,2.3-0.1,3.2,0.4C367.5,119,367.7,119.8,368,120.5z"/>
	<path class="st1" d="M228.2,82.3c-0.3,0.9-0.5,2-0.9,2.9c-0.3,0.7-1,0.8-1.8,0.5c-2.2-1-3.8-3.9-3.4-6.3c0.2-0.9,1.6-2.2,2.5-2.4
		c1-0.1,2.8,1.2,3.1,2.3C228,80.3,228,81.2,228.2,82.3z"/>
	<path class="st1" d="M116.5,180.1c0-1.3,1.8-2.5,3.3-2.4c2,0.2,3.5,1.2,4.8,2.6c1,1.1,0.8,2.2-0.4,2.8c-1.8,0.8-3.6,1.1-5.5,0.3
		C117.3,182.9,116.5,181.8,116.5,180.1z"/>
	<path class="st1" d="M399.1,190.4c-0.9-0.3-2.1-0.6-3.1-1.1c-0.6-0.3-0.7-0.9-0.3-1.6c1-2.2,3.8-3.9,6.2-3.5c1,0.1,2.4,1.5,2.5,2.5
		c0.1,0.9-1.2,2.7-2.4,3.1C401.1,190,400.2,190.1,399.1,190.4z"/>
	<path class="st1" d="M391,290.6c-0.2,1.7-0.7,2.2-2.4,2.4c-2.6,0.4-6.1-2.3-6.1-4.7c0-0.7,0.3-0.9,1-1.3c2.4-0.9,4.4-0.2,6.3,1
		C390.4,288.5,390.6,289.7,391,290.6z"/>
	<path class="st1" d="M339.3,345.3c-0.6,0.9-1,2.1-1.8,2.4s-2.1,0.1-3-0.4c-1.8-0.8-2.9-5-2.1-6.8c0.3-0.6,0.6-0.8,1.4-0.6
		c2.4,0.6,4.5,1.6,5.1,4.3c0.1,0.1,0.1,0.3,0.1,0.5c0,0.1,0.1,0.3,0.1,0.3C339.1,345.2,339.1,345.2,339.3,345.3z"/>
	<path class="st1" d="M114.8,228.6c-1.4,0-2.7,0-3.5-1.3c-0.5-0.8-1.2-1.6-0.5-2.4s1.6-1.8,2.5-1.9c1.6-0.1,3.2,0.3,4.8,0.7
		c1.6,0.5,1.9,2,0.6,3C117.6,227.7,116.7,229.3,114.8,228.6z"/>
	<path class="st1" d="M400.8,244.1c1.3,0.3,2.2,0.4,3.1,0.7c1.4,0.5,2.3,2.2,2,3.5c-0.3,1-2.2,2.3-3.4,2c-1.6-0.4-3.2-1.1-4.7-1.8
		c-1.2-0.6-1.1-2.2,0.1-2.8C398.9,245,400,244.5,400.8,244.1z"/>
	<path class="st1" d="M124.9,280.4c-1.2,0-2.9-1.4-3-2.2c-0.2-1.1,1.2-3.2,2.4-3.6c1.4-0.3,2.8-0.5,4.3-0.6c1.6-0.1,2.2,1.1,1.6,2.6
		C129.1,279,127.3,280.1,124.9,280.4z"/>
	<path class="st1" d="M213.7,87.2c0,0.4,0.1,0.8,0,1.2c-0.3,1.6-1.3,2-2.6,1.4c-1.9-0.9-3-2.4-3.5-4.5c-0.3-1.6,0.6-3.2,2-3.7
		c1.2-0.3,3.2,0.8,3.6,2c0.3,1.2,0.5,2.3,0.7,3.5C213.8,87.2,213.7,87.2,213.7,87.2z"/>
	<path class="st1" d="M337.8,103.5c-0.1-3.2,2.2-5.5,4.9-4.9c1,0.2,1.6,0.7,1.6,1.8c0,0.8,0.3,2-0.1,2.4c-1.2,1.3-2.4,2.6-3.9,3.5
		c-1.2,0.7-2.2,0.1-2.4-1.4C337.8,104.4,337.8,104,337.8,103.5z"/>
	<path class="st1" d="M402.3,262.6c0,1.4-1.6,2.6-3.3,2.4c-1.9-0.2-3.5-1.2-4.7-2.4c-1.2-1.2-0.7-2.4,0.7-3c1.7-0.8,3.4-0.9,5.1-0.2
		C401.6,260,402.4,261.1,402.3,262.6z"/>
	<path class="st1" d="M266.8,365.9c-0.2,0.8-0.3,1.8-0.7,2.5c-0.6,0.9-1.6,1.6-2.8,1.4c-1.3-0.3-2.1-1.4-2.2-2.6
		c-0.1-1.6,0.1-3.4,0.6-4.9c0.4-1.5,2-1.7,3.1-0.6C266,362.7,266.9,364,266.8,365.9z"/>
	<path class="st1" d="M235.5,80.1c-0.1,0.9-0.2,1.9-0.4,2.8c-0.3,1.5-1.5,1.9-2.8,1c-2.2-1.4-2.8-3.6-2.8-6c0-1.8,2.4-3,4-2
		C235,76.9,235.5,78.3,235.5,80.1z"/>
	<path class="st1" d="M156,126c-2,0.3-3.5-1-4.9-2.6c-0.6-0.7-0.7-2.5-0.2-3.4c0.5-1,1.5-1.2,2.6-1.1c2.1,0.2,4.7,3,4.8,5.1
		C158.3,125.7,157.9,126,156,126z"/>
	<path class="st1" d="M145.7,137.4c-2.2,0.1-3.6-1.2-4.8-2.8c-0.6-0.8-0.3-2.8,0.3-3.4c0.6-0.6,2.7-0.8,3.7-0.3
		c1.6,0.9,2.7,2.3,3.5,3.9c0.7,1.4,0,2.4-1.6,2.6C146.4,137.4,146,137.4,145.7,137.4z"/>
	<path class="st1" d="M163.2,108.4c3.2,0.1,5.8,2.9,5.8,5.8c-0.1,1.4-0.5,1.8-1.9,1.8c-2.5-0.1-4.1-1.5-5.2-3.6
		c-0.7-1.2,0-2.4,0.4-3.5C162.3,108.4,163,108.4,163.2,108.4z"/>
	<path class="st1" d="M153.5,313.5c0.2,2.6-1.5,4.3-3.8,5.4c-0.7,0.3-2-0.1-2.8-0.6c-0.5-0.3-0.9-1.4-0.8-2.1
		c0.2-2.4,3.8-4.9,6.2-4.4C153.2,311.9,153.7,312.4,153.5,313.5z"/>
	<path class="st1" d="M221,84.5c-0.3,0.9-0.6,1.9-1,2.8c-0.1,0.3-0.7,0.6-1,0.5c-2.8-0.7-5.3-4.5-3.8-7.2c0.4-0.7,1.6-1.6,2.2-1.5
		c1,0.3,2.2,1,2.8,1.9C220.7,82,220.7,83.2,221,84.5z"/>
	<path class="st1" d="M358,322.1c1.9-0.2,3.4,1.2,4.6,2.9c0.7,1,0.5,3-0.4,3.9c-0.7,0.6-2.5,0.6-3.7-0.1c-1.8-1.2-2.6-2.8-3-4.8
		C355.3,322.7,356,322,358,322.1z"/>
	<path class="st1" d="M396.4,183.1c-0.7-0.3-1.7-0.6-2.6-1c-0.7-0.3-0.6-0.9-0.3-1.6c1-1.8,2.4-3.2,4.6-3.6c1.5-0.3,3.2,0.5,3.9,1.8
		c0.6,1.2-0.4,3-2.1,3.7C398.9,182.7,397.9,182.8,396.4,183.1z"/>
	<path class="st1" d="M387.9,162.2c-0.5-0.1-1.1-0.2-1.6-0.4c-0.8-0.3-1-0.9-0.8-1.8c0.5-2.2,1.9-3.6,4.1-4.3
		c1.5-0.4,3.3,0.1,3.9,1.4c0.5,0.9-0.2,3.1-1.4,3.7c-1.4,0.7-2.8,1-4.3,1.6C388.1,162.3,388,162.3,387.9,162.2z"/>
	<path class="st1" d="M400,270.1c0,1.4-1.9,2.7-3.6,2.1c-1.7-0.5-3.2-1.6-4.6-2.7c-1-0.9-0.5-2.2,0.7-2.8c1.8-0.8,3.5-0.9,5.3-0.1
		C399.3,267.3,400,268.5,400,270.1z"/>
	<path class="st1" d="M122.1,259.8c0.9,0.3,1.8,0.5,2.7,0.9c0.7,0.3,0.8,0.9,0.5,1.7c-0.9,2-3.5,3.8-5.7,3.7c-1.2,0-2.7-1.2-3-2.3
		c-0.2-0.9,0.7-2.7,1.8-3.1C119.6,260.2,120.8,260.1,122.1,259.8z"/>
	<path class="st1" d="M129.3,163c-1.6-0.5-3.1-0.8-4.1-2.2c-0.7-0.9-0.6-2.6,0-3.2c0.6-0.7,2.5-1.2,3.6-0.9c1.7,0.6,3,1.6,4.1,3
		c0.9,1.3,0.5,2.3-0.9,2.7C131,162.7,130.1,162.8,129.3,163z"/>
	<path class="st1" d="M182.5,94.8c1.3,0.1,2.5,0.5,3,1.8c0.6,1.4,1.1,2.8,1.5,4.2c0.3,1.2-0.9,2.2-2.1,2c-2.4-0.5-4.1-2-4.8-4.3
		C179.5,96.8,180.9,94.7,182.5,94.8z"/>
	<path class="st1" d="M377.7,299.6c2.2-0.3,3.7,0.9,4.7,2.6c0.5,0.7,0.3,2.2-0.1,3.1c-0.5,1.2-1.9,1-3,0.9c-1.7-0.1-4.3-2.8-4.5-4.5
		c-0.2-1.4,0.1-1.8,1.6-2C376.8,299.6,377.2,299.6,377.7,299.6z"/>
	<path class="st1" d="M251.6,365.4c-0.2,0.8-0.3,1.7-0.6,2.5c-0.4,1-2.1,1.8-3,1.6c-0.9-0.2-2.4-1.8-2.3-3.1c0.3-1.7,0.7-3.5,1.5-5
		c0.7-1.3,1.9-1.2,2.8-0.1C250.8,362.5,251.8,363.7,251.6,365.4z"/>
	<path class="st1" d="M276,364.5c0.1-0.9,0.1-2,0.3-2.9c0.3-0.7,0.8-1.4,1.5-1.8c0.3-0.2,1.2,0.3,1.7,0.6c2,1.4,2.4,3.5,2.2,5.8
		c-0.1,1.2-1.1,1.9-2.1,2.2c-0.6,0.2-1.4-0.2-2.1-0.5C276,367.3,275.9,365.9,276,364.5z"/>
	<path class="st1" d="M259.7,77c0.3-0.9,0.4-2,0.9-2.7c0.6-0.9,1.8-1.8,2.8-1.2c0.9,0.5,2,1.8,2,2.6c0.1,1.8-0.4,3.6-1.1,5.2
		c-0.5,1.3-2.1,1.3-2.9,0.2C260.6,80,259.6,78.8,259.7,77z"/>
	<path class="st1" d="M343.8,108.1c-0.2-2.2,1.2-3.5,2.6-4.7c0.8-0.7,2.8-0.5,3.6,0.2c0.7,0.6,0.9,2.8,0.3,3.7
		c-0.9,1.7-2.4,2.7-4.1,3.5c-1.3,0.5-2.2-0.1-2.3-1.5C343.8,108.9,343.8,108.5,343.8,108.1z"/>
	<path class="st1" d="M206.7,89.9c0,0.3,0.1,0.7,0.1,1.1c-0.1,1.4-1.1,2-2.4,1.6c-2.5-0.8-3.5-2.8-4.1-5.1c-0.2-0.9,1-2.6,2-3
		c0.9-0.4,2.8,0.3,3.4,1.5c0.6,1.2,0.9,2.6,1.3,3.9C206.9,89.9,206.8,89.9,206.7,89.9z"/>
	<path class="st1" d="M115.6,199.9c1.4,0.7,3,1.2,4.4,2c1.1,0.7,0.9,1.8,0,2.6c-1.9,1.7-4.1,1.8-6.4,0.9c-1.2-0.5-1.6-1.6-1.8-2.7
		c-0.1-1,0.5-1.6,1.3-2C113.8,200.4,114.6,200.2,115.6,199.9z"/>
	<path class="st1" d="M116.2,237.9c0.9,0.1,2,0.1,2.9,0.4c1.6,0.4,2,1.8,1,3.1c-1.6,2-3.7,2.6-6,2.2c-0.8-0.1-1.6-1.2-2-2
		c-0.3-0.5,0.1-1.6,0.5-2.2C113.4,238.1,114.8,237.8,116.2,237.9z"/>
	<path class="st1" d="M363.2,316.9c1.8-0.3,3.2,0.9,4.6,2.4c0.9,1,0.9,3,0.1,4.1c-0.6,0.7-2.6,0.9-3.7,0.1c-1.8-1-2.7-2.8-3.3-4.6
		C360.3,317.6,361.2,316.9,363.2,316.9z"/>
	<path class="st1" d="M404.5,227.8c-1.3-0.5-2.7-0.7-3.9-1.4c-1.6-0.8-1.6-1.8-0.3-3c1.6-1.6,3.6-1.7,5.6-1.4
		c1.3,0.1,2.4,1.5,2.4,2.7s-1.2,2.5-2.6,2.8c-0.3,0.1-0.7,0.1-1.1,0.1C404.5,227.7,404.5,227.8,404.5,227.8z"/>
	<path class="st1" d="M402.7,204.9c-1.5-0.2-3.1,0.1-4.3-1.3c-0.5-0.5-0.5-0.9-0.1-1.5c1.4-2.2,3.9-3.4,6.4-2.9
		c1.2,0.2,2.4,1.5,2.4,2.6s-1.3,2.6-2.5,2.8C403.9,204.9,403.3,204.9,402.7,204.9z"/>
	<path class="st1" d="M345.6,341.2c-0.5,0.8-1,1.9-1.8,2.5c-0.7,0.6-3.1-0.2-3.7-1.2c-0.7-1.4-1.5-2.8-1.9-4.3
		c-0.4-1.4,0.7-2.4,2.1-2.1c1.9,0.3,3.5,1.2,4.3,2.9C345,339.6,345.2,340.3,345.6,341.2z"/>
	<path class="st1" d="M194.1,347.3c-0.3,1.8-0.8,3.5-2.3,4.5c-0.8,0.5-2.2,0.5-3.2,0.2c-1.2-0.5-1.1-2-1.1-3c0-1.7,2.6-4.5,4.3-4.9
		c0.8-0.2,1.4,0.1,1.6,0.9C193.7,345.7,193.9,346.6,194.1,347.3z"/>
	<path class="st1" d="M140.5,295.4c-0.1,2.2-2.6,4.9-4.7,5.2c-1.2,0.1-2.8-0.7-3.2-1.6c-0.4-1,0.3-3.3,1.4-3.9
		c1.4-0.7,2.8-1.2,4.3-1.6C139.4,293.4,140.5,294.4,140.5,295.4z"/>
	<path class="st1" d="M403.6,242.7c-1.6,0.1-3.1-0.6-4.5-1.6c-1.4-0.9-1.2-2,0-3c1.9-1.6,3.9-1.4,6.1-0.8c1.1,0.3,2.1,2.2,1.9,3.3
		C406.9,241.8,405.4,242.7,403.6,242.7z"/>
	<path class="st1" d="M283.4,362.6c0.1-0.8,0.1-1.7,0.3-2.6c0.3-1.4,1.4-1.9,2.6-1.2c1.8,1.2,2.8,2.7,2.9,4.9
		c0.1,1.8-0.8,3.3-2.4,3.6c-1.4,0.2-3-1.2-3.4-2.7C283.5,364,283.5,363.4,283.4,362.6z"/>
	<path class="st1" d="M328.7,90.6c2,0,3.1,1.8,2.5,3.9c-0.5,1.9-2,3.2-3.5,4.1c-1.2,0.7-2.2,0.2-2.6-1.2c-0.5-1.8-0.3-3.5,0.8-5.1
		C326.8,91,327.7,90.5,328.7,90.6z"/>
	<path class="st1" d="M150.4,131.5c-1.6,0.3-2.8-0.7-4.1-2c-1.1-1.1-1.3-2.8-0.5-4.1c0.6-0.9,3-1.3,4.1-0.3c1.2,1.2,2.5,2.5,3.1,4
		C153.7,130.8,153.1,131.8,150.4,131.5z"/>
	<path class="st1" d="M125.9,169.8c-1-0.5-2.3-1-3.5-1.8c-0.8-0.5-1-2.6-0.6-3.3c0.4-0.8,2.1-1.7,3.2-1.4c1.9,0.5,3.7,1.3,4.7,3.1
		c0.7,1.4,0.4,2.3-1.1,2.7C127.9,169.5,127,169.6,125.9,169.8z"/>
	<path class="st1" d="M321.9,87.2c1.9,0,3.1,1.8,2.6,3.6c-0.5,1.8-1.5,3.5-3.2,4.5c-1.3,0.7-2.2,0.3-2.7-1c-0.8-2-0.3-3.8,0.7-5.5
		C320,87.6,320.9,87.1,321.9,87.2z"/>
	<path class="st1" d="M169.2,330.1c0.2,1.8-0.9,3.1-2.4,4.3c-0.5,0.3-1.1,0.6-1.7,0.7c-2.4,0.1-3.6-2-2.5-4.3
		c0.9-1.9,2.6-2.8,4.5-3.5C168.7,326.9,169.4,327.8,169.2,330.1z"/>
	<path class="st1" d="M203.9,359c-1.7-0.1-3-2-2.6-3.9c0.4-1.8,1.5-3.1,2.8-4.2c1.2-0.9,2.3-0.6,3,0.8c0.9,1.8,0.3,5.1-1.2,6.4
		C205.4,358.6,204.6,358.7,203.9,359z"/>
	<path class="st1" d="M331.4,98.9c0-2.1,2-4.5,3.9-4.6c1.4-0.1,2.3,0.5,2.6,1.9c0.4,1.6,0.1,2.9-1.2,4.1c-0.7,0.6-1.4,1.3-2.2,1.8
		c-1.4,0.9-2.6,0.4-2.9-1.2C331.6,100.2,331.5,99.5,331.4,98.9z"/>
	<path class="st1" d="M349.7,112.5c-0.3-1.8,1.1-3,2.4-4.2c0.4-0.3,1.2-0.6,1.7-0.6c2.7,0.1,3.4,1.6,2.3,4.5
		c-0.7,1.8-2.5,2.7-4.3,3.2C350.2,115.9,349.5,115,349.7,112.5z"/>
	<path class="st1" d="M368.6,311.3c2.2-0.3,3.5,1.4,4.7,2.8c0.5,0.6,0.1,2-0.2,3c-0.2,0.5-1.2,0.9-1.8,0.9c-2.4,0.1-5.3-2.5-5.5-4.9
		C365.6,311.7,366.2,311.2,368.6,311.3z"/>
	<path class="st1" d="M163.7,324.8c0,1.2-0.4,2.8-1.8,4c-0.6,0.5-1.3,0.9-2,1.2c-1.4,0.3-2.8-0.3-3.1-1.2c-0.5-1.2,0.1-3.6,1.2-4.3
		c1-0.7,2.2-1.4,3.3-1.9C162.8,321.9,163.8,322.7,163.7,324.8z"/>
	<path class="st1" d="M355.1,334.5c-1.7-0.1-3.2-0.6-3.9-2.3c-0.5-1.3-0.9-2.7-1.1-4.1c-0.1-0.7,0.5-1.1,1.3-1.1
		c2.7,0.1,4.6,1.4,5.8,3.7C358,332.1,356.7,334.4,355.1,334.5z"/>
	<path class="st1" d="M181.1,339.4c0.3,1.6-0.7,2.8-1.7,4c-0.9,1-2.9,1.3-4,0.7c-0.7-0.5-1.3-2.8-0.7-3.8c0.9-1.7,2.1-3,3.9-3.7
		c1.6-0.5,2.5,0.1,2.6,1.8C181.1,338.6,181.1,338.9,181.1,339.4z"/>
	<path class="st1" d="M136.3,149.8c-1.5-0.3-3-1.1-3.9-2.5c-0.7-0.9-0.5-2.7,0.2-3.4c1-0.9,2.3-0.9,3.5-0.5c1.8,0.5,3,2,3.9,3.6
		c0.7,1.3,0.2,2.2-1.3,2.5C137.9,149.6,137.2,149.6,136.3,149.8z"/>
	<path class="st1" d="M212.7,352.9c0.3,0.1,0.6,0.3,0.8,0.5c1.4,1.7,1.3,5.8-0.3,7.2c-0.7,0.6-2.1,0.9-3,0.8
		c-1.4-0.2-1.6-1.7-1.8-2.8c-0.2-1.4,1.8-4.7,3.1-5.3C211.9,353.1,212.3,353,212.7,352.9z"/>
	<path class="st1" d="M315.2,84c1.4,0,2.6,1.7,2.4,3.4c-0.3,2-1.5,3.6-3.1,4.7c-1.2,0.9-2.2,0.5-2.7-1c-0.7-1.9-0.6-3.7,0.4-5.5
		C312.9,84.4,314,84.1,315.2,84z"/>
	<path class="st1" d="M187.6,343.7c-0.2,1.8-1.2,3.2-2.6,4.3c-0.9,0.7-2.6,0.5-3.3-0.1s-1.2-2.6-0.6-3.7c0.7-1.6,2-2.8,3.5-3.7
		c1.2-0.7,2.3-0.1,2.6,1.2C187.4,342.5,187.5,343.1,187.6,343.7z"/>
	<path class="st1" d="M117.6,245.3c0.9,0.1,1.9,0.2,2.8,0.4c1.6,0.4,2,1.4,1.1,2.8c-1.4,2.1-3.5,2.8-5.9,2.6
		c-1.1-0.1-2.4-1.4-2.5-2.4c-0.1-1.1,1-2.8,2.2-3.1C116.1,245.5,116.9,245.4,117.6,245.3z"/>
	<path class="st1" d="M355.2,118c-0.1-1.5,0.7-3,2.2-4.3c1.2-1,3.3-1.2,4.3-0.1c0.9,0.9,0.9,3.5-0.2,4.3c-1.2,0.9-2.6,1.8-4,2.4
		S355.2,120.1,355.2,118z"/>
	<path class="st1" d="M141.2,143.3c-1.6,0.4-2.7-0.6-3.9-1.5s-1.6-2.9-0.8-4.1c0.5-0.9,2.8-1.2,4-0.6c1.6,0.8,2.7,2.1,3.5,3.7
		c0.7,1.4,0,2.4-1.6,2.6C142.1,143.3,141.7,143.3,141.2,143.3z"/>
	<path class="st1" d="M242.9,78.8c-0.1,0.7-0.1,1.6-0.4,2.6c-0.4,1.8-1.7,2.3-3.2,1.2c-1.9-1.5-2.4-3.5-2.2-5.8
		c0.1-1.2,1.6-2.4,2.6-2.4c1.1,0,2.8,1.5,3,2.6C242.9,77.4,242.9,77.9,242.9,78.8z"/>
	<path class="st1" d="M365.4,129.5c0-2.3,1.7-4.7,3.9-5.5c1.9-0.7,3.8,0.7,3.5,2.7c-0.3,2.3-3.5,4.8-5.8,4.5
		C365.9,131,365.4,130.5,365.4,129.5z"/>
	<path class="st1" d="M401.3,197.5c-1.4-0.3-3,0.2-4.1-1.2c-0.4-0.5-0.5-0.8-0.1-1.4c1.2-1.9,2.7-3.1,5.1-3.2
		c1.7-0.1,3.3,0.8,3.6,2.3c0.3,1.2-1.1,3-2.6,3.3C402.6,197.5,401.9,197.5,401.3,197.5z"/>
</g>
<g>
	<path class="st0" d="M238.9,398.7c-0.1-2.9-0.3-6.4-0.3-9.1h-0.1c-0.7,2.4-1.6,5.1-2.6,8l-3.7,10.1h-2l-3.4-10
		c-1-3-1.8-5.7-2.4-8.2h-0.1c-0.1,2.6-0.2,6.2-0.4,9.3l-0.5,9h-2.6l1.5-21h3.5l3.6,10.1c0.9,2.6,1.6,4.9,2.1,7h0.1
		c0.5-2.1,1.3-4.4,2.2-7l3.7-10.1h3.5l1.3,21h-2.6L238.9,398.7z"/>
	<path class="st0" d="M257.1,398.1h-8.2v7.6h9.1v2.3h-11.8v-21h11.3v2.3h-8.6v6.6h8.2V398.1z"/>
	<path class="st0" d="M261.6,407.9v-21h3l6.7,10.6c1.6,2.4,2.8,4.7,3.8,6.8h0.1c-0.3-2.8-0.3-5.3-0.3-8.6V387h2.6v21h-2.7l-6.6-10.6
		c-1.5-2.4-2.8-4.7-3.9-7H264c0.1,2.6,0.2,5.1,0.2,8.7v8.9h-2.6V407.9z"/>
	<path class="st0" d="M284.8,386.9v12.4c0,4.7,2.1,6.7,4.9,6.7c3.1,0,5.1-2,5.1-6.7v-12.4h2.7v12.2c0,6.4-3.4,9.1-7.9,9.1
		c-4.3,0-7.5-2.4-7.5-8.9v-12.4L284.8,386.9L284.8,386.9z"/>
	<path class="st0" d="M218.9,411.8v-1.6h80.9v1.6H218.9z"/>
</g>
</svg>
