<?xml version="1.0" encoding="utf-8"?>
<!-- Generator: Adobe Illustrator 24.1.2, SVG Export Plug-In . SVG Version: 6.00 Build 0)  -->
<svg version="1.1" id="Layer_1" xmlns="http://www.w3.org/2000/svg" xmlns:xlink="http://www.w3.org/1999/xlink" x="0px" y="0px"
	 viewBox="0 0 216 108" style="enable-background:new 0 0 216 108;" xml:space="preserve">
<style type="text/css">
	.st0{fill:#F6EAD9;stroke:#F6EAD9;stroke-miterlimit:10;}
	.st1{fill:#F6EAD9;}
	.st2{fill:none;}
	.st3{enable-background:new    ;}
	.st4{fill:#18181F;}
</style>
<path class="st0" d="M16.6,65.5c-2.8-0.8-4.7-1.3-5.4-1.5c-0.9-3.9-1.6-6.9-2.3-10c1.1-0.3,3.4-1,5.5-1.7c-1.1-3.5-2-6.3-2.8-9.1
	c-0.1-0.3,0.4-0.8,0.6-1.2c0.3-0.7,0.9-1.6,0.7-2.2c-0.2-0.5-1.2-0.9-1.9-1.1c-3-0.7-6-1.3-9.5-2.1c5.4-4.3,11-6.1,17.2-5.9
	c5.2,0.2,10.5,1,15.7,0.5c8.8-0.7,17.5-2.8,26.3-3.3c14-0.8,28.1-0.8,42.2-1.2c15.4-0.5,30.7-1,46.1-1.5c5.1-0.2,10.2-1,15.2-0.7
	c6.1,0.5,12.2,1.8,18.3,3c3.6,0.7,7.1,1.8,10.6,3c3.8,1.3,4.1,3.2,1.8,6.4c-0.7,1-0.6,2.4-0.9,3.7c1.1,0.2,2.2,0.7,3.2,0.6
	c3.9-0.3,13.7,6.2,13.9,9.8c0.1,2.1-1.1,4.2-1.6,6.3c-0.6,2.8-1,5.6-0.9,8.6c-2.5,4-6.9,4.1-11.3,3.5c-5.4-0.8-10.2-1.3-14.2,3.8
	c-1.3,1.6-4.7,2.1-7.1,2.1c-6.7,0.1-13.5-0.4-20.2-0.6c-12.3-0.3-24.6-0.9-36.9-0.7c-9.7,0.2-19.4,1.8-29.2,2.5
	c-8.8,0.7-17.7,1.6-26.5,1.7c-9.9,0.2-20,0.7-29.5-1.1c-6-1.2-11.1-6.4-16.5-10C16.5,66.9,16.6,65.5,16.6,65.5z M17.3,66.5
	c10.4,7.3,29.8,11.6,37.7,9.4C43.3,73,30.9,69.8,17.3,66.5z M138.8,70.8c0-0.6-0.1-1.1-0.1-1.7c-9.5,0.6-19,1.3-28.5,1.9
	c0.1,0.7,0.1,1.3,0.1,2C119.8,72.2,129.3,71.5,138.8,70.8z M187.8,66.1c0.1,0.6,0.1,1.2,0.1,1.9c6.4-0.6,12.9-1.2,19.3-1.8
	c-0.1-0.7-0.1-1.5-0.2-2.2C200.6,64.7,194.2,65.4,187.8,66.1z M153.8,68.1c14.3,2.2,14.3,2.2,15.3,0C164,68.1,158.9,68.1,153.8,68.1
	z"/>
<g>
	<path class="st1" d="M184.5,65.9c3.4-2,7-3.5,10.8-4.4c3.2-0.8,6.6-1.2,9.8-0.3c1.1,0.3,2.3,0.8,2.7,1.9c0.7,1.6-0.7,3.3-2.1,4.2
		c-3.3,2-7.3,2.2-11.1,2.2c-3.8,0-7.8-0.2-11.3,1.2"/>
	<g>
		<path class="st1" d="M185.8,68.1c3.6-2.1,7.4-3.6,11.5-4.4c1.9-0.4,3.9-0.6,5.8-0.3c0.8,0.1,1.6,0.3,2.3,0.7c0,0,0,0,0.1,0.1
			c0-0.4,0-0.4-0.1,0c-0.1,0-0.1,0.1-0.1,0.2c-0.8,1.4-3,1.9-4.5,2.2c-1.8,0.4-3.6,0.5-5.5,0.5c-4.3,0-8.7-0.3-12.8,1.3
			c-1.3,0.5-2.1,1.7-1.8,3.1c0.3,1.2,1.8,2.2,3.1,1.8c7.4-2.7,15.8,0.7,22.8-3.5c1.6-1,3.1-2.5,3.6-4.4c0.5-2.2-0.5-4.3-2.4-5.4
			c-3.4-2.1-8.2-1.6-11.9-0.9c-4.4,0.9-8.8,2.7-12.7,4.9C180.5,65.3,183,69.7,185.8,68.1L185.8,68.1z"/>
	</g>
</g>
<g>
	<path class="st1" d="M200.6,46.9c4,0,7.6,2.3,11,4.5c0.3,0.2,0.6,0.4,0.8,0.7c0.2,0.5,0,1-0.3,1.4c-1.7,2.4-5.6,3.4-5.5,6.3
		c0.6-2,3.3-3,3.8-5c0.6-2-1.3-3.9-3-5.1c-2.7-1.9-5.8-3.3-8.9-4.3c-2.2-0.7-4.5-1.1-6.4-2.4s-3.2-3.7-2.4-5.8
		c0.7-2,2.9-2.9,4.8-3.8c1.9-0.9,3.9-2.4,4-4.5c0-1.8-1.6-3.3-3.4-3.8s-3.6-0.1-5.5,0.2c-9.2,1.6-18.6,2.3-27.9,2.1
		c0.2,1.6,2.4,2,4,2c9.1-0.4,18.3-0.9,27.4-1.7c1.1-0.1,2.6,0.1,2.7,1.2c-4.4,1.7-8.7,3.6-13,5.6c1.5,1.6,4.1,1.3,6.1,0.4
		s3.8-2.4,5.9-2.8c-2.4,1-4.5,2.5-6.3,4.3c-0.6,0.6-1.1,1.6-0.5,2.2c0.3,0.3,0.8,0.3,1.2,0.3c4.2,0,8.8,0.8,11.6,3.8
		c1.3,1.4,2.1,3.7,0.7,5c-0.5,0.5-1.3,0.7-1.9,1.2c-1.7,1.4-0.8,4.4,1,5.5c1.9,1.2,4.2,1,6.4,0.8"/>
	<g>
		<path class="st1" d="M200.6,49.4c1.8,0,3.5,0.6,5.1,1.4c0.9,0.4,1.7,0.9,2.5,1.4c0.4,0.2,0.7,0.5,1.1,0.7c0.2,0.2,0.5,0.3,0.7,0.5
			c0.5,0.4,0.5,0.3,0-0.2c0-0.4,0-0.9,0-1.3c-0.2,1.1-2.4,2.3-3.4,3.1c-1.5,1.3-2.6,2.9-2.6,4.9c0,2.9,4,3.3,4.9,0.7
			c0.2-0.5,1.3-1.4,1.9-1.9c1-1,1.8-2.1,2-3.5c0.7-3.4-2-6.1-4.6-7.8c-2.7-1.8-5.7-3.2-8.7-4.2c-2.4-0.8-5.9-1.1-7.2-3.5
			c-1.2-2.2,1.5-3.2,3.1-4c2.6-1.3,5.3-3.3,5.5-6.4c0.2-3.1-2.3-5.8-5.2-6.5c-3.4-0.9-7,0.3-10.4,0.8c-7.8,1.1-15.8,1.6-23.7,1.5
			c-1.7,0-2.7,1.6-2.4,3.2c0.5,2.8,3.6,3.8,6.1,3.8c3.4,0,6.9-0.3,10.3-0.5c3.4-0.2,6.9-0.4,10.3-0.6c1.7-0.1,3.4-0.3,5.1-0.4
			c0.7-0.1,1.5-0.2,2.2-0.2c0,0,0.7,0,0.5,0c0.1,0,0.2,0,0.3,0.1c-0.3-0.1-0.6-0.4-0.8-0.7c0.6-1,1.2-2,1.8-3.1
			c-4.6,1.8-9.1,3.8-13.6,5.8c-1.5,0.7-1.6,2.9-0.5,3.9c1.9,2,4.8,2.3,7.4,1.5c2.5-0.7,4.5-2.6,7-3.2c-0.6-1.5-1.3-3-1.9-4.6
			c-1.8,0.8-3.4,1.8-4.9,3c-1.4,1.1-3,2.5-3.3,4.4c-0.4,2.4,1.5,3.9,3.7,4c1.6,0.1,3.1,0.1,4.7,0.4c1.5,0.3,2.9,0.8,4.1,1.6
			c0.6,0.4,2.3,1.7,1.9,2.6c0.1-0.3-0.6,0.3-0.7,0.3c-0.8,0.5-1.6,1.1-2.1,2c-0.8,1.4-0.8,3.2-0.3,4.7c1.5,4.5,6.3,5.1,10.4,4.7
			c1.3-0.1,2.5-1.1,2.5-2.5c0-1.3-1.1-2.6-2.5-2.5c-1.5,0.1-3.2,0.4-4.6-0.2c-0.7-0.3-1.4-1.2-1.1-1.8c-0.2,0.4,0.4-0.1,0.6-0.2
			c0.7-0.4,1.3-0.9,1.8-1.5c1-1.3,1.2-3.1,0.8-4.7c-0.9-3.2-3.8-5.3-6.7-6.4c-1.4-0.6-2.9-0.9-4.4-1.1c-0.8-0.1-1.6-0.2-2.4-0.3
			c-0.4,0-0.8,0-1.2,0c-0.2,0-0.4,0-0.6,0c-0.4,0-0.4,0,0.1,0c0.3,0.3,0.6,0.6,0.9,0.9c0,0.3,0,0.6,0.1,1c0.1-0.1,0.1-0.2,0.2-0.2
			c0.2-0.1,0.4-0.4,0.6-0.6c0.5-0.4,0.9-0.8,1.5-1.2c1.1-0.8,2.3-1.4,3.5-2c1.1-0.5,1.5-2.1,1-3.1c-0.5-1.2-1.7-1.7-2.9-1.5
			c-2.2,0.5-4,1.7-5.9,2.7c-1,0.5-2.7,1.2-3.6,0.2c-0.2,1.3-0.3,2.6-0.5,3.9c4.1-1.9,8.2-3.7,12.4-5.3c1.3-0.5,2.1-1.6,1.8-3.1
			c-0.7-3.4-4.5-3.1-7.1-2.9c-3.5,0.3-7,0.5-10.5,0.8c-3.4,0.2-6.9,0.4-10.3,0.6c-1.6,0.1-3.3,0.2-4.9,0.2c-0.5,0-0.8,0-1.2-0.1
			c0,0-0.5-0.1-0.5-0.2c0-0.1,0.5,1,0.3,0.2c-0.8,1-1.6,2.1-2.4,3.2c6.6,0.1,13.2-0.2,19.8-1c3.4-0.4,6.8-1,10.2-1.5
			c0.9-0.1,5-0.2,4.2,1.8c-0.3,0.7-1.4,1.3-2,1.6c-1.1,0.6-2.4,1.1-3.5,1.8c-2.5,1.7-3.9,4.3-3.2,7.4c1.4,6.4,9,6.7,13.9,8.9
			c1.5,0.7,3,1.5,4.4,2.4c0.9,0.5,2.4,1.5,2.5,2.5c0.1,0.7-0.8,1.3-1.4,1.8c-1.1,1-2,2.1-2.4,3.5c1.6,0.2,3.3,0.4,4.9,0.7
			c0-0.3,0-0.2,0.1-0.4c0.2-0.3-0.2,0.2,0.1-0.1c0.1-0.2,0.3-0.3,0.5-0.5c0.6-0.5,1.1-0.9,1.8-1.4c1.9-1.5,4.3-3.6,3.2-6.3
			c-0.5-1.3-1.8-1.9-2.9-2.7c-1.1-0.7-2.2-1.4-3.4-2c-2.4-1.3-5-2.1-7.8-2.2C197.4,44.3,197.4,49.3,200.6,49.4L200.6,49.4z"/>
	</g>
</g>
<g>
	<path class="st1" d="M22.7,36.5c-5.6-1.8-11.7-1.8-17.3,0c-1.2,0.4-2.6,1.2-2.4,2.5c4.3,0.8,8.5,1.8,12.7,3c1.6,0.5,3.5,1.2,4,2.9
		c0.2,0.7,0.1,1.3,0,2c-0.4,2.4-1,4.9-2.8,6.5c-2.9,2.7-8.2,2.5-9.6,6.1c-0.9,2.2,0.4,4.9,2.4,6.2s4.6,1.6,7,1.5s4.9-0.4,7.3,0
		c-3.5,0.3-7,0.1-10.4-0.8C12.2,66,11,65.6,10,64.8c-0.9-0.8-1.5-2.2-1.1-3.4c0.7-1.8,2.9-2.2,4.7-2.9c2.8-1.2,4.7-4.1,4.7-7.1
		c-2.9,0.5-5.8,1.4-8.5,2.6c-1,0.5-2.1,1-2.7,1.9c-1.4,2,0,5,2.1,6.2c2.1,1.3,4.7,1.3,7.1,1.5s5.1,0.6,6.8,2.4c1,1,1.6,2.3,2.7,3.1
		c1.4,1,3.2,1.1,5,1.1c7.2,0.3,14.4,1.9,21.1,4.7c2.2,0.9,4.5,2,6.8,1.6s4.4-3.1,3.2-5.1"/>
	<g>
		<path class="st1" d="M23.4,34.1c-4.2-1.3-8.8-1.7-13.1-1.2c-3.3,0.4-10.1,1.3-9.7,6c0.1,1,0.7,2.2,1.8,2.4c2.5,0.5,5,1,7.5,1.6
			c2.1,0.5,4.4,0.9,6.4,1.8c0.4,0.2,0.9,0.4,1,0.7c0.2,0.7-0.2,1.9-0.4,2.5c-0.4,1.6-1.1,3.2-2.5,4c-2.7,1.6-6.2,2-8.4,4.6
			c-2.9,3.6-1.4,8.6,2.2,11.1c4.7,3.2,10.4,1.3,15.6,1.9c0-1.7,0-3.3,0-5c-3.1,0.3-6.2,0.1-9.2-0.6c-1-0.2-2.3-0.5-3.1-1.3
			c-0.4-0.5-0.3-0.6,0.1-0.8c0.8-0.5,1.8-0.8,2.7-1.1c1.2-0.5,2.4-1.2,3.3-2.2c2-1.9,3.1-4.6,3.2-7.4c0-1.7-1.6-2.7-3.2-2.4
			c-3.3,0.6-6.4,1.6-9.4,3c-2.8,1.3-4.6,3.9-4,7.1C4.7,61.9,7,64,9.6,65c2.7,1.1,5.6,0.8,8.4,1.3c1.1,0.2,2.2,0.5,3.1,1.2
			c1.1,0.9,1.6,2.2,2.7,3.2c2.4,2.2,5.8,2,8.9,2.2c6.3,0.5,12.5,2,18.4,4.5c3.2,1.3,6.8,2.8,10.1,1c2.9-1.6,4.4-5.1,2.8-8.1
			c-1.5-2.8-5.8-0.3-4.3,2.5c-0.1-0.2,0,0.3,0,0.1c-0.1,0.3-0.2,0.4-0.4,0.7c-0.6,0.6-1.3,0.7-2.1,0.7c-2.4-0.3-4.7-1.7-7-2.5
			c-5-1.9-10.3-3.1-15.7-3.6c-1.2-0.1-2.5-0.2-3.7-0.3c-1,0-2.1,0-3-0.4c-0.9-0.4-1.4-1.3-1.9-2c-0.8-1-1.7-1.9-2.8-2.5
			c-2.2-1.2-4.7-1.5-7.1-1.7c-1.9-0.1-4.3-0.1-5.8-1.3c-0.6-0.5-1.1-1.2-1.1-1.9c0-0.7,0.7-1.1,1.4-1.4c2.6-1.3,5.7-2.1,8.6-2.7
			c-1-0.8-2.1-1.6-3.2-2.4c-0.1,2.3-1.6,4.3-3.8,5.1c-2.8,1-5.8,2.4-5.8,6c0,3.6,3.4,5.6,6.5,6.4c3.6,0.9,7.3,1.2,11,0.9
			c3.3-0.3,3.2-4.6,0-5c-2.5-0.3-5,0-7.5,0c-1.8,0-4-0.1-5.5-1.2c-0.9-0.7-1.8-2-1.4-3.1c0.3-1,1.5-1.5,2.5-1.9
			c3.5-1.5,7-2.6,8.7-6.3c0.9-1.9,1.5-4.2,1.5-6.3c0.1-2.3-1.2-4.1-3.1-5.2c-2.1-1.2-4.6-1.6-7-2.2c-2.8-0.7-5.6-1.3-8.5-1.8
			c0.6,0.8,1.2,1.6,1.8,2.4c0,0.3-0.7,0.5-0.1,0.2c0.1,0,0.2-0.1,0.3-0.2c0.6-0.3,1.4-0.4,2.1-0.6c1.5-0.4,3.1-0.6,4.7-0.7
			c3.3-0.2,6.4,0.2,9.6,1.2C25.1,39.8,26.5,35,23.4,34.1L23.4,34.1z"/>
	</g>
</g>
<g>
	<path class="st1" d="M16.1,54.2c-1.4-1.3-3.6-0.7-5.2,0.2c-2.1,1.1-4,2.6-5.7,4.3c-0.7,0.7-1.4,1.5-1.6,2.4c-0.2,0.7,0,1.5,0.6,1.9
		c0.3,0.2,0.6,0.2,0.9,0.2c5.1,0.5,10.4-0.5,15.1-2.6"/>
	<g>
		<path class="st1" d="M17.9,52.4c-2.4-2.1-5.4-1.6-8.1-0.3c-2.4,1.2-4.6,3-6.5,4.9c-1.1,1.1-2,2.4-2.2,4c-0.2,1.6,0.4,3.4,1.9,4.2
			c1.3,0.7,3.1,0.6,4.6,0.6c1.4,0,2.9-0.1,4.3-0.3c3.3-0.4,6.4-1.4,9.5-2.8c1.2-0.6,1.5-2.3,0.9-3.4c-0.7-1.3-2.2-1.5-3.4-0.9
			c-2.2,1-4.8,1.7-7.4,2.1c-0.4,0.1-1.1,0.1-1.7,0.2c-0.7,0-1.4,0.1-2.1,0.1s-1.4,0-2.1-0.1c-0.1,0-0.2,0-0.3,0c-0.4,0-0.4,0-0.1,0
			c0.3,0.1,0.5,0.3,0.6,0.6c0.1,0.1,0.1,0.2,0.1,0.3c0,0.2,0,0.2,0-0.1c-0.1,0.3,0,0.3,0.1,0c-0.2,0.3,0.2-0.4,0.2-0.3
			c0.2-0.3,0.2-0.3,0.1-0.1c0.1-0.1,0.2-0.2,0.3-0.3c0.2-0.2,0.4-0.5,0.7-0.7c0.9-0.9,1.8-1.6,2.7-2.2c0.5-0.3,1-0.7,1.6-1
			c0.3-0.2,0.6-0.3,0.9-0.5c0.4-0.2-0.2,0,0.3-0.1c0.2-0.1,0.5-0.2,0.7-0.2c0.2,0,0.3-0.1,0.5-0.1c-0.3,0-0.3,0,0,0
			c0.7,0-0.4-0.1,0.2,0c0.3,0.1,0.3,0.1,0,0c0.2,0.2,0.3,0.2,0,0c1,0.9,2.5,1,3.5,0C18.8,55,18.9,53.3,17.9,52.4L17.9,52.4z"/>
	</g>
</g>
<g>
	<path class="st1" d="M12.6,64.9c0.3,0.6-0.6,1-1.3,1c-1,0-2-0.2-3-0.4c-1.2-0.3-2.6-1.1-2.6-2.3c0-0.6,0.3-1.1,0.6-1.6
		c3.1-4.4,9.4-5,13.5-8.4c0.6-0.5,1.1-1.1,1.1-1.8c-2.3-0.3-4.7,0.3-6.8,1.3s-3.9,2.5-5.7,4c-1.8,1.5-3.7,3.4-3.7,5.7
		c0,0.7,0.2,1.4,0.7,1.9c0.4,0.4,1,0.5,1.5,0.6c2.2,0.4,4.4,0.6,6.6,0.4c-2.9,1.1-6.3,0.3-8.5-1.8c-1.1-1.1-1.8-2.6-1.5-4.1
		c0.3-1.3,1.4-2.4,2.5-3.1c2.1-1.3,4.4-2.1,6.7-2.8c1.5-0.5,2.9-0.9,4.4-1.4"/>
	<g>
		<path class="st1" d="M10.2,65.6c0-0.1,0-0.2-0.1-0.3c0.1-0.4,0.2-0.8,0.3-1.3c0.2-0.3,0.5-0.5,0.8-0.6c-0.3,0.1-0.3,0.1,0.1,0
			c-0.3,0-0.6,0-0.9-0.1c-0.3,0-1.1-0.2-1.6-0.3c-0.1,0-0.7-0.3-0.3-0.1c-0.1,0-0.7-0.4-0.5-0.3c0.1,0.1,0.1,0.1-0.1-0.1
			c0.1,0.1,0.2,0.2,0.2,0.4c-0.1-0.2,0.1,0.5,0,0.4c0,0,0.6-0.8,0.4-0.6c-0.1,0.2,0.3-0.4,0.4-0.5c0.2-0.2,0.3-0.3,0.5-0.5
			c0.1-0.1,0.6-0.5,0.4-0.4s0.4-0.3,0.5-0.3c0.2-0.1,0.4-0.3,0.6-0.4c0.5-0.3,0.9-0.5,1.4-0.8c1.9-1,4-1.7,5.9-2.8
			c2.4-1.3,4.9-2.9,5.1-5.8c0.1-1.5-1.3-2.3-2.5-2.5c-3.3-0.4-6.6,0.7-9.3,2.3C10.2,52,8.9,53,7.6,54c-1,0.8-2.1,1.7-2.9,2.7
			c-2.1,2.4-3.6,6.3-1.1,9c1.3,1.4,3.3,1.6,5.1,1.8c1.7,0.2,3.3,0.3,5,0.2c-0.2-1.6-0.4-3.3-0.7-4.9c-0.5,0.2-1,0.3-1.5,0.4
			c0.4-0.1-0.3,0-0.4,0c-0.3,0-0.5,0-0.8,0c-0.7,0,0.4,0.1-0.4,0c-0.3,0-0.5-0.1-0.8-0.2c-0.2-0.1-0.5-0.2-0.7-0.2
			c0.4,0.1-0.3-0.2-0.3-0.2c-0.8-0.4-1.3-0.9-1.7-1.4c-0.3-0.4-0.4-0.7-0.4-0.9c0-0.2,0-0.5,0.1-0.7c-0.1,0.2,0.2-0.3,0.3-0.4
			c-0.2,0.3,0.2-0.2,0.3-0.3c0,0,0.6-0.5,0.3-0.3c0.2-0.2,0.4-0.3,0.7-0.5c1-0.6,2-1.1,3-1.4c2.4-0.9,4.8-1.6,7.3-2.3
			c1.3-0.4,2.1-1.7,1.8-3.1c-0.4-1.3-1.8-2.2-3.1-1.8c-3.1,1-6.3,1.8-9.3,3.1c-2.8,1.2-5.8,3.2-6.2,6.5c-0.4,3.2,1.8,6.2,4.6,7.7
			c2.6,1.4,5.8,1.8,8.6,0.7c1.2-0.4,2-1.4,1.8-2.7c-0.2-1.2-1.2-2.2-2.5-2.2c-1.3,0.1-2.7,0.1-4,0c-0.6,0-1.1-0.1-1.6-0.2
			c-0.3,0-0.6-0.1-0.9-0.2c-0.1,0-0.2-0.1-0.3-0.1c0.2,0,0.3,0.1,0.4,0.4c0,0,0,0.1,0,0.1c-0.1-0.3-0.1-0.3-0.1-0.1
			c0-0.1,0-0.8,0-0.4c0-0.3,0.1-0.5,0.2-0.7c-0.1,0.3,0-0.1,0.1-0.2c0.1-0.2,0.3-0.5,0.4-0.7c0.1-0.1,0.1-0.1,0,0
			c0.1-0.1,0.2-0.2,0.3-0.3c0.4-0.4,0.7-0.8,1.1-1.2c3.2-3,7.1-5.8,11.6-5.3c-0.8-0.8-1.7-1.7-2.5-2.5c0,0,0-0.5,0.1-0.5
			c0,0-0.5,0.5-0.5,0.5c-0.4,0.3-0.1,0.1,0,0c-0.1,0.1-0.2,0.1-0.3,0.2c-0.2,0.2-0.5,0.3-0.7,0.5c-0.9,0.5-1.8,1-2.8,1.5
			c-1.9,0.9-3.8,1.6-5.6,2.7C6.7,57.4,4.7,59,3.8,61c-1.5,3.2,0.5,5.9,3.5,6.8c1.5,0.5,3.3,0.8,4.8,0.5c1.9-0.3,3.4-2.1,2.8-4
			c-0.4-1.3-1.8-2.1-3.1-1.8C10.6,62.9,9.8,64.3,10.2,65.6L10.2,65.6z"/>
	</g>
</g>
<g>
	<path class="st1" d="M8.7,54.8c1.4,0.3,3,0.1,4.3-0.6s2.3-2,2.5-3.4c0.1-0.6,0-1.2-0.1-1.8c-0.8-4.5-4.6-8.3-9.1-9.1
		c2.2-0.5,4.7,0,6.5,1.4s2.9,3.7,2.9,6c0,1.1-0.2,2.2-0.8,3.1c-1.4,2.3-4.5,3.1-6,5.3"/>
	<g>
		<path class="st1" d="M8,57.2c2.9,0.5,6.1,0,8.2-2.4c2-2.3,2.2-5.3,1.2-8.1c-1.6-4.6-5.6-8.4-10.4-9.2c0,1.6,0,3.2,0,4.8
			c0.6-0.1,1.6-0.2,2.2,0c0.3,0.1,0.5,0.1,0.7,0.2c0.7,0.2-0.3-0.2,0.3,0.1c0.2,0.1,0.4,0.2,0.7,0.4c0.1,0,0.6,0.5,0.3,0.2
			c0.4,0.3,0.7,0.7,1,1c-0.3-0.3,0.1,0.3,0.2,0.3c0.1,0.2,0.2,0.3,0.3,0.5c0.1,0.1,0.1,0.2,0.2,0.3c-0.1-0.2-0.1-0.2,0,0
			c0.1,0.2,0.2,0.5,0.2,0.7c0,0.1,0.1,0.7,0.1,0.5c0-0.2,0,0.4,0,0.5c0,0.2,0,0.4,0,0.7c0,0.3,0,0.4,0,0.1c0,0.1,0,0.2-0.1,0.3
			c-0.2,0.5-0.1,0.5-0.5,1.1c-0.3,0.5,0.3-0.3-0.1,0.2c-0.1,0.2-0.3,0.3-0.5,0.5c-0.2,0.2-0.3,0.3-0.5,0.4c0.4-0.3-0.2,0.1-0.2,0.1
			c-1.7,1.2-3.3,2.3-4.6,4c-0.8,1.1-0.2,2.8,0.9,3.4c1.3,0.7,2.6,0.3,3.4-0.9c0.2-0.2,0.2-0.2,0,0c0.1-0.1,0.2-0.2,0.3-0.3
			c0.1-0.2,0.3-0.3,0.5-0.4c0.1-0.1,0.2-0.2,0.3-0.3c-0.2,0.2-0.2,0.2,0,0c0.2-0.1,0.4-0.3,0.5-0.4c1-0.7,1.9-1.3,2.8-2.1
			c2.3-2,2.9-5,2.5-8c-1-5.8-6.9-9.3-12.4-8c-1,0.2-1.9,1.4-1.8,2.4c0,1,0.7,2.2,1.8,2.4c0.4,0.1,0.9,0.2,1.3,0.3
			c0.2,0.1,0.4,0.1,0.6,0.2c0.4,0.2-0.1-0.1,0.1,0.1c0.4,0.2,0.7,0.4,1.1,0.6c0.2,0.1,0.4,0.2,0.6,0.4c0,0,0.6,0.5,0.2,0.2
			c0.6,0.5,1.2,1.1,1.7,1.8c-0.3-0.4,0.1,0.2,0.1,0.2c0.1,0.2,0.3,0.4,0.4,0.6c0.2,0.3,0.4,0.7,0.6,1.1c0.1,0.3-0.1-0.3,0.1,0.1
			c0.1,0.2,0.1,0.4,0.2,0.6c0.1,0.4,0.2,0.8,0.3,1.2c0,0.1,0,0.3,0,0.5c0,0.1-0.1,0.7,0,0.3c0,0.2-0.1,0.5-0.2,0.7
			c0.2-0.5-0.1,0.2-0.2,0.2c-0.2,0.4,0.2-0.1-0.2,0.2c0,0-0.5,0.5-0.3,0.3c0.2-0.1-0.3,0.2-0.4,0.3c-0.1,0.1-0.5,0.2-0.2,0.1
			c-0.2,0.1-0.5,0.2-0.7,0.2c-0.7,0.2,0.3,0-0.4,0.1c-0.3,0-0.5,0-0.8,0c-0.1,0-0.8-0.1-0.4,0c-1.3-0.2-2.8,0.3-3.1,1.8
			C6,55.3,6.7,57,8,57.2L8,57.2z"/>
	</g>
</g>
<g>
	<path class="st1" d="M106,69c-0.7,0.8-1.1,1.9-1.1,2.9c7.4-2.8,14.4-7.8,22.4-7.5c4.3,0.2,8.3,1.8,12.2,3.5c1,0.4,2,0.9,2.8,1.6
		s1.2,2,0.9,3c-0.4,1-1.8,1.6-2.7,0.9c0.1-1.6,0.9-3.1,2.1-4.1c0.8,2.1-0.6,4.5-2.5,5.6c-1.9,1.1-4.3,1.2-6.5,1.3
		c-13.2,0.3-26.4-1.3-39.1-4.7c0.9,1.2,2.5,1.6,4,1.8c3.4,0.6,6.7,1.1,10.1,1.7c5,0.8,10,1.7,15.1,1.7c4.2,0,8.6-0.6,11.8-3.3
		c-3.2,0.8-6.4,1.7-9.6,1.8c-3.6,0.1-7.2-0.6-10.7-1.2c-9.7-1.7-19.6-2.3-29.5-1.9"/>
	<g>
		<path class="st1" d="M104.3,67.3c-1.1,1.4-1.8,2.9-1.8,4.7c0,1.5,1.7,3,3.2,2.4c6.2-2.4,12.1-6.4,18.8-7.3
			c3.5-0.4,6.9,0.4,10.2,1.6c1.6,0.6,3.3,1.2,4.8,2c0.4,0.2,0.8,0.4,1.1,0.7c0.1,0.1,0.3,0.5,0.3,0.5c0,0,0,0.1,0,0.1
			c0-0.2,0.1-0.3,0.2-0.4c0.2-0.2,0.5-0.3,0.8-0.2c0.4,0.7,0.8,1.4,1.2,2.2c0.1-1,0.7-1.7,1.4-2.3c-1.4-0.4-2.8-0.7-4.2-1.1
			c1.1,3.2-4.2,3.7-6.2,3.8c-4.4,0.1-8.8,0-13.2-0.3c-8.7-0.6-17.3-2.1-25.7-4.3c-2.6-0.7-3.9,2.3-2.4,4.2c1.1,1.3,2.8,2,4.4,2.3
			c2,0.4,4,0.7,6,1c4.2,0.7,8.3,1.4,12.5,2c7.2,0.9,15.6,1.5,21.6-3.5c2-1.7-0.2-4.8-2.4-4.2c-3.9,1-7.7,1.9-11.8,1.6
			c-4-0.3-8-1.3-12.1-1.8c-8.4-1.1-16.9-1.6-25.3-1.3c-3.2,0.1-3.2,5.1,0,5c8.5-0.3,17,0.1,25.4,1.3c4.1,0.6,8.2,1.6,12.4,1.8
			c4.3,0.2,8.5-0.8,12.6-1.8c-0.8-1.4-1.6-2.8-2.4-4.2c-2.1,1.8-5,2.4-7.7,2.6c-3.4,0.2-6.9-0.1-10.3-0.5c-3.6-0.5-7.2-1.1-10.8-1.7
			c-1.8-0.3-3.5-0.6-5.3-0.9c-1.2-0.2-2.6-0.3-3.3-1.2c-0.8,1.4-1.6,2.8-2.4,4.2c9.8,2.6,19.8,4.2,29.9,4.7c2.5,0.1,5,0.2,7.5,0.2
			c2.4,0,4.8,0,7.1-0.5c4.3-0.9,8.3-5,6.8-9.7c-0.6-1.9-2.7-2.3-4.2-1.1c-1.8,1.5-2.7,3.6-2.9,5.8c-0.1,0.9,0.6,1.7,1.2,2.2
			c2,1.3,4.8,0.5,5.9-1.5c1.3-2.2,0.4-5-1.4-6.6c-1.8-1.6-4.4-2.4-6.6-3.2c-2.3-0.9-4.6-1.7-7-2c-4.7-0.8-9.2,0.1-13.6,1.8
			c-4.2,1.6-8.2,3.8-12.4,5.5c1.1,0.8,2.1,1.6,3.2,2.4c0-0.4,0.1-0.8,0.3-1.2c0.8-1.1,1-2.5,0-3.5C106.9,66.4,105.1,66.2,104.3,67.3
			L104.3,67.3z"/>
	</g>
</g>
<g>
	<path class="st1" d="M144,57.5"/>
	<g>
		<path class="st1" d="M144,60c3.2,0,3.2-5,0-5C140.8,55,140.8,60,144,60L144,60z"/>
	</g>
</g>
<g>
	<path class="st1" d="M140.4,67.1c0.6,2.3,1,4.9-0.4,6.7c-0.6,0.7-1.4,1.2-2.3,1.7c-1.6,0.9-3.2,1.8-5,1.6"/>
	<g>
		<path class="st1" d="M138,67.7c0.1,0.6,0.3,1.1,0.4,1.7c0,0.1,0.1,0.6,0,0.1c-0.1-0.4,0,0.1,0,0.1c0,0.3,0,0.5,0.1,0.8
			c0,0.3,0,0.6,0,0.8c0,0.3,0.1-0.6,0-0.1c0,0.2-0.1,0.3-0.1,0.4c0,0.1-0.1,0.2-0.1,0.3c-0.1,0.3,0.3-0.5,0-0.1
			c-0.1,0.1-0.1,0.3-0.2,0.4c-0.2,0.4,0.3-0.3,0.1-0.1c-0.1,0.1-0.2,0.2-0.3,0.3c-0.1,0.1-0.5,0.3-0.1,0.1c0.3-0.2-0.1,0-0.2,0.1
			c-0.1,0.1-0.3,0.2-0.4,0.3c-0.5,0.3-1.1,0.6-1.6,0.9c-0.2,0.1-0.7,0.2-0.9,0.4c0.1-0.1,0.4-0.2,0.1-0.1c-0.2,0.1-0.3,0.1-0.5,0.2
			c-0.1,0-0.8,0.3-0.9,0.2c0.4,0,0.4-0.1,0.2,0c-0.1,0-0.2,0-0.3,0c-0.2,0-0.4,0-0.5,0c-1.3-0.1-2.6,1.2-2.5,2.5
			c0.1,1.4,1.1,2.4,2.5,2.5c1.8,0.1,3.6-0.6,5.2-1.4c1.3-0.7,2.8-1.5,3.8-2.6c2.3-2.6,1.9-6,1.1-9.2c-0.3-1.3-1.8-2.2-3.1-1.8
			C138.5,65.1,137.7,66.4,138,67.7L138,67.7z"/>
	</g>
</g>
<g>
	<path class="st1" d="M140,71c0.7-1.4,1.2-3,1.2-4.6"/>
	<g>
		<path class="st1" d="M142.2,72.2c0.9-1.8,1.5-3.8,1.5-5.9c0-0.6-0.3-1.3-0.7-1.8c-0.4-0.4-1.1-0.8-1.8-0.7c-0.6,0-1.3,0.2-1.8,0.7
			c-0.5,0.5-0.7,1.1-0.7,1.8c0,0.4,0,0.7-0.1,1.1c0-0.2,0.1-0.4,0.1-0.7c-0.1,1-0.4,1.9-0.8,2.8c0.1-0.2,0.2-0.4,0.3-0.6
			c-0.1,0.3-0.2,0.5-0.4,0.8c-0.3,0.6-0.4,1.3-0.3,1.9c0.2,0.6,0.6,1.2,1.1,1.5c0.6,0.3,1.3,0.5,1.9,0.3
			C141.3,73.2,141.9,72.8,142.2,72.2L142.2,72.2z"/>
	</g>
</g>
<g>
	<path class="st1" d="M141.6,66.3c-0.3,3.5-3.2,6.3-6.5,7.6c-3.3,1.2-6.9,1.2-10.4,1.1"/>
	<g>
		<path class="st1" d="M139.1,66.3C139,66.5,139,66.6,139.1,66.3c0,0.3-0.1,0.4-0.1,0.6c0,0.2-0.1,0.3-0.1,0.5
			c-0.1,0.3,0.1-0.2-0.1,0.2c-0.1,0.3-0.3,0.6-0.5,0.8c0,0-0.4,0.5-0.2,0.3c0.1-0.2-0.2,0.2-0.2,0.2c-0.2,0.3-0.5,0.6-0.8,0.8
			c-0.1,0.1-0.3,0.2-0.4,0.3c-0.6,0.5,0.2-0.1-0.2,0.1c-0.6,0.4-1.3,0.8-1.9,1.1c-0.4,0.2,0.3-0.1-0.1,0c-0.2,0.1-0.4,0.1-0.6,0.2
			c-0.4,0.2-0.9,0.3-1.3,0.4c-0.9,0.2-1.5,0.3-2.4,0.4c-1.9,0.2-3.7,0.1-5.6,0.1c-1.3,0-2.5,1.2-2.5,2.5c0,1.4,1.1,2.5,2.5,2.5
			c4.4,0.1,8.9,0.1,12.9-2c3.6-1.8,6.1-5.2,6.5-9.2c0.1-1.3-1.2-2.5-2.5-2.5C140.1,63.8,139.2,64.9,139.1,66.3L139.1,66.3z"/>
	</g>
</g>
<g>
	<path class="st1" d="M108.1,71.9c-0.3-2.6,1.9-4.7,3.9-6.4"/>
	<g>
		<path class="st1" d="M110.6,71.9c0-0.3,0-0.6,0-1c0,0.2-0.1,0.4-0.1,0.7c0.1-0.4,0.2-0.9,0.3-1.3c-0.1,0.2-0.2,0.4-0.3,0.6
			c0.2-0.6,0.6-1.1,0.9-1.6c-0.1,0.2-0.3,0.3-0.4,0.5c0.8-1,1.7-1.8,2.7-2.6c0.5-0.4,0.7-1.2,0.7-1.8c0-0.6-0.3-1.3-0.7-1.8
			c-0.5-0.4-1.1-0.8-1.8-0.7c-0.7,0-1.2,0.3-1.8,0.7c-1.2,1-2.3,2.1-3.3,3.4c-1,1.3-1.6,3.1-1.4,4.8c0.1,0.7,0.2,1.3,0.7,1.8
			c0.4,0.4,1.2,0.8,1.8,0.7c0.7,0,1.3-0.2,1.8-0.7C110.3,73.2,110.6,72.5,110.6,71.9L110.6,71.9z"/>
	</g>
</g>
<rect x="24.5" y="39.8" class="st2" width="163.7" height="74.7"/>
<g class="st3">
	<path class="st4" d="M40,42.4c1.1,0.9,1.6,2.2,1.6,3.9c0,0.8-0.1,1.7-0.4,2.6c-0.5,1.7-1.2,3.1-2.1,4.3c-1,1.2-2.1,2.1-3.4,2.7
		c-1.3,0.6-2.7,0.9-4.3,0.9c-1.9,0-3.4-0.4-4.4-1.3s-1.6-2.2-1.6-3.9c0-0.8,0.1-1.7,0.4-2.7c0.4-1.7,1.1-3.1,2.1-4.3
		c0.9-1.2,2.1-2.1,3.4-2.7c1.3-0.6,2.7-0.9,4.3-0.9C37.4,41.1,38.9,41.5,40,42.4z M33.9,43.8c-0.4,0.4-0.7,1-1.1,1.8
		c-0.4,0.8-0.7,2-1.1,3.4c-0.6,2.1-0.9,3.6-0.9,4.4c0,0.5,0.1,0.8,0.2,1c0.2,0.2,0.4,0.3,0.8,0.3c0.5,0,0.9-0.2,1.2-0.6
		c0.4-0.4,0.7-1,1.1-1.8c0.3-0.8,0.7-1.9,1.2-3.4c0.6-2.1,0.9-3.5,0.9-4.4c0-0.5-0.1-0.8-0.2-1c-0.2-0.2-0.4-0.3-0.8-0.3
		C34.6,43.3,34.2,43.5,33.9,43.8z"/>
</g>
<g class="st3">
	<path class="st4" d="M55,49.4c-0.6,0.4-1.3,0.7-2.1,0.8c0.6,0.1,1.1,0.2,1.4,0.5c0.3,0.3,0.5,0.7,0.5,1.2c0,0.2,0,0.4-0.1,0.7
		l-0.2,0.9c0,0.1,0,0.2,0,0.3c0,0.2,0,0.3,0.1,0.4c0.1,0.1,0.2,0.1,0.3,0.1c0.3,0,0.5,0,0.6,0.1s0.2,0.2,0.1,0.4
		c-0.1,0.3-0.2,0.6-0.5,0.9c-0.3,0.3-0.6,0.5-1.1,0.7c-0.5,0.2-1,0.3-1.7,0.3c-0.8,0-1.5-0.2-2-0.6c-0.5-0.4-0.7-0.9-0.7-1.6
		c0-0.3,0-0.6,0.1-0.9l0.3-1.2c0.1-0.2,0.1-0.3,0.1-0.5c0-0.3-0.1-0.5-0.3-0.6c-0.2-0.1-0.5-0.2-0.9-0.2h-0.7l-0.9,3.2
		c0,0.1,0,0.2,0,0.3c0,0.2,0,0.3,0.1,0.5c0.1,0.1,0.2,0.3,0.4,0.4c0.1,0.1,0.2,0.2,0.3,0.3c0.1,0.1,0.1,0.2,0.1,0.3
		c0,0.2-0.1,0.4-0.3,0.5c-0.2,0.1-0.5,0.1-0.9,0.1h-4.8c-0.3,0-0.6-0.1-0.7-0.2c-0.2-0.1-0.2-0.3-0.2-0.5c0-0.1,0.1-0.2,0.1-0.3
		s0.2-0.1,0.3-0.2c0.2-0.1,0.4-0.3,0.5-0.4s0.2-0.4,0.3-0.6l2.3-8.2c0.1-0.2,0.1-0.3,0.1-0.5c0-0.1,0-0.3-0.1-0.4
		c0-0.1-0.1-0.2-0.2-0.3c-0.1-0.2-0.2-0.3-0.2-0.4c0,0,0-0.1,0-0.2c0.1-0.2,0.2-0.3,0.3-0.4c0.2-0.1,0.4-0.1,0.8-0.1H52
		c0.9,0,1.6,0.1,2.3,0.4c0.7,0.3,1.2,0.6,1.5,1.1c0.3,0.5,0.5,1,0.5,1.6c0,0.3,0,0.5-0.1,0.8C56,48.4,55.6,49,55,49.4z M51.4,46.8
		c0-0.7-0.4-1-1.1-1h-0.8l-0.8,3.4h0.8c0.5,0,0.9-0.1,1.2-0.4c0.3-0.2,0.5-0.7,0.7-1.3C51.4,47.2,51.4,47,51.4,46.8z"/>
	<path class="st4" d="M69.5,44.9c1,0.7,1.4,1.8,1.4,3.2c0,0.7-0.1,1.5-0.4,2.4c-0.4,1.5-1,2.6-1.7,3.5c-0.7,0.9-1.6,1.5-2.8,1.9
		c-1.2,0.4-2.6,0.6-4.5,0.6l-5.2,0c-0.3,0-0.5,0-0.6-0.1s-0.2-0.2-0.2-0.4c0-0.1,0-0.2,0.1-0.2c0-0.1,0.1-0.2,0.2-0.2
		s0.2-0.1,0.3-0.2c0.2-0.1,0.4-0.2,0.5-0.4c0.1-0.1,0.2-0.4,0.3-0.7l2.3-8.2c0.1-0.2,0.1-0.3,0.1-0.5c0-0.1,0-0.3-0.1-0.4
		c0-0.1-0.1-0.2-0.2-0.3c-0.1-0.2-0.2-0.3-0.2-0.4c0,0,0-0.1,0-0.2c0.1-0.2,0.2-0.3,0.3-0.4c0.2-0.1,0.4-0.1,0.8-0.1h5.1
		C67.1,43.8,68.5,44.2,69.5,44.9z M66.2,47.3c0-0.7-0.1-1.1-0.4-1.4c-0.3-0.3-0.7-0.4-1.2-0.4h-0.4l-2.6,9.2H62
		c0.6,0,1.1-0.1,1.5-0.4c0.4-0.2,0.8-0.7,1.1-1.4c0.3-0.7,0.7-1.6,1.1-2.9C66,48.9,66.2,48,66.2,47.3z"/>
	<path class="st4" d="M83.9,44.1c0.3,0.2,0.4,0.5,0.4,0.8c0,0.2,0,0.3-0.1,0.5l-0.5,1.8c-0.1,0.3-0.2,0.6-0.4,0.7
		c-0.2,0.1-0.4,0.2-0.7,0.2c-0.3,0-0.5-0.1-0.7-0.2c-0.2-0.1-0.3-0.4-0.4-0.7l-0.3-1.1C81.1,46,81,45.8,81,45.8s-0.3-0.1-0.5-0.1h-2
		l-1,3.4h0.8c0.1,0,0.2-0.1,0.4-0.2l0.6-0.6c0.2-0.2,0.4-0.3,0.5-0.4c0.1-0.1,0.3-0.1,0.5-0.1c0.2,0,0.4,0.1,0.6,0.2
		c0.1,0.1,0.2,0.3,0.2,0.5c0,0.1,0,0.1,0,0.2l-0.8,2.6c-0.1,0.3-0.2,0.5-0.4,0.6c-0.2,0.1-0.4,0.2-0.6,0.2c-0.4,0-0.6-0.2-0.8-0.6
		l-0.3-0.7c-0.1-0.2-0.2-0.3-0.4-0.3H77l-1.1,4h1.7c0.2,0,0.5,0,0.6-0.1c0.2-0.1,0.4-0.3,0.6-0.5l1.1-1.3c0.2-0.2,0.4-0.4,0.6-0.5
		c0.2-0.1,0.4-0.1,0.7-0.1c0.3,0,0.5,0.1,0.7,0.2c0.2,0.1,0.3,0.3,0.3,0.6c0,0.1,0,0.2-0.1,0.4l-0.6,1.9c-0.1,0.5-0.3,0.8-0.6,1
		s-0.7,0.3-1.2,0.3h-9.1c-0.3,0-0.5,0-0.6-0.1s-0.2-0.2-0.2-0.4c0-0.1,0-0.2,0.1-0.2c0.1-0.1,0.1-0.2,0.2-0.3s0.2-0.1,0.2-0.1
		c0.2-0.1,0.4-0.3,0.5-0.4c0.1-0.1,0.2-0.4,0.3-0.7l2.3-8.2c0.1-0.2,0.1-0.3,0.1-0.5c0-0.2,0-0.3-0.1-0.4s-0.1-0.2-0.2-0.3
		c-0.1-0.2-0.2-0.3-0.2-0.4c0,0,0-0.1,0-0.2c0.1-0.2,0.2-0.3,0.3-0.4c0.2-0.1,0.4-0.1,0.8-0.1h8.4C83.3,43.8,83.6,43.9,83.9,44.1z"
		/>
	<path class="st4" d="M96.5,49.4c-0.6,0.4-1.3,0.7-2.1,0.8c0.6,0.1,1.1,0.2,1.4,0.5c0.3,0.3,0.5,0.7,0.5,1.2c0,0.2,0,0.4-0.1,0.7
		L96,53.5c0,0.1,0,0.2,0,0.3c0,0.2,0,0.3,0.1,0.4c0.1,0.1,0.2,0.1,0.3,0.1c0.3,0,0.5,0,0.6,0.1s0.2,0.2,0.1,0.4
		c-0.1,0.3-0.2,0.6-0.5,0.9c-0.3,0.3-0.6,0.5-1.1,0.7c-0.5,0.2-1,0.3-1.7,0.3c-0.8,0-1.5-0.2-2-0.6c-0.5-0.4-0.7-0.9-0.7-1.6
		c0-0.3,0-0.6,0.1-0.9l0.3-1.2c0.1-0.2,0.1-0.3,0.1-0.5c0-0.3-0.1-0.5-0.3-0.6c-0.2-0.1-0.5-0.2-0.9-0.2h-0.7l-0.9,3.2
		c0,0.1,0,0.2,0,0.3c0,0.2,0,0.3,0.1,0.5c0.1,0.1,0.2,0.3,0.4,0.4c0.1,0.1,0.2,0.2,0.3,0.3c0.1,0.1,0.1,0.2,0.1,0.3
		c0,0.2-0.1,0.4-0.3,0.5c-0.2,0.1-0.5,0.1-0.9,0.1h-4.8c-0.3,0-0.6-0.1-0.7-0.2c-0.2-0.1-0.2-0.3-0.2-0.5c0-0.1,0.1-0.2,0.1-0.3
		s0.2-0.1,0.3-0.2c0.2-0.1,0.4-0.3,0.5-0.4s0.2-0.4,0.3-0.6l2.3-8.2c0.1-0.2,0.1-0.3,0.1-0.5c0-0.1,0-0.3-0.1-0.4
		c0-0.1-0.1-0.2-0.2-0.3c-0.1-0.2-0.2-0.3-0.2-0.4c0,0,0-0.1,0-0.2c0.1-0.2,0.2-0.3,0.3-0.4c0.2-0.1,0.4-0.1,0.8-0.1h6.4
		c0.9,0,1.6,0.1,2.3,0.4c0.7,0.3,1.2,0.6,1.5,1.1c0.3,0.5,0.5,1,0.5,1.6c0,0.3,0,0.5-0.1,0.8C97.5,48.4,97.1,49,96.5,49.4z
		 M92.9,46.8c0-0.7-0.4-1-1.1-1H91l-0.8,3.4H91c0.5,0,0.9-0.1,1.2-0.4c0.3-0.2,0.5-0.7,0.7-1.3C92.9,47.2,92.9,47,92.9,46.8z"/>
</g>
<g class="st3">
	<path class="st4" d="M119.9,42.4c1.1,0.9,1.6,2.2,1.6,3.9c0,0.8-0.1,1.7-0.4,2.6c-0.5,1.7-1.2,3.1-2.1,4.3s-2.1,2.1-3.4,2.7
		c-1.3,0.6-2.7,0.9-4.3,0.9c-1.9,0-3.4-0.4-4.4-1.3s-1.6-2.2-1.6-3.9c0-0.8,0.1-1.7,0.4-2.7c0.4-1.7,1.1-3.1,2.1-4.3
		c0.9-1.2,2.1-2.1,3.4-2.7s2.7-0.9,4.3-0.9C117.3,41.1,118.8,41.5,119.9,42.4z M113.8,43.8c-0.4,0.4-0.7,1-1.1,1.8
		c-0.4,0.8-0.7,2-1.1,3.4c-0.6,2.1-0.9,3.6-0.9,4.4c0,0.5,0.1,0.8,0.3,1c0.2,0.2,0.4,0.3,0.8,0.3c0.5,0,0.9-0.2,1.2-0.6
		c0.4-0.4,0.7-1,1.1-1.8c0.3-0.8,0.7-1.9,1.2-3.4c0.6-2.1,0.9-3.5,0.9-4.4c0-0.5-0.1-0.8-0.2-1c-0.2-0.2-0.4-0.3-0.8-0.3
		C114.6,43.3,114.2,43.5,113.8,43.8z"/>
</g>
<g class="st3">
	<path class="st4" d="M137.7,44.3c0,0.1,0,0.2,0,0.2c0,0.1-0.1,0.2-0.2,0.3c-0.1,0.1-0.2,0.1-0.3,0.2c-0.2,0.1-0.3,0.2-0.5,0.4
		c-0.1,0.1-0.2,0.4-0.3,0.6l-2.4,8.4c-0.2,0.8-0.5,1.3-0.8,1.6s-0.8,0.5-1.3,0.5c-0.5,0-0.9-0.1-1.3-0.4s-0.7-0.8-0.9-1.4l-2.9-6.1
		l-1.6,5.6c0,0.2-0.1,0.3-0.1,0.4c0,0.2,0,0.3,0.1,0.4c0.1,0.1,0.1,0.2,0.2,0.3c0.1,0.2,0.2,0.3,0.2,0.4c0,0.1,0,0.1,0,0.2
		c-0.1,0.2-0.2,0.3-0.3,0.4s-0.4,0.1-0.8,0.1h-2.1c-0.5,0-0.8-0.2-0.8-0.5c0-0.1,0-0.2,0-0.2c0-0.1,0.1-0.2,0.2-0.3
		c0.1-0.1,0.2-0.1,0.3-0.2c0.2-0.1,0.3-0.2,0.5-0.4s0.2-0.4,0.3-0.6l2.4-8.5l-0.3-0.6c-0.1-0.3-0.2-0.5-0.2-0.7
		c0-0.4,0.3-0.6,0.8-0.6h2.8c0.4,0,0.7,0.1,0.9,0.3c0.2,0.2,0.4,0.5,0.7,1l2.8,5.6l1.3-4.6c0-0.2,0.1-0.3,0.1-0.4
		c0-0.2,0-0.3-0.1-0.4c-0.1-0.1-0.1-0.2-0.2-0.3c-0.1-0.2-0.2-0.3-0.2-0.4c0-0.1,0-0.1,0-0.2c0.1-0.2,0.2-0.3,0.3-0.4
		c0.2-0.1,0.4-0.1,0.8-0.1h2.1C137.5,43.8,137.7,44,137.7,44.3z"/>
	<path class="st4" d="M148.3,51.8c0.2,0.1,0.3,0.4,0.3,0.6c0,0.1,0,0.2-0.1,0.4l-0.6,2.2c-0.2,0.5-0.4,0.9-0.7,1.1s-0.7,0.3-1.3,0.3
		h-8.9c-0.3,0-0.5,0-0.6-0.1c-0.1-0.1-0.2-0.2-0.2-0.4c0-0.1,0-0.2,0.1-0.2c0-0.1,0.1-0.2,0.2-0.3c0.1-0.1,0.2-0.1,0.3-0.2
		c0.2-0.1,0.4-0.3,0.5-0.4c0.1-0.1,0.2-0.4,0.3-0.7l2.3-8.2c0.1-0.2,0.1-0.3,0.1-0.5c0-0.1,0-0.3-0.1-0.4c0-0.1-0.1-0.2-0.2-0.3
		c-0.1-0.2-0.2-0.3-0.2-0.4c0,0,0-0.1,0-0.2c0.1-0.2,0.2-0.3,0.3-0.4c0.2-0.1,0.4-0.1,0.8-0.1h4.5c0.3,0,0.5,0,0.6,0.1
		c0.1,0.1,0.2,0.2,0.2,0.4c0,0.1,0,0.1-0.1,0.2c0,0.1-0.1,0.2-0.2,0.2c-0.1,0.1-0.1,0.1-0.2,0.2c-0.1,0-0.1,0.1-0.1,0.1
		c-0.2,0.1-0.4,0.2-0.5,0.4c-0.1,0.1-0.2,0.4-0.3,0.6l-2.5,8.6h1.2c0.3,0,0.5-0.1,0.8-0.2c0.2-0.1,0.4-0.3,0.7-0.6l1.3-1.6
		c0.2-0.3,0.5-0.5,0.7-0.6c0.2-0.1,0.5-0.2,0.8-0.2C147.8,51.6,148.1,51.7,148.3,51.8z"/>
	<path class="st4" d="M158,43.9c0.1,0.1,0.2,0.2,0.2,0.4c0,0.1,0,0.1-0.1,0.2c0,0.1-0.1,0.2-0.2,0.2c-0.1,0.1-0.1,0.1-0.2,0.2
		c-0.1,0-0.1,0.1-0.1,0.1c-0.2,0.1-0.4,0.2-0.5,0.4s-0.2,0.4-0.3,0.6l-2.3,8.2c-0.1,0.2-0.1,0.3-0.1,0.5s0,0.3,0.1,0.4
		c0,0.1,0.1,0.2,0.2,0.3c0.1,0.2,0.2,0.3,0.2,0.4c0,0,0,0.1,0,0.2c-0.1,0.2-0.2,0.3-0.3,0.4c-0.2,0.1-0.4,0.1-0.8,0.1h-4.5
		c-0.3,0-0.5,0-0.6-0.1c-0.1-0.1-0.2-0.2-0.2-0.4c0-0.1,0-0.2,0.1-0.2c0.1-0.1,0.1-0.2,0.2-0.3s0.2-0.1,0.2-0.1
		c0.2-0.1,0.4-0.3,0.5-0.4c0.1-0.1,0.2-0.4,0.3-0.7l2.3-8.2c0-0.2,0.1-0.3,0.1-0.5c0-0.1,0-0.3-0.1-0.4c0-0.1-0.1-0.2-0.2-0.3
		c-0.1-0.2-0.2-0.3-0.2-0.4c0,0,0-0.1,0-0.2c0.1-0.2,0.2-0.3,0.3-0.4c0.2-0.1,0.4-0.1,0.8-0.1h4.5C157.7,43.8,157.9,43.9,158,43.9z"
		/>
	<path class="st4" d="M172.8,44.3c0,0.1,0,0.2,0,0.2c0,0.1-0.1,0.2-0.2,0.3c-0.1,0.1-0.2,0.1-0.3,0.2c-0.2,0.1-0.3,0.2-0.5,0.4
		c-0.1,0.1-0.2,0.4-0.3,0.6l-2.4,8.4c-0.2,0.8-0.5,1.3-0.8,1.6s-0.8,0.5-1.3,0.5c-0.5,0-0.9-0.1-1.3-0.4s-0.7-0.8-0.9-1.4l-2.9-6.1
		l-1.6,5.6c0,0.2-0.1,0.3-0.1,0.4c0,0.2,0,0.3,0.1,0.4c0.1,0.1,0.1,0.2,0.2,0.3c0.1,0.2,0.2,0.3,0.2,0.4c0,0.1,0,0.1,0,0.2
		c-0.1,0.2-0.2,0.3-0.3,0.4s-0.4,0.1-0.8,0.1h-2.1c-0.5,0-0.8-0.2-0.8-0.5c0-0.1,0-0.2,0-0.2c0-0.1,0.1-0.2,0.2-0.3
		c0.1-0.1,0.2-0.1,0.3-0.2c0.2-0.1,0.3-0.2,0.5-0.4s0.2-0.4,0.3-0.6l2.4-8.5l-0.3-0.6c-0.1-0.3-0.2-0.5-0.2-0.7
		c0-0.4,0.3-0.6,0.8-0.6h2.8c0.4,0,0.7,0.1,0.9,0.3c0.2,0.2,0.4,0.5,0.7,1l2.8,5.6l1.3-4.6c0-0.2,0.1-0.3,0.1-0.4
		c0-0.2,0-0.3-0.1-0.4c-0.1-0.1-0.1-0.2-0.2-0.3c-0.1-0.2-0.2-0.3-0.2-0.4c0-0.1,0-0.1,0-0.2c0.1-0.2,0.2-0.3,0.3-0.4
		c0.2-0.1,0.4-0.1,0.8-0.1h2.1C172.5,43.8,172.8,44,172.8,44.3z"/>
	<path class="st4" d="M185.1,44.1c0.3,0.2,0.4,0.5,0.4,0.8c0,0.2,0,0.3-0.1,0.5l-0.5,1.8c-0.1,0.3-0.2,0.6-0.4,0.7
		c-0.2,0.1-0.4,0.2-0.7,0.2c-0.3,0-0.5-0.1-0.7-0.2c-0.2-0.1-0.3-0.4-0.4-0.7l-0.3-1.1c-0.1-0.2-0.1-0.4-0.2-0.5s-0.3-0.1-0.5-0.1
		h-2l-1,3.4h0.8c0.1,0,0.2-0.1,0.4-0.2l0.6-0.6c0.2-0.2,0.4-0.3,0.5-0.4s0.3-0.1,0.5-0.1c0.2,0,0.4,0.1,0.6,0.2
		c0.1,0.1,0.2,0.3,0.2,0.5c0,0.1,0,0.1,0,0.2l-0.8,2.6c-0.1,0.3-0.2,0.5-0.4,0.6c-0.2,0.1-0.4,0.2-0.6,0.2c-0.4,0-0.6-0.2-0.8-0.6
		l-0.3-0.7c-0.1-0.2-0.2-0.3-0.4-0.3h-0.7l-1.1,4h1.7c0.2,0,0.5,0,0.6-0.1s0.4-0.3,0.6-0.5l1.1-1.3c0.2-0.2,0.4-0.4,0.6-0.5
		c0.2-0.1,0.4-0.1,0.7-0.1c0.3,0,0.5,0.1,0.7,0.2s0.3,0.3,0.3,0.6c0,0.1,0,0.2-0.1,0.4l-0.6,1.9c-0.1,0.5-0.3,0.8-0.6,1
		s-0.7,0.3-1.2,0.3h-9.1c-0.3,0-0.5,0-0.6-0.1c-0.1-0.1-0.2-0.2-0.2-0.4c0-0.1,0-0.2,0.1-0.2c0.1-0.1,0.1-0.2,0.2-0.3
		s0.2-0.1,0.2-0.1c0.2-0.1,0.4-0.3,0.5-0.4c0.1-0.1,0.2-0.4,0.3-0.7l2.3-8.2c0.1-0.2,0.1-0.3,0.1-0.5c0-0.2,0-0.3-0.1-0.4
		c0-0.1-0.1-0.2-0.2-0.3c-0.1-0.2-0.2-0.3-0.2-0.4c0,0,0-0.1,0-0.2c0.1-0.2,0.2-0.3,0.3-0.4c0.2-0.1,0.4-0.1,0.8-0.1h8.4
		C184.5,43.8,184.9,43.9,185.1,44.1z"/>
</g>
</svg>
