<?xml version="1.0" encoding="utf-8"?>
<!-- Generator: Adobe Illustrator 24.0.1, SVG Export Plug-In . SVG Version: 6.00 Build 0)  -->
<svg version="1.1" xmlns="http://www.w3.org/2000/svg" xmlns:xlink="http://www.w3.org/1999/xlink" x="0px" y="0px"
	 viewBox="0 0 1632 774" style="enable-background:new 0 0 1632 774;" xml:space="preserve">
<style type="text/css">
	.st0{fill:#19181F;}
	.st1{fill:#F7ECDA;}
</style>
<g id="Layer_2">
	<path class="st0" d="M1567.5,467.1c0.4-0.2,0.7-0.3,1.1-0.4c12.1-13.9,5.4-40.2,10.6-59.1c2.2-8.2,2.1-33.3-11.9-39.7
		c-1.5-0.6-3.5-5.3-3.1-7c3.6-16.2,7.1-32.5,11.8-47.9c3.8-12.5-1.5-29.6-10.4-30.6c-9.5-1-19-2.8-29.3-4.4c1.6-8.9,3-16.1,4.3-23.3
		l0.2,0.4c-0.6-1.3-1-3.1-1.5-4.3c-1.6-0.7-3-1.5-4.2-2.6c-1.7-0.6-3.5-1.1-5.2-1.7c0.6-1.3,1.1-2.5,1.7-3.8
		c-0.1-0.3-0.2-0.6-0.3-0.9c-1.3-5.2,0.1-11.3-3.6-15.8c-1-1.2-1.3-2.5-1.2-3.7c-1.3-1.4-2.8-2.9-4.5-4.6h7.6c1.1-0.5,2.4-0.6,3.6,0
		h10.8c0.2-0.2,0.4-0.4,0.7-0.5c3.9-2.6,6.5-5.7,4.6-9.9c-8.2-3.5-16.4-7-24.6-10.4c-8.2-3.4-17.2-12-24.2-9.1
		c-8.1,3.3-12.3,0.9-14.9-4.6c-9-2.4-17.3-6.1-23.6-12.4c-1.3,1.6-3.2,1-6.6-5c-2.3-4.1-7.8-4-11.7-6.1c-4.2-2.3-9.8-3.1-12.2-7.7
		c-0.3-0.5-0.6-1-0.8-1.5c-3.5-1.7-7.1-3.3-10.7-4.8c-1.4,1-2.7,2.5-3.9,3.9c-5.3-3.2-9.2-5.7-13.2-7.9c-1.8-1-4.9-0.7-5.5-2.4
		c-5.8-17.9-18.7-15.6-27.7-19c-17.8-6.8-36.9-7-55.5-8.6c-14.5-1.2-29.1,0.7-43.6-0.7c-30.7-2.9-61.3-7.1-92-10.7
		c-16.9-2-33.8-4-50.6-6c-7.3,1.1-14.7,1.1-21.9-1.8c-0.4,0-0.8,0-1.2-0.1c-6.3-1.2-12.8-2-19.2-1.3c-5,0.6-12.5,3.1-13,9.3
		c-0.2,2.7,2.1,3.1,4.6,4.1c3.1,1.3,5.9,2.3,8.3,4.4c2.8-0.2,5.5,0.1,8.2,1.3c1.9,0.8,3.5,2.3,4.5,4.1c0.6,0.1,1.2,0.3,1.9,0.4
		c-0.2,1-0.5,1.9-0.8,2.7c0.4,3.1-1.1,6.1-3.7,7.8c-2.3,1.5-4.9,1.8-7.6,1.6c-3.6,2.8-9.1,2.1-13.2,0.8c-4-1.3-7.8-3.4-10.7-6.5
		c-0.2-0.1-0.4-0.3-0.6-0.4c-8.8,0.1-17.6-1.4-24.7-4.8c-13.6-6.4-26.7-4.7-39.9-7.8c-11.2-2.6-22.4-4-33.7-5.9
		c-6.1,3.2-12.4,4.2-18.9,4c0.2,0.2,0.4,0.4,0.6,0.6h-17.2c-0.1-0.3-0.1-0.6-0.2-0.8c-6.1,0.2-12.7,0.9-13.3,6.7
		c-0.1,1-0.4,1.8-0.9,2.5c0.4,0.8,0.8,1.7,1.2,2.5c-3.2,2.4-5.3,2-6.9,0.1c-1.6,1-3.7,1.3-5.2,0.2c-16-1.1-31.4-2.2-46.8-3.3
		c-1,0.6-2.2,1-3.7,0.7c-7.5-1.2-12.4,1.5-17.4,5.2c0.8,3.8,1.7,7.4,2.5,11.1h-17c-0.3,0.2-0.6,0.3-1,0.5c-1.1,0.7-2.2,1.3-3.3,1.9
		c-4.4,2.3-8.9,4.3-13.1,6.9c0.1,0.2,0.3,0.5,0.4,0.7c-0.6,0.1-1.3,0.2-1.9,0.2c-0.5,0.3-0.9,0.6-1.4,0.9c-1.2,0.9-2.7,0.8-4,0.3
		c-1.1,0.4-2.4,0.4-3.5-0.1c-24,3.1-47.7,5.9-71.3,9.6c-9.5,1.5-18.9,0.1-28.3-0.2c-2,0.9-4.1,1.8-6.2,2.5c-0.8,0.8-1.9,1.4-3.3,1.6
		c-1.2,0.1-2.4,0.2-3.6,0.4c-1.9,0.4-3.8,0.7-5.8,0.9c-1.7,0.2-3.4,0.2-5.1,0.2c-47.6,5.2-95,12.3-142.2,20.1c0,0.1,0,0.1,0,0.2
		c-12.2,5-24.3,12.1-36.8,14.5c-17.2,3.3-34.7,3.1-52.1,4.2c-7.7,0.5-15.7-1.1-23.1,1.3c-6.2,1.9-12.1,6.5-18.1,9.9
		c-5.1,3.6-11.9,5.5-17.6,6.6c-10.2,2-20.9,2.5-31.4,1.9c0,0.2-0.1,0.3-0.1,0.5c-0.1-0.2-0.1-0.3-0.2-0.5c-0.7,0-1.4-0.1-2-0.1
		c-0.7-0.1-1.3-0.2-1.9-0.5c-4,0.4-8,0.4-12.1,0.3c-0.3,0.1-0.6,0.2-0.8,0.3c-3.7,1.4-7.3,5.1-11,5.3c-16.8,1.1-33.6-0.1-50.3,2.4
		c-15.3,2.4-30.5,6.4-45.7,10.5c-0.3,0.2-0.6,0.3-0.9,0.4c-5.3,2.1-10.2,7.5-13.6,11.8c-0.9,1.1-1.8,2.4-2.5,3.6
		c0.3-0.1,0.4-0.1,0.4-0.1c2.3-0.6,4,0.2,5.1,1.7c17.4-2.5,34.8-5,52.2-7.4v3.6c-19.7,6.3-39.3,12.5-58.9,18.8
		c-3.6,3-7.8,5.3-11.4,8.2c-1.2,1-3.1,2.4-4.3,3.9c0.9,0.4,1.7,0.8,2.6,1.3c-1.3,0.9-2.4,1.7-3.5,2.4c0.6,1.7,2.6,3.1,3.9,4
		c2.3,1.7,2.6,4.3,1.7,6.4c3.2,2.3,6.3,4.5,9.3,6.7c-5,3.2-9.7,6.3-14.2,9.2c0.9,1.7,0.9,3.8-0.9,5.6c-6.5,6.3-8.6,14.4-9,22.9
		c0.3,3.5,0.4,6.8,0.2,10.2c0,0.4-0.1,0.7-0.1,1.1c0.3,5.6,0.8,11.2,0.7,16.4c0,0.1,0,0.2,0,0.3c0.8,0.7,1.6,1.3,2.5,1.8
		c2.5,1.6,5.3,2.6,7.4,4.7c3.8,0.5,7.4,1.5,10.4,3.3c3.9,2.4,4.9,5.6,4.3,8.8c0.7,2,0.2,4.2-2.3,5.2c-0.1,0-0.1,0-0.2,0.1
		c-1.5,1.9-3.4,3.6-5.5,4.8c-4.7,2.6-10.1,3.6-15.7,3.9c-1.8,1.1-3.5,2.2-5.3,3.3c-0.8,2.1-1.6,4.3-2.4,6.3
		c-1.8,4.6-1.7,16.2,0.4,18.4c6,6.3,7.7,12.1,5.9,19.5c6.2,4.4,9.7,10.5,6,19.8c0,0.1-0.1,0.2-0.2,0.3c0.5,0.5,0.8,1,1.1,1.6
		c0.3-0.2,0.7-0.4,1.1-0.6c-0.3,0.5-0.6,0.9-0.8,1.4c0.2,0.7,0.1,1.5-0.1,2.3c-1.9,5.7-5.4,10.3-9.9,13.8c-2.9,4.7-5.8,9.4-9,14.6
		c7.7,2.5,11.6,3.7,16.1,5.2c-1.4,1.5-2.7,3-4.1,4.4c-0.1,1.1-0.5,2.2-1.4,3.2c-1.4,1.5-2.1,2.6-2,3.6c1.7,0.4,3.3,1.2,4.1,2.8
		c0.1,0.2,0.2,0.3,0.2,0.5c0.9,0.4,1.9,0.8,2.8,1.2c6.5,0.6,8.7,1.9,9.9,5.1c2.4,3.4,3,8.3,1.8,12c-1.6,4.9-6.1,8.7-10.2,12.5
		c-0.9,3.5-1.5,7-1.7,10.6c-0.2,3.9-0.1,9.3,2.3,12.4c1.3,1.7,4.2,3.3,6.2,4.6c5.2,3.3,11.5,6.1,15.7,10.7c0,0,0,0,0,0.1
		c3.1,1.2,5.2,4.8,5.4,12.7c-6.9,1.7-13.8,2-20.1,5.3c-3.7,1.9-6.4,8.5-9.5,13c3.8,3.2,7.5,8.3,11.5,9.2c5.1,1.2,11-3.5,15.7-1.3
		c10.9,5.2,20.2,14,33.3,6.5c10.6-6.1,23.4-3.5,35.2-5.1c16.1-2.2,32.1-4.7,48.2-7c3.2-0.5,6.6,0.2,9.7-0.7
		c15.2-4.5,30.3-11.1,45.7-13.7c18.5-3.1,37.2-2.6,55.7-4.4c14.7-1.4,28.7-7.5,43-12.8c12.9-4.7,27.1-1,40.8-1
		c0.2,2.9,0.3,5.7,0.4,8.6c-23.3,4.5-46.7,8.8-70,13.5c-0.3,0.3-0.7,0.6-1.1,0.9c-2.6,1.5-5.3,2.5-8.1,3.2c-0.5,0.6-1.2,1.1-2.1,1.3
		c-1.4,0.4-3.3,1.1-4.6,1.9c-0.4,0.4-0.9,0.8-1.2,1.3c0.5,0.4,1,1.3,1.7,1.8c3.8,3,9.1,4.5,13.9,4.2c0.5,0,0.9,0,1.3,0.1
		c0.7-0.1,1.5-0.1,2.2-0.2c0.9-0.2,1.7-0.4,2.6-0.6c11.4-2.8,22.4-3.3,34.1-3.3c1,0,2,0,3,0c1-0.1,2-0.2,2.9-0.3
		c1.4-0.1,2.7-2.7,4.1-2.8c9.9-0.4,19.8-0.7,29.7-0.6c3.7,0,7.6,2.5,11.2,1.9c6.2-1.1,12.3-5.4,18.4-5.5
		c41.8-0.5,83.6-0.2,125.4-0.3c1.4,0,2.8-0.1,4.2-0.2c1.2-1.2,2.2-2.5,3.2-3.9c0-0.1,0.1-0.2,0.1-0.4c-3.5-2.6-7.5-4.3-11.7-5.5
		h-85.2c-0.1-2.1-0.1-4.1-0.1-6.1c6.1-3.3,11.9-8.7,18.1-9.6c24-3.4,48-6,72-7.6c27.9-1.9,55.8-3,83.7-3.5c32.8-0.6,65.7-0.1,98.5,0
		c2.8,0,6.3-0.1,8.1,2.2c8.6,11.3,18.7,7.6,28.5,8.8c10.7,1.3,21.3-1.6,32.1-0.7c45.2,3.7,90.6,5.5,135.9,8c8,0.4,15.5-4,24.2-0.9
		c15.5,5.4,31.7,6.4,47.6,7.7c5.7,0.5,12.2-6.6,17.3-4.5c6.5,2.6,11.8-0.6,17.6-0.6s11.6,4.7,17.5,5.7c7.2,1.3,15.2-1.8,21.7,1.8
		c13.9,7.8,28.4,7.5,42.5,8.8c23.1,2.2,46.3,1,69.4,1.2c6.6,0,15.7-3.9,19.1,1.1c9.4,14,11.6,1.5,15.1-3.7
		c6.7,4.3,13.5,7.6,20.4,9.3c12.2,2.9,24.5,6.4,36.7,6.5c8,0.1,16.9,5.7,24.6-0.2c1.2-3.2,3.1-6.1,5.6-8.4c1-4.1,1.9-8.1,2.4-11.6
		h23.1c0.1,1,0.3,2,0.4,3c-1.8,1.6-3.6,3.2-5.7,5.2c0.8,1.6,1.2,3.2,1.2,4.9c1.5,1.4,2.8,2.6,4.2,3.8c-0.8,1.6-1.3,3.3-1.7,3.2
		c-1.2-0.2-2.7-0.2-4.2-0.2c-1.8,3.8-3.2,7.9-2,11c3.1,0.8,6.1,1.2,9.1,0.6c10.4-1.9,18.8,0.1,28,7.4c7,5.5,15.6,6.2,23.5,9
		c0.6-1.7,1.2-3.3,1.8-5c-2.2-3.5-4.1-8.5-6.8-10.1c-8-4.8-16.3-8.2-26.5-13.1c4.1-5.5,6.4-11.1,8.4-10.9
		c14.6,1.7,29.1,4.7,43.7,7.2c6.2,1.1,10-7.7,8.1-17.1c-0.6-3.1,0.3-9.9,1.1-10.1c8.8-2.4,5.9-9.9,3.9-17.7
		c-1.9-7.2-3.3-14.7-3.9-17.6c3.5-9.2,7.5-15.2,7.7-21.4c0.3-8.1-1.3-17.7-4.4-24c-0.4-0.8-0.9-1.6-1.5-2.2
		c-1.7-0.8-3.3-1.6-4.9-2.7c-0.8-0.5-1.5-1.3-1.9-2.2c-1.6-0.9-3.3-1.7-4.8-2.8c0-1-0.1-1.9-0.1-2.9c2-0.2,4-0.3,6.1-0.5
		c2.4-3.2,5-6.5,6.5-10.2c2-4.9-0.6-7.8-4.8-10.4c-1.1-0.7-1.8-1.7-2.1-2.7c-1.8-3.5-1.4-9.2-0.2-20c1.2,4.7,2.1,8.1,2.7,10.5
		c0.9-0.7,2-1.1,3.1-1.1c0.1,0,0.2,0,0.3,0c0,0,0.1,0,0.1,0c0.4-0.1,0.9-0.3,1.3-0.4c-0.9,0.3,0.4-0.2,0.5-0.2
		C1566.6,467.5,1567,467.3,1567.5,467.1z M450.3,246.9c-4,6.7-8.7,10.7-15.4,9.2c-11.6,4.1-23.5,6.4-35.9,7.3
		c-3.4,0.2-5.3-3.1-4.8-6c-1.6-2.2-1.7-5.5,1.3-7.3c1.7-1,3.5-1.9,5.3-2.7c0.9-0.9,2.1-1.3,4-1.5c4-1.4,8.1-2.2,12.3-2.6
		c9.7-4.3,20-6.8,30.3-3.7C450.4,240.5,452,244.1,450.3,246.9z M666.3,200.9c-1.4,2.5-3.3,3.6-5.8,4.8c-1.9,0.9-4.2,0.8-5.7-0.5
		c-4.2,3.9-12.2,4.8-17,4.5c-11-0.7-21.8-5.9-32.8-5.3c-3,0.2-4.6-2-4.8-4.3c-0.1-0.1-0.2-0.3-0.3-0.4c-0.3-0.1-0.6-0.2-1-0.4h0.7
		c-1.8-3,0.9-8.4,5.7-7.8c-1.9-0.3,1.4-0.1,2.1-0.1c1.5,0,2.9-0.1,4.4-0.1c4-0.2,8.1-0.4,12.1-0.5c4.5-0.2,17.9-1.7,26.4,0.7
		c0.5-0.2,1.1-0.2,1.7-0.2c3.9,0.1,7.7,1,11.3,2.2C666.4,194.6,667.9,198,666.3,200.9z M764.3,186.2c-12.8,5-26.8,3.2-40.1,4.8
		c-1.2,0.6-2.4,0.6-3.5,0.2c-5.1-0.8-6.8-8.8-1-9.6c0,0,0.1,0,0.1,0c0.2-0.2,0.4-0.4,0.6-0.5c0-0.2,0-0.4,0-0.6
		c0.3-0.1,0.6-0.1,1-0.2c12.4-10.6,36.1-17.2,46.1-1.3C769.2,181.8,767.2,185.1,764.3,186.2z M1162.5,576c-23.4,0-46.8,6.4-70.1,3.1
		c-25.7,7.8-51.6,3.1-77.5-1.3c-22.3-1.9-44.9-3.8-68.1-5.8c0.2-2.8-0.7-11,0.9-12.4c3.6-3.2,9.4-5.9,12.7-3.6
		c1.9,1.4,3.9,2.6,5.8,3.8c10.9,4,22.2,3.5,33.5,1.7c3.5-0.6,5.9,2.1,6.2,4.9c5.6,0.9,11.3,1.9,16.9,2.9c2.3-0.5,4.5-1.1,6.8-1.8
		c20.9-6.6,41.1-5,61.4-4.9c23.9,0.1,47.7,5.6,71.6,8.8C1162.5,572.9,1162.5,574.5,1162.5,576z M1327,594.1c3.9-13.6,7.2-14,29.2,0
		H1327z"/>
</g>
<g id="Layer_1">
	<g id="Layer_1_xA0_Image_1_">
		<g>
			<path class="st1" d="M1239.1,562.2c-1.6-0.7-3-2.1-4.6-2.2c-11.3-0.1-22.5-0.1-33.7-0.1c-1.4,0-2.7-1.2-4.2-1.6
				c-0.8-0.2-1.9-0.2-2.6,0.1c-1.3,0.6-2.4,1.5-4.4,2.6c0-5.8,0-10.2,0-14.8c6.1-0.9,9.4-4.8,9.4-11c0-2.8,0.4-5.8-0.1-8.5
				c-4.6-24.5-0.9-49.2-2.2-73.7c-0.1-0.8-0.7-1.9-1.4-2.4c-1.8-1.5-1.7-5.6,0.2-7c0.5-0.4,1.3-1,1.2-1.5c-0.5-3.4,2.1-7.5-2.4-10.1
				c-0.6-0.3-0.4-2.1-0.4-3.1c0-15.6,0.1-31.2-0.1-46.7c0-2.7-1.6-5.3-1.6-8c0-2.3,2.2-5,1.6-6.8c-3.6-11.5-1.2-23.3-2.3-34.9
				c-0.4-0.1-0.7-0.3-1-0.4c-1.3,3-2.6,5.9-3.9,8.9c-0.1,0-0.1-0.1-0.1-0.1c-0.7,1.3-1.4,2.7-2.2,3.9c-1.3,2.3-2.7,4.6-3.9,7
				c-0.3,0.5-0.3,1.2-0.4,1.7c-0.8,2.4-1.6,4.9-2.6,7.2c-0.2,0.5-1.5,0.6-1.3,0.5c-8.8,18.7-17.4,36.7-26.3,55.6
				c-1.7,1-4.2,2.9-3.9,6.3c0.6,5.2-1.5,9.5-3.5,14c-1.6,3.4-2.5,7-4.2,10.4c-1,2.1-2.8,3.8-3.9,5.9c-0.6,1.3-0.5,2.8-1.4,4
				c-0.7,1.3-1.4,2.6-2,4c-1.8,4-3.5,8-5.1,12.1c-0.8,1.9-1.4,3.8-2.3,6.2c-0.3,0.1-1.2,0.4-2.1,0.6c0.3,0.2,0.5,0.4,0.8,0.6
				c-1.6,3-3.2,5.9-4.8,8.8c-0.1,0.3-0.4,0.6-0.5,1c-0.4,4.2-2.9,7.4-4.6,11.1c-1.3,2.7-1.8,5.8-3,8.6c-1,2.2-2.5,3.9-3.6,6.1
				c-0.7,1.3-0.7,3-1.9,4.1c-1.1,2.4-2.4,4.8-3.3,7.4c-1.2,3.1-1.7,6.5-3.2,9.5c-0.8,1.6-2.2,3.3-3.2,4.5c-1.6,1.9-1.4,3.8-2,5.7
				c-0.9,3-3.4,3.9-5.6,1.7c-2.8-2.9-5.2-6.2-6.3-10.5c-0.7-3-1.2-7-2.6-9c-2.8-3.9-3.4-8.2-5.1-12.3c-1-2.4-1.5-4.7-2.1-7
				c-0.1-0.7-1.7-1-1.7-1c-1.3-3.1-2.7-5.4-3.1-7.9c-0.5-2.6-0.1-5.3-0.1-8.4c-2.1-1.8-4.7-3.9-4.6-7.9c0.1-1.1-1.3-2.2-2.4-4
				c-1.3-3.7-3-8.2-4.6-12.8c-0.1-0.4-0.2-1-0.3-1.4c-0.2-1.8,0.8-4-1.9-4.8c-0.2-0.1-0.4-1-0.2-1.3c1.1-4.5-1.2-7.6-4-10.8
				c-0.7-0.8-0.8-2.2-1.3-3.3c-0.5-1.3-1.5-2.4-1.8-3.7c-0.4-2.2-0.4-4.4-0.6-6.2c2.4-1.3,4.7-2.1,6.5-3.4c0.7-0.5,1-3,0.9-3
				c-2.4-0.9-2.6-4.6-5.9-4.3c-1.8,0.1-3.8,0-5.3-0.7c-2.5-1.1-3.6-3-3.8-6.2c-0.1-2.7-2.1-5.3-3.2-8c-0.6-1.4-1-2.8-1.8-4.2
				c-1.8-3.2-1.3-7.3-3.9-10c-0.2-0.2-0.3-0.7-0.4-1c-0.8-3.2-1.3-6.5-2.4-9.6c-1.2-3-3-5.9-4.7-8.8c-0.1-0.1-0.2-0.2-0.2-0.3
				c0.5-5.9-3.9-10.5-4.7-16c-0.1-0.7-0.1-1.5-0.1-2.2c-0.4,0.1-0.7,0.2-1,0.3c-0.6-1.5-1.3-2.9-1.8-4.4c-1.3-3.1-2.6-6.3-3.6-9.5
				c-0.6-1.8-0.8-3.8-1.3-6c-2.6,0-2.5-1.9-2.7-4.2c-0.1-1.3-1-2.5-1.6-3.8c-0.1-0.3-0.4-0.7-0.4-1c-1.9-8.2-3.7-16.5-5.6-24.8
				c-1.1-1.3-3.1-2.7-3.9-4.7c-1.2-2.7,1.5-4.2,3.1-5.5c1.5-1.3,4.5-1.2,5.4-2.6c1.3-1.9,4.7-3.6,2.5-7.4c-3.4,2.2-6.7,4.5-10.1,6.7
				c0.1,0.3,0.4,0.6,0.5,0.9c-1.9,0-3.6,0-5.8,0c0.7-5-4.5-8.2-3.6-13.5c0.4-1.9-2.3-4.5-3.8-6.6c-1.3-1.9-0.1-8.3,1.8-9.5
				c1.2-0.7,2.2-1.8,3.3-2.6c-0.1-0.4-0.2-0.7-0.3-1c-1.2-0.2-2.4-0.4-3.6-0.7c-1.1-0.3-2.3-0.6-3.6-0.9c-0.4,0.7-0.9,1.8-1.4,2.9
				c-4.5,0.4-8.8-2.7-9-7c2.4-0.1,4.7-0.2,8.2-0.4c-1.6-1.4-2.4-2.2-3.2-3c1-1.3,1.9-2.5,3.2-4.2c1.1,0,2.7-0.1,4.3,0.1
				c0.8,0.1,1.5,1,2.2,1.6c0.5,0.4,1,0.8,1.4,1.2c0.4-0.6,0.9-1.1,1-1.7c0.2-1.3,0.2-2.7,0.2-3.6c3.1-1.4,5.9-2.8,8.8-4
				c0.8-0.3,2.5-0.4,2.7,0c2.3,4,4.2,1.9,6.4-0.6c1.7,2.2,3.2,4.2,4.7,6.1c-0.2,0.3-0.4,0.5-0.6,0.7c1.2,0.1,2.4,0.1,3.6,0.2
				c-0.6,0.6-1.2,1.3-1.8,1.9c0.7,1.4,1.3,2.9,2.1,4.3c0.7-0.9,1.4-1.7,2.2-2.6c1.8,4,3.9,7.9,5.2,11.9c0.8,2.5,0.4,5.3,0.5,8
				c-1.4,0.7-2.6,1.4-3.9,2.1c0.1,0.3,0.1,0.5,0.2,0.8c1.6,0.1,3.3,0.2,4.6,0.3c1.3,1.4,2.4,2.6,4,4.4c0.7,3.3,0.6,8,2.7,11.4
				c1.6,2.7,0.7,5.7,2.2,7.3c2.2,2.4,1.6,5,2.1,7.5c0.1,0.8,1.7,1.3,2.3,2c3.4,3.1,1.3,8.4,4.7,11.5c0.1,0.1,0.2,0.4,0.2,0.7
				c0.7,3.6,1.5,7.1,2.3,10.6c0.1,0.7,0.9,1.3,1.3,1.9c0.6,1.1,1.3,2.2,1.6,3.5c0.9,3.3,1.6,6.7,2.5,10.1c0.7,2.1,1.8,4.1,3.1,6
				c0.6,1.5,1.3,2.9,1.8,4.4c0.9,2.9,1.6,5.9,2.4,8.8c0.7,2.6,0.7,5.8,2.2,7.8c2.7,3.8,2.5,9,6.7,12.2c1.7,1.3,2.4,4.7,2.6,7.1
				c0.5,5.5,3.8,10.5,2.4,16.3c-0.1,0.4,0.1,1,0.1,1.4c3.5,1.2,7.2,6.3,7.3,9.9c0.1,1.9-0.5,4,1.9,5c0.3,0.1,0.7,0.4,0.7,0.8
				c0.9,3.1,1.5,6.4,2.6,9.5c0.9,2.7,2.4,5.1,3.6,7.7c0.4,1,0.7,2.1,0.8,3.1c0.1,1.1,0,2.2,0,3.3c0.4-0.1,0.7-0.2,1-0.3
				c0.7,1.5,1.6,2.9,1.9,4.4c0.9,3.8,1.9,7.4,3.9,10.8c0.5,0.9,0.5,2.1,0.5,3.1c0.1,3.7,0.9,4.2,4.2,3.9c1.9-3.6,3.7-6.6,5.3-9.9
				c1.3-2.6,2-5.4,3.3-8c1-2.1,2.6-3.9,3.9-5.9c0.1-0.2,0.3-0.4,0.4-0.7c0.8-2.2,1.3-4.5,2.4-6.5c2.9-5.3,6.2-10.3,9-15.5
				c1.3-2.4,2.3-5,3.4-7.5c1.5-3.3,2.7-7,4.7-10c1.2-1.8,2.3-3.3,2.2-5.6c0-0.4,1.5-0.8,1.6-0.9c1.9-3.7,4.5-6.7,5-10
				c0.6-3.7,4.4-4.9,4.7-8.4c0.2-3.3,0.9-6.7,1-10c0.1-3,1-5,4.2-5.1c1-1.8-1-5,2.8-5.2c0.2,0,0.4-1.3,0.5-2c1-3.6,1.6-7.1,4-10.2
				c1.2-1.5,1-3.9,2.4-5.9c1.9-2.7,1.8-6.7,3.5-9.6c1.1-1.9,1.6-3.6,2.2-5.5c1-3.6,3.2-7,4.6-10.5c1.1-3,2.2-6.2,2.5-9.3
				c0.4-5,0.3-10.1,0-15.1c-0.1-1.6-1.5-3.3-2.7-4.5c-2.7-2.4-5.6-4.7-8.8-6.3c-3-1.6-6.5-2.5-10.5-3.9c-0.1-0.8-0.1-2.2-0.1-3.3
				c3.4-4.5,7.9-3.5,12.2-3.4c9.1,0.1,18.2,0.5,27.3,0.4c1.4,0,2.7-2.4,4.2-3.6c0.7-0.5,1.4-1.3,2.2-1.3c11.2-0.1,22.5-0.1,34.3-0.1
				c-1.1,7.4,1.6,14.6-1.9,21.8c-2,4.2-2.2,9.2-3.8,13.6c-0.6,1.5-1.3,2.9-1.8,4.4c-0.8,2.6-1.6,5.3-2.1,7.4c-2.7,1.4-5,2.5-7.1,3.6
				c-1,4.2-2,7.9-3,11.8c0.4,0.1,0.7,0.3,1,0.4c1.7-1.6,3.5-3.3,5.4-5.2c2.6,0.7,3.6,2.4,3.6,5.3c-0.1,14.6-0.1,29.2-0.1,43.8
				c0,1.3,0,2.7,0,4.7c2.7-1.2,4.9-2.2,7.3-3.3c0.5-5.9-1.6-12.8,3.6-16.3c2.4-4.2,4.3-7.2,5.8-10.3c1.2-2.6,1.5-5.6,2.7-8.2
				c1-2.3,3.2-4.1,4.2-6.4c1.3-2.9,2-6.1,3.1-9c0.9-2.4,2.2-4.5,3.3-6.8c1.4-2.8,2.7-5.6,4.2-8.5c0.7-1.4,1.6-2.7,2.4-4
				c2.2-3.9,4.5-7.8,6.5-11.9c2.2-4.5,3.9-9.3,6.1-13.9c1.9-3.9,4.2-7.5,6.2-11.3c0.3-0.6,0.1-1.5,0.4-2.2c0.5-1.2,1.2-2.2,2.1-3.3
				c1.7-3.1,3.4-6.3,5-9.5c0.4-0.7,0.3-1.7,0.3-2.5c0-5.3,0-10.6,0-15.9c0-3.3,1.1-4.9,4.8-4.8c8.1,0.2,16.2,0.1,24.2,0.1
				c1.1,0,2.3,0.3,4.5,0.6c-5.1,3.4-9.8,5.8-13.4,9.3c-3,2.9-6.1,4.9-9.6,6.8c-1,0.6-4.6,3.1-1.4,7.1c3.6,4.4,4.8,10.4,6.1,16.2
				c0.7,3,2.5,5.8,3.9,8.7c0.3,0.7,0.4,1.4,0.4,2.2c0.1,2.6-0.6,5.5,2.5,7c0.2,0.1,0.4,0.6,0.4,1c1,4,2.1,8.1,2.8,12.2
				c0.3,1.9-0.2,3.8-0.4,5.9c1.3,0.2,2.7,0.4,3.6,0.6c2.1,2.3-1.7,6.7,3.2,7.5c0.9,4.4,1.6,8.8,2.7,13.1c0.7,2.4,2,4.7,3.3,7.6
				c1.9,0,2,1.9,1.9,4.2c-0.4,4.4,1.4,8,4.1,11.3c0.1,0.1,0.1,0.2,0.2,0.3c0.7,3.6,1.5,7.1,2.2,10.7c-6.5,1.8-7.1,2.6-6.2,10
				c1.9,0.1,3.8,0.2,6.1,0.4c-0.4,4.2,2.8,2.4,5.4,3.1c0.7,3.3,0.4,7.7,2.6,10.1c2.5,2.8,0.7,6.8,4.3,9.3c1.9,1.3,2,5.4,2.7,8.3
				c0.9,3.4,0.4,8.2,2.6,10.1c3.5,3,1.8,7.3,4.3,10.4c1.9,2.4,1.8,6.5,2.9,9.7c1.3,4,3,7.9,4.4,11.9c1,3,2,5.9,3,8.9
				c0.4,1.2,1,2.3,1.6,3.5c0.1,0.2,0.4,0.4,0.4,0.5c0.8,3.6,1.5,7.1,2.4,10.7c0.4,1.5,1.2,2.9,1.8,4.4c0.3-0.1,0.7-0.2,1-0.3
				c0.8,4.8,1.5,9.6,2.4,14.3c0.1,0.9,2.2,2.2,2,2.4c-2.8,4.2,0.4,6.7,2.3,9.8c1.6,2.6-1.4,4.1-2.5,5.9c-0.7,1-1.8,1.9-3,3.1
				c-5,0.4-6.5,1.9-5.8,7.1c3.3-1.8,6.5-3.6,9.8-5.2c2-1,4.1-1.6,6.5-2.7c1,5.5,1.6,10,2.7,14.3c0.5,2,2,3.9,3.4,5.6
				c2.7,3.2,2.2,8-1.4,10.2c-1.4,0.9-2.9,1.7-4.3,2.6c-0.1,0.1,0,0.4,0,1.3c2.2,0.1,4.5,0.2,6.6,0.4c0.6,1,1.3,1.9,1.9,2.7
				c0.4-0.9,0.7-2,1.4-2.6c1-0.7,2.2-1.3,3.4-1.3c1,0,2.2,1,3.4,1.6c1.3,6.2,1.2,6.5-2.9,7.1c-1.1,5.2-1.3,5.3-7.9,4.7
				c-0.7-1-1.3-1.9-2-2.7c-0.6,0.7-1,1.6-1.8,2.2c-2.6,2-3.6,6.5-8.2,5.4c-0.2-0.1-0.8,1.3-1.3,2.1c-2.7,0-5.4,0-8.2,0
				c-1.1-1-2.3-2-3.6-3.2c-0.1-0.8-0.2-2-0.2-2.4c-2.6-1.2-5.4-1.6-6.5-3.1c-1.6-2.3-2.2-5.4-3-8.2c-1.2-4.5-2.2-9-3.2-13.6
				c3.2-1.1,3.2-1.1,2.8-3.9c-1.4,0.4-2.9,0.7-5.1,1.3c-0.7-4.4-1.3-8.1-2-11.8c-0.1-0.4-0.3-0.6-0.4-1c-0.6-1.1-1.1-2.3-1.6-3.4
				c-0.7-1.5-1.3-2.9-1.9-4.4c-1.2-2.8-2.1-5.8-3-8.8c-0.8-2.7-1.9-5.3-2.5-8.1c-0.9-3.6-1.6-7.3-2.4-11.1c-0.1-0.4-0.4-0.8-0.8-1.2
				c-1-1.1-4.2-8.7-4.4-10c-0.2-1.6-0.8-3.2-1.3-4.8c-1-3.5-2.1-7-3.2-10.5c-0.5-1.6-1.4-3.1-2.1-4.7c-0.4-0.8-0.7-1.7-0.9-2.5
				c-0.2-1.1,0-2.2-0.4-3.3c-1.6-4.5-3.3-9-5-14.1c-0.2-0.1-1.2-0.4-1.9-1.1c-1.1-1-2.5-3.3-3.1-3.1c-1.8,0.7-3.2,2.2-4.7,3.4
				c0.1,0.2,0.2,0.4,0.4,0.7c-1.3,0-2.7,0-4.1,0c-25.6,0-51.2,0-76.7,0c-1.1,0-2.3-0.1-3.3,0.2c-1.6,0.6-2.9,1.6-4.9,2.7
				c0,0.4-0.4,2.7,0.1,2.9c2.7,1.3,1.8,3.6,2.1,5.6c0.1,0.7,0.7,1.2,1,1.9c0.4,1.2,1.3,2.5,1,3.7c-0.4,2.2-1.9,4.2-1.9,6.3
				c0,1.9,1.9,3.9,2,5.8c0.6,22.9-1.4,45.9,2.3,68.8c0.2,1.2,0.4,3.3,0.7,3.3c3,0.2,2.1,2.4,2.4,4.1c0.1,1,0.4,2.2,1.1,3
				c2.3,2.8,4.5,5.7,7.2,8.1c3.3,3,7.6,4.5,12.2,4.5c4.7,0.1,7.7,2.8,10.4,5.9c0.4,0.5-0.7,2.5-1.1,3.8c-0.2,0.7-0.5,1.5-0.8,2.2
				C1248,562.2,1243.6,562.2,1239.1,562.2z M1238.8,369.5c-0.4-0.1-0.7-0.1-1-0.1c-0.9,2.8-1.7,5.6-2.6,8.4
				c-0.1,0.2-0.4,0.3-0.4,0.5c-3,4.3-6.6,8.2-8.7,12.9c-1.5,3.3-2.7,6.5-5.1,9.5c-3.5,4.5-3.1,10.5-2.2,16.5c17.7,0,35.2,0,52.6,0
				c0.3,1.9,0.5,3.4,0.7,5c0.7-0.1,1.2-0.1,1.4-0.2c3-2.6,5.6-5.2,10.2-5c8,0.4,16,0.1,24.6,0.1c-0.2-2.7,0-5.1-0.7-7.3
				c-0.8-2.3-2.7-4.2-3.6-6.5c-1.4-3.3-2.4-6.7-3.6-10.1c-0.9-2.6-1.8-5.1-2.5-7.8c-0.5-1.9-0.9-3.8-1-5.7c-0.1-2.5,0.2-4.9-2.2-6.9
				c-1.6-1.3-2.7-3.8-3.4-5.9c-1.2-3.3-1.9-6.8-2.9-10.2c-0.7-2.5-1.3-5-2.4-7.5c-1.3-3.3-3.3-6.5-4.4-9.9
				c-1.2-3.6-1.6-7.4-2.4-11.1c-0.1-0.4-0.3-1-0.7-1.3c-2.7-2.7-0.7-7.3-4.4-9.8c-0.8-0.5-0.4-2.9-0.4-4.5c-1.7,0.4-2.8,0.6-3.4,0.7
				c-4.7,8.8-9.2,17.1-13.7,25.4c-0.8,1.9-1.6,3.7-2.9,5.2c-1.6,1.9-3.9,3.3-3.5,6.3c0.1,0.4-0.6,1.3-0.9,1.3c-2.4,0-2,1.6-2.1,3
				c0,0.7-0.1,1.5-0.4,2.1c-1.3,2.1-2.7,4-4,6C1241.4,364.8,1240.2,367.2,1238.8,369.5z M1326.3,428.4c0.1,0.4,0.2,1,0.3,1.4
				c2-2.2,4.3-4.1,5.6-6.6c0.3-0.6-2.8-3-4.7-5c-0.1-0.7-0.1-2-0.2-2.9c-3-2.8-6.1-1.2-9-0.7c-0.7,0.1-1.9,1.4-1.9,2.1
				c0.3,3,1.3,5.7,4.1,7.4C1322.6,425.4,1324.4,427,1326.3,428.4z M1323.3,402c-0.5,5.3,2.4,7.6,6.9,7c0-1.2,0-2.4,0-3.6
				C1328.1,404.3,1325.9,403.2,1323.3,402z M1379,547.9c-4.4-5.5-5.8-6-9.3-3.7c0.7,1.3,1.4,2.6,1.9,3.7
				C1374.1,547.9,1376.3,547.9,1379,547.9z M1366.6,545.9c-2.5,0-4.7,0-7.1,0c0,1.7,0,2.9,0,4.2c2.4,0,4.7,0,7.1,0
				C1366.6,548.7,1366.6,547.6,1366.6,545.9z M995,254.7c-2.4,0-4.4,0-6.9,0c1.3,1.9,2.3,3.2,3.6,4.9c0.9-0.1,2.1-0.1,3.3-0.2
				C995,257.7,995,256.2,995,254.7z M1008.5,252.3c-3.3,0-5.6,0-8,0c0,1.4,0,2.6,0,3.9c1.1,0.4,2.2,0.7,2.9,0.9
				C1005,255.5,1006.4,254.3,1008.5,252.3z M1221,383.6c-0.1,3.5,0.8,4.2,4.6,3.9c0-1.3,0-2.5,0-3.9
				C1223.8,383.6,1222.4,383.6,1221,383.6z M1352.8,523.2c3.7,1.6,4.8-1.3,6.8-3.4C1355.5,518,1353.7,519.7,1352.8,523.2z
				 M1314.9,397.6c-0.4,0-0.7,0.1-1.1,0.1c-0.5,2.3-1.1,4.5-1.6,7c1,0,2.1,0,3.6,0C1315.5,402.1,1315.2,399.8,1314.9,397.6z
				 M1013.4,279.1c-0.2-0.3-0.4-0.6-0.7-0.8c-1.8,1.3-3.5,2.5-5.3,3.8c0.1,0.3,0.3,0.6,0.4,0.9c1.3,0,2.5,0,3.9,0
				C1012.3,281.8,1012.8,280.5,1013.4,279.1z M1323.2,387.7c-0.1-0.4-0.3-0.7-0.4-1c1.8-0.7,3.5-1.3,5.3-2c-0.2-0.4-0.5-0.7-0.7-1
				c-1.3,0-2.7,0-4.1,0C1323.2,385.1,1323.2,386.4,1323.2,387.7z M1323.2,397.1c1.6-0.9,3.3-1.8,5-2.7c-0.3-0.4-0.6-0.7-0.9-1.1
				c-1.3,0-2.6,0-4.1,0C1323.2,394.6,1323.2,395.8,1323.2,397.1z"/>
			<path class="st1" d="M1436.4,177.2c-3.6,0-7.2,0.1-10.8-0.1c-5.1-0.2-9.7,0.4-13.6,4.2c-1.6,1.5-5.3,1-6.2,2.7
				c-2.1,3.3-6,1.9-8.4,4.5c-1.6,1.7-4.9,1.9-7.4,2.8c-1.9,0.7-3.9,1.3-5.7,2.3c-2.7,1.4-5.4,3-8.1,4.6c-0.2,0.1-0.4,0.4-0.6,0.4
				c-3.7,0.9-7.5,1.8-10.9,3.3c-1.3,0.7-2.4,1.4-3.7,2.1c-2.4,1.3-4.7,2.6-7,3.9c-1.6,0.9-3.4,1.6-5,2.7c-1,0.7-1.6,1.7-1.9,2.1
				c-3.1,1.4-5.6,2.6-8.2,3.7c-2.8,1.3-5.8,2.4-8.5,4c-4.4,2.7-8.6,5.9-12.9,8.7c-0.7,0.4-1.7,0.8-2.5,0.8c-4.2,0.1-8.4,0.1-12.6,0
				c-1.7-0.1-3.4-0.8-5.7-1.4c-3.4,3.6-8.4,0.5-13.4,1.6c0.9-4.5-1.3-8.7,2.7-12.5c1.9-1.8,1.6-5.6,2.7-8.5
				c1.3-3.6,3.1-6.9,4.7-10.3c1.6-3.6,3-7.3,5-10.6c2.2-3.7,4.9-7.3,7.7-10.6c3.6-4.2,7.3-8.5,11.6-11.9c2.7-2.2,4.6-5.6,9-5.9
				c2.7-0.2,5.1-3.5,7.7-5.3c1-0.7,2.2-1.5,3.5-1.7c3.3-0.7,6.7-1.1,10.2-1.6c0.4-0.1,0.8-0.2,1-0.5c3-5.3,7.9-2.4,12-3
				c1.8-0.2,3.4-0.1,3.9-2.3c0.5,0,1,0,1.5,0c1,0.7,2,1.9,3.1,2.2c5.5,1.1,11.1-1.3,16.7,2.6c3.5,2.4,9.1,2.5,13.4,5
				c3.4,2.1,7,3.9,10.5,5.9c3.7,2,7.4,3.9,11.1,5.8c1.3,0.7,2.7,1.4,4,2.2c1.2,0.9,2.7,1.1,4.1,1.7c2.3,1,4.5,2.4,6.8,3.6
				C1436.4,175.3,1436.4,176.2,1436.4,177.2z M1306.2,216.4c2.4-2.1,4.2-3.5,5.8-4.9c-0.1-0.2-0.3-0.4-0.4-0.7c-1.8,0-3.6,0-5.3,0
				C1306.2,212.6,1306.2,214.1,1306.2,216.4z M1331,191.7c-2.3,0-3.9,0-5.5,0c0,1.6,0,3.2,0,5.4
				C1327.3,195.2,1328.8,193.7,1331,191.7z M1318.3,205.9c-0.2-1.5-0.2-2.7-0.6-3.9c-0.1-0.4-1.6-0.7-1.8-0.6
				c-0.9,1.3-1.6,2.7-2.6,4.5C1315.1,205.9,1316.6,205.9,1318.3,205.9z"/>
		</g>
	</g>
	<g id="Layer_2_xA0_Image_1_">
		<g>
			<path class="st1" d="M615.3,501.7c-0.7-1.5-1.3-3-1.8-4.2c4.3-2.6,8.5-4.4,11.7-7.3c1.8-1.6,3.6-4,3.6-7.3
				c-0.1-3.5,1.3-7,1.9-10.5c0.1-1,0.1-1.9,0.1-3c0-37.5,0-75.1-0.1-112.7c0-1.5-0.9-2.9-1.3-4.4c-0.4-1.5-1.1-3.2-0.7-4.5
				c0.8-3-1.3-5-2.7-5.8c-4.3-2.2-7.4-7.1-13.4-5.9c-2.4,0.5-3.3-1.5-3.1-3.8c9.6-4.3,19.7-1.6,29.5-2.7c1.3-0.1,2.4,0.1,3.7,0
				c15.9-1.3,31.5,1.6,47.2,2.5c2.8,0.1,7,0.6,9.6,3.7c0.6,0.7,2.3,0.4,2.6,0.5c4.8,4.8,9.1,9,13.3,13.3c1.6,3,3.2,6,4.7,9
				c0.1,0.3,0.4,0.7,0.4,1c0.1,5.2,0.1,10.5,0.2,15.7c0,0.2-0.1,0.5-0.1,0.7c1.2,6.5-1.6,12.2-4.7,17.5c-2.4,4.2-4.3,9-9.6,11.1
				c-1.3,0.5-1.7,2.8-3,3.8c-1.8,1.4-3.9,2.5-5.9,3.4c-2.4,1.1-4.6,4.5-3.6,6.5c0.7,1.5,1.5,3.2,2.7,4c3.7,2.3,4.5,6.5,6.7,9.7
				c1.2,1.6,2.1,3.4,2.7,5.4c2.5,1.7,5,3.3,5,7.3c0,1.3,1.2,3,2.4,3.7c3.6,2.2,4.5,6.3,6.7,9.3c3,4.2,5.1,9,9.5,12.1
				c0.9,0.7,0.7,2.7,1.5,3.9c1.3,1.8,2.9,3.3,4.3,4.9c2.6,2.9,5.1,5.8,7.6,8.8c2.1,2.4,4.4,4.2,7.9,4.6c2.7,0.3,5.4,1.4,8,2.5
				c0.7,0.3,1.6,1.9,1.4,2.6c-0.2,0.9-1.5,1.5-2.4,2.2s-1.8,1.5-2.7,2.2c-6.7,0-13.4,0-20,0c-0.5-0.7-1.1-2.2-1.6-2.1
				c-5.5,0.8-7.4-4.3-11-6.5c-2.4-1.5-4.3-4.1-6.2-6.5c-2.2-2.7-5.7-4.5-5.8-8.5c0-0.2-0.1-0.4-0.3-0.7c-2.4-3.2-4.9-6.5-7.3-9.6
				c-2.2-3-4.4-5.9-6.5-9c-1-1.3-2.7-2.7-2.6-4.1c0.1-3.7-2.6-5.5-4.2-8c-0.7-1-0.6-3.3-1.2-3.5c-4.2-1-5.4-5.5-6.2-7.9
				c-1.3-4.5-4-7.3-6.9-10.1c-1.6-1.5-3.6-3.4-5.5-3.6c-5.3-0.5-10.6-0.2-15.9-0.1c-2.7,0-4.1,1.4-4.1,4.1c0,19.5,0,39,0,58.5
				c0.3-0.1,0.6-0.2,1-0.4c0.7,1.2,1.4,2.4,2.2,3.5c1.2,1.6,2.2,3.7,3.7,4.4c3.3,1.3,6.8,1.7,10.2,2.7c2.4,0.7,4.8,1.9,7.3,2.8
				c-0.7,1.3-1.4,2.5-2.1,3.9c-0.1,0.2,0,0.5,0,0.7C653.4,501.7,634.3,501.7,615.3,501.7z M699.2,398.3c0-0.3-0.4-2.3,0.1-2.6
				c3.3-1.7,1.7-4.6,2.1-7c0.1-0.7,0.3-1.4,0.5-2.1c0.5-1.9,1.5-3.8,1.6-5.7c0.4-5,0.3-10.1-2.2-14.8c-0.7-1.3-0.7-3-1.6-4.2
				c-1.6-2.6-3.6-5-5.3-7.6c-0.7-1-1.2-2.2-1.8-3.2c-2-3.6-6.5-3.6-9.3-6.9c-2.8-3.2-8.8-4-13.6-4.8c-4.2-0.7-8.6-0.2-12.9-0.1
				c-2.7,0-6.7,3.6-6.7,6.2c-0.1,21.2,0,42.4,0,63.8c8.6,5.1,18,2.5,26.8,2.4C685.9,411.6,692.6,405.6,699.2,398.3z"/>
			<path class="st1" d="M501.1,501.7c-1-0.7-2-2-3-2.1c-2.9-0.4-5.5-0.1-8.1-2.4c-2.1-1.9-5.6-2-8.5-3c-0.9-0.3-1.9-0.5-2.6-1.1
				c-4.2-3.6-9.9-5.4-13.1-10.5c-5.7-0.1-5.1-6.8-9.2-8.8c-1.2-0.6-2.2-1.9-3-3c-2.1-2.6-4.2-5.2-6-7.9c-0.7-1.2-0.7-3-1-4.7
				c-0.7-0.1-1.6-0.4-1.9-0.4c-1.6-4.7-3-9-4.5-13.2c-0.1-0.2-0.3-0.4-0.3-0.7c-0.9-4.6-2.3-9.1-2.5-13.7c-0.4-8.5-0.3-17.1,0-25.6
				c0.1-2.5,1.3-5,1.8-7.6c0.3-1.6,0.2-3.2,0.4-4.7c0.2-1.9-1-4.3,1.9-5.2c0.1-0.1,0.2-0.7,0.3-1c0.8-3.4,1.3-6.9,2.6-10.2
				c0.8-2.1,2.7-3.8,4.2-5.6c1.3-1.5-0.2-4.6,2.8-5c0-4.1,3.4-6,5.6-8.6c1.9-2.3,3.9-4.7,6.4-6.4c4-2.8,6.1-7.9,11.5-8.9
				c1.6-0.3,3-1.9,4.7-3c1.3-0.7,2.9-1,3.9-2.1c2.8-2.9,7.5-0.7,10-4c0.1-0.1,0.4-0.3,0.7-0.3c4.6-0.7,9.3-1.5,13.8-2.4
				c3.8-0.7,7.4-1.9,11.3-2.5c2.7-0.4,5.6-0.7,8.5-0.3c2.9,0.4,5.6,1.6,8.5,2.4c0.4,0.1,0.7,0.4,1,0.4c4.7,0.7,9.5,1.3,14.2,2.4
				c2.7,0.7,5.3,2.2,7.9,3.3c3.6,1.4,7,3,9.6,6.2c5.6-1,6.4,5,10,6.8c1.7,0.8,3.3,1.9,4.9,2.9c0.3,0.1,0.9,0.1,1,0.4
				c1.3,5.6,6.6,8,9.7,12.2c1.6,2.1,1.6,5.2,2.6,7.8c0.4,1,1.3,1.7,2.4,2.2c1.6,4.7,3.3,9.3,4.7,14.2c0.7,2.8,0.3,5.9,1,8.7
				c2.8,10.2,1.4,20.5,1.2,30.7c-0.1,5.3-3,10.5-3.7,15.9c-0.9,6.4-4.5,11.2-7.6,16.5c-1.3,2.2-1.6,4.8-2.7,7.1
				c-0.5,1.1-1.6,2.5-2.7,2.8c-3.1,1-3.6,3.6-4.7,6c-0.5,1.1-1.3,2.4-2.3,3.1c-3.7,2.9-6.7,6.7-11.3,8.3c-1,0.4-1.5,2.1-2.4,2.8
				c-3,2.2-5.9,4.4-10.1,4.7c-2.3,0.1-4.5,1.9-7.3,3.1c0.1,2.6-2.4,1.7-4.5,1.9c-1.8,0.1-4.5-1.3-4.9,2.2
				C528.3,501.7,514.7,501.7,501.1,501.7z M580.8,382.3c-0.1-0.1-0.1-0.2-0.3-0.4c-1-1.8-2.1-3.5-3-5.3c-1.1-2.2-2.2-4.5-3.3-6.8
				c-0.6-1.3-1-3-1.9-3.6c-3-1.8-4.5-4.7-6.8-7.1c-3.8-3.9-7.3-8.2-12.6-10.3c-2.1-0.8-3.6-2.8-4.9-3.9c-2.3-1.3-3.9-2.7-5.9-3.1
				c-4-1-8.2-1.6-12.2-2.4c-0.4-0.1-1-0.1-1.4-0.4c-3.4-2.2-7.1-2.8-11.1-2.6c-3,0.1-5.9-0.1-8.9,0.1c-2.1,0.1-5-1.3-5.5,2.5
				c0,0.1-0.9,0.3-1.3,0.4c-3.1,0.4-6.6-1.1-9,2.2c-5.5-1.2-8.1,3.9-11.9,5.9c-4.1,2.2-7.1,6.7-10.1,10.5c-2.8,3.6-5.4,7.4-7.3,11.5
				c-2.4,5.2-5.3,10.4-4.6,16.5c0.1,0.4-0.1,1-0.3,1.4c-0.6,2.2-1.6,4.5-1.8,6.7c-0.3,4.9,0.3,9.9-0.1,14.8
				c-0.8,9.3,1.6,18.4,2.4,27.6c0.1,0.4,0.1,1,0.3,1.4c2.8,3.6,2.7,8.1,4.7,12.3c0.4,0.1,1.3,0.4,1.3,0.4c2.5,5.3,3.4,10.3,7.8,13.4
				c1.9,3,3.8,6,6.1,8.6c2.9,3.1,6.9,5,9,9.2c0.7,1.4,3.3,1.9,5,2.7c0.5,0.2,1.6,0.1,1.7,0.4c1.9,5,7.4,4.3,11.1,6.7
				c2.2,1.5,6.2,1.9,9.1,2.2c7.6,1,15.5,0.3,23.3,0.3c0.2,0,0.5,0,0.7-0.1c3.9-3.2,9.2-2.6,13.7-5c0.2-0.4,0.5-1.6,1.3-2.1
				c1.8-1,3.9-1.5,5.6-2.4s3.3-2.3,4.6-3.7c3.4-3.6,6.9-7.1,9.9-11.1c2.5-3.3,4.5-7.1,6.7-10.7c-0.3-0.2-0.6-0.4-1-0.7
				c1-0.3,1.9-0.7,2.5-0.8c0.4-2.1,0.6-3.8,1.1-5.3c1.6-5,4-9.7,3.8-15.2c-0.1-1.6,0.3-3.5,1.1-4.9c2.1-3.9,2.7-8.2,1.6-12
				c-1.8-5.6-3-11.1-2.7-17c0.1-1-0.1-1.9-0.4-2.9c-1.3-4.9-2.7-9.7-4.2-14.6C582.3,384.4,581.4,383.4,580.8,382.3z"/>
			<path class="st1" d="M365.4,501.7c-1.6-0.7-3-2.1-4.5-2.2c-14.8-0.1-29.7-0.1-44.5-0.1c-1.9,0-3.7,0-6.2,0
				c0.7-1.8,0.7-3.6,1.6-4.2c2.1-1.4,4.5-2.5,6.8-3.2c3.4-0.9,5.3-4.2,6.9-7c3.8-6.5-0.2-14.4,4.7-20.4c0.4-0.5,0.2-1.7,0.2-2.5
				c0-33.4,0.1-66.8-0.1-100.1c0-1.7-1.3-3.4-2-5.1c-0.3-0.7-0.8-1.5-0.7-2.2c0.3-4.2-0.1-8.2-2.3-11.9c-0.7-1.1-1.3-2.4-2.4-3
				c-2.7-1.4-5.6-2.3-8.3-3.6c-1.6-0.7-3.8-1.9-3.9-3.2c-0.4-2.4,1.7-3.4,4.2-3.4c21.3,0,42.5-0.1,63.8,0.3
				c4.7,0.1,9.4,2.4,14.1,3.7c3.3,0.9,6.4,2,9.1,3.7c3.6,2.3,7.6,4.1,10.5,7c2.9,2.8,3.4,7.8,7.3,9.7c1.6,4.8,3.6,9.5,4.4,14.4
				c0.7,3.9-0.1,8.2-0.4,12.2c-0.1,0.7-0.9,1.3-1,1.9c-1,4.7-1.8,9.4-2.7,14.3c-0.8,0.2-1.7,0.4-2.7,0.7c1,4.9-3.3,6.5-5.6,9.3
				c-1.9,2.2-4.2,4.2-6.3,6.3c-0.5,0.5-1.3,1-1.9,1.1c-3.1,0.1-4.9,2.4-7,4.1c-0.6,0.4-1.1,1-1.8,1.1c-3.9,1-7.6,1.9-11.5,2.7
				c-3.3,0.7-6.7,1.6-10.1,1.7c-2.8,0.1-5.6-1-8.5-1.4c-1.8-0.3-3.7-0.1-5.4-0.7c-2.2-0.8-4.7-1.7-5.1-5.1c5.6,0,11,0.3,16.2-0.1
				c5-0.4,10.2-0.6,14.7-2.4c5.1-2.1,9.9-5.3,13-10.4c2-3.2,3.8-6.5,5.5-9.8c3.8-7.5,0.9-14.9,1.6-22.3c0.2-2-1.9-4.2-3.1-6.2
				c-1.3-2.5-2.5-5.1-4.2-7.4c-1.8-2.4-4.1-4.5-6.2-6.7c-0.9-0.9-2-1.7-3-2.5c-1.3-1-2.6-1.9-3.9-3.1c-1.3-0.6-3-0.9-3.9-1.9
				c-4-4.5-9.8-0.9-14.6-3.8c-3.3-2-9-0.8-13.4-0.3c-1.2,0.1-2.7,3-2.9,4.7c-0.4,4.5,0.5,9.4-0.5,13.8c-3.9,15.6-1,31.3-1.6,47
				c-0.6,15.8-0.2,31.7-0.1,47.5c0.1,3.9,1.5,7.8,1.8,11.7c0.4,5.9,0.2,11.9,0.3,17.7c0.1,2.8,3.5,6.8,6.2,7.9
				c2.3,1,4.4,2.7,6.7,3.5c2.6,0.8,5.4,0.9,8.3,1.3c0,1.3,0,2.7,0,3.8c-1.6,1.1-2.9,2.2-4.3,3.2
				C366.3,501.7,365.8,501.7,365.4,501.7z"/>
			<path class="st1" d="M800,501.7c-1.3-2.4-3.7-2-5.9-2c-1.6,0-3.2-0.1-4.7-0.2c-0.6-4,0.2-4.7,3.9-5.2c2.4-0.3,5-1,6.8-2.4
				c1.6-1.3,2.3-3.8,3.3-5.9c4.7-11.1,2.4-22.5,2.6-33.7c0.4-30.8,0.1-61.6,0.1-92.3c0-3.7,0-7.3-2.7-10.3c-0.5-0.6-0.4-1.6-0.6-2.8
				c-12.4,0-24.9-0.5-37.3,0.3c-4.5,0.3-9.3,2.6-12.5,6.7c-0.2,0.3-0.4,0.7-0.3,1c1.4,3.8-3.7,4.9-3.3,8.2c-1.3,0.1-2.6,0.1-4.1,0.2
				c0-10.2,0-19.8,0-29.4c0-2.7,1.1-4.2,4.3-4.2c43.6,0.1,87.2,0.1,130.9,0c2.9,0,4.9,1.1,5,4.1c0.1,8.9,0.1,17.7,0.1,26.9
				c-1.6,0-2.8,0-3.9,0c-1.2-3-2.2-5.8-3.6-9.3c-7.6-5.3-17.2-4.6-26.7-4.6c-7.2,0-14.3,0.1-21.5,0c-3.2-0.1-4.4,1.2-4.4,4.4
				c0.1,42.1-0.1,84.3,0.2,126.4c0,4.7,1.7,9.6,6.6,12.5c5,3,7,3.9,14.3,4.5c1.2,2.8,0.1,5.1-1.9,7.2c-1.3,0-2.4,0-3.7,0
				c-1.3-0.7-2.7-1.9-4-1.9c-10.6-0.2-21.2-0.3-31.8-0.1c-1.4,0-2.8,1.3-4.2,2.1C800.5,501.7,800.3,501.7,800,501.7z"/>
			<path class="st1" d="M957.9,326.2c1.9,4.9,3.4,9,4.8,13.1c1,3,1.8,6,2.7,9c0.1,0.6,0.7,1.1,1.1,1.6c0.6,0.7,1.5,1.4,1.7,2.3
				c0.9,3.2,1.3,6.5,2.4,9.6c1,3,2.7,5.9,3.9,8.8c0.4,1,0.1,2.2,0.4,3.3c0.3,1,0.9,2,1.4,3c0.3,0.5,1,0.8,1.3,1.3
				c0.9,2.9,1.6,5.8,2.5,8.7c0.8,2.4,1.9,4.7,3.3,7.1c0.6,1.6,1.3,3.3,1.9,5c1,3.2,2.1,6.5,3,9.6c1,3.4,3.7,6.3,3.7,10.2
				c0,0.5,0.7,1.1,1,1.6c0.6,0.7,1.5,1.4,1.8,2.2c0.9,3.2,0.5,7.9,2.6,9.4c3.7,2.7-0.4,7.9,4.1,9.6c-1.6,4.1,3,6.1,3.3,9.8
				c0.2,3,2.3,5.7,3.6,8.5c0.3,0.7,0.7,1.6,0.7,2.4c-0.1,2-0.1,3.9,2.2,4.9c0.3,0.1,0.6,0.5,0.7,0.8c0.8,2.9,0.9,6.3,2.6,8.5
				c2.5,3.3,0.7,9.3,6.5,10.5c1,0.2,1.4,2.2,2.4,2.8c1.9,1,4.2,1.4,6.2,2.2c1.9,0.7,3.9,1.8,5.9,2.7c1,4.7,1,4.7-4,4.7
				c-14.6,0-29.2,0-43.8,0c-1.7,0-3.4,0-5.2,0c-0.6-2.9,0.6-4.2,3-5.3c2.4-1,4.5-2.7,6.7-4c0.7-0.4,1.6-0.5,2.6-0.7
				c0-3.1,1.3-6.6-2.1-9c-0.3-0.2-0.5-0.6-0.6-0.9c-0.8-4.1-0.5-8.9-2.7-12.1c-2.2-3.3-0.7-7.1-3.7-10.2c-2.2-2.2-1.9-6.6-3.6-9.4
				c-1.9-3.2-0.8-7.6-4.3-9.9c-0.7-0.5-1.6-1.4-2.4-1.4c-18.7-0.1-37.3-0.1-56,0c-1.3,0-3,1.1-3.7,2.2c-1.6,2.3-4.5,3.9-4.1,7.5
				c0.1,1.6-1,3.5-2.2,5c-2.2,2.8-0.9,7-4.1,9.4c-0.4,0.4-0.1,1.6-0.4,2.4c-0.4,1-0.9,2.1-1.4,3.1c-0.2,0.4-0.7,0.7-0.8,1.1
				c-1,3.2-2,6.5-2.9,9.6c-0.2,0.8-0.1,1.8-0.4,2.5c-2.7,6-1.1,10.4,5,12.8c2.2,0.9,4.5,1.4,6.6,2.3c2,0.8,4.3,1.7,3.4,5
				c-15.1,0-30.2,0-46.6,0c1.6-2.2,2.5-4.7,3.8-4.8c5.3-0.7,7.5-5,10.8-8.2c1.3-1.3,1.7-3.5,2.6-5.2c1.6-3,2.8-6.2,4.9-9
				c1.5-2,1.6-5,2.6-7.5c1.3-3.1,3-6.1,4.6-9c0.1-0.3,0.4-0.6,0.5-0.9c1.5-4.3,2.3-9,4.7-12.8c2-3,1.9-6.7,4.7-9.3
				c1.4-1.3,1.2-4.3,1.9-6.4c1-3.1,2.2-6.1,3.6-9.7c0.2-0.1,1.1-0.3,1.7-0.4c1.9-5.3,3.6-10.2,5.5-15.7c0.4-0.1,1.3-0.4,1.8-0.6
				c3-8.1,5-15.9,9.6-22.8c1.5-3.9,2-8.1,4.8-11.7c1.6-2.1,1.6-5.3,2.6-7.8c0.7-1.8,2.2-3.3,2.8-5c1-2.5,1.2-5.4,2.4-7.8
				c2.9-5.6,4.8-11.7,8.4-16.9C953.2,326.6,956.1,326.7,957.9,326.2z M946.9,363.2c-1.5,4.1-2.4,7.5-3.9,10.8
				c-1.1,2.4-3.6,4.5-3.9,7c-0.4,3.7-2.7,6.4-3.7,9.7c-0.9,3-2.1,5.9-3.3,8.8c-0.5,1.3-1.3,2.6-2,3.9c-1.7,2.8-2.2,6.2-3.9,8.8
				c-1.9,3.2-1.4,6.2-1.3,9.6c14.7,0,28.9-0.1,43.2,0.1c3.1,0,3.6-1.6,3.1-3.9c-0.8-3.3-1.9-6.6-2.9-9.8c-0.4-1.5-1.3-2.9-1.9-4.3
				c-0.3,0.1-0.6,0.2-0.9,0.3c-0.8-3.5-1.6-7-2.4-10.5c-0.1-0.2-0.1-0.5-0.4-0.7c-3-2-2.3-5.8-3.9-8.5c-1.8-3-1.3-7.9-3.6-10.1
				c-2.6-2.6-2.7-5.9-3.5-8.4C950.5,361.8,949.2,362,946.9,363.2z"/>
		</g>
	</g>
	<g>
		<path class="st1" d="M366.5,555.7c-1.3,4.2-3.5,10.5-4.8,13.2c-2.5,0.5-9.3,2.1-16,2.1c-20.9,0-31.6-13.9-31.6-29.2
			c0-17.9,13.6-30.2,33.2-30.2c7.5,0,13.6,1.6,16.5,2c0.4,3.9,1,9.2,1.6,13.6l-2.7,0.6c-1.8-5.9-3.9-9.4-8.3-11.3
			c-2.3-1-5.9-1.6-9.2-1.6c-14.5,0-22,10.7-22,25.1c0,16.9,8.8,27.7,22.9,27.7c8.9,0,13.3-4.1,17.8-12.8L366.5,555.7z"/>
		<path class="st1" d="M422,569.7v-2.4c5.7-0.7,6.4-1.6,5.2-4.9c-1.1-3.4-2.9-7.8-4.7-13.3h-18.9c-1.4,3.9-2.7,7.3-3.9,10.9
			c-1.9,5.7-0.7,6.4,6.5,7.3v2.4H386v-2.4c5.5-0.7,6.9-1.3,10-9.2l18.1-45.9l2.8-0.5c5.5,15,11.6,31.5,17.1,46.7
			c2.8,7.6,3.6,8.3,9.8,9v2.4L422,569.7L422,569.7z M413.2,523.1c-2.8,7.5-5.8,15.5-8.4,22.4h16.4L413.2,523.1z"/>
		<path class="st1" d="M500.3,526.6c-0.8-2.8-1.9-5.7-2.8-7.3c-1.4-2.4-2.3-3-7.1-3h-8.8V559c0,6.8,0.7,7.8,9,8.3v2.4h-25.4v-2.4
			c8.2-0.5,8.8-1.4,8.8-8.3v-42.6h-7.9c-4.8,0-6.2,0.5-7.7,3.1c-1,1.8-1.8,3.9-2.9,7.1h-2.6c0.5-5.3,1-10.8,1.3-15.7h2
			c1.3,2.1,2.3,2,4.7,2h34.6c2.4,0,3.1-0.4,4.5-2h2.1c0,4.1,0.4,10.4,0.8,15.5L500.3,526.6z"/>
		<path class="st1" d="M569.7,555.8c-0.5,2.3-2.9,11.3-3.8,13.9h-42.5v-2.4c8.2-0.6,8.8-1.4,8.8-8.6v-34.6c0-7.8-1-8.2-7.5-8.8v-2.4
			h26.8c8.2,0,11.6-0.1,12.7-0.1c0.1,2.2,0.4,8.8,0.8,13.4l-2.6,0.4c-0.8-3-1.6-4.8-2.6-6.7c-1.4-2.9-3.4-3.5-8.7-3.5h-8.5
			c-2.7,0-2.9,0.3-2.9,2.8v19.4h9.7c6.5,0,7-1.3,8.1-7.3h2.7v18h-2.7c-1.1-6.3-1.9-7.2-8.2-7.2h-9.6v17.4c0,6.2,1.9,6.7,6.3,6.7h8.2
			c5.3,0,6.2-0.8,8.2-3c1.6-1.9,3.5-5.4,4.7-8.1L569.7,555.8z"/>
		<path class="st1" d="M641.9,570.4c-1.1,0-2.1-0.1-3.3-0.1c-6.4-0.4-9.8-2.1-13.6-7.5c-3.3-4.5-6.4-10-9.2-14.5
			c-1.8-2.8-2.9-3.3-7.3-3.3h-3v13.7c0,7.4,1,7.9,7.9,8.6v2.4H590v-2.4c7.3-0.8,7.9-1.1,7.9-8.6v-34.9c0-7.4-1-7.7-7.9-8.5v-2.4
			h22.4c6.4,0,10.7,0.8,14,3c3.6,2.3,5.9,6.2,5.9,11.6c0,7.5-4.8,12.2-11.3,15.1c1.6,2.7,5.3,8.6,7.9,12.5c3.3,4.7,4.9,6.8,6.9,9
			c2.4,2.5,4.4,3.5,6.4,4L641.9,570.4z M609.6,542c4.5,0,7.4-0.7,9.6-2.5c3.4-2.5,4.8-6,4.8-10.8c0-9.3-6.2-12.8-13-12.8
			c-2.5,0-4,0.4-4.7,0.9c-0.8,0.6-1,1.5-1,3.8V542H609.6L609.6,542z"/>
		<path class="st1" d="M659.5,569.7v-2.4c7.2-0.8,7.9-1.1,7.9-8.6V524c0-7.5-0.7-7.9-7.9-8.7v-2.4H683v2.4c-7.3,0.8-7.9,1.1-7.9,8.7
			v34.7c0,7.5,0.7,7.8,7.9,8.6v2.4H659.5z"/>
		<path class="st1" d="M766.5,515.3c-5.6,0.6-7.4,1.5-7.7,5.5c-0.1,2.8-0.3,6.5-0.3,14.6v35.1h-3.3l-37.5-45.8v21.9
			c0,7.9,0.3,11.8,0.4,14.4c0.1,4.5,2.4,5.8,8.7,6.3v2.4h-21.3v-2.4c5.4-0.4,7.5-1.8,7.9-6c0.3-2.8,0.4-6.7,0.4-14.7v-22.3
			c0-2.4-0.1-3.9-1.8-5.8c-1.6-2.2-3.5-2.7-7.8-3.1V513h13.1l37.1,44.1v-21.6c0-8.2-0.1-11.9-0.4-14.5c-0.3-3.9-2.3-5.2-9.3-5.6V513
			h21.6v2.5h0.2L766.5,515.3L766.5,515.3z"/>
		<path class="st1" d="M844.5,545.8c-5.4,0.7-5.8,1.3-5.8,6.4v7.3c0,3,0.1,5.9,0.5,8.3c-5.4,1.3-12.5,3.1-19.9,3.1
			c-19.9,0-32-12.3-32-30c0-18.5,15.1-29.5,32.6-29.5c8.9,0,15.5,1.8,18.2,2.2c0.1,3.3,0.6,8.6,1.3,14.1l-2.6,0.5
			c-2.1-7.4-4.7-10.6-10.2-12.5c-2-0.7-5.6-1.1-8.2-1.1c-13.4,0-22,9.2-22,25.2c0,13.9,7.2,27.7,24.2,27.7c3,0,5.7-0.6,7.4-1.5
			c1.9-1,3-2,3-5.6v-7.2c0-6.4-0.7-7.1-9.1-7.7V543h22.5L844.5,545.8L844.5,545.8z"/>
	</g>
	<g>
		<path class="st0" d="M792,637.8c-0.4-7.5-0.9-16.6-0.8-23.3H791c-1.8,6.3-4.1,13-6.8,20.5l-9.5,26.2h-5.3l-8.7-25.7
			c-2.6-7.6-4.7-14.6-6.2-21h-0.2c-0.2,6.7-0.6,15.8-1,23.8l-1.4,23.1h-6.6l3.8-53.9h8.9l9.2,26.1c2.2,6.6,4.1,12.6,5.4,18.2h0.2
			c1.4-5.4,3.3-11.4,5.7-18.2l9.6-26.1h8.9l3.4,53.9h-6.8L792,637.8z"/>
		<path class="st0" d="M838.8,636.2h-21v19.5h23.4v5.8h-30.3v-53.9H840v5.8h-22.2v17h21V636.2z"/>
		<path class="st0" d="M850.2,661.5v-53.9h7.6l17.3,27.3c4,6.3,7.1,12,9.7,17.5l0.2-0.1c-0.6-7.2-0.8-13.8-0.8-22.2v-22.6h6.6v53.9
			h-7l-17.3-27.3c-3.8-6-7.4-12.2-10.1-18l-0.2,0.1c0.4,6.8,0.6,13.3,0.6,22.2v23L850.2,661.5L850.2,661.5L850.2,661.5z"/>
		<path class="st0" d="M909.8,607.6v31.9c0,12.1,5.4,17.2,12.6,17.2c8,0,13.1-5.3,13.1-17.2v-31.9h7V639c0,16.6-8.7,23.4-20.4,23.4
			c-11,0-19.4-6.3-19.4-23v-31.8L909.8,607.6L909.8,607.6z"/>
		<path class="st0" d="M740.5,671.5v-4h208v4H740.5z"/>
	</g>
</g>
</svg>
