<?xml version="1.0" encoding="utf-8"?>
<!-- Generator: Adobe Illustrator 24.1.2, SVG Export Plug-In . SVG Version: 6.00 Build 0)  -->
<svg version="1.1" id="Layer_1" xmlns="http://www.w3.org/2000/svg" xmlns:xlink="http://www.w3.org/1999/xlink" x="0px" y="0px"
	 viewBox="0 0 323 67" style="enable-background:new 0 0 323 67;" xml:space="preserve">
<style type="text/css">
	@font-face {
      font-family: 'Alegreya Sans SC';
      src: url('AlegreyaSansSC-Regular.tff');
    }
	.st0{fill:#231F20;}
	.st1{enable-background:new    ;}
	.st2{fill:#EBDABF;}
</style>
<rect x="-0.7" y="-0.7" class="st0" width="324.5" height="68.2"/>
<g class="st1">
	<path class="st2" d="M86.9,24.3c1.5,1.7,2.3,4.2,2.3,7.5c0,3.5-0.8,6.2-2.4,8.1c-1.6,1.9-3.9,2.8-6.9,2.8c-2.8,0-4.9-0.9-6.5-2.7
		s-2.3-4.4-2.3-7.7c0-3.4,0.8-6.1,2.4-7.9c1.6-1.8,3.9-2.8,6.8-2.8C83.2,21.7,85.4,22.5,86.9,24.3z M73.8,32.1
		c0,2.9,0.5,5.1,1.6,6.5c1,1.4,2.6,2.1,4.7,2.1c4.3,0,6.4-2.8,6.4-8.5c0-2.9-0.5-5-1.6-6.4c-1-1.4-2.6-2.1-4.7-2.1
		C76,23.8,73.8,26.5,73.8,32.1z"/>
	<path class="st2" d="M105,41.9l0,0.3c-0.9,0.3-1.6,0.4-2.2,0.5l-0.4-0.3c-1.6-2.5-2.9-4.4-3.7-5.8l-3,0v0.8l0.1,5h-2.4l0.1-4.8
		l-0.1-11.2l5.5,0c1.7,0,3,0.4,3.9,1.2c0.9,0.8,1.4,1.9,1.4,3.4c0,1.1-0.3,2.1-0.9,2.9c-0.6,0.9-1.4,1.5-2.5,2
		C102,38,103.4,40,105,41.9z M95.6,34.7l3,0.1c1.9-0.5,2.9-1.7,2.9-3.5c0-0.9-0.3-1.7-0.8-2.1c-0.6-0.5-1.4-0.7-2.5-0.8l-2.5,0
		L95.6,34.7z"/>
	<path class="st2" d="M121.1,28.3c1.3,1.3,1.9,3.2,1.9,5.6c0,2.8-0.7,5-2.1,6.5c-1.4,1.5-3.4,2.3-6.1,2.3c-0.8,0-1.6,0-2.7,0
		c-1,0-2-0.1-2.9-0.1l0.1-4.8l-0.1-11.2l6.3-0.1C118,26.3,119.8,27,121.1,28.3z M119.2,39.1c0.9-1,1.4-2.6,1.4-4.7
		c0-2.1-0.4-3.6-1.3-4.6c-0.9-1-2.2-1.5-4-1.5c-1.1,0-2.3,0-3.7,0.1l-0.1,9l0,3c0.6,0,1.3,0.1,2,0.1s1.3,0.1,1.7,0.1
		C117,40.7,118.3,40.2,119.2,39.1z"/>
	<path class="st2" d="M137.2,40.4l0.2,0.2l-0.2,1.9h-9.7l0.1-4.8l-0.1-11.2h9.8l0.2,0.2l-0.2,1.9l-4.1-0.1l-3.3,0l0,4.9l3.2,0
		l2.8-0.1l0.2,0.2l-0.2,1.9l-3-0.1l-3,0l0,2.2l0,3.1l3.2,0L137.2,40.4z"/>
	<path class="st2" d="M153.2,41.9l0,0.3c-0.9,0.3-1.6,0.4-2.2,0.5l-0.4-0.3c-1.6-2.5-2.9-4.4-3.7-5.8l-3,0v0.8l0.1,5h-2.4l0.1-4.8
		l-0.1-11.2l5.5,0c1.7,0,3,0.4,3.9,1.2c0.9,0.8,1.4,1.9,1.4,3.4c0,1.1-0.3,2.1-0.9,2.9c-0.6,0.9-1.4,1.5-2.5,2
		C150.1,38,151.6,40,153.2,41.9z M143.8,34.7l3,0.1c1.9-0.5,2.9-1.7,2.9-3.5c0-0.9-0.3-1.7-0.8-2.1c-0.6-0.5-1.4-0.7-2.5-0.8l-2.5,0
		L143.8,34.7z"/>
	<path class="st2" d="M176.8,24.3c1.5,1.7,2.3,4.2,2.3,7.5c0,3.5-0.8,6.2-2.4,8.1c-1.6,1.9-3.9,2.8-6.9,2.8c-2.8,0-4.9-0.9-6.5-2.7
		c-1.5-1.8-2.3-4.4-2.3-7.7c0-3.4,0.8-6.1,2.4-7.9c1.6-1.8,3.9-2.8,6.8-2.8C173.1,21.7,175.3,22.5,176.8,24.3z M163.7,32.1
		c0,2.9,0.5,5.1,1.6,6.5c1,1.4,2.6,2.1,4.7,2.1c4.3,0,6.4-2.8,6.4-8.5c0-2.9-0.5-5-1.6-6.4c-1-1.4-2.6-2.1-4.7-2.1
		C165.8,23.8,163.7,26.5,163.7,32.1z"/>
	<path class="st2" d="M196.4,37.7l0,4.8h-2.6l-8.4-12.2h-0.2l0,6.9l0.1,5.3h-2.2l0.1-4.7l-0.1-11.3h2.5l8.4,12.2h0.2l-0.1-12.1
		l2.2-0.2L196.4,37.7z"/>
	<path class="st2" d="M210.9,40.7l-0.2,1.8h-8.5l0.1-4.8l-0.1-11.2h2.4l-0.1,11l0.1,3h6.2L210.9,40.7z"/>
	<path class="st2" d="M216.8,37.5l0.1,5h-2.4l0.1-4.8l-0.1-11.2h2.4L216.8,37.5z"/>
	<path class="st2" d="M236.1,37.7l0,4.8h-2.6l-8.4-12.2h-0.2l0,6.9l0.1,5.3h-2.2l0.1-4.7l-0.1-11.3h2.5l8.4,12.2h0.2l-0.1-12.1
		l2.2-0.2L236.1,37.7z"/>
	<path class="st2" d="M251.7,40.4l0.2,0.2l-0.2,1.9h-9.7l0.1-4.8l-0.1-11.2h9.8l0.2,0.2l-0.2,1.9l-4.1-0.1l-3.3,0l0,4.9l3.2,0
		l2.8-0.1l0.2,0.2l-0.2,1.9l-3-0.1l-3,0l0,2.2l0,3.1l3.2,0L251.7,40.4z"/>
</g>
</svg>
